<svg xmlns="http://www.w3.org/2000/svg" xmlns:xlink="http://www.w3.org/1999/xlink" width="892.042" height="455.594" viewBox="0 0 892.042 455.594">
  <defs>
    <clipPath id="clip-path">
      <rect id="Rectángulo_4208" data-name="Rectángulo 4208" width="892.042" height="455.594" fill="none"/>
    </clipPath>
  </defs>
  <g id="Grupo_31062" data-name="Grupo 31062" transform="translate(0 -0.001)">
    <g id="Grupo_31061" data-name="Grupo 31061" transform="translate(0 0.001)" clip-path="url(#clip-path)">
      <path id="Trazado_27046" data-name="Trazado 27046" d="M132.444,454.494S31.59,346.209,115.388,228.976c74.351-104.018,161.037-96.908,224.636-54.7C367.112,192.258,445.21,176.5,511.681,70.654,602.33-73.685,916.55,13.857,859.258,235.926c-27.725,107.466,84.379,111.372,27.258,218.8Z" transform="translate(-52.808 -0.001)" fill="#d9e9fe"/>
      <rect id="Rectángulo_4179" data-name="Rectángulo 4179" width="125.418" height="125.418" transform="translate(221.975 159.311) rotate(-43.496)" fill="#fb7369"/>
      <rect id="Rectángulo_4180" data-name="Rectángulo 4180" width="25.259" height="125.418" transform="matrix(0.725, -0.688, 0.688, 0.725, 294.633, 90.371)" fill="#f2564b"/>
      <rect id="Rectángulo_4181" data-name="Rectángulo 4181" width="125.418" height="125.418" transform="matrix(0.978, -0.208, 0.208, 0.978, 182.699, 204.642)" fill="#3a4ace"/>
      <rect id="Rectángulo_4182" data-name="Rectángulo 4182" width="125.418" height="25.259" transform="translate(182.699 204.642) rotate(-11.982)" fill="#a6c7f9"/>
      <path id="Trazado_27047" data-name="Trazado 27047" d="M1833.224,532.447s-11.2-21.13,5.58-29.176c0,0,11.824-3.959,20.194-1.538,0,0-16.56,17.457-13.121,20.338s17.05-20.783,17.05-20.783,24.2,3.032,30.993,8.408c0,0-23.972,12.013-19.93,13.958s29.568-9.4,29.568-9.4,21.2,8.71,17,21.891-12.729,15.625-15.987,14.517-21.106-12.956-22.147-10.317,8.7,14.222,16.838,16.492c0,0-19.395,13.642-28.61,6.372s-8.333-15.309-14.109-19.7-11.274-5.618-9.29-2.021,12.979,9.133,15.2,16.474,4.532,12.476-5.792,8.464-25.933-15.738-24.681-24.863Z" transform="translate(-1176.745 -322.202)" fill="#3566c9"/>
      <path id="Trazado_27048" data-name="Trazado 27048" d="M1883.89,580.234s-59.347-15.776-76.419-1.629a44.386,44.386,0,0,1-15.685,14.049l-2.262,3.506s12.834-8.6,16.7-8.431c0,0-1.033-22.517,77.671-7.5" transform="translate(-1150.991 -368.361)" fill="#3566c9"/>
      <path id="Trazado_27049" data-name="Trazado 27049" d="M1760.352,627.141s-14.988,6.612-19.7,23.391l2.285.733s8.054-16.634,17.016-21.831.4-2.294.4-2.294" transform="translate(-1119.558 -402.847)" fill="#3566c9"/>
      <path id="Trazado_27050" data-name="Trazado 27050" d="M1613.108,213.358s-40.727-21.24-22.94-52.242c0,0,14.4-19.139,30.279-24.424,0,0-7.193,45.655,1.384,46.468s4.349-51.45,4.349-51.45,41.591-21.554,58.2-20.444c0,0-24.851,45.112-16.337,43.789s36.554-47.064,36.554-47.064,43.025-9.3,50.732,16.131-3.128,38.584-9.489,40.377-47.505,2.485-46.278,7.794,29.255,13.028,44.6,7.76c0,0-15.835,42.7-38.332,41.236s-29.854-15.149-43.773-15.8-23.956,3.386-16.9,6.918,30.482.319,41.982,9.52,20.756,14.806.052,19.7-58.171,3.336-66.126-12.465Z" transform="translate(-1019.877 -68.391)" fill="#3a4ace"/>
      <path id="Trazado_27051" data-name="Trazado 27051" d="M1768.094,180.293s-111.083,39.661-122.693,80.635c0,0,1.075,18.144-9.521,39.309l.238,8.012s10.94-27.59,17.238-31.519c0,0-26.153-34.5,114.738-96.437" transform="translate(-1052.17 -115.962)" fill="#6d89d0"/>
      <path id="Trazado_27052" data-name="Trazado 27052" d="M1618.984,507.183s-16.515,26.783-5.7,58.463l4.414-1.328s-5.368-35.09,3.154-53.072-1.866-4.064-1.866-4.064" transform="translate(-1035.274 -322.908)" fill="#6d89d0"/>
      <path id="Trazado_27053" data-name="Trazado 27053" d="M1100.939,832.3s-.383-34.344-27.073-32.973c0,0-17.635,3.125-26.531,11.926,0,0,32.876,10.651,30.517,16.646s-35.779-14.509-35.779-14.509-28.444,20.44-33.324,31.888c0,0,38.489-1.307,34.727,3.922s-43.751,8.451-43.751,8.451-20.76,25.542-6.41,39.286,26.786,10.97,30.135,7.334,17.73-30.836,20.855-28.221-1.212,23.916-9.918,32.367c0,0,33.834,3.891,40.467-11.607s0-25.032,4.273-34.535,10.364-14.828,10.332-8.929-10.1,20.433-7.857,31.215,2.85,18.85,13.118,6.7,21.908-37.66,14.063-48.311Z" transform="translate(-635.632 -514.091)" fill="#3566c9"/>
      <path id="Trazado_27054" data-name="Trazado 27054" d="M1037.013,945.559s64.033-60.651,95.283-54.529c0,0,11.735,6.856,29.432,6.951l5.262,2.87s-22.1-2.041-26.85.829c0,0-14.159-29.113-103.128,43.878" transform="translate(-666.989 -572.817)" fill="#3566c9"/>
      <path id="Trazado_27055" data-name="Trazado 27055" d="M1377.312,911.183s23.447-1.95,40.913,15.98l-2.379,2.494S1394.264,914.2,1379.39,913.8s-2.078-2.62-2.078-2.62" transform="translate(-882.571 -586.018)" fill="#3566c9"/>
      <path id="Trazado_27056" data-name="Trazado 27056" d="M1130.853,482.04s20.363-10.62,11.47-26.121c0,0-7.2-9.569-15.14-12.212,0,0,3.6,22.827-.692,23.234s-2.173-25.725-2.173-25.725-20.8-10.777-29.1-10.222c0,0,12.426,22.555,8.169,21.894s-18.277-23.532-18.277-23.532-21.512-4.65-25.366,8.065,1.563,19.292,4.745,20.188,23.752,1.242,23.139,3.9-14.628,6.514-22.3,3.88c0,0,7.918,21.352,19.166,20.618s14.927-7.574,21.886-7.9,11.978,1.693,8.451,3.459-15.241.159-20.992,4.76-10.378,7.4-.026,9.85,29.086,1.668,33.063-6.232Z" transform="translate(-680.753 -275.622)" fill="#3a4ace"/>
      <path id="Trazado_27057" data-name="Trazado 27057" d="M1089.5,465.508s55.541,19.83,61.347,40.317a42.626,42.626,0,0,0,4.76,19.655l-.119,4.006s-5.47-13.795-8.619-15.76c0,0,13.077-17.252-57.369-48.218" transform="translate(-700.75 -299.407)" fill="#6d89d0"/>
      <path id="Trazado_27058" data-name="Trazado 27058" d="M1270.063,628.953s8.258,13.391,2.851,29.232l-2.207-.664s2.684-17.544-1.577-26.536.933-2.032.933-2.032" transform="translate(-815.203 -402.88)" fill="#6d89d0"/>
      <path id="Trazado_27059" data-name="Trazado 27059" d="M1397.259,179.791l-2.007-1.664a5.052,5.052,0,0,1-.664-7.106l13.961-16.838a5.052,5.052,0,0,1,7.106-.664l2.874,2.383a.988.988,0,0,1-1.261,1.521l-2.875-2.383a3.075,3.075,0,0,0-4.325.4l-13.96,16.838a3.075,3.075,0,0,0,.4,4.325l2.007,1.664a3.075,3.075,0,0,0,4.325-.4l9.268-11.177a.987.987,0,0,1,1.52,1.261l-9.268,11.178a5.052,5.052,0,0,1-7.106.664" transform="translate(-896.229 -97.995)" fill="#fb7369"/>
      <path id="Trazado_27060" data-name="Trazado 27060" d="M1355.228,203.692l-3.6-2.982a8.174,8.174,0,0,1-.677-11.513l20.989-25.314a.987.987,0,1,1,1.52,1.261l-20.989,25.314a6.2,6.2,0,0,0,.417,8.731l3.6,2.983a6.2,6.2,0,0,0,8.657-1.208l23.908-28.835a6.2,6.2,0,0,0-.417-8.731.988.988,0,1,1,1.261-1.52,8.174,8.174,0,0,1,.676,11.513l-23.907,28.834a8.173,8.173,0,0,1-11.438,1.468" transform="translate(-867.598 -103.971)" fill="#fb7369"/>
      <path id="Trazado_27061" data-name="Trazado 27061" d="M693.222,258.538l-2.229,1.351a5.053,5.053,0,0,1-6.932-1.7l-11.336-18.705a5.052,5.052,0,0,1,1.7-6.932l3.193-1.935a.987.987,0,0,1,1.024,1.689l-3.193,1.935a3.075,3.075,0,0,0-1.034,4.219l11.337,18.705a3.074,3.074,0,0,0,4.219,1.035l2.229-1.351a3.075,3.075,0,0,0,1.035-4.219l-7.526-12.417a.988.988,0,0,1,1.689-1.024l7.526,12.417a5.053,5.053,0,0,1-1.7,6.932" transform="translate(-432.215 -148.237)" fill="#3a4ace"/>
      <path id="Trazado_27062" data-name="Trazado 27062" d="M708.462,275.394l-4,2.422a8.173,8.173,0,0,1-11.1-3.131l-17.044-28.122a.988.988,0,0,1,1.689-1.024l17.044,28.122a6.2,6.2,0,0,0,8.386,2.466l4-2.422a6.2,6.2,0,0,0,1.694-8.576L689.719,233.1a6.2,6.2,0,0,0-8.386-2.466.988.988,0,0,1-1.024-1.689,8.173,8.173,0,0,1,11.1,3.131l19.414,32.033a8.173,8.173,0,0,1-2.359,11.288" transform="translate(-434.908 -146.563)" fill="#3a4ace"/>
      <path id="Trazado_27063" data-name="Trazado 27063" d="M1928.01,925.259H1737.843a3.356,3.356,0,0,1-3.346-3.347V736.774a3.356,3.356,0,0,1,3.346-3.346H1928.01a3.356,3.356,0,0,1,3.346,3.346V921.913a3.356,3.356,0,0,1-3.346,3.347" transform="translate(-1115.599 -471.729)" fill="#3566c9"/>
      <path id="Trazado_27064" data-name="Trazado 27064" d="M1905.943,925.874H1715.49a3.213,3.213,0,0,1-3.2-3.2V745.445a3.213,3.213,0,0,1,3.2-3.2h190.453a3.212,3.212,0,0,1,3.2,3.2V922.671a3.212,3.212,0,0,1-3.2,3.2" transform="translate(-1101.313 -477.398)" fill="#a6c7f9"/>
      <path id="Trazado_27065" data-name="Trazado 27065" d="M1864.733,737.482V921.208a4.065,4.065,0,0,1-4.051,4.052H1671.924a4.063,4.063,0,0,1-4.051-4.052V737.482a4.063,4.063,0,0,1,4.051-4.051h188.757a4.065,4.065,0,0,1,4.051,4.051" transform="translate(-1072.748 -471.731)" fill="#739af0"/>
      <rect id="Rectángulo_4183" data-name="Rectángulo 4183" width="12.224" height="191.829" transform="translate(755.298 261.7)" fill="#a6c7f9"/>
      <rect id="Rectángulo_4184" data-name="Rectángulo 4184" width="230.073" height="317.307" transform="translate(444.85 136.243)" fill="#f2564b"/>
      <rect id="Rectángulo_4185" data-name="Rectángulo 4185" width="230.073" height="317.307" transform="translate(438.925 136.243)" fill="#fb7369"/>
      <rect id="Rectángulo_4186" data-name="Rectángulo 4186" width="198.514" height="273.783" transform="translate(454.704 158.005)" fill="#d9e9fe"/>
      <path id="Trazado_27066" data-name="Trazado 27066" d="M1516.829,406.228h-86.182a.61.61,0,0,1-.608-.608V371.98a.61.61,0,0,1,.608-.608h86.182a.61.61,0,0,1,.608.608v33.64a.61.61,0,0,1-.608.608" transform="translate(-919.777 -238.861)" fill="#fb7369"/>
      <rect id="Rectángulo_4187" data-name="Rectángulo 4187" width="198.514" height="0.837" transform="translate(454.704 170.419)" fill="#739af0"/>
      <rect id="Rectángulo_4188" data-name="Rectángulo 4188" width="198.514" height="0.837" transform="translate(454.704 184.807)" fill="#739af0"/>
      <rect id="Rectángulo_4189" data-name="Rectángulo 4189" width="198.514" height="0.837" transform="translate(454.704 199.195)" fill="#739af0"/>
      <rect id="Rectángulo_4190" data-name="Rectángulo 4190" width="198.514" height="0.837" transform="translate(454.704 213.583)" fill="#739af0"/>
      <rect id="Rectángulo_4191" data-name="Rectángulo 4191" width="198.514" height="0.837" transform="translate(454.704 227.97)" fill="#739af0"/>
      <rect id="Rectángulo_4192" data-name="Rectángulo 4192" width="198.514" height="0.837" transform="translate(454.704 242.358)" fill="#739af0"/>
      <rect id="Rectángulo_4193" data-name="Rectángulo 4193" width="198.514" height="0.837" transform="translate(454.704 256.746)" fill="#739af0"/>
      <rect id="Rectángulo_4194" data-name="Rectángulo 4194" width="198.514" height="0.837" transform="translate(454.704 271.134)" fill="#739af0"/>
      <rect id="Rectángulo_4195" data-name="Rectángulo 4195" width="198.514" height="0.837" transform="translate(454.704 285.522)" fill="#739af0"/>
      <rect id="Rectángulo_4196" data-name="Rectángulo 4196" width="198.514" height="0.837" transform="translate(454.704 301.18)" fill="#739af0"/>
      <rect id="Rectángulo_4197" data-name="Rectángulo 4197" width="198.514" height="0.837" transform="translate(454.704 315.568)" fill="#739af0"/>
      <rect id="Rectángulo_4198" data-name="Rectángulo 4198" width="198.514" height="0.837" transform="translate(454.704 329.956)" fill="#739af0"/>
      <rect id="Rectángulo_4199" data-name="Rectángulo 4199" width="198.514" height="0.837" transform="translate(454.704 344.344)" fill="#739af0"/>
      <rect id="Rectángulo_4200" data-name="Rectángulo 4200" width="198.514" height="0.837" transform="translate(454.704 358.732)" fill="#739af0"/>
      <rect id="Rectángulo_4201" data-name="Rectángulo 4201" width="198.514" height="0.837" transform="translate(454.704 373.119)" fill="#739af0"/>
      <rect id="Rectángulo_4202" data-name="Rectángulo 4202" width="198.514" height="0.837" transform="translate(454.704 387.507)" fill="#739af0"/>
      <rect id="Rectángulo_4203" data-name="Rectángulo 4203" width="198.514" height="0.836" transform="translate(454.704 401.895)" fill="#739af0"/>
      <rect id="Rectángulo_4204" data-name="Rectángulo 4204" width="198.514" height="0.837" transform="translate(454.704 416.283)" fill="#739af0"/>
      <path id="Trazado_27067" data-name="Trazado 27067" d="M561,863.626c1.056-.745,3.45-2.386,3.575-2.021a1.607,1.607,0,0,1-.325,1.175c1.449-.541,2.919-.9,6.4-.228a2.608,2.608,0,0,1,1.711,1.126,1.15,1.15,0,0,1-.4,1.794c-1.775,1.1-1.26.442-3.727,2.049s-5.487,2.017-7.291.89l-2.422-.4-.3-3.983s1.38-.165,2.782-.4" transform="translate(-359.037 -554.137)" fill="#fc9490"/>
      <path id="Trazado_27068" data-name="Trazado 27068" d="M388.181,750.764s5.709,6.773,12.978,3.939a22.024,22.024,0,0,0,1.586-6.57c0-.343.007-.676.012-.992.039-3.14.145-4.9.145-4.9H402.9c-.331-.137-11.113-4.565-11.1-4.2.185,8.492-3.61,12.723-3.61,12.723" transform="translate(-249.671 -474.682)" fill="#fc9490"/>
      <path id="Trazado_27069" data-name="Trazado 27069" d="M401.318,743.612a16.864,16.864,0,0,0,9.885,7.075c.039-3.14.145-4.9.145-4.9h-.007c-.3-.08-10.331-2.74-10.022-2.172" transform="translate(-258.117 -478.228)" fill="#ff8585"/>
      <path id="Trazado_27070" data-name="Trazado 27070" d="M407.6,712.907s-12.126,2.851-13.785-4.728-4.341-12.315,3.331-14.455,9.815.421,10.984,2.816,2.583,15.431-.529,16.368" transform="translate(-252.116 -445.676)" fill="#fc9490"/>
      <path id="Trazado_27071" data-name="Trazado 27071" d="M383.095,699.534c-.166.106-2.775.908-7.716-8.936a8.572,8.572,0,0,1,.5-7.842c1.808-2.954,8.219-5.276,13.546-6.286s6.606,1.987,7.86,5c1.317,3.162,5.12,5.766,5.12,5.766-4.593,2.566-10.125-1.1-12.042-.5s-2.594,3.624-2.737,4.592-.365,1.773-2.775.908-1.09,3.415-.7,4.234c0,0,.328,2.18-1.055,3.066" transform="translate(-240.976 -434.965)" fill="#a9453d"/>
      <path id="Trazado_27072" data-name="Trazado 27072" d="M283.017,1238.463h-7.343c-1.539,0-3.25-1.541-3.678-4.363s-3.592-4.363-4.277-6.672,2.824-5.562,2.824-5.562l.587-.753.61-.786,5.816,1.368s.144,1.385.234,3.149c.062,1.273.1,2.746.024,4.037-.171,3.081.862,6.4,3.6,7s1.606,2.585,1.606,2.585" transform="translate(-172.135 -784.894)" fill="#2c3a64"/>
      <path id="Trazado_27073" data-name="Trazado 27073" d="M416.516,1252.052H397.053a1.762,1.762,0,0,1-.413-.12c-1.3-.651-.893-5.626-.736-7.163.03-.285.051-.452.051-.452s6.844-5.474,7.786-1.283c.03.131.064.26.1.386v0c1.188,3.922,6.5,5.7,9.567,6.2,2.344.381,2.952,1.747,3.108,2.43" transform="translate(-254.519 -798.484)" fill="#2c3a64"/>
      <path id="Trazado_27074" data-name="Trazado 27074" d="M390.663,953.362s-1.039,12.968-2.261,28.556c-1.66,21.176-3.657,47.186-3.855,52.113-.341,8.557-1.712,22.243-1.712,22.243s-3.249,3.251-9.753,1.881a223.914,223.914,0,0,1-7.45-40.21c-.026-.339-.051-.68-.077-1.022-1.54-21.045-3.934-65.359-3.934-65.359Z" transform="translate(-232.589 -612.031)" fill="#3a4ace"/>
      <path id="Trazado_27075" data-name="Trazado 27075" d="M390.663,953.362s-1.039,12.968-2.261,28.556l-22.769,36.027c-.026-.339-.051-.68-.077-1.022-1.54-21.045-3.934-65.359-3.934-65.359Z" transform="translate(-232.589 -612.031)" fill="#293eb7"/>
      <path id="Trazado_27076" data-name="Trazado 27076" d="M330.711,945.65s-18.735,46.965-31.053,69.036-16.168,28.23-16.168,28.23-7.057-2.823-7.7-4.748c0,0,4.711-42.609,12.96-53,4.661-5.869,10.137-23.483,10.394-29.642s1.668-18.35,1.668-18.35Z" transform="translate(-177.383 -602.779)" fill="#3a4ace"/>
      <path id="Trazado_27077" data-name="Trazado 27077" d="M298.626,935.009l-.2,3.02a6.509,6.509,0,0,1-3.589,8.119s-2.389.964-2.486-.9.209-1.16.015-3.78.835-5.094,2.568-5.928l1.422-1.641Z" transform="translate(-188.023 -600.672)" fill="#fc9490"/>
      <path id="Trazado_27078" data-name="Trazado 27078" d="M299.21,835.545c2.074.666,2.406.515,2.406.515S311.709,817.685,312.732,816,334.161,795.4,334.161,795.4l-5.244-19.556S305.706,805.9,303.2,810.21c-4.142,7.127-6.569,23.679-6.569,23.679a6.07,6.07,0,0,0,2.579,1.656" transform="translate(-190.788 -499.008)" fill="#1e3d70"/>
      <path id="Trazado_27079" data-name="Trazado 27079" d="M381.793,795.435c-.073,4.016-.306,8.53-.621,13.116l-.058.816c-.2,2.841-.42,5.688-.67,8.464-.1,1.113-.207,2.214-.319,3.294l-.017.145c-.009.4-.057.844-.1,1.244-1.023,10.4-2.1,18.615-2.295,18.741a1.165,1.165,0,0,1-.8.2c-2.727-.343-10.864.276-17.526-1.173a50.5,50.5,0,0,1-15.591-6.465c-.681-.4-2.233-1.468-2.107-2.265.124-.876.353-2.141.644-3.731a201.926,201.926,0,0,0,3.351-26.183q.173-3.112.5-6.138a93.141,93.141,0,0,1,2.717-14.657c2.284-8.225,7.116-14.386,11.327-16.85.55-.308,2.035,1.439,4.754,3.184,2.511,1.61,4.891.876,7.462.652l2.526,3.681a25.272,25.272,0,0,1,6.454,13.455q.09.667.154,1.421a88.415,88.415,0,0,1,.212,9.045" transform="translate(-219.764 -491.368)" fill="#2a4e96"/>
      <path id="Trazado_27080" data-name="Trazado 27080" d="M420.467,827.54c-.073,4.016-.306,8.53-.621,13.116l-.058.816c-15.578-9.751-17.977-27.593-17.977-27.593a42.608,42.608,0,0,1,18.444,4.617,88.415,88.415,0,0,1,.212,9.045" transform="translate(-258.438 -523.473)" fill="#1e3d70"/>
      <path id="Trazado_27081" data-name="Trazado 27081" d="M447.7,816.092c.161-2.31-1.036-2.7-1.036-2.7s-23.488-4.256-25.484-4.884-19.07-18.389-19.07-18.389-6.544-7.38-11.9-5.751c-4.656,1.417-6.477,5.049-7.1,8.509a10.192,10.192,0,0,0,4.733,10.463c8.016,4.916,24.063,14.6,27.842,15.711,8.411,2.466,31.011.2,31.011.2a7.3,7.3,0,0,0,1-3.161" transform="translate(-246.306 -504.344)" fill="#2a4e96"/>
      <rect id="Rectángulo_4205" data-name="Rectángulo 4205" width="186.613" height="109.206" transform="translate(198.509 344.344)" fill="#a6c7f9"/>
      <path id="Trazado_27082" data-name="Trazado 27082" d="M560.186,983.251H545.264a.054.054,0,0,1-.054-.054v-2.965a.054.054,0,0,1,.054-.054h14.922a.054.054,0,0,1,.053.054V983.2a.053.053,0,0,1-.053.054" transform="translate(-350.67 -630.434)" fill="#fb7369"/>
      <path id="Trazado_27083" data-name="Trazado 27083" d="M560.186,999.7H545.264a.054.054,0,0,1-.054-.053v-2.966a.054.054,0,0,1,.054-.053h14.922a.053.053,0,0,1,.053.053v2.966a.053.053,0,0,1-.053.053" transform="translate(-350.67 -641.017)" fill="#fb7369"/>
      <path id="Trazado_27084" data-name="Trazado 27084" d="M560.186,1044.039H545.264a.054.054,0,0,1-.054-.053v-2.965a.054.054,0,0,1,.054-.053h14.922a.053.053,0,0,1,.053.053v2.965a.053.053,0,0,1-.053.053" transform="translate(-350.67 -669.533)" fill="#fb7369"/>
      <path id="Trazado_27085" data-name="Trazado 27085" d="M560.186,1060.492H545.264a.054.054,0,0,1-.054-.054v-2.966a.054.054,0,0,1,.054-.053h14.922a.053.053,0,0,1,.053.053v2.966a.053.053,0,0,1-.053.054" transform="translate(-350.67 -680.114)" fill="#fb7369"/>
      <path id="Trazado_27086" data-name="Trazado 27086" d="M560.186,1104.827H545.264a.054.054,0,0,1-.054-.053v-2.965a.054.054,0,0,1,.054-.054h14.922a.054.054,0,0,1,.053.054v2.965a.053.053,0,0,1-.053.053" transform="translate(-350.67 -708.63)" fill="#fb7369"/>
      <path id="Trazado_27087" data-name="Trazado 27087" d="M560.186,1121.28H545.264a.054.054,0,0,1-.054-.053v-2.965a.054.054,0,0,1,.054-.054h14.922a.053.053,0,0,1,.053.054v2.965a.053.053,0,0,1-.053.053" transform="translate(-350.67 -719.213)" fill="#fb7369"/>
      <path id="Trazado_27088" data-name="Trazado 27088" d="M560.186,1165.616H545.264a.054.054,0,0,1-.054-.054V1162.6a.054.054,0,0,1,.054-.054h14.922a.053.053,0,0,1,.053.054v2.965a.054.054,0,0,1-.053.054" transform="translate(-350.67 -747.728)" fill="#fb7369"/>
      <path id="Trazado_27089" data-name="Trazado 27089" d="M560.186,1182.068H545.264a.054.054,0,0,1-.054-.053v-2.966a.054.054,0,0,1,.054-.054h14.922a.053.053,0,0,1,.053.054v2.966a.053.053,0,0,1-.053.053" transform="translate(-350.67 -758.31)" fill="#fb7369"/>
      <path id="Trazado_27090" data-name="Trazado 27090" d="M560.186,1226.4H545.264a.054.054,0,0,1-.054-.053v-2.965a.054.054,0,0,1,.054-.053h14.922a.053.053,0,0,1,.053.053v2.965a.053.053,0,0,1-.053.053" transform="translate(-350.67 -786.827)" fill="#fb7369"/>
      <path id="Trazado_27091" data-name="Trazado 27091" d="M560.186,1242.856H545.264a.054.054,0,0,1-.054-.053v-2.966a.054.054,0,0,1,.054-.053h14.922a.053.053,0,0,1,.053.053v2.966a.053.053,0,0,1-.053.053" transform="translate(-350.67 -797.408)" fill="#fb7369"/>
      <path id="Trazado_27092" data-name="Trazado 27092" d="M1023.927,919.609v125.418H898.509V919.609Z" transform="translate(-577.906 -591.477)" fill="#f2564b"/>
      <path id="Trazado_27093" data-name="Trazado 27093" d="M1066.8,919.609v23.7s.7,43.9,2.271,58.893c2.963,28.311,11.632,42.822,11.632,42.822H954.954s-10.644-15.827-13.567-40.956c-1.755-15.088,0-60.759,0-60.759v-23.7Z" transform="translate(-604.982 -591.477)" fill="#fb7369"/>
      <rect id="Rectángulo_4206" data-name="Rectángulo 4206" width="125.418" height="23.703" transform="translate(336.405 328.132)" fill="#f2564b"/>
      <path id="Trazado_27094" data-name="Trazado 27094" d="M892,1272.627H.041a.041.041,0,0,1-.041-.04v-2.251a.041.041,0,0,1,.041-.041H892a.041.041,0,0,1,.041.041v2.251a.041.041,0,0,1-.041.04" transform="translate(0 -817.033)" fill="#2e3552"/>
      <path id="Trazado_27095" data-name="Trazado 27095" d="M1438.6,779.972l-1.419-2.678s.7-4.772-5.275-7.791a2.918,2.918,0,0,0-3.419.892c-1.136,1.642,2.166,1.345,1.989,4.154a5.166,5.166,0,0,0,3.012,5.371l1.534,1.777Z" transform="translate(-918.625 -494.788)" fill="#fc9490"/>
      <path id="Trazado_27096" data-name="Trazado 27096" d="M1503.417,779.635s-5.135,25.2-33.393,33.438c-8.821,2.57-28.861-26.47-28.861-26.47s.7-2.677,5.119-2.062c0,0,19.513,12.918,21.969,14.322,2.18,1.245,16.514-16.007,23.049-18.789a16.679,16.679,0,0,1,12.118-.437" transform="translate(-926.932 -500.854)" fill="#293eb7"/>
      <rect id="Rectángulo_4207" data-name="Rectángulo 4207" width="5.278" height="26.549" transform="matrix(0.152, -0.988, 0.988, 0.152, 500.49, 279.041)" fill="#fb7369"/>
      <path id="Trazado_27097" data-name="Trazado 27097" d="M1386.678,769.08l5.7,3.546.8-5.217Z" transform="translate(-891.887 -493.585)" fill="#fc9490"/>
      <path id="Trazado_27098" data-name="Trazado 27098" d="M1480.035,779.261l-.773,5.035a.1.1,0,0,1-.109.08l-2.957-.454.8-5.217,2.963.455a.089.089,0,0,1,.075.1" transform="translate(-949.465 -500.85)" fill="#fc9490"/>
      <path id="Trazado_27099" data-name="Trazado 27099" d="M1687.289,1222.6s3.505,3.2,2.822,5.472-3.847,3.789-4.275,6.567-2.137,4.294-3.677,4.294h-7.337s-1.133-1.955,1.6-2.544,3.767-3.855,3.6-6.885a53.353,53.353,0,0,1,.256-7.072l5.814-1.347Z" transform="translate(-1077.067 -785.378)" fill="#293eb7"/>
      <path id="Trazado_27100" data-name="Trazado 27100" d="M1552.507,1243.437s.629,7.281-.91,8.038l-19.7-.041s0-2.273,3.163-2.778,8.722-2.358,9.662-6.482,7.781,1.263,7.781,1.263" transform="translate(-985.293 -797.946)" fill="#293eb7"/>
      <path id="Trazado_27101" data-name="Trazado 27101" d="M1543.047,957.1s1.039,12.762,2.26,28.1c1.66,20.839,3.655,46.437,3.853,51.287.341,8.421,1.711,21.89,1.711,21.89s3.247,3.2,9.747,1.851a217.35,217.35,0,0,0,7.446-39.573c.026-.333.052-.669.077-1.005,1.539-20.71,3.932-64.322,3.932-64.322Z" transform="translate(-992.462 -614.45)" fill="#fb7369"/>
      <path id="Trazado_27102" data-name="Trazado 27102" d="M1543.047,957.1s1.039,12.762,2.26,28.1l22.757,35.455c.026-.333.052-.669.077-1.005,1.539-20.71,3.932-64.322,3.932-64.322Z" transform="translate(-992.462 -614.45)" fill="#f2564b"/>
      <path id="Trazado_27103" data-name="Trazado 27103" d="M1556.343,949.505s18.725,46.22,31.037,67.941,16.16,27.783,16.16,27.783,7.054-2.778,7.7-4.672c0,0-4.708-41.933-12.954-52.156-4.659-5.776-10.132-23.11-10.388-29.172s-1.667-18.059-1.667-18.059Z" transform="translate(-1001.013 -605.345)" fill="#fb7369"/>
      <path id="Trazado_27104" data-name="Trazado 27104" d="M1589.385,737.235s-12.67,6.113-19.973,3.845a17.25,17.25,0,0,1,4.944-3.956c-.252-1.465-.449-2.738-.562-3.817a35.259,35.259,0,0,1-.309-3.9l4.888-3.844,4.635-3.679c-.365,10.345,6.377,15.352,6.377,15.352" transform="translate(-1009.419 -464.303)" fill="#fc9490"/>
      <path id="Trazado_27105" data-name="Trazado 27105" d="M1540.349,830.494a1.14,1.14,0,0,0,.761.3c2.752-.056,10.757,1.465,17.526.774a51.779,51.779,0,0,0,16.209-4.589c.731-.332,2.39-1.218,2.36-1.991-.03-.886-.112-2.13-.223-3.736-.228-3.16-.547-7.648-.649-12.967-.076-3.944-.033-8.345.253-13.007.016-.313.033-.628.046-.945.082-1.708.122-3.43.122-5.113a88.771,88.771,0,0,0-1.149-15.212c-1.38-8.023-3.964-14.3-7.783-17.1-.506-.389-3.654,1.132-6.574,2.544a12.147,12.147,0,0,1-7.865.942l-2.528,2.212a24.963,24.963,0,0,0-7.924,12.447c-1.235,4.924-1.965,13.83-2.361,23.07-.194,4.2-.336,8.408-.392,12.418v.138c-.03.415-.03.833-.03,1.247-.138,10.261,0,18.422.2,18.561" transform="translate(-990.563 -486.796)" fill="#3a4ace"/>
      <path id="Trazado_27106" data-name="Trazado 27106" d="M1590.435,732.47s-3.2,5.836-9.3,7.469a35.309,35.309,0,0,1-.309-3.9l4.888-3.844Z" transform="translate(-1016.761 -470.935)" fill="#f48484"/>
      <path id="Trazado_27107" data-name="Trazado 27107" d="M1570.33,707.006s12.086,1.977,13.221-5.453,3.459-12.179-4.21-13.756-9.6,1.036-10.6,3.426-1.529,15.077,1.585,15.783" transform="translate(-1008.493 -442.071)" fill="#fc9490"/>
      <path id="Trazado_27108" data-name="Trazado 27108" d="M1580.9,678.771c.11-.126.363-.227.926-.258a2.282,2.282,0,0,0-1.053-.3,2.831,2.831,0,0,0-1.882-2.506,1.691,1.691,0,0,1,.819,1.219c-1.561-1.6-4.906-2.77-14.169-2.039-12.207.963-8.184,8.779-6.6,9.711s5.558-1.623,8.5-1.389,3.505,4.488,4.5,5.072.607-.448,1.958-1.059,1.48,1.629,1.089,3.085,1.467,3.377,1.467,3.377l1.877-2.021c1.876-2.021,3.645-10.581,2.792-12.406-.076-.161-.15-.324-.227-.489" transform="translate(-1001.451 -433.935)" fill="#2c3a64"/>
      <path id="Trazado_27109" data-name="Trazado 27109" d="M1446.486,782.584s.416-1.642-.723-2.381-2.188-2.747-2.668-2.474c-1,.563.544,2.315.263,4.5-.1.765,1.683,2.77,3.129.354" transform="translate(-927.956 -500.206)" fill="#fc9490"/>
      <path id="Trazado_27110" data-name="Trazado 27110" d="M1628.311,856.19c-.075-3.944-.033-8.345.254-13.007.017-.313.033-.628.046-.945-1.149-5.692-2.887-10.742-5.445-10.906,0,0-7.621,11.976,5.145,24.858" transform="translate(-1042.541 -534.699)" fill="#293eb7"/>
      <path id="Trazado_27111" data-name="Trazado 27111" d="M1655.881,956.594s-.635,6.176-1.332,7.344-3.665,4.9-4.929,5.634.772-4.919.514-6.018-1.04,2.007-1.6,2.08-.414-2.723-.434-3.74,2.711-3.53,3.673-5.7,4.1.4,4.1.4" transform="translate(-1060.03 -614.451)" fill="#fc9490"/>
      <path id="Trazado_27112" data-name="Trazado 27112" d="M1607.355,756.853s7.648,3.621,11.314,9.188c5.687,8.635,12.28,40.107,12.4,43.021s-4.812,23.489-4.812,23.489-5-.329-6.294-2.855c0,0,1-21.14.366-22.5s-20.86-28.357-18.586-34.118,5.61-16.226,5.61-16.226" transform="translate(-1030.1 -486.795)" fill="#3a4ace"/>
    </g>
  </g>
</svg>
