<svg xmlns="http://www.w3.org/2000/svg" xmlns:xlink="http://www.w3.org/1999/xlink" width="765.253" height="392.738" viewBox="0 0 765.253 392.738">
  <defs>
    <clipPath id="clip-path">
      <rect id="Rectángulo_4178" data-name="Rectángulo 4178" width="765.253" height="392.738" transform="translate(0 0)" fill="none"/>
    </clipPath>
  </defs>
  <g id="Grupo_31060" data-name="Grupo 31060" transform="translate(0 -0.001)">
    <g id="Grupo_31059" data-name="Grupo 31059" transform="translate(0 0.001)" clip-path="url(#clip-path)">
      <path id="Trazado_26983" data-name="Trazado 26983" d="M138.345,390.511S-9.484,242.553,82.319,154.088s164.363,26.38,214.543,17.918C360.378,161.3,387.847.154,482.8,0,590.837-.173,670.133,63.693,627.894,215.794c-31.154,112.184,182.988,20.316,151.537,176.9Z" transform="translate(-36.735 -0.001)" fill="#ebf2f9"/>
      <path id="Trazado_26984" data-name="Trazado 26984" d="M883.014,1055.061c-20.1-3.234-35.268,3.806-49.857,1.782-11.634-1.614-17.7-13.385-33.332-16.719,3.719-2.194,8.052-4.936,10.122-6.931,4.023-3.876,9.8-11.626,0-11.931-7.053-.219-12.546,11.529-15.072,18.138a48.108,48.108,0,0,0-7.551-.008c3.227-10.4,9.519-30.532,11.059-34.4,2.095-5.263-6.7-22.808-17.073-3.117-7.273,13.812-2.334,29.772,1.264,38.072a57.865,57.865,0,0,0-8.083,1.92c-8.57-19.55-35.83-75.288-65.38-68.362-32.215,7.55,36.8,45.022,54.211,72.8-14.22,6.591-26.715,14.6-48.313,8.751-57.4-15.539-61.951,19.424-61.951,19.424l256.5.087s-6.453-16.277-26.548-19.512" transform="translate(-458.978 -683.777)" fill="#acd29a"/>
      <path id="Trazado_26985" data-name="Trazado 26985" d="M1184.263,782.241c.264,2.469,3.757,2.379,7.7,1.788s2.927.446,8.478.339,7.4-2,7.644-2.806c.216-.711-2.476-1.215-5.358-1.816-.362-.074-.726-.153-1.09-.232-3.251-.712-5.465-3.054-8.293-5.069-2.679-1.909-4.484-10.656-4.484-10.656l-7.891-.046s2.479,7.91,3.771,10.661c.76,1.618-.05,3.7-.3,5.254a9.693,9.693,0,0,0-.177,2.583" transform="translate(-830.004 -536.769)" fill="#ffb07b"/>
      <path id="Trazado_26986" data-name="Trazado 26986" d="M1199.671,821.664c3.947-.591,2.927.446,8.478.339s7.4-2,7.644-2.806c.216-.711-2.476-1.215-5.358-1.816l-.032.053a15.557,15.557,0,0,1-8.093,1.729c-3.736-.249-7.588-1.678-10.167-1.871a9.7,9.7,0,0,0-.177,2.583c.264,2.469,3.757,2.379,7.7,1.788" transform="translate(-837.708 -574.405)" fill="#365da4"/>
      <path id="Trazado_26987" data-name="Trazado 26987" d="M984.428,775.919c.171,2.477,3.665,2.52,7.631,2.077s2.908.556,8.459.658,7.472-1.724,7.745-2.516c.243-.7-2.428-1.307-5.286-2.016-.359-.088-.72-.18-1.081-.273-3.222-.834-5.346-3.258-8.1-5.378-2.605-2.008-.462-10.339-.462-10.339l-5.987-2.827s-.824,8.585-1.268,12.928c-.182,1.778-1.068,3.564-1.381,5.112a9.71,9.71,0,0,0-.275,2.575" transform="translate(-691.86 -530.839)" fill="#ffb07b"/>
      <path id="Trazado_26988" data-name="Trazado 26988" d="M992.059,820.658c3.967-.443,2.908.556,8.459.658s7.472-1.724,7.745-2.516c.243-.7-2.428-1.307-5.286-2.016l-.034.052a15.557,15.557,0,0,1-8.152,1.423c-3.724-.39-7.519-1.962-10.089-2.252a9.726,9.726,0,0,0-.275,2.575c.171,2.477,3.665,2.519,7.631,2.077" transform="translate(-691.86 -573.5)" fill="#365da4"/>
      <path id="Trazado_26989" data-name="Trazado 26989" d="M1000.281,400.089s-1.658,8.03-3.32,48.756a131.483,131.483,0,0,0-5.315,16.761c-2.234,9.22-3.811,47.693-3.811,47.693s.891,1.285,3.6,1.447a7.824,7.824,0,0,0,3.928-.836s15.535-50.39,23.1-69.953,11.993-47.5,11.993-47.5Z" transform="translate(-694.263 -278.638)" fill="#2b478b"/>
      <path id="Trazado_26990" data-name="Trazado 26990" d="M1092.583,387.489s1.225,8.108,13.767,46.89a131.475,131.475,0,0,0,.818,17.565c1.1,9.424,13.791,46.526,13.791,46.526a7.8,7.8,0,0,0,4.215-.082,13.318,13.318,0,0,0,4.195-2.035s-4.866-53.031-4.546-74-5.195-48.712-5.195-48.712Z" transform="translate(-767.882 -262.599)" fill="#2b478b"/>
      <path id="Trazado_26991" data-name="Trazado 26991" d="M1069.876,36.414a11.363,11.363,0,0,0-6.085-1.482,2.875,2.875,0,0,1,1.326-.55c-1.044-.209-3.443.717-3.443.717-14.346-6.368-17.723,15.056-17.665,20.076s-.2,10.78-7.722,14.9c-14.81,8.112-3.458,24.134-3.458,24.134-2.666,7.649,7.2,17.021,7.2,17.021-.167-4.062,18.479-29.942,28.533-35.847,2.544-3.37,3.694-9.491,3.782-9.973-.653,4.866-1.626,7.565-2.451,9.071,8.622-7.174,5.19-34.755-.02-38.07" transform="translate(-722.963 -23.844)" fill="#c65447"/>
      <path id="Trazado_26992" data-name="Trazado 26992" d="M1124.177,129.982c.051.023-4.7,2.491-8.281,1.513-3.365-.917-5.562-5.28-5.517-5.29,1.425-.283,1.837-2.241,1.806-10.653l.644.127,10.441,2.069.389.076s-.248,3.408-.256,6.618c0,.679.008,1.349.033,1.975.07,1.864.277,3.347.74,3.564" transform="translate(-780.389 -81.212)" fill="#ffb07b"/>
      <path id="Trazado_26993" data-name="Trazado 26993" d="M1128.518,125.93c0,.68.007,1.349.033,1.975-6.073-.245-9.574-7.189-10.9-10.236l10.729,1.566.389.076s-.248,3.408-.255,6.618" transform="translate(-785.503 -82.7)" fill="#ea8e50"/>
      <path id="Trazado_26994" data-name="Trazado 26994" d="M1105.328,59.392s-3.176-5.018-3.938-9.308c-.544-3.063,1.016-14.418,12.426-12.783a15.5,15.5,0,0,1,6.429,2.431c2.477,1.673,6.053,5.285,2.055,15.193l-1.038,3.347Z" transform="translate(-774.006 -26.104)" fill="#c65447"/>
      <path id="Trazado_26995" data-name="Trazado 26995" d="M1126.484,81.073s-14.216-1.879-12.909-10.714.352-15.028,9.483-14.2,10.392,4.458,10.674,7.513-3.516,17.664-7.248,17.4" transform="translate(-782.575 -39.417)" fill="#ffb07b"/>
      <path id="Trazado_26996" data-name="Trazado 26996" d="M1119.878,53.165s-5.427,9.785-11.614,10.429-8.534-1.337-8.534-1.337a17.061,17.061,0,0,0,7-9.147s10.949-5.314,13.143.055" transform="translate(-772.905 -35.678)" fill="#c65447"/>
      <path id="Trazado_26997" data-name="Trazado 26997" d="M1163.866,58.02s2.555,2.746,2.927,5.1,0,7.033,1.372,7.076c0,0,3.975-6.608,1.281-11.082-2.856-4.745-5.581-1.095-5.581-1.095" transform="translate(-817.98 -39.835)" fill="#c65447"/>
      <path id="Trazado_26998" data-name="Trazado 26998" d="M1109.838,362.536c-2.982-6.317-11.274-11.545-18.259-11.547a20.743,20.743,0,0,0-13.23,4.627,3.483,3.483,0,0,1-5.6-1.98l-6.114-28.408a7.673,7.673,0,0,0-9.115-5.886l-98.937,21.294a7.5,7.5,0,0,0-5.751,8.905l21.27,98.829a7.778,7.778,0,0,0,5.252,5.779l-1.3.368H981.9l.031-.006a7.833,7.833,0,0,0,1.421-.17l2.154-.464,25.392-5.465a4.792,4.792,0,0,0,2.616-7.826,20.576,20.576,0,1,1,34.465-5.455,3.273,3.273,0,0,0,.965,3.856l-1.481.723,3.432,0h0a3.365,3.365,0,0,0,.792-.074l30.319-6.525a7.676,7.676,0,0,0,5.888-9.119l-6.076-28.233a3.594,3.594,0,0,1,4.409-4.237,20.6,20.6,0,0,0,23.611-28.984" transform="translate(-669.547 -224.316)" fill="#d86713"/>
      <path id="Trazado_26999" data-name="Trazado 26999" d="M1079.824,350.99a20.745,20.745,0,0,0-13.23,4.627,3.482,3.482,0,0,1-5.6-1.98l-6.114-28.408a7.672,7.672,0,0,0-9.115-5.886l-98.937,21.293a7.5,7.5,0,0,0-5.751,8.905l21.27,98.829a7.783,7.783,0,0,0,9.246,5.971l27.546-5.929a4.792,4.792,0,0,0,2.616-7.826,20.576,20.576,0,1,1,34.465-5.455,3.283,3.283,0,0,0,3.708,4.5l30.319-6.525a7.676,7.676,0,0,0,5.889-9.118l-6.077-28.233a3.594,3.594,0,0,1,4.409-4.237,20.6,20.6,0,0,0,23.611-28.984c-2.983-6.317-11.273-11.545-18.259-11.547" transform="translate(-661.285 -224.317)" fill="#f1a34f"/>
      <path id="Trazado_27000" data-name="Trazado 27000" d="M1286.529,299.817s6.171,1.011,7.788,5.025-.641,6.731-1.51,6.721a3.877,3.877,0,0,1-3.314-2.733c-.78-2.081-2.964-9.013-2.964-9.013" transform="translate(-904.19 -210.716)" fill="#ffb07b"/>
      <path id="Trazado_27001" data-name="Trazado 27001" d="M1000.659,360.075s6.927-.009,9.419,4.085.515,7.472-.437,7.619a4.3,4.3,0,0,1-4.115-2.388c-1.229-2.134-4.867-9.316-4.867-9.316" transform="translate(-703.276 -253.066)" fill="#ffb07b"/>
      <path id="Trazado_27002" data-name="Trazado 27002" d="M1065.823,200.106c-.614-.131-3.3-.447-6.715-.985-6.289-.987-15.058-2.724-18-5.438-.8-.737-2.653-4.791-4.582-9.439a88.143,88.143,0,0,0-1.543,24.189l-42.51,9.15c3.645-7.369,9.287-16.506,8.229-23.9-.392-2.742-1.894-6.5-2.456-10.729-.047-.363-.087-.727-.12-1.1-5.962,4.907-12.849,10.322-13.014,11.406-.274,1.815,4.367,21.912,4.367,21.912-1.153,2.653-6.158,2.1-6.158,2.1-4.692-3.35-11.591-22.334-11.038-26.539s17.657-28.173,21.8-33.9c4.09-5.66,19.02-5.518,19.38-5.516h.007c11.873,7.129,12.944,1.2,12.944,1.2s10.713,2.037,12.554,5.2,9.915,27.163,10.486,28.009c1.2,1.767,20.712,8.838,21.062,10.885s-2.942,3.863-4.691,3.491" transform="translate(-683.313 -106.347)" fill="#80bdcc"/>
      <path id="Trazado_27003" data-name="Trazado 27003" d="M1055.116,286.642l-14.823,3.176c3.691-7.349,8.542-16.5,7.481-23.849-.4-2.744-1.286-5.99-1.715-10.235-.041-.409-.113-1.641-.113-1.641s10.5,8.261,10.682,17.2a89.28,89.28,0,0,1-1.512,15.348" transform="translate(-731.132 -178.58)" fill="#5f9aa8"/>
      <path id="Trazado_27004" data-name="Trazado 27004" d="M1211.5,260.1c-6.366-.989-15.243-2.726-18.221-5.441-.807-.737-2.687-4.8-4.639-9.449,0,0-.684-7.48,1.271-7.2s4.833,13.547,6.885,14.385c1.838.752,12,4.651,14.7,7.707" transform="translate(-835.311 -167.272)" fill="#5f9aa8"/>
      <path id="Trazado_27005" data-name="Trazado 27005" d="M2273.095,1249.307c-.9,3.024-5.039,5.039-5.6,8.735a8.023,8.023,0,0,1-1.8,4.168h-12.9c.129-.71.695-1.475,2.372-1.841,3.582-.783,4.933-5.126,4.711-9.157a52.8,52.8,0,0,1,.033-5.285c.113-2.309.3-4.123.3-4.123l7.614-1.791.8,1.028.768.988s4.59,4.254,3.7,7.278" transform="translate(-1583.296 -871.498)" fill="#2c3a64"/>
      <path id="Trazado_27006" data-name="Trazado 27006" d="M2057.28,1285.552h-26.095a5.236,5.236,0,0,1,3.289-1.637c4.016-.652,10.971-2.983,12.522-8.116.05-.164.1-.333.134-.506,1.23-5.486,10.19,1.68,10.19,1.68s.028.22.068.594c.157,1.543.505,5.734-.108,7.985" transform="translate(-1427.544 -894.84)" fill="#2c3a64"/>
      <path id="Trazado_27007" data-name="Trazado 27007" d="M2045.841,819.967s1.361,16.975,2.96,37.38c2.173,27.719,4.787,61.767,5.046,68.217.447,11.2,2.241,29.116,2.241,29.116s4.253,4.256,12.766,2.463c0,0,7.585-25.576,9.752-52.635.033-.444.068-.89.1-1.337,2.015-27.547,5.15-85.554,5.15-85.554Z" transform="translate(-1437.844 -574.632)" fill="#35488b"/>
      <path id="Trazado_27008" data-name="Trazado 27008" d="M2045.841,819.967s1.361,16.975,2.96,37.38l29.8,47.16c.033-.444.068-.89.1-1.337,2.015-27.547,5.15-85.554,5.15-85.554Z" transform="translate(-1437.844 -574.632)" fill="#2c3a64"/>
      <path id="Trazado_27009" data-name="Trazado 27009" d="M2066.749,806.093s24.524,61.478,40.649,90.369,21.164,36.954,21.164,36.954,9.239-3.7,10.079-6.215c0,0-6.167-55.776-16.965-69.372-6.1-7.683-13.27-30.739-13.606-38.8s-2.184-24.02-2.184-24.02Z" transform="translate(-1452.538 -558.742)" fill="#35488b"/>
      <path id="Trazado_27010" data-name="Trazado 27010" d="M2093.763,465.031a71.928,71.928,0,0,1-1.124-10.254l12.443-10.028c-.462,13.788,8.373,20.419,8.373,20.419s-16.581,8.162-26.165,5.139a22.942,22.942,0,0,1,6.473-5.276" transform="translate(-1466.975 -312.576)" fill="#935c2f"/>
      <path id="Trazado_27011" data-name="Trazado 27011" d="M2088.124,415.794s15.829,2.63,17.315-7.253,4.53-16.2-5.514-18.3-12.579,1.379-13.877,4.556-2,20.054,2.076,20.993" transform="translate(-1465.39 -273.82)" fill="#a16d3c"/>
      <path id="Trazado_27012" data-name="Trazado 27012" d="M1869.706,532.8l-3.369-2.087a8.519,8.519,0,0,0-11.379-2.349s-2.844,1.813-.936,3.33,1.4.66,4.038,2.859,6.063,2.984,8.269,1.772l2.829-.267Z" transform="translate(-1302.568 -370.458)" fill="#a16d3c"/>
      <path id="Trazado_27013" data-name="Trazado 27013" d="M1894.031,532.6c.868-2.716,1.281-2.955,1.281-2.955s27.254,3.22,29.823,3.41,38.251-7.162,38.251-7.162l16.848,20.459s-49.674,1.873-56.175,1.264c-10.743-1.007-30.224-11.009-30.224-11.009a7.943,7.943,0,0,1,.2-4.008" transform="translate(-1330.894 -369.608)" fill="#d3782f"/>
      <path id="Trazado_27014" data-name="Trazado 27014" d="M2089.807,591.251c.048,1.056-2.128,2.215-3.072,2.64-7.114,3.19-13.74,5.4-21.226,6.126-8.88.911-19.374-1.086-22.972-1.039a1.546,1.546,0,0,1-1.008-.383c-.24-.193-.433-11.039-.24-24.714,0-.528,0-1.106.047-1.634v-.19c.014-1.425.036-2.871.067-4.332.089-4,.24-8.1.413-12.178.26-6.011.617-11.919,1.111-17.153a99.178,99.178,0,0,1,2.009-13.559c1.919-7.726,6.335-12.815,10.365-16.558l3.31-2.925a15.706,15.706,0,0,0,10.318-1.249c3.791-1.871,7.919-3.888,8.589-3.408,5.117,3.824,8.562,12.505,10.327,23.539a121.937,121.937,0,0,1,1.388,19.466c-.011,2.651-.092,5.341-.246,8.056a264.868,264.868,0,0,0,.525,34.549c.145,2.112.26,3.791.293,4.947" transform="translate(-1434.589 -351.845)" fill="#e69d43"/>
      <path id="Trazado_27015" data-name="Trazado 27015" d="M1625.958,314.458l-100.107-15.9a7.8,7.8,0,0,0-8.931,6.483l-4.431,27.9a32.846,32.846,0,0,0,.122,4.924l3.608.537a4.7,4.7,0,0,0,.625.093,4.775,4.775,0,0,0,2.014-.275,20.631,20.631,0,1,1-7.38,34.2,3.253,3.253,0,0,0-1.953-.922l-3.775-.566-4.7,34.036a7.7,7.7,0,0,0,6.394,8.808l28.6,4.542a3.6,3.6,0,0,1,2.365,5.657,20.654,20.654,0,0,0,18.551,32.571c6.986-.5,14.876-6.36,17.407-12.891a20.8,20.8,0,0,0,.464-14.046,3.492,3.492,0,0,1,3.878-4.515l28.775,4.57a7.692,7.692,0,0,0,8.8-6.391L1632.2,323.06a7.516,7.516,0,0,0-6.244-8.6" transform="translate(-1054.89 -209.763)" fill="#4a75cb"/>
      <path id="Trazado_27016" data-name="Trazado 27016" d="M2078.343,579.073s-7.673,35.809-36.483,43.787c.089-4,.24-8.1.413-12.178.26-6.011.617-11.919,1.111-17.153a9.952,9.952,0,0,1,1.439-.618c9.776-3.224,33.519-13.838,33.519-13.838" transform="translate(-1435.046 -406.98)" fill="#d3782f"/>
      <path id="Trazado_27017" data-name="Trazado 27017" d="M1561.911,441.777a20.8,20.8,0,0,0,.464-14.046,3.492,3.492,0,0,1,3.878-4.515l28.775,4.57a7.693,7.693,0,0,0,8.8-6.391l15.916-100.216a7.515,7.515,0,0,0-6.244-8.6L1513.4,296.68a7.8,7.8,0,0,0-8.931,6.483l-4.431,27.9a4.8,4.8,0,0,0,6.37,5.28,20.631,20.631,0,1,1-7.379,34.2,3.292,3.292,0,0,0-5.553,1.836l-4.877,30.711a7.7,7.7,0,0,0,6.393,8.807l28.6,4.542a3.6,3.6,0,0,1,2.366,5.656,20.653,20.653,0,0,0,18.55,32.571c6.987-.5,14.876-6.36,17.407-12.891" transform="translate(-1046.137 -208.442)" fill="#699dee"/>
      <path id="Trazado_27018" data-name="Trazado 27018" d="M1864.242,612.561l-4.116-.681a10.164,10.164,0,0,0-12.871-2.981s-3.244,1.814-1.1,3.512,1.573.762,4.544,3.217,6.838,3.435,9.352,2.235l3.209-.167Z" transform="translate(-1296.988 -427.127)" fill="#a16d3c"/>
      <path id="Trazado_27019" data-name="Trazado 27019" d="M1898.14,552.131c.133-3.029,1.746-3.352,1.746-3.352s31.178-2.062,33.868-2.584,27.522-21.1,27.522-21.1,9.6-8.631,16.332-5.719c5.847,2.531,7.677,7.524,7.971,12.116a13.343,13.343,0,0,1-7.7,12.908c-11.152,5.209-33.456,15.434-38.535,16.316-11.3,1.964-40.362-4.329-40.362-4.329a9.543,9.543,0,0,1-.838-4.26" transform="translate(-1334.032 -364.606)" fill="#e69d43"/>
      <path id="Trazado_27020" data-name="Trazado 27020" d="M2079.8,376.986s-6.424-4.764-2.235-12.167a24.466,24.466,0,0,0,12.234,0c7.179-1.676,13.6.7,14.442,3.212,0,0,2.793,1.118,3.073,5.307s-8.122,17.387-8.122,17.387-1.794-2.234-1.305-3.77,2.025-4.958.14-4.958-2.514,2.794-3.282,1.676.629-5.8-1.606-6.564-10.823,1.289-13.338-.124" transform="translate(-1459.144 -256.005)" fill="#2c3a64"/>
      <path id="Trazado_27021" data-name="Trazado 27021" d="M1028.1,972.712,999.8,844.229h7.79a3.367,3.367,0,0,0,3.357-3.357v-4.34a3.366,3.366,0,0,0-3.357-3.356H908.783a3.366,3.366,0,0,0-3.357,3.356v4.34a3.367,3.367,0,0,0,3.357,3.357h10.028l-28.3,128.483a3.207,3.207,0,1,0,6.263,1.388l28.6-129.87h67.858l28.6,129.87a3.207,3.207,0,1,0,6.263-1.388" transform="translate(-625.81 -585.567)" fill="#c3e0f4"/>
      <path id="Trazado_27022" data-name="Trazado 27022" d="M1871.161,1035.389c-10.474-10.055-48.181,53.388-48.181,53.388s58.655-43.333,48.181-53.388" transform="translate(-1281.214 -726.926)" fill="#acd29a"/>
      <path id="Trazado_27023" data-name="Trazado 27023" d="M1671.939,1135.906c-9.273-3.709-38.905,27.532-45.579,34.746a147.765,147.765,0,0,0-16.847-1.229c-46.924-.838-68.208,20.416-68.208,20.416l130.9.445s-11.6-14.723-44.489-19.447c8.037-3.8,31.81-14.851,40.455-16.977,10.474-2.575,14.245-13.764,3.771-17.954" transform="translate(-1083.25 -798.116)" fill="#acd29a"/>
      <path id="Trazado_27024" data-name="Trazado 27024" d="M1550.276,922.368h-28.251a4.8,4.8,0,0,0-4.215,7.119c1.707,3.09-4.3,29.862-16.954,30.561a20.632,20.632,0,0,1-17.979-32.485,3.292,3.292,0,0,0-2.684-5.2h-31.1a7.7,7.7,0,0,0-7.7,7.7s-2.819,33.377-5.216,32.179a20.506,20.506,0,0,0-8.132-2.136h-.027c-.347-.017-.7-.028-1.048-.028s-5.472-.087-5.472-.087l-.776,41.245,4.445.047c4.226-.126,7.9-.522,11.158-2.185a3.492,3.492,0,0,1,5.067,3.122v29.136a7.692,7.692,0,0,0,7.693,7.692h101.472a7.515,7.515,0,0,0,7.516-7.516V930.171a7.8,7.8,0,0,0-7.8-7.8" transform="translate(-998.506 -648.253)" fill="#d86713"/>
      <path id="Trazado_27025" data-name="Trazado 27025" d="M1369.963,1000.548a20.8,20.8,0,0,0,13.945-1.745,3.492,3.492,0,0,1,5.068,3.122v29.136a7.693,7.693,0,0,0,7.692,7.693H1498.14a7.516,7.516,0,0,0,7.516-7.516V929.877a7.8,7.8,0,0,0-7.8-7.8H1469.6a4.8,4.8,0,0,0-4.215,7.119,20.632,20.632,0,1,1-34.934-1.924,3.292,3.292,0,0,0-2.684-5.2h-31.1a7.7,7.7,0,0,0-7.7,7.7v28.956a3.6,3.6,0,0,1-5.216,3.223,20.653,20.653,0,0,0-29.258,23.43c1.591,6.822,8.615,13.694,15.461,15.171" transform="translate(-951.554 -648.045)" fill="#f1a34f"/>
      <path id="Trazado_27026" data-name="Trazado 27026" d="M352,1192.259l18.237.134s-.634-4.413-12.911-5.551c-4.759-13.221-18.741-48.786-30.883-47.1-11.988,1.661,16.4,34.289,27.954,46.974a29.044,29.044,0,0,0-4.564.362c-2.782-5.54-8.3-13.37-17.153-13.014-9.423.38,3.415,8.984,12.253,14.269a21.8,21.8,0,0,0-6.894,3.828l13.754.1.25.136s-.014-.047-.043-.134" transform="translate(-227.397 -800.982)" fill="#acd29a"/>
      <path id="Trazado_27027" data-name="Trazado 27027" d="M631.091,820.716l2.7,2.191s7.382-2.647,9.048,6.124c0,0,.444,3.739-1.924,3.745s-1.391-.409-4.744-.31-6.132-1.67-6.624-4.391l-1.6-2.306Z" transform="translate(-441.324 -576.81)" fill="#ea8e50"/>
      <path id="Trazado_27028" data-name="Trazado 27028" d="M447.768,703.035c2.153-2.248,1.979-3.909,1.979-3.909s-24.929-20.41-27.457-22.073c-1.723-1.133-20.082-17.409-28.664-27.331-4.257-4.922-9.529-3.012-15.562-1.281l-4.968,1.425c-6,1.721-7.559,10.111-2.637,14.188,13.863,11.482,36.923,24.4,41.238,27.111,10.712,6.738,31.679,14.745,31.679,14.745a13.292,13.292,0,0,0,4.392-2.876" transform="translate(-258.307 -454.426)" fill="#1e3d70"/>
      <path id="Trazado_27029" data-name="Trazado 27029" d="M716.854,1257.773s6.049,4.533,15.32,2.137c0,0,7.474-1.7,9.114,2.025,0,0-11.463,5.823-14.364,7.416a34.744,34.744,0,0,0-6.08,4.559,3.006,3.006,0,0,1-4.353-.336c-.5-.62-1.081-1.359-1.714-2.215-1.767-2.4-5.886-10.132-5.886-10.132Z" transform="translate(-498.218 -883.98)" fill="#233862"/>
      <path id="Trazado_27030" data-name="Trazado 27030" d="M524.609,995.1s-3.684,8.494-12.188,6.933c0,0-17.352-14.33-29.254-29.216a66.139,66.139,0,0,1-9.091-14.206c-7.893-18.274-29.2-45.53-42.741-59.343l33.888-12.259s10.854,21.835,25.3,48.655C500.928,954.989,513.2,976.9,524.609,995.1" transform="translate(-303.149 -623.403)" fill="#2b478b"/>
      <path id="Trazado_27031" data-name="Trazado 27031" d="M490.52,935.665l-7.352,37.154a66.139,66.139,0,0,1-9.091-14.206c-7.893-18.274-29.2-45.53-42.741-59.343l33.888-12.259s10.854,21.835,25.3,48.655" transform="translate(-303.149 -623.403)" fill="#233862"/>
      <path id="Trazado_27032" data-name="Trazado 27032" d="M508.149,1265.2s-.369,6.778,7.847,7.682c0,0,4.7.025,4.709,4.339l-23.881.076a18.573,18.573,0,0,1-.862-5.467c-.129-2.862,2.774-10.345,2.774-10.345Z" transform="translate(-348.566 -886.589)" fill="#233862"/>
      <path id="Trazado_27033" data-name="Trazado 27033" d="M430.112,883.454s15.1,16.588,24.68,46.474c5.214,16.26-9.556,57.141-12.436,71.345,0,0-9.909.841-16.683-1.778,0,0-.515-29.338,3.447-51.949,2.217-12.655-19.877-27.065-29.532-49.931-6.568-15.556,1.422-15.292,11.242-15.665Z" transform="translate(-279.152 -619.846)" fill="#2b478b"/>
      <path id="Trazado_27034" data-name="Trazado 27034" d="M388.794,589.569c-8.4,4.743-25.594.369-25.594.369s6.983-7.983,3.81-20.841l6.595,3.349,7.084,3.6a58.843,58.843,0,0,1,.776,6.349c.081,1.051.153,2.224.2,3.505a22.04,22.04,0,0,1,7.126,3.671" transform="translate(-255.262 -399.969)" fill="#ffb07b"/>
      <path id="Trazado_27035" data-name="Trazado 27035" d="M404.628,701.613c0,1.476-1.7,2.183-2.062,2.255-3.388.619-12.847,4.3-21.368,5.143-7.175.751-13.836.038-21.155-1.432-.969-.2-3.244-.808-3.406-1.737-.2-1.014-28.229-57.136-6.441-81.243.511-.565,4.812.453,8.745,1.386a16.145,16.145,0,0,0,9.939-.812l3.688,1.941c4.529,2.524,13.1,11.492,14.1,18.528.509,3.578,2.556,6.228,3.148,9.376q.33,1.747.673,3.41.67,3.261,1.38,6.211c1.281,5.322,2.634,9.9,3.962,13.861,1.413,4.2,2.8,7.7,4.038,10.621,1.606,3.792,2.964,6.626,3.812,8.8a10.833,10.833,0,0,1,.942,3.7" transform="translate(-240.297 -438.862)" fill="#2a4e96"/>
      <path id="Trazado_27036" data-name="Trazado 27036" d="M423.82,742.959c-39.564-18.64-53.265-54.432-53.265-54.432s32.144,11.857,40.073,14.945q.67,3.261,1.38,6.21c1.281,5.322,2.634,9.9,3.962,13.861,1.413,4.2,2.8,7.7,4.038,10.621,1.606,3.792,2.964,6.626,3.812,8.8" transform="translate(-260.431 -483.906)" fill="#1e3d70"/>
      <path id="Trazado_27037" data-name="Trazado 27037" d="M590.739,453.657l-8.474-26.872a4.8,4.8,0,0,0-5.882-3.181l-.007,0c-.125.036-.249.078-.372.125l-2.972.993s-4.652,4.791-7.992,5.757c-10.264,2.97-20.006-2.5-23.751-12.508-4.165-11.131.667-23.354,11.856-26.882,3.828-1.207,11.362,1.043,11.362,1.043l3.024-1.005a3.281,3.281,0,0,0,2.184-4.132l-9.328-29.578a7.675,7.675,0,0,0-9.628-5.011l-27.542,8.685a3.594,3.594,0,0,1-4.63-3.994,20.6,20.6,0,0,0-31.063-20.8c-6.011,3.559-10.441,12.3-9.791,19.257a20.743,20.743,0,0,0,5.842,12.74,3.483,3.483,0,0,1-1.449,5.757l-27.713,8.74a7.672,7.672,0,0,0-5.009,9.624l30.438,96.517a7.5,7.5,0,0,0,9.4,4.894l96.411-30.4a7.782,7.782,0,0,0,5.082-9.763" transform="translate(-315.597 -234.246)" fill="#4a75cb"/>
      <path id="Trazado_27038" data-name="Trazado 27038" d="M467.865,358.842a20.741,20.741,0,0,0,5.842,12.74,3.483,3.483,0,0,1-1.449,5.756l-27.713,8.74a7.673,7.673,0,0,0-5.009,9.625l30.438,96.517a7.5,7.5,0,0,0,9.4,4.894l96.411-30.405a7.783,7.783,0,0,0,5.082-9.763L572.4,430.074a4.792,4.792,0,0,0-8.036-1.873,20.577,20.577,0,1,1-8.649-33.805,3.283,3.283,0,0,0,4.137-4.112l-9.328-29.578a7.675,7.675,0,0,0-9.628-5.011l-27.542,8.686a3.594,3.594,0,0,1-4.63-3.994,20.6,20.6,0,0,0-31.062-20.8c-6.011,3.559-10.442,12.3-9.791,19.257" transform="translate(-308.661 -236.558)" fill="#699dee"/>
      <path id="Trazado_27039" data-name="Trazado 27039" d="M623.458,834.82l3.419,1.254s6.847-4.841,11.109,3.033c0,0,1.542,3.439-.9,4.186s-1.553.044-4.984,1.186-6.81.319-8.106-2.131l-2.323-1.7Z" transform="translate(-436.921 -586.569)" fill="#ffb07b"/>
      <path id="Trazado_27040" data-name="Trazado 27040" d="M437.229,711.695c1.264-3.3,1.841-4.792,1.841-4.792s-25.833-21.057-28.465-22.863c-1.794-1.23-19.651-14.578-28.357-24.981a18.22,18.22,0,0,0-17.713-6.138l-5.423,1.137a8.065,8.065,0,0,0-3.6,14.016c14.306,12.264,38.435,26.489,42.934,29.448,11.169,7.345,35.872,17.637,35.872,17.637a6.358,6.358,0,0,0,2.907-3.465" transform="translate(-247.878 -458.609)" fill="#2a4e96"/>
      <path id="Trazado_27041" data-name="Trazado 27041" d="M392.425,590.313c-8.259.464-13.631-6.356-13.631-6.356a65.613,65.613,0,0,0,5.77-3.591l7.084,3.6a58.828,58.828,0,0,1,.776,6.349" transform="translate(-266.221 -407.889)" fill="#ea8e50"/>
      <path id="Trazado_27042" data-name="Trazado 27042" d="M377.6,535.472s-12.515,8.981-17.988,1.1-10.774-12.027-3.015-18.095,11.417-4.15,13.883-1.965,10.234,16.419,7.12,18.958" transform="translate(-247.878 -361.528)" fill="#ffb07b"/>
      <path id="Trazado_27043" data-name="Trazado 27043" d="M345.1,485.36a20.153,20.153,0,0,0-1.458-5.16s-.785,3.253-6.731,2.8-15.369.585-18.51,7.36q-.3.647-.536,1.329a15.683,15.683,0,0,1-.706-3.753c-1.13,2.916,0,6.565,0,6.565h0c-.017.106-.031.213-.046.32-1.312,1.109-2.414,4.558-2.414,4.558a4.131,4.131,0,0,1,2.223-1.976c-.027,5.272,2.111,10.426,5.863,11.96,5.488,2.243,5.444.532,10.963,4.192,0,0,1.48-1.837.471-3.071s-4.824-3.029-2.693-4.824,2.917.224,3.7-1.01-3.141-4.824,1.907-8.189,8.414-8.077,7.965-11.106" transform="translate(-221.173 -337.491)" fill="#233862"/>
      <path id="Trazado_27044" data-name="Trazado 27044" d="M1285.994,1174.3s-6.328-9.354-16.233-8.6c-3.01.229-7.9.963-13.583,1.744-4.285-14.953-16.1-50.5-32.027-52.5-16.269-2.044,15.568,37.487,28.588,52.963-2.375.313-4.84.618-7.329.888-6.893-7.36-18.9-18.264-28.935-17.426-10.055.84,8.771,11.236,22.358,18.036-8.337.624-16.242.555-21.073-1.312-11.831-4.574-22.7,6.205-22.7,6.205Z" transform="translate(-839.9 -783.543)" fill="#82b378"/>
      <path id="Trazado_27045" data-name="Trazado 27045" d="M764.386,1316.72H.867a.869.869,0,0,1-.867-.867v-.3a.869.869,0,0,1,.867-.867H764.386a.869.869,0,0,1,.867.867v.3a.869.869,0,0,1-.867.867" transform="translate(0 -923.982)" fill="#2e3552"/>
    </g>
  </g>
</svg>
