<svg xmlns="http://www.w3.org/2000/svg" width="658.328" height="423.341" viewBox="0 0 658.328 423.341">
  <g id="Grupo_30919" data-name="Grupo 30919" transform="translate(118.246 -328.593)">
    <g id="Grupo_30844" data-name="Grupo 30844">
      <path id="Trazado_26509" data-name="Trazado 26509" d="M-53.944,690.764c-17.039-4.165-34.112-13.419-45.473-26.916-35.489-42.162,6.1-96.2,47.476-113.218,20.178-8.3,38.364-18.213,44.3-41.221,5.673-22.01-9.863-45.014-13.872-66.016C-29.591,401.11,8.432,368.4,48.546,368.4c36.975,0,53.619,14.09,90.307,38.669,27.733,18.58,79.809,29.474,119.816,25.547,47.647-4.677,65.613-25.547,103.588-42.536,26.136-11.692,62.57-14.193,87.019,3.137,26.117,18.512,16.193,54.761,19.165,81.83a50.253,50.253,0,0,0,5.914,19.447c21.4,37.758,65.227,39.7,65.227,95.613,0,42.029-69.868,57.619-103.324,62.179" fill="none" stroke="#a9c6ea" stroke-miterlimit="10" stroke-width="1" stroke-dasharray="5 3.5"/>
      <line id="Línea_69" data-name="Línea 69" x2="14.263" transform="translate(-63.942 480.023)" fill="none" stroke="#a9c6ea" stroke-miterlimit="10" stroke-width="1"/>
      <line id="Línea_70" data-name="Línea 70" x2="14.263" transform="translate(-49.679 487.956)" fill="none" stroke="#a9c6ea" stroke-miterlimit="10" stroke-width="1"/>
      <line id="Línea_71" data-name="Línea 71" x2="14.263" transform="translate(371.312 417.715)" fill="none" stroke="#a9c6ea" stroke-miterlimit="10" stroke-width="1"/>
      <line id="Línea_72" data-name="Línea 72" x2="14.263" transform="translate(362.259 425.649)" fill="none" stroke="#a9c6ea" stroke-miterlimit="10" stroke-width="1"/>
      <line id="Línea_73" data-name="Línea 73" x2="19.382" transform="translate(383.995 421.865)" fill="none" stroke="#a9c6ea" stroke-miterlimit="10" stroke-width="1"/>
      <line id="Línea_74" data-name="Línea 74" x2="10.263" transform="translate(508.381 586.785)" fill="none" stroke="#a9c6ea" stroke-miterlimit="10" stroke-width="1"/>
      <line id="Línea_75" data-name="Línea 75" x2="14.263" transform="translate(499.076 578.942)" fill="none" stroke="#a9c6ea" stroke-miterlimit="10" stroke-width="1"/>
      <line id="Línea_76" data-name="Línea 76" x2="14.263" transform="translate(36.793 379.211)" fill="none" stroke="#a9c6ea" stroke-miterlimit="10" stroke-width="1"/>
      <line id="Línea_77" data-name="Línea 77" x2="23.452" transform="translate(13.559 551.089)" fill="none" stroke="#a9c6ea" stroke-miterlimit="10" stroke-width="1"/>
      <line id="Línea_78" data-name="Línea 78" x2="12.174" transform="translate(41.967 551.089)" fill="none" stroke="#a9c6ea" stroke-miterlimit="10" stroke-width="1"/>
      <path id="Trazado_26510" data-name="Trazado 26510" d="M315.96,521.18a4.6,4.6,0,1,1-4.6-4.6A4.6,4.6,0,0,1,315.96,521.18Z" fill="none" stroke="#a9c6ea" stroke-miterlimit="10" stroke-width="1"/>
      <path id="Trazado_26511" data-name="Trazado 26511" d="M496.886,489.324a4.6,4.6,0,1,1-4.6-4.6A4.6,4.6,0,0,1,496.886,489.324Z" fill="none" stroke="#a9c6ea" stroke-miterlimit="10" stroke-width="1"/>
      <path id="Trazado_26512" data-name="Trazado 26512" d="M325.983,390.079a4.6,4.6,0,1,1-4.6-4.6A4.6,4.6,0,0,1,325.983,390.079Z" fill="none" stroke="#a9c6ea" stroke-miterlimit="10" stroke-width="1"/>
      <path id="Trazado_26513" data-name="Trazado 26513" d="M415.931,396.973a2.29,2.29,0,1,1-2.29-2.291A2.29,2.29,0,0,1,415.931,396.973Z" fill="none" stroke="#a9c6ea" stroke-miterlimit="10" stroke-width="1"/>
      <path id="Trazado_26514" data-name="Trazado 26514" d="M275.911,569.045a2.29,2.29,0,1,1-2.29-2.29A2.291,2.291,0,0,1,275.911,569.045Z" fill="none" stroke="#a9c6ea" stroke-miterlimit="10" stroke-width="1"/>
      <path id="Trazado_26515" data-name="Trazado 26515" d="M9.8,404.778a2.29,2.29,0,1,1-2.29-2.29A2.29,2.29,0,0,1,9.8,404.778Z" fill="none" stroke="#a9c6ea" stroke-miterlimit="10" stroke-width="1"/>
      <path id="Trazado_26516" data-name="Trazado 26516" d="M-93.71,547.886a2.29,2.29,0,0,1-2.29,2.29,2.29,2.29,0,0,1-2.29-2.29A2.29,2.29,0,0,1-96,545.6,2.29,2.29,0,0,1-93.71,547.886Z" fill="none" stroke="#a9c6ea" stroke-miterlimit="10" stroke-width="1"/>
      <path id="Trazado_26517" data-name="Trazado 26517" d="M19.1,500.97a2.29,2.29,0,1,1-2.29-2.29A2.29,2.29,0,0,1,19.1,500.97Z" fill="none" stroke="#a9c6ea" stroke-miterlimit="10" stroke-width="1"/>
      <g id="Grupo_30835" data-name="Grupo 30835">
        <line id="Línea_79" data-name="Línea 79" y2="5.42" transform="translate(-51.57 429.906)" fill="none" stroke="#a9c6ea" stroke-miterlimit="10" stroke-width="1"/>
        <line id="Línea_80" data-name="Línea 80" x1="5.42" transform="translate(-54.28 432.616)" fill="none" stroke="#a9c6ea" stroke-miterlimit="10" stroke-width="1"/>
      </g>
      <g id="Grupo_30836" data-name="Grupo 30836">
        <line id="Línea_81" data-name="Línea 81" y2="5.42" transform="translate(265.509 357.601)" fill="none" stroke="#a9c6ea" stroke-miterlimit="10" stroke-width="1"/>
        <line id="Línea_82" data-name="Línea 82" x1="5.42" transform="translate(262.799 360.311)" fill="none" stroke="#a9c6ea" stroke-miterlimit="10" stroke-width="1"/>
      </g>
      <g id="Grupo_30837" data-name="Grupo 30837">
        <line id="Línea_83" data-name="Línea 83" y2="5.42" transform="translate(436.093 441.422)" fill="none" stroke="#a9c6ea" stroke-miterlimit="10" stroke-width="1"/>
        <line id="Línea_84" data-name="Línea 84" x1="5.42" transform="translate(433.383 444.131)" fill="none" stroke="#a9c6ea" stroke-miterlimit="10" stroke-width="1"/>
      </g>
      <g id="Grupo_30838" data-name="Grupo 30838">
        <line id="Línea_85" data-name="Línea 85" y2="5.42" transform="translate(524.709 513.867)" fill="none" stroke="#a9c6ea" stroke-miterlimit="10" stroke-width="1"/>
        <line id="Línea_86" data-name="Línea 86" x1="5.42" transform="translate(521.999 516.576)" fill="none" stroke="#a9c6ea" stroke-miterlimit="10" stroke-width="1"/>
      </g>
      <g id="Grupo_30839" data-name="Grupo 30839">
        <line id="Línea_87" data-name="Línea 87" y2="5.42" transform="translate(499.076 609.005)" fill="none" stroke="#a9c6ea" stroke-miterlimit="10" stroke-width="1"/>
        <line id="Línea_88" data-name="Línea 88" x1="5.42" transform="translate(496.366 611.715)" fill="none" stroke="#a9c6ea" stroke-miterlimit="10" stroke-width="1"/>
      </g>
      <g id="Grupo_30840" data-name="Grupo 30840">
        <path id="Trazado_26518" data-name="Trazado 26518" d="M343.937,548.939a45.593,45.593,0,0,0,5.927-20.4l-9.633-1.334a35.738,35.738,0,0,0-1.059-9.531l9.121-3.406a45.885,45.885,0,0,0-10.233-18.615l-7.764,5.875a35.693,35.693,0,0,0-7.478-6l4.036-8.848a45.549,45.549,0,0,0-20.4-5.927l-1.334,9.633a35.743,35.743,0,0,0-9.531,1.059l-3.406-9.121a45.873,45.873,0,0,0-18.615,10.233l5.875,7.763a35.726,35.726,0,0,0-6,7.479l-8.848-4.036a45.549,45.549,0,0,0-5.927,20.4l9.632,1.334a35.74,35.74,0,0,0,1.06,9.531l-9.121,3.406a45.885,45.885,0,0,0,10.233,18.615l7.763-5.875a35.726,35.726,0,0,0,7.479,6l-4.036,8.848a45.55,45.55,0,0,0,20.4,5.927l1.334-9.633a35.7,35.7,0,0,0,9.531-1.059l3.406,9.121a45.874,45.874,0,0,0,18.615-10.233l-5.875-7.763a35.726,35.726,0,0,0,6-7.479Zm-46.1-.465a23.038,23.038,0,1,1,28.551-15.694A23.038,23.038,0,0,1,297.838,548.474Zm1.688-5.808a16.989,16.989,0,1,1,21.054-11.574A16.99,16.99,0,0,1,299.526,542.666Z" fill="#e4ecf9"/>
      </g>
      <g id="Grupo_30841" data-name="Grupo 30841">
        <path id="Trazado_26519" data-name="Trazado 26519" d="M353.686,455.074a22.514,22.514,0,0,0-3.311-9.951l-4.289,2.159a17.639,17.639,0,0,0-3.1-3.576l2.751-3.942a22.66,22.66,0,0,0-9.378-4.7l-1.508,4.565a17.634,17.634,0,0,0-4.723-.342l-.84-4.727a22.479,22.479,0,0,0-9.952,3.311l2.159,4.288a17.612,17.612,0,0,0-3.576,3.1l-3.942-2.752a22.663,22.663,0,0,0-4.7,9.379l4.565,1.508a17.626,17.626,0,0,0-.342,4.722l-4.727.841a22.481,22.481,0,0,0,3.311,9.951l4.289-2.159a17.639,17.639,0,0,0,3.1,3.576l-2.751,3.942a22.642,22.642,0,0,0,9.378,4.7l1.508-4.565a17.629,17.629,0,0,0,4.722.342l.841,4.728a22.5,22.5,0,0,0,9.952-3.312l-2.159-4.288a17.667,17.667,0,0,0,3.576-3.1l3.942,2.752a22.644,22.644,0,0,0,4.7-9.379l-4.564-1.507a17.719,17.719,0,0,0,.342-4.723ZM334.252,466.1a9.572,9.572,0,1,1,6.061-12.1A9.572,9.572,0,0,1,334.252,466.1Z" fill="#e4ecf9"/>
      </g>
      <g id="Grupo_30842" data-name="Grupo 30842">
        <path id="Trazado_26520" data-name="Trazado 26520" d="M117.5,422.672a34.431,34.431,0,0,0-5.068-15.231l-6.564,3.3a27,27,0,0,0-4.749-5.473l4.211-6.033a34.669,34.669,0,0,0-14.355-7.187l-2.307,6.986a27.018,27.018,0,0,0-7.228-.523l-1.286-7.235a34.431,34.431,0,0,0-15.231,5.068l3.3,6.564a27,27,0,0,0-5.473,4.749l-6.033-4.211A34.672,34.672,0,0,0,49.531,417.8l6.986,2.307a27.025,27.025,0,0,0-.523,7.228l-7.235,1.287a34.431,34.431,0,0,0,5.068,15.231l6.563-3.3a27.019,27.019,0,0,0,4.75,5.474l-4.211,6.033a34.67,34.67,0,0,0,14.354,7.186l2.307-6.986a27.025,27.025,0,0,0,7.228.524l1.287,7.235a34.431,34.431,0,0,0,15.231-5.068l-3.305-6.564a27,27,0,0,0,5.473-4.749l6.034,4.211a34.67,34.67,0,0,0,7.186-14.354l-6.986-2.308a26.974,26.974,0,0,0,.523-7.227ZM87.753,439.55a14.651,14.651,0,1,1,9.276-18.527A14.651,14.651,0,0,1,87.753,439.55Z" fill="#e4ecf9"/>
      </g>
      <g id="Grupo_30843" data-name="Grupo 30843">
        <path id="Trazado_26521" data-name="Trazado 26521" d="M51.739,477.337A25.8,25.8,0,0,0,55.1,465.782l-5.457-.755a20.22,20.22,0,0,0-.6-5.4l5.167-1.93a26,26,0,0,0-5.8-10.545l-4.4,3.328a20.233,20.233,0,0,0-4.237-3.4l2.286-5.012a25.809,25.809,0,0,0-11.554-3.357l-.756,5.456a20.261,20.261,0,0,0-5.4.6L22.424,439.6a25.98,25.98,0,0,0-10.545,5.8l3.328,4.4a20.208,20.208,0,0,0-3.4,4.237L6.8,451.746A25.8,25.8,0,0,0,3.437,463.3l5.457.756a20.258,20.258,0,0,0,.6,5.4l-5.167,1.93a26,26,0,0,0,5.8,10.545l4.4-3.328a20.227,20.227,0,0,0,4.236,3.4l-2.286,5.012a25.818,25.818,0,0,0,11.555,3.357l.755-5.456a20.262,20.262,0,0,0,5.4-.6l1.93,5.166a25.992,25.992,0,0,0,10.545-5.8l-3.328-4.4a20.29,20.29,0,0,0,3.4-4.236Zm-26.114-.263A13.051,13.051,0,1,1,41.8,468.183,13.051,13.051,0,0,1,25.625,477.074Zm.957-3.291a9.624,9.624,0,1,1,11.927-6.556A9.623,9.623,0,0,1,26.582,473.783Z" fill="#e4ecf9"/>
      </g>
    </g>
    <g id="Grupo_30848" data-name="Grupo 30848">
      <g id="Grupo_30845" data-name="Grupo 30845">
        <path id="Trazado_26522" data-name="Trazado 26522" d="M177.568,751.537c3.045-6.285,18.922-33.786,35.66-42.871a18.059,18.059,0,0,1,6.782-2.451,7.277,7.277,0,0,1,6.5,2.469,8.175,8.175,0,0,1,1.094,6.342c-3.04,17.2-22.634,23.79-32.2,36.511" fill="#d7e3f4"/>
        <path id="Trazado_26523" data-name="Trazado 26523" d="M177.568,751.434s15.751-31.092,31.129-49.614c7.28-8.768,12.28-25.009,4.626-29.876-11.076-7.04-21.959,8.643-26.946,16.431-7.541,11.776-13.089,24.809-17.367,38.086-.619,1.923-6.269,24.973-6.381,24.973h14.939Z" fill="#d7e3f4"/>
        <path id="Trazado_26524" data-name="Trazado 26524" d="M207.688,680.848c-14.524,18.363-26.572,45.549-34.577,70.586" fill="none" stroke="#fff" stroke-miterlimit="10" stroke-width="1"/>
        <path id="Trazado_26525" data-name="Trazado 26525" d="M144.54,751.434s-1.829-47.841-23-69.958c-5.719-5.976-15.1-12.186-22.79-13.888-9.972-2.205-9.7,9.523-7.895,17.122,2.34,9.846,10.387,15.986,16.19,23.32,10.678,13.495,17.051,22.4,24.847,43.4" fill="#b2cded"/>
        <path id="Trazado_26526" data-name="Trazado 26526" d="M150.9,751.434c5.715-10.457,3.705-55.165.839-69.169a71.446,71.446,0,0,0-11.667-27c-5.065-7.043-20.2-22.567-29.11-16.258-5.152,3.649,2.652,16.791,4.711,20.737a224.708,224.708,0,0,1,16.1,40.544,246.358,246.358,0,0,1,9.7,50.5c.017.217.031.434.046.651" fill="#d7e3f4"/>
        <path id="Trazado_26527" data-name="Trazado 26527" d="M151.949,751.434c-1.884-25.034-.678-63.453,10.607-85.155,12.8-24.609,29.479-35.971,31.9-26.38,7.023,27.817-21.158,102.633-29.094,111.535" fill="#b2cded"/>
        <path id="Trazado_26528" data-name="Trazado 26528" d="M95.957,675.577c22.777,15.878,38.5,45.953,41.425,75.857" fill="none" stroke="#fff" stroke-miterlimit="10" stroke-width="1"/>
        <path id="Trazado_26529" data-name="Trazado 26529" d="M119.263,646.988c11.192,9.994,16.882,25.627,20.322,40.764a340.646,340.646,0,0,1,7.765,63.682" fill="none" stroke="#fff" stroke-miterlimit="10" stroke-width="1"/>
        <path id="Trazado_26530" data-name="Trazado 26530" d="M187.267,650.427c-13.777,31.653-25.4,65.85-27.34,101.007" fill="none" stroke="#fff" stroke-miterlimit="10" stroke-width="1"/>
        <path id="Trazado_26531" data-name="Trazado 26531" d="M219.773,712.218s-20.135,13.375-34.187,39.216" fill="none" stroke="#fff" stroke-miterlimit="10" stroke-width="1"/>
      </g>
      <g id="Grupo_30846" data-name="Grupo 30846">
        <path id="Trazado_26532" data-name="Trazado 26532" d="M425.8,751.354c2.991-39.539-.341-78.318,14.721-115.787,4.275-10.634,14.016-27.409,27.488-27.982,20.807-.886,8.067,40.918,4.3,56.561a232.711,232.711,0,0,1-9.794,29.685c-6.658,17.056-16.67,40.9-24.237,57.523" fill="#b2cded"/>
        <path id="Trazado_26533" data-name="Trazado 26533" d="M415,751.354c-6.551-16.762-12.961-33.579-19.441-50.368-5.747-14.891-12.435-29.452-17.079-44.748-3.534-11.644-12.669-38.327.7-46.529C403,595.1,422.033,651.62,424.545,671.692c3.311,26.456,2.6,53.067,2.993,79.662" fill="#d7e3f4"/>
        <path id="Trazado_26534" data-name="Trazado 26534" d="M396.08,751.354s-13.916-17.778-20.193-26.115c-14.021-18.622-31.308-38.849-28.728-59.782.594-4.819,2.36-10.182,7.2-13.032a16.819,16.819,0,0,1,10-1.9c11.393,1.085,21.6,17.631,26.726,26.113,10.037,16.611,25.581,74.721,25.581,74.721" fill="#b2cded"/>
        <path id="Trazado_26535" data-name="Trazado 26535" d="M385.434,621.426C402.421,655.78,419,719.4,419.408,751.354" fill="none" stroke="#fff" stroke-miterlimit="10" stroke-width="1"/>
        <path id="Trazado_26536" data-name="Trazado 26536" d="M359.027,660.88c14.946,28.713,45.344,90.474,45.344,90.474" fill="none" stroke="#fff" stroke-miterlimit="10" stroke-width="1"/>
        <path id="Trazado_26537" data-name="Trazado 26537" d="M467.149,616.678c-12.2,27.2-28.912,86.156-35.643,134.756" fill="none" stroke="#fff" stroke-miterlimit="10" stroke-width="1"/>
        <path id="Trazado_26538" data-name="Trazado 26538" d="M438.869,751.354s6.955-30.986,11.769-48.576c5.235-19.127,22.362-48.4,40.363-56.721,4.144-1.914,9.139-3.23,13.146-1.045a11.412,11.412,0,0,1,5.024,6.456c3.064,8.948-11.926,37.2-17.08,45.134-10.094,15.529-24.552,40.2-36.014,54.752" fill="#d7e3f4"/>
        <path id="Trazado_26539" data-name="Trazado 26539" d="M500.807,652.286c-21.283,18.479-49.754,77.4-57.714,99.068" fill="none" stroke="#fff" stroke-miterlimit="10" stroke-width="1"/>
      </g>
      <g id="Grupo_30847" data-name="Grupo 30847">
        <path id="Trazado_26540" data-name="Trazado 26540" d="M-22.982,732.076c-2.726-14.451-7.2-43.106-10.587-60.69-1.641-8.509-6.391-18.9-9.4-26.975-5.5-14.73-18.79-40.327-35.27-38.958-20.449,1.7-3.923,38.459,1.284,52.336A201.459,201.459,0,0,0-64.494,683.8c8.171,14.823,20.285,35.463,29.3,49.776" fill="#b2cded"/>
        <path id="Trazado_26541" data-name="Trazado 26541" d="M-11.178,716.48c-4.99-13.051-3.642-29.65-3.625-43.464.03-24.861,8.663-59.811,24.852-76.125,6.673-6.725,17.715-14.2,24.888-3.923,6.793,9.736-1.061,36.2-3.535,47.566-4.846,22.264-28.053,63.5-34.757,85.059" fill="#b2cded"/>
        <path id="Trazado_26542" data-name="Trazado 26542" d="M23.047,604.336c-11.5,29.835-26.965,84.274-30.91,116.006" fill="none" stroke="#fff" stroke-miterlimit="10" stroke-width="1"/>
        <path id="Trazado_26543" data-name="Trazado 26543" d="M-76.515,613.679c14.577,23.448,35.944,73.672,47.249,117.385" fill="none" stroke="#fff" stroke-miterlimit="10" stroke-width="1"/>
        <path id="Trazado_26544" data-name="Trazado 26544" d="M-22.4,700.479c6.134-10.036,13.408-42.617,15.067-54.262C-5,629.843-4.748,612.543-8.8,596.413c-2.736-10.882-15.253-43.437-30.961-28.755-7.376,6.895-6.2,44.469-5.32,54.528,1.721,19.7,11.924,54.969,15.425,74.43" fill="#d7e3f4"/>
        <path id="Trazado_26545" data-name="Trazado 26545" d="M-31.063,576.053c10.784,28.091,8.054,97.9,4.683,122.308" fill="none" stroke="#fff" stroke-miterlimit="10" stroke-width="1"/>
      </g>
    </g>
    <line id="Línea_89" data-name="Línea 89" x2="627.826" transform="translate(-118.246 751.434)" fill="none" stroke="#648acc" stroke-miterlimit="10" stroke-width="1"/>
    <g id="Grupo_30856" data-name="Grupo 30856">
      <g id="Grupo_30849" data-name="Grupo 30849">
        <path id="Trazado_26546" data-name="Trazado 26546" d="M135.144,468.758c3.068-3.027,10.516-13.258,11.363-13.007s-1.727,3.886-.994,3.963,5.07-5.245,5.848-4.768c1.054.647-3.68,5.86-3.68,5.86s5.47-5.452,6.222-4.626c.533.585-3.45,4.937-4.763,6.791,1.678-1.828,4.75-4.468,5.291-3.85s-2.113,3.635-4.018,6.058c1.331-1.4,3.889-3.82,4.415-3.272s-5.883,10.3-11.752,17.422" fill="#f886bc"/>
        <path id="Trazado_26547" data-name="Trazado 26547" d="M96.077,506.128a440.848,440.848,0,0,0,43.626-42.7l9.8,6.548s-16.456,25.513-38,47.468" fill="#f886bc"/>
        <path id="Trazado_26548" data-name="Trazado 26548" d="M88.279,513.587c5.392-6.773,14.3-13.324,14.3-13.324l15.814,12.786-13.879,16.282" fill="#bf2c4c"/>
      </g>
      <g id="Grupo_30852" data-name="Grupo 30852">
        <g id="Grupo_30850" data-name="Grupo 30850">
          <path id="Trazado_26549" data-name="Trazado 26549" d="M115.524,629.575l-8.372,110.248,9.9,6.306s-27.223,1.417-28.108.525,1.117-7,1.117-7L85.521,629.312Z" fill="#f886bc"/>
          <path id="Trazado_26550" data-name="Trazado 26550" d="M93.285,746.577l-4.053-3.986.573-2.093,6.23,6.089,3,.011,10.566-5.216,11.471,7.181a1.554,1.554,0,0,1-.83,2.871l-15.418-.056L99.9,747.955l-1.4-.005-.012,3.4-10.041-.037.017-4.758Z" fill="#28364c"/>
        </g>
        <g id="Grupo_30851" data-name="Grupo 30851">
          <path id="Trazado_26551" data-name="Trazado 26551" d="M93.536,628.987,68.843,739.823l9.906,6.306s-27.223,1.417-28.108.525,1.117-7,1.117-7l7.217-110.669Z" fill="#f886bc"/>
          <path id="Trazado_26552" data-name="Trazado 26552" d="M54.977,746.577l-4.054-3.986L51.5,740.5l6.229,6.089,3,.011,10.566-5.216,11.471,7.181a1.554,1.554,0,0,1-.83,2.871l-15.419-.056-4.92-3.423-1.4-.005-.012,3.4-10.041-.037.017-4.758Z" fill="#28364c"/>
        </g>
        <path id="Trazado_26553" data-name="Trazado 26553" d="M67.575,571.813C53.991,595.719,54.017,640.2,54.017,640.2h62.971s-.868-39.066-7.9-61.076Z" fill="#101d54"/>
        <line id="Línea_90" data-name="Línea 90" x2="1.569" y2="66.235" transform="translate(88.617 573.961)" fill="none" stroke="#273b7a" stroke-miterlimit="10" stroke-width="0.75"/>
        <path id="Trazado_26554" data-name="Trazado 26554" d="M102.552,576.746s-3.184,8.068-13.935,10.858" fill="none" stroke="#273b7a" stroke-miterlimit="10" stroke-width="0.75"/>
      </g>
      <g id="Grupo_30853" data-name="Grupo 30853">
        <path id="Trazado_26555" data-name="Trazado 26555" d="M158.23,548.567c4.139,1.2,16.7,2.728,16.894,3.589s-4.234.384-3.945,1.062,7.051,1.874,7.013,2.785c-.052,1.236-6.91-.359-6.91-.359s7.425,2.122,7.07,3.18c-.251.751-5.992-.608-8.251-.852,2.414.576,6.216,1.973,5.939,2.746s-4.2-.075-7.247-.559c1.871.48,5.23,1.537,5.007,2.263s-9.917-.656-18.993-2.315" fill="#f886bc"/>
        <path id="Trazado_26556" data-name="Trazado 26556" d="M84.151,507.2s1.037,2.661,6.69,2.661c3.949,0,5.437-2.07,5.437-2.07s1.454,1.3,17.011,21.721c3.293,4.323,2.582,13.65-2.923,21.715a135.578,135.578,0,0,0-1.278,27.9H64.064s-.785-32.349,2.328-49.991A29.926,29.926,0,0,1,84.151,507.2Z" fill="#e03b5a"/>
        <path id="Trazado_26557" data-name="Trazado 26557" d="M113.893,521.18c30,23.539,50.8,28.646,50.8,28.646L162.25,561.36s-36.031-4.57-59.7-24.463" fill="#f886bc"/>
        <path id="Trazado_26558" data-name="Trazado 26558" d="M96.47,508.566c7.7,1.295,19.509,12.624,19.509,12.624l-12.536,18.4s-5.322-3.684-12.535-9.884" fill="#e03b5a" fill-rule="evenodd"/>
        <path id="Trazado_26559" data-name="Trazado 26559" d="M103.443,538.9c-9.39-5.717-13.613-9.909-13.613-9.909" fill="none" stroke="#a31d4a" stroke-miterlimit="10" stroke-width="0.75"/>
      </g>
      <g id="Grupo_30855" data-name="Grupo 30855">
        <path id="Trazado_26560" data-name="Trazado 26560" d="M99.831,487.256c3.13,5.174,4.425,10.348.039,13s-11.437,3.973-15.921-3.393c-3.143-5.165-2.112-11.519,2.274-14.172S96.7,482.082,99.831,487.256Z" fill="#f886bc" fill-rule="evenodd"/>
        <g id="Grupo_30854" data-name="Grupo 30854">
          <path id="Trazado_26561" data-name="Trazado 26561" d="M96.186,488.58c.145.525.559,1.143,1.078,1.125a.327.327,0,0,0,.3-.232C97.87,488.579,95.883,487.483,96.186,488.58Z" fill="#0b0b3a"/>
        </g>
        <path id="Trazado_26562" data-name="Trazado 26562" d="M94.111,488.134a4.073,4.073,0,0,1,2.972-1.736" fill="none" stroke="#0b0b3a" stroke-linecap="round" stroke-miterlimit="10" stroke-width="0.5"/>
        <path id="Trazado_26563" data-name="Trazado 26563" d="M101.022,493.154l-2.9,1.45s1.024,2.5,2.592,2.036C102.023,496.248,101.022,493.154,101.022,493.154Z" fill="#fff"/>
        <path id="Trazado_26564" data-name="Trazado 26564" d="M96.47,508.566a12.333,12.333,0,0,1-5.629,1.292c-4.53-.113-6.69-1.925-6.69-1.925l2.987-12.763,10.983.8Z" fill="#f886bc" fill-rule="evenodd"/>
        <path id="Trazado_26565" data-name="Trazado 26565" d="M98.773,487.493s3.751,2.508,3.884,3.175S101.2,492.3,101.2,492.3" fill="#f886bc" fill-rule="evenodd"/>
        <path id="Trazado_26566" data-name="Trazado 26566" d="M88.279,479.13c-.4.2-1.8-.174-2.312-.173a11.869,11.869,0,0,0-2.129.18c-4.182.763-7.305,4.224-9.274,7.784-1.293,2.338-2.38,4.936-4.733,6.419-5.172,3.261-11.961,2.094-17.756,4.045-5.9,1.985-10.414,7.97-8.832,14.355.517,2.091,1.615,3.992,2.261,6.047,1.379,4.383.734,9.485,3.367,13.251a11.876,11.876,0,0,0,2.6,2.61A18.04,18.04,0,0,0,79.128,526c2.34-5.834,1.609-12.785,5.023-18.064,1.594-2.465,3.975-4.346,5.559-6.819,1.447-2.259,2.208-6.511,2.382-9.231.041-.629-1.085-5.854-.748-5.854a12.814,12.814,0,0,0,7.778-3.286A7.939,7.939,0,0,0,88.279,479.13Z" fill="#0b0b3a"/>
        <path id="Trazado_26567" data-name="Trazado 26567" d="M91.2,492.564a1.823,1.823,0,0,0-2.606.455c-1.337,2,1.881,4.52,3.43,4.637s1.509-1.566,1.509-1.566" fill="#f886bc"/>
      </g>
    </g>
    <g id="Grupo_30891" data-name="Grupo 30891">
      <g id="Grupo_30867" data-name="Grupo 30867">
        <g id="Grupo_30857" data-name="Grupo 30857">
          <rect id="Rectángulo_4127" data-name="Rectángulo 4127" width="97.91" height="130.753" transform="translate(330.435 460.871)" fill="#d9e4f4" stroke="#648acc" stroke-miterlimit="10" stroke-width="1"/>
        </g>
        <g id="Grupo_30858" data-name="Grupo 30858">
          <rect id="Rectángulo_4128" data-name="Rectángulo 4128" width="97.91" height="130.753" transform="translate(345.059 460.871)" fill="#fff" stroke="#648acc" stroke-miterlimit="10" stroke-width="1"/>
        </g>
        <rect id="Rectángulo_4129" data-name="Rectángulo 4129" width="71.89" height="17.092" rx="3.595" transform="translate(358.465 471.045)" fill="#d7e3f4" opacity="0.45"/>
        <rect id="Rectángulo_4130" data-name="Rectángulo 4130" width="41.376" height="48.052" rx="3.595" transform="translate(358.465 532.787)" fill="#d7e3f4" opacity="0.45"/>
        <g id="Grupo_30859" data-name="Grupo 30859">
          <path id="Trazado_26568" data-name="Trazado 26568" d="M363.828,505.142h-2.182c-1.757,0-3.181-1.868-3.181-4.172s1.424-4.172,3.181-4.172h2.182Z" fill="#b2cded"/>
          <path id="Trazado_26569" data-name="Trazado 26569" d="M367.009,500.97c0,2.3-1.424,4.172-3.181,4.172s-3.182-1.868-3.182-4.172,1.425-4.172,3.182-4.172S367.009,498.666,367.009,500.97Z" fill="#d7e3f4"/>
        </g>
        <g id="Grupo_30860" data-name="Grupo 30860">
          <path id="Trazado_26570" data-name="Trazado 26570" d="M384.943,505.142h-2.181c-1.758,0-3.182-1.868-3.182-4.172S381,496.8,382.762,496.8h2.181Z" fill="#b2cded"/>
          <path id="Trazado_26571" data-name="Trazado 26571" d="M388.124,500.97c0,2.3-1.424,4.172-3.181,4.172s-3.181-1.868-3.181-4.172,1.424-4.172,3.181-4.172S388.124,498.666,388.124,500.97Z" fill="#d7e3f4"/>
        </g>
        <g id="Grupo_30861" data-name="Grupo 30861">
          <path id="Trazado_26572" data-name="Trazado 26572" d="M406.058,505.142h-2.181c-1.757,0-3.182-1.868-3.182-4.172s1.425-4.172,3.182-4.172h2.181Z" fill="#b2cded"/>
          <path id="Trazado_26573" data-name="Trazado 26573" d="M409.24,500.97c0,2.3-1.425,4.172-3.182,4.172s-3.181-1.868-3.181-4.172,1.424-4.172,3.181-4.172S409.24,498.666,409.24,500.97Z" fill="#d7e3f4"/>
        </g>
        <g id="Grupo_30862" data-name="Grupo 30862">
          <path id="Trazado_26574" data-name="Trazado 26574" d="M427.174,505.142h-2.182c-1.757,0-3.181-1.868-3.181-4.172s1.424-4.172,3.181-4.172h2.182Z" fill="#b2cded"/>
          <path id="Trazado_26575" data-name="Trazado 26575" d="M430.355,500.97c0,2.3-1.424,4.172-3.181,4.172s-3.182-1.868-3.182-4.172,1.425-4.172,3.182-4.172S430.355,498.666,430.355,500.97Z" fill="#d7e3f4"/>
        </g>
        <g id="Grupo_30863" data-name="Grupo 30863">
          <path id="Trazado_26576" data-name="Trazado 26576" d="M363.828,525.352h-2.182c-1.757,0-3.181-1.868-3.181-4.172s1.424-4.172,3.181-4.172h2.182Z" fill="#b2cded"/>
          <path id="Trazado_26577" data-name="Trazado 26577" d="M367.009,521.18c0,2.3-1.424,4.172-3.181,4.172s-3.182-1.868-3.182-4.172,1.425-4.172,3.182-4.172S367.009,518.876,367.009,521.18Z" fill="#d7e3f4"/>
        </g>
        <g id="Grupo_30864" data-name="Grupo 30864">
          <path id="Trazado_26578" data-name="Trazado 26578" d="M384.943,525.352h-2.181c-1.758,0-3.182-1.868-3.182-4.172s1.424-4.172,3.182-4.172h2.181Z" fill="#b2cded"/>
          <path id="Trazado_26579" data-name="Trazado 26579" d="M388.124,521.18c0,2.3-1.424,4.172-3.181,4.172s-3.181-1.868-3.181-4.172,1.424-4.172,3.181-4.172S388.124,518.876,388.124,521.18Z" fill="#d7e3f4"/>
        </g>
        <g id="Grupo_30865" data-name="Grupo 30865">
          <path id="Trazado_26580" data-name="Trazado 26580" d="M406.058,525.352h-2.181c-1.757,0-3.182-1.868-3.182-4.172s1.425-4.172,3.182-4.172h2.181Z" fill="#b2cded"/>
          <path id="Trazado_26581" data-name="Trazado 26581" d="M409.24,521.18c0,2.3-1.425,4.172-3.182,4.172s-3.181-1.868-3.181-4.172,1.424-4.172,3.181-4.172S409.24,518.876,409.24,521.18Z" fill="#d7e3f4"/>
        </g>
        <g id="Grupo_30866" data-name="Grupo 30866">
          <path id="Trazado_26582" data-name="Trazado 26582" d="M427.174,525.352h-2.182c-1.757,0-3.181-1.868-3.181-4.172s1.424-4.172,3.181-4.172h2.182Z" fill="#b2cded"/>
          <path id="Trazado_26583" data-name="Trazado 26583" d="M430.355,521.18c0,2.3-1.424,4.172-3.181,4.172s-3.182-1.868-3.182-4.172,1.425-4.172,3.182-4.172S430.355,518.876,430.355,521.18Z" fill="#d7e3f4"/>
        </g>
      </g>
      <g id="Grupo_30872" data-name="Grupo 30872">
        <path id="Trazado_26584" data-name="Trazado 26584" d="M-41.363,751.434H124.8V624.11H.447L-41.363,673Z" fill="#fff" stroke="#648acc" stroke-miterlimit="10" stroke-width="1"/>
        <path id="Trazado_26585" data-name="Trazado 26585" d="M77.629,751.434h61.223V624.11H118.6L77.629,673Z" fill="#d9e4f4" stroke="#648acc" stroke-miterlimit="10" stroke-width="1"/>
        <rect id="Rectángulo_4131" data-name="Rectángulo 4131" width="118.992" height="78.431" transform="translate(77.629 751.434) rotate(180)" fill="#d9e4f4" stroke="#648acc" stroke-miterlimit="10" stroke-width="1"/>
        <g id="Grupo_30868" data-name="Grupo 30868">
          <path id="Trazado_26586" data-name="Trazado 26586" d="M88.275,638.387c1.139,1.043,3.469.342,5.205-1.567s2.218-4.3,1.079-5.344l-2.36-2.16-6.285,6.911Z" fill="#b2cded"/>
          <path id="Trazado_26587" data-name="Trazado 26587" d="M86.063,636.363c1.139,1.043,3.47.341,5.2-1.568s2.219-4.3,1.08-5.343-3.469-.341-5.205,1.568S84.924,635.321,86.063,636.363Z" fill="#d7e3f4"/>
        </g>
        <g id="Grupo_30869" data-name="Grupo 30869">
          <path id="Trazado_26588" data-name="Trazado 26588" d="M69.752,638.387c1.139,1.043,3.47.342,5.205-1.567s2.219-4.3,1.08-5.344l-2.36-2.16-6.285,6.911Z" fill="#b2cded"/>
          <path id="Trazado_26589" data-name="Trazado 26589" d="M67.541,636.363c1.139,1.043,3.469.341,5.205-1.568s2.219-4.3,1.08-5.343-3.469-.341-5.2,1.568S66.4,635.321,67.541,636.363Z" fill="#d7e3f4"/>
        </g>
        <g id="Grupo_30870" data-name="Grupo 30870">
          <path id="Trazado_26590" data-name="Trazado 26590" d="M31.627,638.387c1.139,1.043,3.47.342,5.206-1.567s2.218-4.3,1.079-5.344l-2.36-2.16-6.285,6.911Z" fill="#b2cded"/>
          <path id="Trazado_26591" data-name="Trazado 26591" d="M29.416,636.363c1.139,1.043,3.469.341,5.2-1.568s2.219-4.3,1.08-5.343-3.469-.341-5.2,1.568S28.277,635.321,29.416,636.363Z" fill="#d7e3f4"/>
        </g>
        <g id="Grupo_30871" data-name="Grupo 30871">
          <path id="Trazado_26592" data-name="Trazado 26592" d="M11.987,638.387c1.139,1.043,3.47.342,5.2-1.567s2.219-4.3,1.08-5.344l-2.36-2.16-6.285,6.911Z" fill="#b2cded"/>
          <path id="Trazado_26593" data-name="Trazado 26593" d="M9.776,636.363c1.138,1.043,3.469.341,5.2-1.568s2.22-4.3,1.08-5.343-3.469-.341-5.2,1.568S8.637,635.321,9.776,636.363Z" fill="#d7e3f4"/>
        </g>
        <path id="Trazado_26594" data-name="Trazado 26594" d="M76.211,664.093l6.6-8.555H-17.729l-7.554,8.555Z" fill="#d7e3f4" opacity="0.45"/>
      </g>
      <path id="Trazado_26595" data-name="Trazado 26595" d="M187.4,604.612V710.947a9.312,9.312,0,0,1-9.313,9.312H118.936a9.312,9.312,0,0,1-9.312-9.312V707.9" fill="none" stroke="#648acc" stroke-miterlimit="10" stroke-width="1"/>
      <path id="Trazado_26596" data-name="Trazado 26596" d="M202.063,609.491V730.977a9.5,9.5,0,0,1-9.5,9.5H98.518a9.312,9.312,0,0,1-9.312-9.312V707.9" fill="none" stroke="#648acc" stroke-miterlimit="10" stroke-width="1"/>
      <path id="Trazado_26597" data-name="Trazado 26597" d="M228.675,607.458v70.478a9.313,9.313,0,0,0,9.312,9.313h73.46a9.314,9.314,0,0,0,9.313-9.313V557.2a9.312,9.312,0,0,1,9.312-9.312h30.29" fill="none" stroke="#648acc" stroke-miterlimit="10" stroke-width="1"/>
      <path id="Trazado_26598" data-name="Trazado 26598" d="M216.866,609.491v98.783a9.312,9.312,0,0,0,9.312,9.312H361.049a9.313,9.313,0,0,0,9.313-9.312V570.942" fill="none" stroke="#648acc" stroke-miterlimit="10" stroke-width="1"/>
      <g id="Grupo_30890" data-name="Grupo 30890">
        <g id="Grupo_30874" data-name="Grupo 30874">
          <g id="Grupo_30873" data-name="Grupo 30873">
            <path id="Trazado_26599" data-name="Trazado 26599" d="M120.631,454.918a87.625,87.625,0,1,1,158.449,51.6h0c-12.508,18.847-45.007,40.127-45.007,52.876v14.565a5.264,5.264,0,0,1-5.264,5.265H187.7a5.264,5.264,0,0,1-5.264-5.265V559.39c0-12.749-32.5-34.029-45.007-52.876h0A87.225,87.225,0,0,1,120.631,454.918Z" fill="#fdd305"/>
          </g>
        </g>
        <g id="Grupo_30875" data-name="Grupo 30875">
          <path id="Trazado_26600" data-name="Trazado 26600" d="M218.206,577.768c-.1-2.2-1.671-37.371,1.146-68.2a98.643,98.643,0,0,1-22.191,0c2.816,30.827,1.247,66,1.144,68.2l-1.545-.073c.025-.541,1.65-36.924-1.229-68.335-25.989-3.614-37.622-18.337-39.71-32.233-1.221-8.121,1.552-16.2,6.594-19.219a13.247,13.247,0,0,1,10.689-1.07c6.189,1.775,12.071,7.108,15.735,14.266,4.23,8.265,6.731,21.989,8.173,36.888a96.547,96.547,0,0,0,22.488,0c1.442-14.9,3.943-28.623,8.174-36.888,3.663-7.158,9.545-12.491,15.734-14.266a13.246,13.246,0,0,1,10.689,1.07c5.042,3.016,7.816,11.1,6.595,19.219-2.089,13.9-13.722,28.619-39.711,32.233-2.879,31.411-1.254,67.794-1.229,68.335Zm29.537-120.021a14.168,14.168,0,0,0-3.908.578c-5.785,1.66-11.312,6.7-14.785,13.483-4.068,7.95-6.5,21.338-7.92,35.967,24.9-3.589,36.04-17.625,38.032-30.877,1.113-7.406-1.4-15-5.858-17.662A10.7,10.7,0,0,0,247.743,457.747Zm-78.974,0a10.7,10.7,0,0,0-5.56,1.489c-4.453,2.663-6.972,10.256-5.859,17.662,1.992,13.252,13.135,27.288,38.031,30.877-1.42-14.629-3.851-28.017-7.919-35.967-3.473-6.783-9-11.823-14.785-13.483A14.163,14.163,0,0,0,168.769,457.747Z" fill="#fff"/>
        </g>
        <g id="Grupo_30876" data-name="Grupo 30876">
          <path id="Trazado_26601" data-name="Trazado 26601" d="M281.293,459.945a5.027,5.027,0,0,1-5.027-5.027A67.921,67.921,0,0,0,225,388.984a5.027,5.027,0,1,1,2.467-9.747,77.966,77.966,0,0,1,58.85,75.681A5.028,5.028,0,0,1,281.293,459.945Z" fill="#fe9"/>
        </g>
        <g id="Grupo_30877" data-name="Grupo 30877">
          <path id="Trazado_26602" data-name="Trazado 26602" d="M206.568,381.743a5.028,5.028,0,1,0,5.027-5.028A5.027,5.027,0,0,0,206.568,381.743Z" fill="#fe9"/>
        </g>
        <g id="Grupo_30880" data-name="Grupo 30880" opacity="0.55" style="mix-blend-mode: multiply;isolation: isolate">
          <g id="Grupo_30879" data-name="Grupo 30879">
            <g id="Grupo_30878" data-name="Grupo 30878">
              <path id="Trazado_26603" data-name="Trazado 26603" d="M295.713,460.1c-4.836,35.93-33.845,73.127-87.457,73.127S126.718,494.289,120.8,460.1a87.171,87.171,0,0,0,16.633,46.415h0c12.508,18.847,45.007,40.127,45.007,52.876v14.565a5.264,5.264,0,0,0,5.264,5.265h41.106a5.264,5.264,0,0,0,5.264-5.265V559.39c0-12.749,32.5-34.029,45.007-52.876h0A87.163,87.163,0,0,0,295.713,460.1Z" fill="#ffc043"/>
            </g>
          </g>
        </g>
        <g id="Grupo_30881" data-name="Grupo 30881">
          <path id="Trazado_26604" data-name="Trazado 26604" d="M236.144,565.61H180.369v26.582a22.873,22.873,0,0,0,3.561,12.257h0a23.972,23.972,0,0,0,20.238,11.124h8.177a23.97,23.97,0,0,0,20.237-11.124h0a22.874,22.874,0,0,0,3.562-12.257Z" fill="#28364c"/>
        </g>
        <g id="Grupo_30883" data-name="Grupo 30883">
          <g id="Grupo_30882" data-name="Grupo 30882">
            <path id="Trazado_26605" data-name="Trazado 26605" d="M180.364,583.535a3.405,3.405,0,0,0,.483-.017l55.775-5.782a3.341,3.341,0,0,0,2.969-3.821,3.627,3.627,0,0,0-3.925-3.107l-55.775,5.782a3.342,3.342,0,0,0-2.97,3.822A3.637,3.637,0,0,0,180.364,583.535Z" fill="#475577"/>
          </g>
        </g>
        <g id="Grupo_30885" data-name="Grupo 30885">
          <g id="Grupo_30884" data-name="Grupo 30884">
            <path id="Trazado_26606" data-name="Trazado 26606" d="M180.364,595.7a3.415,3.415,0,0,0,.483-.017l55.775-5.782a3.341,3.341,0,0,0,2.969-3.821,3.629,3.629,0,0,0-3.925-3.107l-55.775,5.782a3.342,3.342,0,0,0-2.97,3.822A3.636,3.636,0,0,0,180.364,595.7Z" fill="#475577"/>
          </g>
        </g>
        <g id="Grupo_30887" data-name="Grupo 30887">
          <g id="Grupo_30886" data-name="Grupo 30886">
            <path id="Trazado_26607" data-name="Trazado 26607" d="M182.592,607.744a3.542,3.542,0,0,0,.482-.017l52.867-5.481a3.342,3.342,0,0,0,2.97-3.822,3.627,3.627,0,0,0-3.925-3.106l-52.868,5.48a3.343,3.343,0,0,0-2.969,3.822A3.638,3.638,0,0,0,182.592,607.744Z" fill="#475577"/>
          </g>
        </g>
        <g id="Grupo_30889" data-name="Grupo 30889">
          <line id="Línea_91" data-name="Línea 91" y2="27.536" transform="translate(208.256 330.093)" fill="#ffcd5c" stroke="#ffc043" stroke-linecap="round" stroke-linejoin="round" stroke-width="3"/>
          <g id="Grupo_30888" data-name="Grupo 30888">
            <line id="Línea_92" data-name="Línea 92" x1="11.121" y2="25.19" transform="translate(246.792 341.06)" fill="#ffcd5c" stroke="#ffc043" stroke-linecap="round" stroke-linejoin="round" stroke-width="3"/>
            <line id="Línea_93" data-name="Línea 93" x1="20.347" y2="18.553" transform="translate(279.419 371.526)" fill="#ffcd5c" stroke="#ffc043" stroke-linecap="round" stroke-linejoin="round" stroke-width="3"/>
            <line id="Línea_94" data-name="Línea 94" x2="11.121" y2="25.19" transform="translate(158.599 341.06)" fill="#ffcd5c" stroke="#ffc043" stroke-linecap="round" stroke-linejoin="round" stroke-width="3"/>
            <line id="Línea_95" data-name="Línea 95" x2="20.347" y2="18.553" transform="translate(116.746 371.526)" fill="#ffcd5c" stroke="#ffc043" stroke-linecap="round" stroke-linejoin="round" stroke-width="3"/>
          </g>
        </g>
      </g>
      <circle id="Elipse_1045" data-name="Elipse 1045" cx="1.897" cy="1.897" r="1.897" transform="translate(87.309 706.143)" fill="#648acc"/>
      <circle id="Elipse_1046" data-name="Elipse 1046" cx="1.897" cy="1.897" r="1.897" transform="translate(107.727 706.143)" fill="#648acc"/>
      <circle id="Elipse_1047" data-name="Elipse 1047" cx="1.897" cy="1.897" r="1.897" transform="translate(368.465 569.045)" fill="#648acc"/>
      <circle id="Elipse_1048" data-name="Elipse 1048" cx="1.897" cy="1.897" r="1.897" transform="translate(379.153 569.045)" fill="#648acc"/>
      <path id="Trazado_26608" data-name="Trazado 26608" d="M393.634,570.942a1.9,1.9,0,1,1-1.9-1.9A1.9,1.9,0,0,1,393.634,570.942Z" fill="#648acc"/>
      <circle id="Elipse_1049" data-name="Elipse 1049" cx="1.897" cy="1.897" r="1.897" transform="translate(358.465 545.989)" fill="#648acc"/>
    </g>
    <g id="Grupo_30897" data-name="Grupo 30897">
      <circle id="Elipse_1050" data-name="Elipse 1050" cx="39.134" cy="39.134" r="39.134" transform="translate(250.732 637.927) rotate(-22.69)" fill="#f46072"/>
      <circle id="Elipse_1051" data-name="Elipse 1051" cx="28.312" cy="28.312" r="28.312" transform="translate(268.051 637.602) rotate(-12.802)" fill="#fff"/>
      <path id="Trazado_26609" data-name="Trazado 26609" d="M282.486,658.937a19.447,19.447,0,1,0,19.447-19.447A19.447,19.447,0,0,0,282.486,658.937Z" fill="#f46072"/>
      <path id="Trazado_26610" data-name="Trazado 26610" d="M291.746,658.937a10.187,10.187,0,1,0,10.187-10.188A10.187,10.187,0,0,0,291.746,658.937Z" fill="#fff"/>
      <g id="Grupo_30896" data-name="Grupo 30896">
        <g id="Grupo_30892" data-name="Grupo 30892">
          <path id="Trazado_26611" data-name="Trazado 26611" d="M300.356,660.513h6.4l-6.4-6.4Z" fill="#0c3656"/>
        </g>
        <g id="Grupo_30893" data-name="Grupo 30893">
          <path id="Trazado_26612" data-name="Trazado 26612" d="M341.836,619.034h7.32v-1.845h-5.474v-5.474h-1.845Z" fill="#0c3656"/>
        </g>
        <g id="Grupo_30894" data-name="Grupo 30894">
          <path id="Trazado_26613" data-name="Trazado 26613" d="M345.186,615.684h7.319v-1.845h-5.474v-5.474h-1.845Z" fill="#0c3656"/>
        </g>
        <g id="Grupo_30895" data-name="Grupo 30895">
          <rect id="Rectángulo_4132" data-name="Rectángulo 4132" width="62.594" height="1.845" transform="translate(301.499 658.065) rotate(-44.999)" fill="#0c3656"/>
        </g>
      </g>
    </g>
    <g id="Grupo_30909" data-name="Grupo 30909">
      <g id="Grupo_30898" data-name="Grupo 30898">
        <path id="Trazado_26614" data-name="Trazado 26614" d="M.962,589.111l-4.827,9.167a19.555,19.555,0,0,1-7.836-2.243c-4.511-2.227-5.825-5.295-5.825-5.295l8.161-10.8" fill="#f886bc"/>
        <path id="Trazado_26615" data-name="Trazado 26615" d="M11.225,571.8c4.489,2.645-2.926,19.4-6.977,20.456S-7.846,585.4-10.244,578.692s5.317-10.373,9.852-11.737S11.225,571.8,11.225,571.8Z" fill="#f886bc"/>
        <path id="Trazado_26616" data-name="Trazado 26616" d="M8.118,580.047l-.393.838" fill="none" stroke="#00276f" stroke-linecap="round" stroke-linejoin="round" stroke-width="0.75"/>
        <path id="Trazado_26617" data-name="Trazado 26617" d="M10.381,578.283s-.985-1.476-3.576-.959" fill="none" stroke="#00276f" stroke-linecap="round" stroke-linejoin="round" stroke-width="0.75"/>
        <path id="Trazado_26618" data-name="Trazado 26618" d="M3.948,586.435,6.8,588.474s-1.117,2.16-2.137,1.32S3.948,586.435,3.948,586.435Z" fill="#fff"/>
        <path id="Trazado_26619" data-name="Trazado 26619" d="M15.256,575.466a43.476,43.476,0,0,1-5.824-2.672c-2.063.426-4.207,2.362-4.262,4.554-.012.493-.062,1.164-.551,1.232-.337.047-.615-.282-.71-.61a8.24,8.24,0,0,0-.216-1,1.434,1.434,0,0,0-1.761-.665,2.49,2.49,0,0,0-1.39,1.453c-.682,1.628-1.29,3.6.265,4.966a2.811,2.811,0,0,1,.681.678c.338.612-.061,1.356-.46,1.93a7.717,7.717,0,0,1-6.745,3.775c-2.565,0-6.826-3.383-7.107-5.073-.025-.151-2.48-10.506,2.075-17.092C-8.305,563.412-4,560.84.483,561.215a13.015,13.015,0,0,1,6.547,2.921C14.511,565.511,16.116,573.221,15.256,575.466Z" fill="#212237"/>
        <path id="Trazado_26620" data-name="Trazado 26620" d="M10.935,581.581s.662,5.023-.328,5.572-3.078-.881-3.078-.881" fill="#f886bc"/>
      </g>
      <g id="Grupo_30905" data-name="Grupo 30905">
        <g id="Grupo_30901" data-name="Grupo 30901">
          <g id="Grupo_30900" data-name="Grupo 30900">
            <g id="Grupo_30899" data-name="Grupo 30899">
              <path id="Trazado_26621" data-name="Trazado 26621" d="M13,717.554,9.335,741.2l-.191,7.12,27.915-.142a1.236,1.236,0,0,0,1.228-1.241h0a1.235,1.235,0,0,0-.8-1.148L25.451,740.25l4.762-24.56" fill="#f886bc"/>
              <path id="Trazado_26622" data-name="Trazado 26622" d="M39.508,747.874a3.8,3.8,0,0,0-1.337-2.126l-12.765-5.5c-7.037,2.853-16.145.673-16.145.673l-1.624,9.611a.576.576,0,0,0,.579.573l31.078-.159C39.92,750.944,39.517,747.9,39.508,747.874Z" fill="#4868ef"/>
              <path id="Trazado_26623" data-name="Trazado 26623" d="M28.169,740.8a15,15,0,0,0-1.8,3.022" fill="none" stroke="#273b7a" stroke-miterlimit="10" stroke-width="0.75"/>
              <path id="Trazado_26624" data-name="Trazado 26624" d="M29.776,741.762a13.244,13.244,0,0,0-1.48,2.569" fill="none" stroke="#273b7a" stroke-miterlimit="10" stroke-width="0.75"/>
              <path id="Trazado_26625" data-name="Trazado 26625" d="M31.134,742.463a18.844,18.844,0,0,0-1.387,2.358" fill="none" stroke="#273b7a" stroke-miterlimit="10" stroke-width="0.75"/>
            </g>
            <line id="Línea_96" data-name="Línea 96" y1="0.163" x2="31.838" transform="translate(7.801 748.869)" fill="none" stroke="#273b7a" stroke-miterlimit="10" stroke-width="0.75"/>
            <path id="Trazado_26626" data-name="Trazado 26626" d="M8.685,744.331s7.48.152,8.123,4.658" fill="none" stroke="#273b7a" stroke-miterlimit="10" stroke-width="0.75"/>
            <path id="Trazado_26627" data-name="Trazado 26627" d="M35.555,744.622a24.22,24.22,0,0,0-2.469,4.281" fill="none" stroke="#273b7a" stroke-miterlimit="10" stroke-width="0.75"/>
          </g>
        </g>
        <g id="Grupo_30904" data-name="Grupo 30904">
          <g id="Grupo_30903" data-name="Grupo 30903">
            <g id="Grupo_30902" data-name="Grupo 30902">
              <path id="Trazado_26628" data-name="Trazado 26628" d="M-73.655,723.75l-23.292-2.774-7.119-.191.142,27.915a1.233,1.233,0,0,0,1.241,1.227h0a1.232,1.232,0,0,0,1.147-.8L-96,737.091l24.138,2.718" fill="#f886bc"/>
              <path id="Trazado_26629" data-name="Trazado 26629" d="M-103.623,751.149a3.791,3.791,0,0,0,2.125-1.337l5.5-12.766c-2.852-7.036-.672-16.144-.672-16.144l-9.611-1.624a.576.576,0,0,0-.573.579l.159,31.078C-106.694,751.56-103.652,751.158-103.623,751.149Z" fill="#4868ef"/>
              <path id="Trazado_26630" data-name="Trazado 26630" d="M-96.55,739.809a15.048,15.048,0,0,0-3.022-1.8" fill="none" stroke="#273b7a" stroke-miterlimit="10" stroke-width="0.75"/>
              <path id="Trazado_26631" data-name="Trazado 26631" d="M-97.511,741.417a13.252,13.252,0,0,0-2.57-1.48" fill="none" stroke="#273b7a" stroke-miterlimit="10" stroke-width="0.75"/>
              <path id="Trazado_26632" data-name="Trazado 26632" d="M-98.212,742.775a18.793,18.793,0,0,0-2.358-1.387" fill="none" stroke="#273b7a" stroke-miterlimit="10" stroke-width="0.75"/>
            </g>
            <line id="Línea_97" data-name="Línea 97" x2="0.163" y2="31.839" transform="translate(-104.781 719.442)" fill="none" stroke="#273b7a" stroke-miterlimit="10" stroke-width="0.75"/>
            <path id="Trazado_26633" data-name="Trazado 26633" d="M-100.081,720.326s-.151,7.479-4.658,8.123" fill="none" stroke="#273b7a" stroke-miterlimit="10" stroke-width="0.75"/>
            <path id="Trazado_26634" data-name="Trazado 26634" d="M-100.371,747.2a24.15,24.15,0,0,0-4.282-2.468" fill="none" stroke="#273b7a" stroke-miterlimit="10" stroke-width="0.75"/>
          </g>
        </g>
        <path id="Trazado_26635" data-name="Trazado 26635" d="M-59.8,658.851c-5.005,13.383,3.164,32.809,3.164,32.809l4.306,31.293-40.842-1.8.4,27.162s43.808,3.117,54.4,3.117,14.692-2.372,17.8-8.58c4.633-9.25-2.026-60.389-2.026-61.236l-7.271-32.849" fill="#22252d"/>
        <line id="Línea_98" data-name="Línea 98" x2="0.307" y2="27.282" transform="translate(-88.271 721.37)" fill="none" stroke="#474b51" stroke-miterlimit="10" stroke-width="0.75"/>
        <path id="Trazado_26636" data-name="Trazado 26636" d="M-45.634,666.086s-4.636,23.693,18.9,28.784c10.518,2.276,37.262,3.023,37.262,3.023L5.961,734.5H32.667s5.533-27.579,7.2-46.027c1.108-12.272-4.17-17.76-14.093-18.991-8.4-1.041-33.66-2.684-33.66-2.684l-4.246-5.331" fill="#22252d"/>
        <path id="Trazado_26637" data-name="Trazado 26637" d="M-21.459,695.718s-19.807.06-24.545-22.136" fill="none" stroke="#474b51" stroke-miterlimit="10" stroke-width="0.75"/>
        <path id="Trazado_26638" data-name="Trazado 26638" d="M-35.552,671.488a53.9,53.9,0,0,0,12.34.57" fill="none" stroke="#474b51" stroke-miterlimit="10" stroke-width="0.75"/>
        <path id="Trazado_26639" data-name="Trazado 26639" d="M-61.419,668.35a39.443,39.443,0,0,0,8.712,1.479" fill="none" stroke="#474b51" stroke-miterlimit="10" stroke-width="0.75"/>
        <line id="Línea_99" data-name="Línea 99" x2="25.929" transform="translate(7.726 729.732)" fill="none" stroke="#474b51" stroke-miterlimit="10" stroke-width="0.75"/>
      </g>
      <g id="Grupo_30908" data-name="Grupo 30908">
        <g id="Grupo_30907" data-name="Grupo 30907">
          <g id="Grupo_30906" data-name="Grupo 30906">
            <rect id="Rectángulo_4133" data-name="Rectángulo 4133" width="2.126" height="23.235" transform="translate(61.049 628.695)" fill="#648acc"/>
          </g>
          <circle id="Elipse_1052" data-name="Elipse 1052" cx="3.919" cy="3.919" r="3.919" transform="translate(58.193 622.423)" fill="#648acc"/>
        </g>
        <path id="Trazado_26640" data-name="Trazado 26640" d="M42.445,633.013l7.884.582s6.06-2.045,8.474-2.1a3.159,3.159,0,0,1,2.246.749v2.383c0,1.587,2.125,2.285,2.125,1.208v-1.31c.025.087,4.366,2.15,1.822,4.114,1.194.247,1.828,1.925-.437,3.075a1.652,1.652,0,0,1-.111,2.943c.737,1.121-.762,2.356-1.953,2.614-2.254.488-20.291.109-20.291.109" fill="#f886bc"/>
        <path id="Trazado_26641" data-name="Trazado 26641" d="M-3.562,597.417c12.951,17.916,5.994,23.722-3.314,69.423a276.046,276.046,0,0,1-54.883-5.376,350.092,350.092,0,0,1,21.126-50.675c6.543-12.728,17.421-19.065,23.578-20.682" fill="#4868ef"/>
        <path id="Trazado_26642" data-name="Trazado 26642" d="M-23.212,617.56S-3.2,648.905,6.312,650.295c15.1,2.207,40.073,1.587,40.073,1.587l1.49-22.051s-32.1-1.623-33.425-2.376c-4.3-2.445-18.012-30.038-18.012-30.038" fill="#4868ef"/>
        <path id="Trazado_26643" data-name="Trazado 26643" d="M-1.9,644.575A88.523,88.523,0,0,1-21.459,619.7" fill="none" stroke="#273b7a" stroke-miterlimit="10" stroke-width="0.75"/>
        <line id="Línea_100" data-name="Línea 100" x1="1.891" y2="22.374" transform="translate(41.355 629.588)" fill="none" stroke="#273b7a" stroke-miterlimit="10" stroke-width="0.75"/>
      </g>
    </g>
    <g id="Grupo_30918" data-name="Grupo 30918">
      <g id="Grupo_30910" data-name="Grupo 30910">
        <path id="Trazado_26644" data-name="Trazado 26644" d="M467.941,594.985c-.484,4.283-3.925,16.461-3.2,16.971s1.987-3.759,2.5-3.23-.991,7.228-.135,7.544c1.16.43,2.333-6.513,2.333-6.513s-.906,7.668.208,7.749c.789.058,1.75-5.763,2.4-7.941-.4,2.449-.577,6.5.243,6.539s1.552-3.907,2.279-6.9c-.279,1.912-.6,5.418.157,5.493s3.22-9.4,5.189-18.416" fill="#f886bc"/>
        <path id="Trazado_26645" data-name="Trazado 26645" d="M481.884,536.226s6.931,12.312,7.932,19.87c2.466,18.615-12.98,50.15-12.98,50.15s-11.224-3.062-11.224-4.471,7.822-34.543,7.822-34.543l-11.219-25.9" fill="#f886bc"/>
      </g>
      <g id="Grupo_30913" data-name="Grupo 30913">
        <path id="Trazado_26646" data-name="Trazado 26646" d="M448.181,495.8l1.506,13.882s-8.324,7.057-15.689-.849l.9-9.137Z" fill="#f886bc"/>
        <path id="Trazado_26647" data-name="Trazado 26647" d="M436.568,481.888s-9.01,12.409-5.33,17.059c2.716,3.432,9.841,3.822,12.043,2.474.473-2.542,6.313-10.941,5.376-12.81C445.079,481.469,436.568,481.888,436.568,481.888Z" fill="#f886bc"/>
        <path id="Trazado_26648" data-name="Trazado 26648" d="M450.593,484.035c-.291-4.692-4.917-6.065-13.795-5.535-1.189.071-3.3-.736-3.853.32-.722,1.388-.85,4.2.544,5.462a5.109,5.109,0,0,0,2.778,1.313c1.609.376,3.248,1.908,2.392,3.593-.224.441-.755,1.19-.419,1.553a4.879,4.879,0,0,0,.964.506c.639.341.6,1.313.2,1.918s-.219,1.278-.62,1.881c-.95,1.43.176,4.066,1.653,4.941,1.306.774,5.591,2.066,8.728.44,2.72-1.411,4.354-5.249,4.376-12.15C453.549,485.63,451.582,483.855,450.593,484.035Z" fill="#212237"/>
        <path id="Trazado_26649" data-name="Trazado 26649" d="M437.549,491.121c1.464-1.854,2.648-1.56,3.295-.541.862,1.358-.867,4.182-1.672,4.664-1.632.976-2.953.874-3.079-.452" fill="#f886bc"/>
        <g id="Grupo_30912" data-name="Grupo 30912">
          <g id="Grupo_30911" data-name="Grupo 30911">
            <path id="Trazado_26650" data-name="Trazado 26650" d="M433.94,488.281c-.419.348-.811.981-.58,1.445a.324.324,0,0,0,.336.181C434.635,489.815,434.814,487.553,433.94,488.281Z" fill="#28364c"/>
          </g>
        </g>
        <path id="Trazado_26651" data-name="Trazado 26651" d="M434.057,486.56a3.478,3.478,0,0,1,1.883,1.48" fill="none" stroke="#28364c" stroke-miterlimit="10" stroke-width="0.75"/>
        <path id="Trazado_26652" data-name="Trazado 26652" d="M434.04,494.9l-2.057-1.1s-1.352,2.527-.394,3.061C432.648,497.449,434.04,494.9,434.04,494.9Z" fill="#fff"/>
      </g>
      <g id="Grupo_30916" data-name="Grupo 30916">
        <g id="Grupo_30914" data-name="Grupo 30914">
          <rect id="Rectángulo_4134" data-name="Rectángulo 4134" width="32.507" height="1.456" transform="matrix(-1, 0.001, -0.001, -1, 435.509, 751.409)" fill="#103bb2"/>
          <path id="Trazado_26653" data-name="Trazado 26653" d="M430.882,737.952l2.813.664s1.076,3.673,1.489,6.231a29.9,29.9,0,0,1,.323,5.106L403,749.978s.85-2.818,8.606-7.361a16.914,16.914,0,0,0,4.612-3.838Z" fill="#22252d"/>
          <path id="Trazado_26654" data-name="Trazado 26654" d="M434.229,726.257l-.534,12.359s-1.365,1.65-6.885,1.654a42.252,42.252,0,0,1-10.591-1.491l-1.09-16.674" fill="#f2b18f"/>
        </g>
        <g id="Grupo_30915" data-name="Grupo 30915">
          <rect id="Rectángulo_4135" data-name="Rectángulo 4135" width="32.507" height="1.456" transform="translate(481.808 751.409) rotate(179.956)" fill="#103bb2"/>
          <path id="Trazado_26655" data-name="Trazado 26655" d="M477.181,737.952l2.814.664s1.076,3.673,1.489,6.231a29.9,29.9,0,0,1,.323,5.106l-32.506.025s.849-2.818,8.606-7.361a16.934,16.934,0,0,0,4.612-3.838Z" fill="#22252d"/>
          <path id="Trazado_26656" data-name="Trazado 26656" d="M478.9,725.752l1.1,12.864s-1.365,1.65-6.885,1.654a42.242,42.242,0,0,1-10.591-1.491L460.014,722.1" fill="#f2b18f"/>
        </g>
        <path id="Trazado_26657" data-name="Trazado 26657" d="M473.656,597.858s5.07,10.558.995,30.759c2.074,45.1,7.468,105.742,7.468,105.742l-30.971-.109s-6.315-65.18-10.069-97.662c-4.182-36.183-6.8-80.492-6.8-80.492" fill="#0070e4"/>
        <path id="Trazado_26658" data-name="Trazado 26658" d="M456.148,734.25s-6.315-65.18-10.069-97.662" fill="none" stroke="#0b2e6b" stroke-miterlimit="10" stroke-width="0.75"/>
        <path id="Trazado_26659" data-name="Trazado 26659" d="M414.515,599.878s-3.29,47.551-3.29,70.371-1.466,64.11-1.466,64.11h31.3l11.648-107.933c9.539-11.426,8.843-36.219,6.544-45.873l-31.041-8.477Z" fill="#0070e4"/>
        <path id="Trazado_26660" data-name="Trazado 26660" d="M446.316,685.694l6.4-59.268a33.187,33.187,0,0,0,8-20.18" fill="none" stroke="#0b2e6b" stroke-miterlimit="10" stroke-width="0.75"/>
        <line id="Línea_101" data-name="Línea 101" x1="7.409" y2="139.256" transform="translate(413.641 595.103)" fill="none" stroke="#0b2e6b" stroke-miterlimit="10" stroke-width="0.75"/>
        <line id="Línea_102" data-name="Línea 102" x2="15.205" y2="0.304" transform="translate(441.61 607.651)" fill="none" stroke="#0b2e6b" stroke-miterlimit="10" stroke-width="0.75"/>
        <line id="Línea_103" data-name="Línea 103" y1="0.12" x2="5.781" transform="translate(467.654 607.052)" fill="none" stroke="#0b2e6b" stroke-miterlimit="10" stroke-width="0.75"/>
      </g>
      <g id="Grupo_30917" data-name="Grupo 30917">
        <path id="Trazado_26661" data-name="Trazado 26661" d="M388.124,527.447c-4.244-4.8-15.633-23.06-16.914-22.773s2.168,5.939,1.072,5.979-6.989-8.294-8.192-7.666c-1.629.853,4.865,9.066,4.865,9.066s-2.543-3.489-3.742-2.341c-.85.814-.4,2.522,1.36,5.406-1.181-1.476-2.3-1.737-3.161-.874s-.008,2.429,1.048,4.02c-.833-1.042-2.05-1.566-2.362-.48-.409,1.42,3.037,8.79,11.188,20.809" fill="#f886bc"/>
        <path id="Trazado_26662" data-name="Trazado 26662" d="M449.533,508.265s17.937.752,23.316,21.167c2.426,9.2,3.987,72.32,3.987,72.32l-65.543-.438s.874-57.061,2.339-69.416c2.679-22.578,20.457-23.985,20.457-23.985s.809,2,7.757,2S449.533,508.265,449.533,508.265Z" fill="#d8cac0"/>
        <path id="Trazado_26663" data-name="Trazado 26663" d="M449.533,508.265c21.289,0,34.4,29.243,34.4,29.243l-13.387,6.723" fill="#d8cac0"/>
        <path id="Trazado_26664" data-name="Trazado 26664" d="M421.41,549.757s-11.361,16.348-20.533,17.235c-12.329,1.193-34.263-39.853-34.263-39.853l13.836-9.345,18.95,23.835,6.463-9.661" fill="#f886bc"/>
        <path id="Trazado_26665" data-name="Trazado 26665" d="M434.089,507.913c-18.33,1.008-31.746,28.313-31.746,28.313l21.463,15.406,12.181-15.89" fill="#d8cac0"/>
        <line id="Línea_104" data-name="Línea 104" y1="13.503" x2="10.382" transform="translate(423.05 537.586)" fill="none" stroke="#846a6a" stroke-miterlimit="10" stroke-width="0.75"/>
        <path id="Trazado_26666" data-name="Trazado 26666" d="M474.651,542.168a76.868,76.868,0,0,0-4.107-15.92" fill="none" stroke="#846a6a" stroke-miterlimit="10" stroke-width="0.75"/>
      </g>
      <path id="Trazado_26667" data-name="Trazado 26667" d="M433.165,489.324s-2.952,1.418-2.805,1.959a10.7,10.7,0,0,0,1.034,1.851" fill="#f886bc"/>
      <line id="Línea_105" data-name="Línea 105" x2="31.851" transform="translate(409.759 727.572)" fill="none" stroke="#0b2e6b" stroke-miterlimit="10" stroke-width="0.75"/>
      <line id="Línea_106" data-name="Línea 106" x2="30.979" transform="translate(450.497 727.842)" fill="none" stroke="#0b2e6b" stroke-miterlimit="10" stroke-width="0.75"/>
    </g>
  </g>
</svg>
