<svg id="Grupo_31058" data-name="Grupo 31058" xmlns="http://www.w3.org/2000/svg" xmlns:xlink="http://www.w3.org/1999/xlink" width="731.233" height="531.45" viewBox="0 0 731.233 531.45">
  <defs>
    <clipPath id="clip-path">
      <rect id="Rectángulo_4177" data-name="Rectángulo 4177" width="731.233" height="531.45" fill="none"/>
    </clipPath>
  </defs>
  <g id="Grupo_31057" data-name="Grupo 31057" clip-path="url(#clip-path)">
    <path id="Trazado_26902" data-name="Trazado 26902" d="M37.259,524.555s-52.886-124.494,14-218.577S77.351,128.492,194.789,45.46c150.948-106.724,296.546-1.423,339.962,69.967S725.638,150.376,682.78,353.52c-33.246,157.582-8.44,164.494-8.44,164.494Z" transform="translate(10.752 0)" fill="#f1eefd"/>
    <path id="Trazado_26903" data-name="Trazado 26903" d="M657.925,513l-.857-1.372c.594-.372,59.368-37.641,60.969-82.914.759-21.469-11.387-41.484-36.1-59.487a203.706,203.706,0,0,0-17.972-11.766c-12.935,11.258-27.514,18.776-42.065,20.944-16.1,2.405-28.127-1.684-32.168-10.92-2.936-6.714-.547-14.493,6.087-19.823,11.5-9.238,34.684-10.985,67.75,7.719a132.073,132.073,0,0,0,35.922-53.711c9.2-25.932,17.778-76.916-28.075-127-44.561-48.67-95.725-44.894-140.871-41.561-34.078,2.517-63.513,4.691-82.007-17.178-10.219-12.086-6.76-22.145-1.462-28.811-18.22-7.386-34.346-15.641-50.07-23.69-31.878-16.321-61.987-31.736-106.18-39-71.7-11.785-148.335,11.911-186.361,57.627-22.788,27.4-28.611,59.141-16.835,91.794A66.305,66.305,0,0,0,102,197.585c22.422-8.683,43.709-10.354,57.737-7.353,15.172,3.243,23.448,8.269,23.3,14.152-.147,5.9-8.906,11.264-21.794,13.353-15.561,2.518-41.353.209-59.67-18.254a143.04,143.04,0,0,0-25.515,13.241C51.62,228.7,19.934,260.194,7.767,319.512c-11.612,56.62,8.24,96.656,26.941,120.275C55,465.415,78.355,477.8,78.588,477.922l-.749,1.435c-.236-.123-23.854-12.639-44.359-38.515-18.936-23.894-39.044-64.395-27.3-121.657,12.279-59.861,44.293-91.671,68.989-107.816a144.593,144.593,0,0,1,25.191-13.141A68.2,68.2,0,0,1,86.107,174.4c-11.981-33.222-6.064-65.513,17.112-93.376,38.376-46.136,115.63-70.064,187.867-58.189,44.443,7.3,74.663,22.776,106.656,39.157,15.829,8.1,32.066,16.415,50.426,23.828l.026-.031c17.024-19.181,67.14-29.672,85.12-17.82,8.935,5.891,12.235,13.574,8.825,20.551-6.544,13.391-34.859,19.608-76.311,5.58-5.952-2.014-11.666-4.139-17.185-6.347-7.038,8.568-6.658,17.927,1.129,27.135,17.961,21.24,47.013,19.1,80.653,16.61,45.512-3.363,97.093-7.169,142.181,42.081,46.426,50.709,37.725,102.36,28.408,128.635-7.609,21.456-20.483,40.412-35.778,54.127a204.925,204.925,0,0,1,17.652,11.581c25.175,18.341,37.544,38.816,36.765,60.858-1.635,46.133-61.126,83.847-61.728,84.224M618,342.508c-9.184,0-16.285,2.5-21.168,6.42-6.046,4.857-8.253,11.889-5.618,17.912,2.879,6.582,12.387,12.652,30.447,9.969,13.852-2.064,27.98-9.4,40.624-20.3-17.872-10.046-32.729-14-44.284-14M103.235,198.835c17.846,17.55,42.7,19.74,57.749,17.3,11.907-1.926,20.31-6.779,20.436-11.795.125-4.946-7.9-9.513-22.021-12.529-13.649-2.916-34.312-1.322-56.163,7.022M449.767,86.46q8,3.183,16.58,6.108c40.135,13.581,68.258,7.686,74.338-4.759,3.02-6.176-.068-13.089-8.261-18.49-17.371-11.454-65.678-1.354-82.657,17.141" transform="translate(1.662 12.236)" fill="#c3c8ff"/>
    <path id="Trazado_26904" data-name="Trazado 26904" d="M724.338,333.824H6.9a6.9,6.9,0,1,1,0-13.791H731.233v6.894a6.9,6.9,0,0,1-6.9,6.9" transform="translate(0 197.626)" fill="#6876eb"/>
    <path id="Trazado_26905" data-name="Trazado 26905" d="M264.718,333.824H6.9a6.9,6.9,0,0,1-6.9-6.9v-6.894H271.614v6.894a6.9,6.9,0,0,1-6.9,6.9" transform="translate(0 197.626)" fill="#1c145e"/>
    <path id="Trazado_26906" data-name="Trazado 26906" d="M254.827,157.508C224.1,216.549,189.583,240.6,189.583,240.6L219.4,288.2l52.058-54.1Z" transform="translate(117.071 97.264)" fill="#1c145e"/>
    <path id="Trazado_26907" data-name="Trazado 26907" d="M308.629,148.8l-76.177,14.092c-4.827,144.126-6.633,262.868-6.633,262.868H362.554s3.968-220.7-18.029-268.853Z" transform="translate(139.447 91.885)" fill="#1c145e"/>
    <rect id="Rectángulo_4165" data-name="Rectángulo 4165" width="37.245" height="6.471" transform="translate(438.958 310.903) rotate(-4.833)" fill="#6876eb"/>
    <path id="Trazado_26908" data-name="Trazado 26908" d="M265.151,401.126l-1.543-.487c20.208-64.12-2.853-223.818-3.088-225.424l1.6-.235c.236,1.609,23.349,161.674,3.031,226.145" transform="translate(160.876 108.054)" fill="#6876eb"/>
    <path id="Trazado_26909" data-name="Trazado 26909" d="M276.207,250.111c-3.41,0-6.991-.118-10.716-.37l.112-1.616c26.772,1.825,43.144-3.3,45.785-7.327a1.269,1.269,0,0,0,.181-1.4c-.741-1.427-4.667-3.054-13.464-3.342a172.153,172.153,0,0,1-52.526-10.186l.6-1.5a170.326,170.326,0,0,0,51.976,10.069c5.875.192,13.22,1.081,14.847,4.214a2.861,2.861,0,0,1-.265,3.033c-2.958,4.518-16.914,8.427-36.533,8.427" transform="translate(151.65 138.551)" fill="#6876eb"/>
    <path id="Trazado_26910" data-name="Trazado 26910" d="M249.391,153.578l18.8,49.949,25.882-44.089-17.058-27.875Z" transform="translate(154.004 81.243)" fill="#e9a394"/>
    <path id="Trazado_26911" data-name="Trazado 26911" d="M261.014,192.885l35.1-9.689-9.215-34.4Z" transform="translate(161.181 91.885)" fill="#6876eb"/>
    <path id="Trazado_26912" data-name="Trazado 26912" d="M259.245,152.035,240.2,173.31l33.67,17.576Z" transform="translate(148.327 93.884)" fill="#6876eb"/>
    <path id="Trazado_26913" data-name="Trazado 26913" d="M227.869,275.806s11.122-23.2-12.762-53.074c-13.244-16.568-19.346-45.158-19.346-45.158l-19.9,3.026,18.221,95.206Z" transform="translate(108.597 109.655)" fill="#e9a394"/>
    <path id="Trazado_26914" data-name="Trazado 26914" d="M185.6,159.119l-8.147,7.407,10.891,9.613-34.105-.581-.731,11.7L189.666,192l19.9-3.025Z" transform="translate(94.793 98.259)" fill="#e9a394"/>
    <path id="Trazado_26915" data-name="Trazado 26915" d="M190.333,175.54l-32.726-13.5-2.112,5.815,27.313,11.478Z" transform="translate(96.021 100.064)" fill="#e9a394"/>
    <path id="Trazado_26916" data-name="Trazado 26916" d="M299.207,153.808s43.958,25.029,57.841,118.784l-51,12.3Z" transform="translate(184.766 94.979)" fill="#1c145e"/>
    <path id="Trazado_26917" data-name="Trazado 26917" d="M246.522,108.928l-16.6,42.484,12.7,3.906,3.906,23.926,40.53-9.278,5.86-64.945Z" transform="translate(141.98 64.853)" fill="#e9a394"/>
    <path id="Trazado_26918" data-name="Trazado 26918" d="M268.739,117.827H237.744l3.381-9.158,27.614-1.708Z" transform="translate(146.811 66.05)" fill="#e37a82"/>
    <path id="Trazado_26919" data-name="Trazado 26919" d="M291.016,153.605s-19.776-4.091-19.776-24.547c0,0-29.34,3.994-39.469-11.934-12-18.865,6.337-40.545,21.479-36.139,0,0-9.542,9.456,4.95,10.569,10.334.793,29.219-12.956,35.961.341,0,0,52.018,11.881,13.186,60.346Z" transform="translate(140.731 49.654)" fill="#16005c"/>
    <path id="Trazado_26920" data-name="Trazado 26920" d="M262.616,130.209c-12.723,0-32.221-3.308-37.843-22.585-5.1-17.469,12.262-27.566,12.437-27.666l1.6,2.811c-.628.359-15.3,8.955-10.933,23.949,7.691,26.369,45.185,19.483,45.562,19.412l.615,3.175a68.216,68.216,0,0,1-11.439.9" transform="translate(138.223 49.376)" fill="#16005c"/>
    <path id="Trazado_26921" data-name="Trazado 26921" d="M250.266,144.729c-.443,0-.891-.019-1.339-.058a15.21,15.21,0,1,1,16.468-13.839l-.4-.034.4.034a15.213,15.213,0,0,1-15.129,13.9m-.036-29.614a14.413,14.413,0,1,0,1.255.055c-.421-.037-.841-.055-1.255-.055" transform="translate(145.135 70.587)" fill="#16005c"/>
    <rect id="Rectángulo_4166" data-name="Rectángulo 4166" width="0.808" height="21.118" transform="translate(409.362 195.718) rotate(-86.865)" fill="#16005c"/>
    <path id="Trazado_26922" data-name="Trazado 26922" d="M295.388,134.3c0,9.17-12.287,16.6-21.455,16.6s-11.751-7.434-11.751-16.6a16.6,16.6,0,0,1,33.206,0" transform="translate(161.902 72.683)" fill="#e9a394"/>
    <path id="Trazado_26923" data-name="Trazado 26923" d="M346.99,228.152v76.559H308.815l-3.177-66.582Z" transform="translate(188.737 140.888)" fill="#e9a394"/>
    <path id="Trazado_26924" data-name="Trazado 26924" d="M236.91,237.816l1.6-53.344-24.729,77.377Z" transform="translate(132.016 113.915)" fill="#1c145c"/>
    <path id="Trazado_26925" data-name="Trazado 26925" d="M250.606,150.254l23.671-5.081L254.87,161.726Z" transform="translate(154.754 89.647)" fill="#e37a82"/>
    <path id="Trazado_26926" data-name="Trazado 26926" d="M245.868,126.567c0,3.266-1.27,5.91-2.834,5.91s-2.836-2.645-2.836-5.91,1.27-5.91,2.836-5.91,2.834,2.646,2.834,5.91" transform="translate(148.327 74.508)" fill="#16005c"/>
    <path id="Trazado_26927" data-name="Trazado 26927" d="M249.115,117.083c0-7.919-6.305-2.588-6.305-2.588Z" transform="translate(149.94 69.619)" fill="#16005c"/>
    <path id="Trazado_26928" data-name="Trazado 26928" d="M242.811,138.016l9.016-2.4s3.863,33.447-9.016,2.4" transform="translate(149.94 83.745)" fill="#fff"/>
    <path id="Trazado_26929" data-name="Trazado 26929" d="M122.672,229.866s60.84-9.412,62.035,96.681c.194,17.215,11.156,49.3,11.156,49.3H140.727Z" transform="translate(75.752 141.814)" fill="#5321d7"/>
    <path id="Trazado_26930" data-name="Trazado 26930" d="M97.381,223.965l-36.771,8.68L71.827,379.357H214.9s-4.8-116.076-58.753-150.9Z" transform="translate(37.428 138.302)" fill="#6a3fdc"/>
    <path id="Trazado_26931" data-name="Trazado 26931" d="M72.271,229.464c-37.9,8.644-29.03,37.733-21.71,97.468-18.917,15.363-.768,22.278-.768,22.278-20.775,22.023,5.142,26.966,5.142,26.966h69.188S110.2,220.812,72.271,229.464" transform="translate(25.767 141.483)" fill="#6a3fdc"/>
    <rect id="Rectángulo_4167" data-name="Rectángulo 4167" width="1.618" height="78.004" transform="matrix(0.977, -0.213, 0.213, 0.977, 128.38, 407.728)" fill="#5321d7"/>
    <path id="Trazado_26932" data-name="Trazado 26932" d="M49.892,339.136s11.68-26.82,48.6-40.3c30.61-11.179,75.388,17.84,104.053-9.734l5.307,31.047L119.08,339.136Z" transform="translate(30.809 178.523)" fill="#e9a394"/>
    <path id="Trazado_26933" data-name="Trazado 26933" d="M142.7,179.319l27.372,41.664-17.565,6.27-3.036,33.858L96.685,242.773l4.972-68.872Z" transform="translate(59.705 107.387)" fill="#e9a394"/>
    <path id="Trazado_26934" data-name="Trazado 26934" d="M110.325,204.307,83.343,236.1l34.6,42.4,15.606-49.528Z" transform="translate(51.466 126.164)" fill="#e37a82"/>
    <path id="Trazado_26935" data-name="Trazado 26935" d="M108.1,201.329l38.61-13.395-7.018-10.684-38.141,3.969Z" transform="translate(62.711 109.455)" fill="#e37a82"/>
    <path id="Trazado_26936" data-name="Trazado 26936" d="M120.387,228.685s11.69,23.405,3.557-21.71c0,0,11.093,1.247,19.779-13.395,0,0-2.7,23.858,22.784,0s-6.913-42.523-46.5-35.5c-34.312,6.087-68.649,25.474-18.464,91.2Z" transform="translate(47.092 96.693)" fill="#16005c"/>
    <path id="Trazado_26937" data-name="Trazado 26937" d="M111.916,216.037a19.236,19.236,0,0,1-11.861,7.42c-9.408,1.372-18.6-6.056-19.967-15.463s3.382-14.294,12.788-15.662a23.342,23.342,0,0,1,16,3.989c1.386,1.731,3.036,19.718,3.036,19.718" transform="translate(49.313 118.648)" fill="#e9a394"/>
    <path id="Trazado_26938" data-name="Trazado 26938" d="M125.427,196.812c.873,3.216.438,6.132-.971,6.514s-3.259-1.914-4.131-5.129-.438-6.132.971-6.514,3.258,1.915,4.131,5.129" transform="translate(74.025 118.342)" fill="#16005c"/>
    <path id="Trazado_26939" data-name="Trazado 26939" d="M116.123,192.136s-1.372-7.737,5.81-4.011Z" transform="translate(71.643 115.544)" fill="#16005c"/>
    <path id="Trazado_26940" data-name="Trazado 26940" d="M80.672,231.487l6.266-7.195-2.3-5.335,14.182-5.066L139.5,234.35l1.5,15.62-6.884-2.176-11.239,41.89Z" transform="translate(49.816 132.082)" fill="#6a3fdc"/>
    <path id="Trazado_26941" data-name="Trazado 26941" d="M128,243.371,103.217,234.7l.534-1.527,22.4,7.837-1.378-14.362,1.611-.155Z" transform="translate(63.739 139.862)" fill="#5321d7"/>
    <path id="Trazado_26942" data-name="Trazado 26942" d="M109.792,187.737s4.747,27.621,11.688,33.3c2.279,1.865,6.593-2.879,26.453-3.277,12.143-.244,12.133,42.143-3.981,40.926s-40.6-11.261-44.271-42.154c-3.219-27.1,10.111-28.8,10.111-28.8" transform="translate(61.245 115.931)" fill="#16005c"/>
    <path id="Trazado_26943" data-name="Trazado 26943" d="M125.053,216.712a7.74,7.74,0,0,1-1.957-.249,9.643,9.643,0,0,1-5.567-4.435l1.423-.765a8.142,8.142,0,0,0,4.566,3.639c1.962.506,4.134.01,6.454-1.475l.872,1.362a10.8,10.8,0,0,1-5.791,1.923" transform="translate(72.576 130.459)" fill="#c4c6c5"/>
    <path id="Trazado_26944" data-name="Trazado 26944" d="M226.751,309.249H90.931v10.064a7.38,7.38,0,0,0,7.379,7.379H226.751a7.379,7.379,0,0,0,7.379-7.379v-2.685a7.379,7.379,0,0,0-7.379-7.379" transform="translate(56.152 190.967)" fill="#1c145e"/>
    <path id="Trazado_26945" data-name="Trazado 26945" d="M311.833,246.883H153.84a9.327,9.327,0,0,0-9.254,8.147l-12.73,99.66a9.33,9.33,0,0,0,9.255,10.512H299.1a9.332,9.332,0,0,0,9.255-8.149l12.728-99.66a9.33,9.33,0,0,0-9.255-10.511" transform="translate(81.376 152.455)" fill="#1c145e"/>
    <path id="Trazado_26946" data-name="Trazado 26946" d="M316.559,246.883H158.566a9.329,9.329,0,0,0-9.254,8.147l-12.728,99.66A9.329,9.329,0,0,0,145.84,365.2H303.831a9.332,9.332,0,0,0,9.255-8.149l12.728-99.66a9.33,9.33,0,0,0-9.255-10.511" transform="translate(84.296 152.455)" fill="#6876eb"/>
    <path id="Trazado_26947" data-name="Trazado 26947" d="M216.614,289.407a17.736,17.736,0,0,1-17.22,15.583,13.77,13.77,0,0,1-13.945-15.583,17.734,17.734,0,0,1,17.22-15.583,13.77,13.77,0,0,1,13.945,15.583" transform="translate(114.465 169.091)" fill="#fff"/>
    <rect id="Rectángulo_4168" data-name="Rectángulo 4168" width="196.66" height="1.618" transform="translate(200.75 516.005)" fill="#1c145e"/>
    <path id="Trazado_26948" data-name="Trazado 26948" d="M299.444,267.072l65.283,1.239-14.8-79.863-34.714,3.929s-15.637,23.08-3.29,41.025c13.933,20.246-13.916,21-12.481,33.67" transform="translate(184.879 116.37)" fill="#16005c"/>
    <path id="Trazado_26949" data-name="Trazado 26949" d="M298.454,266.1c-.676-5.975,3.944-9.527,8.411-12.961,6.349-4.878,11.832-9.094,4.345-19.975-12.825-18.64,2.619-41.868,3.282-42.848l2.679,1.815c-.149.22-14.862,22.39-3.295,39.2,9.228,13.409,1.317,19.49-5.039,24.373-4.1,3.151-7.64,5.872-7.169,10.032Z" transform="translate(184.26 117.524)" fill="#7079f1"/>
    <path id="Trazado_26950" data-name="Trazado 26950" d="M334.544,231.092s-29.7,29.149-45.367,138.992h33.065Z" transform="translate(178.572 142.704)" fill="#7079f1"/>
    <path id="Trazado_26951" data-name="Trazado 26951" d="M407.356,227.375l-12.927,147.11H298.394L310.349,318.3s-36.562-19.075,18.5-82.806l13.686-7.041L402,223.965Z" transform="translate(184.264 138.302)" fill="#c3c8ff"/>
    <path id="Trazado_26952" data-name="Trazado 26952" d="M313.153,345.222l-1.6-.236,8.1-55.064c-5.459-8.19.128-17.963.37-18.378l1.4.815c-.055.094-5.424,9.517-.259,16.906l.183.262Z" transform="translate(192.39 167.683)" fill="#7079f1"/>
    <rect id="Rectángulo_4169" data-name="Rectángulo 4169" width="1.618" height="55.649" transform="translate(499.669 457.663) rotate(-88.308)" fill="#7079f1"/>
    <rect id="Rectángulo_4170" data-name="Rectángulo 4170" width="1.616" height="71.001" transform="matrix(0.997, -0.083, 0.083, 0.997, 559.596, 413.858)" fill="#7079f1"/>
    <path id="Trazado_26953" data-name="Trazado 26953" d="M370.693,226.073s5.3,6.672,11.444,22.144c8.705,21.94,19.088,61.572,18.407,124.966H357.766Z" transform="translate(220.927 139.604)" fill="#c3c8ff"/>
    <path id="Trazado_26954" data-name="Trazado 26954" d="M445.328,334.3s-21.374-48.881-75.135-34.891c-58.7,15.273-80.5,12.418-80.5,12.418l-4.45,22.474Z" transform="translate(176.143 183.337)" fill="#e9a394"/>
    <path id="Trazado_26955" data-name="Trazado 26955" d="M356.9,292.1l-19.075,4.267,43.328,40.9H422s-17.6-42.68-65.094-45.166" transform="translate(208.614 180.376)" fill="#7079f1"/>
    <rect id="Rectángulo_4171" data-name="Rectángulo 4171" width="9.5" height="1.618" transform="matrix(0.956, -0.292, 0.292, 0.956, 566.458, 484.385)" fill="#c3c8ff"/>
    <path id="Trazado_26956" data-name="Trazado 26956" d="M306.278,308.329l-27.893-5.766-20,28.24h43.438Z" transform="translate(159.56 186.838)" fill="#e9a394"/>
    <path id="Trazado_26957" data-name="Trazado 26957" d="M317.224,304.082l51.832-51.832-9.629-4.547,36.3-17.581-16.67-10.608h-38.8l-23.037,28.8,6.365,1.6-6.365,4.464Z" transform="translate(195.892 135.554)" fill="#7079f1"/>
    <path id="Trazado_26958" data-name="Trazado 26958" d="M353.462,250.478l16.93-11.7-18.278-40.87L323.785,215.7l7.981,33.9-14.541,67.824Z" transform="translate(195.892 122.211)" fill="#e9a394"/>
    <path id="Trazado_26959" data-name="Trazado 26959" d="M322.689,218.851l19.883-10.367L324.82,227.9Z" transform="translate(199.267 128.743)" fill="#e37a82"/>
    <path id="Trazado_26960" data-name="Trazado 26960" d="M303.549,181.837l-8.683,48.116h13.024l14.622,20.106,37.24-19.42-26.045-58.033Z" transform="translate(182.085 106.587)" fill="#e9a394"/>
    <path id="Trazado_26961" data-name="Trazado 26961" d="M299.265,187.811l-.87,5.284,34.343-4.686-.526-6.58Z" transform="translate(184.264 112.283)" fill="#e37a82"/>
    <path id="Trazado_26962" data-name="Trazado 26962" d="M399.911,191.719c-8.6-23.305-19.108-32.289-19.109-32.291-21.068-20.937-57.082,2.294-57.082,2.294-46.151-11.171-27.417,46.127-27.417,46.127l37.585-4.61c5.255,31.527,24.049,15.562,24.049,15.562l8.764,15.811s-8.843,7.816.377,21.215c7.591,11.032-10.587,14.791-5.889,26.535L433.837,267.3c0-47.8-18.388-33.465-33.926-75.585" transform="translate(180.65 93.05)" fill="#16005c"/>
    <path id="Trazado_26963" data-name="Trazado 26963" d="M292.773,205.145c-.278-1.375-6.687-33.764,6.085-44.9,6.829-5.957,26.825-3.628,27.673-3.525l-.387,3.211c-5.383-.645-20.389-1.41-25.161,2.753-11.357,9.9-5.1,41.5-5.04,41.818Z" transform="translate(179.649 96.448)" fill="#7079f1"/>
    <path id="Trazado_26964" data-name="Trazado 26964" d="M394.63,240.561l-3.127-.835,1.564.417-1.566-.411c.055-.209,5.026-21.12-25.238-44.739l1.99-2.549c32.085,25.038,26.624,47.186,26.377,48.116" transform="translate(226.175 118.838)" fill="#16005c"/>
    <path id="Trazado_26965" data-name="Trazado 26965" d="M355.265,200.122a15.65,15.65,0,1,1-15.651-15.651,15.651,15.651,0,0,1,15.651,15.651" transform="translate(200.054 113.914)" fill="#e9a394"/>
    <path id="Trazado_26966" data-name="Trazado 26966" d="M308.926,207.875l9.7-2.383s3.406,27.671-9.7,2.383" transform="translate(190.768 126.895)" fill="#fff"/>
    <path id="Trazado_26967" data-name="Trazado 26967" d="M313.548,200.34c-2.593-7.222-4.4-8.125-5.275-8.092-2.059.188-3.434,5.854-3.79,8.021l-.8-.129c.142-.861,1.469-8.419,4.515-8.7,1.985-.178,3.963,2.643,6.111,8.626Z" transform="translate(187.53 118.214)" fill="#1c145e"/>
    <path id="Trazado_26968" data-name="Trazado 26968" d="M305.4,189.087s3.761-6.37,8.219,0Z" transform="translate(188.593 115.016)" fill="#16005c"/>
    <path id="Trazado_26969" data-name="Trazado 26969" d="M236.646,90.515a29.011,29.011,0,1,0-41.035,35.369,41.669,41.669,0,0,1,15.03,13.584l1.1,1.647,21.735-7.814-.2-1.959a43.3,43.3,0,0,1,3.06-20.36,28.887,28.887,0,0,0,.315-20.466" transform="translate(111.365 44.036)" fill="#c3c8ff"/>
    <path id="Trazado_26970" data-name="Trazado 26970" d="M236.646,90.515a29.011,29.011,0,1,0-41.035,35.369,41.669,41.669,0,0,1,15.03,13.584l1.1,1.647,21.735-7.814-.2-1.959a43.3,43.3,0,0,1,3.06-20.36,28.887,28.887,0,0,0,.315-20.466" transform="translate(111.365 44.036)" fill="#c3c8ff"/>
    <path id="Trazado_26971" data-name="Trazado 26971" d="M209.1,124.882,191.6,100.215l.019-.286a5.359,5.359,0,0,1,6.676-4.912,6.511,6.511,0,0,1,1.013.23,7.074,7.074,0,0,1,5.6-5.25,5.243,5.243,0,0,1,4.424,1.08,7.362,7.362,0,0,1,6.135-3.091l.718-.008,4.707,35.951-1.6.21-4.518-34.5a5.6,5.6,0,0,0-4.259,2.58,11.619,11.619,0,0,1,1.6,2.567c1.5,3.2,2.095,7.606.558,8.822-.3.241-1.147.7-2.36-.262-2.447-1.939-3.384-6.331-2.13-10q.153-.444.338-.854a3.73,3.73,0,0,0-3.28-.92,5.455,5.455,0,0,0-4.421,4.333,10.234,10.234,0,0,1,4.414,5.4c.43,1.326.328,2.386-.286,2.983a2.007,2.007,0,0,1-2.234.264c-2.3-.82-3.916-4.155-3.681-7.591,0-.037,0-.073.008-.11a5.071,5.071,0,0,0-.974-.241,4.33,4.33,0,0,0-3.455.691,4.169,4.169,0,0,0-1.339,2.463l17.141,24.175ZM200.629,97.7c.026,2.451,1.158,4.809,2.63,5.336.424.147.573.092.573.091.042-.055.17-.547-.241-1.611a8.8,8.8,0,0,0-2.962-3.816m9.1-3.851-.008.026c-1.03,3.009-.311,6.69,1.6,8.206a1.012,1.012,0,0,0,.421.238c.424-.393.419-3.761-1.174-7.028a11.225,11.225,0,0,0-.841-1.441" transform="translate(118.32 54.327)" fill="#fff"/>
    <path id="Trazado_26972" data-name="Trazado 26972" d="M221.413,127.785l-10.207,3.67a7.468,7.468,0,0,1-9.553-4.5l-2.158-6A7.467,7.467,0,0,1,204,111.4l10.2-3.67a7.468,7.468,0,0,1,9.555,4.5l2.156,6a7.467,7.467,0,0,1-4.5,9.553" transform="translate(122.919 66.253)" fill="#16005c"/>
    <rect id="Rectángulo_4172" data-name="Rectángulo 4172" width="32.664" height="15.945" transform="matrix(0.941, -0.338, 0.338, 0.941, 316.021, 179.593)" fill="#6876eb"/>
    <rect id="Rectángulo_4173" data-name="Rectángulo 4173" width="1.618" height="17.846" transform="matrix(0.985, -0.172, 0.172, 0.985, 316.11, 90.507)" fill="#c3c8ff"/>
    <rect id="Rectángulo_4174" data-name="Rectángulo 4174" width="1.619" height="20.526" transform="matrix(0.699, -0.715, 0.715, 0.699, 282.574, 104.657)" fill="#c3c8ff"/>
    <rect id="Rectángulo_4175" data-name="Rectángulo 4175" width="16.797" height="1.617" transform="translate(265.71 144.865) rotate(-4.074)" fill="#c3c8ff"/>
    <rect id="Rectángulo_4176" data-name="Rectángulo 4176" width="15.886" height="1.617" transform="translate(343.41 117.197) rotate(-61.642)" fill="#c3c8ff"/>
    <path id="Trazado_26973" data-name="Trazado 26973" d="M360.675,180.147H464.566a8.192,8.192,0,0,0,7.725-6.541l10.735-59.229a5.309,5.309,0,0,0-5.354-6.541H373.781a8.193,8.193,0,0,0-7.727,6.541l-10.735,59.229a5.31,5.31,0,0,0,5.356,6.541" transform="translate(219.35 66.591)" fill="#1c145c"/>
    <path id="Trazado_26974" data-name="Trazado 26974" d="M403.356,132.783a5.513,5.513,0,0,0,5.561,6.794,8.51,8.51,0,0,0,8.025-6.794,5.515,5.515,0,0,0-5.563-6.794,8.507,8.507,0,0,0-8.023,6.794" transform="translate(249.01 77.801)" fill="#fff"/>
    <path id="Trazado_26975" data-name="Trazado 26975" d="M390.6,132.783a5.514,5.514,0,0,0,5.561,6.794,8.51,8.51,0,0,0,8.026-6.794,5.515,5.515,0,0,0-5.563-6.794,8.51,8.51,0,0,0-8.024,6.794" transform="translate(241.132 77.801)" fill="#fff"/>
    <path id="Trazado_26976" data-name="Trazado 26976" d="M377.84,132.783a5.514,5.514,0,0,0,5.563,6.794,8.51,8.51,0,0,0,8.025-6.794,5.515,5.515,0,0,0-5.563-6.794,8.51,8.51,0,0,0-8.024,6.794" transform="translate(233.254 77.801)" fill="#fff"/>
    <path id="Trazado_26977" data-name="Trazado 26977" d="M406.936,150.779l-36.1,21.453,6.47-23.145Z" transform="translate(229 92.064)" fill="#1c145c"/>
    <path id="Trazado_26978" data-name="Trazado 26978" d="M198.429,174.719H94.538a8.193,8.193,0,0,1-7.725-6.54l-10.735-59.23a5.31,5.31,0,0,1,5.356-6.541h103.89a8.192,8.192,0,0,1,7.727,6.541l10.735,59.23a5.309,5.309,0,0,1-5.356,6.54" transform="translate(46.912 63.239)" fill="#c3c8ff"/>
    <path id="Trazado_26979" data-name="Trazado 26979" d="M112.185,127.355a5.515,5.515,0,0,1-5.561,6.794,8.512,8.512,0,0,1-8.026-6.794,5.514,5.514,0,0,1,5.563-6.794,8.508,8.508,0,0,1,8.025,6.794" transform="translate(60.817 74.449)" fill="#fff"/>
    <path id="Trazado_26980" data-name="Trazado 26980" d="M124.943,127.355a5.515,5.515,0,0,1-5.563,6.794,8.512,8.512,0,0,1-8.025-6.794,5.514,5.514,0,0,1,5.563-6.794,8.508,8.508,0,0,1,8.025,6.794" transform="translate(68.695 74.449)" fill="#fff"/>
    <path id="Trazado_26981" data-name="Trazado 26981" d="M137.7,127.355a5.515,5.515,0,0,1-5.561,6.794,8.512,8.512,0,0,1-8.026-6.794,5.514,5.514,0,0,1,5.563-6.794,8.508,8.508,0,0,1,8.025,6.794" transform="translate(76.573 74.449)" fill="#fff"/>
    <path id="Trazado_26982" data-name="Trazado 26982" d="M128.766,145.259l5.7,20.709,23.048-22.158Z" transform="translate(79.515 88.805)" fill="#c3c8ff"/>
  </g>
</svg>
