<svg id="Grupo_31056" data-name="Grupo 31056" xmlns="http://www.w3.org/2000/svg" xmlns:xlink="http://www.w3.org/1999/xlink" width="959.058" height="708.415" viewBox="0 0 959.058 708.415">
  <defs>
    <clipPath id="clip-path">
      <rect id="Rectángulo_4164" data-name="Rectángulo 4164" width="959.058" height="708.415" fill="none"/>
    </clipPath>
  </defs>
  <g id="Grupo_31055" data-name="Grupo 31055" clip-path="url(#clip-path)">
    <path id="Trazado_26863" data-name="Trazado 26863" d="M220.617,702.947c-19.432-.449-38.863-.791-58.288-.876-34.617-.15-79.99,7.321-105.828-21.13-13.01-14.325-8.729-42.893,11.908-47.958,5.84-1.433,12.127-1.276,17.605-3.716s9.82-9.084,6.78-14.158c-1.554-2.594-4.546-3.983-7.415-5.073-18.141-6.892-38.248-7.767-56.3-14.888C-13.8,578.227-6.4,544.216,32.588,533.238c35.058-9.872,74.045-8.507,110.189-9.175,211.536-3.911,423.642-8.557,634.006,4.629,45.368,2.845,90.472,6.436,135.645,9.784,20.673,1.531,46.548,5.523,46.63,14.469.057,6.23-13.591,10.874-27.044,13.3-23.559,4.258-54.314,7.963-49.861,21.891,1.624,5.081,9.292,9.743,19.943,12.126,8.227,1.84,17.689,2.326,26.609,3.433s18.064,3.142,21.814,6.766c10.1,9.76-15.333,15.569-33.235,16.46-21.441,1.066-38.922,7.926-31.531,18.277,5.149,7.209,21.906,12.086,27,19.3a8.607,8.607,0,0,1,.684,9c-13.609,29.718-84.7,27.171-111.2,29.395-49.016,4.116-98.252,4.9-147.422,5.271-111.541.836-223.085-.56-334.6-2.729-33.187-.645-66.4-1.726-99.6-2.494" fill="#f7f7f7"/>
    <path id="Trazado_26864" data-name="Trazado 26864" d="M184.1,637.7l-.751,2.388-2.5,7.925,13.354,12.915,10.42-5.43-5.429-10.42-.59-.569-.556.857Z" fill="#3b455a"/>
    <path id="Trazado_26865" data-name="Trazado 26865" d="M184.1,637.7l13.952,7.666.556-.857-12.764-12.346Z" fill="#587bc9"/>
    <path id="Trazado_26866" data-name="Trazado 26866" d="M325.658,427.2c-3.6-.376-19.941-2.022-31.334-2.264-1.516-.032-2.95-.04-4.248-.016A189.009,189.009,0,0,0,266,426.979q-4.923.729-9.8,1.672c-7.45,1.41-15.046,3.425-21.687,7.217a61.849,61.849,0,0,0-8.478,6.151l-.586,89.481L183.325,637.276l.777.428,1.744-5.537,12.765,12.346,77.276-119.176,4.083-14.549,1.589,9.538,9.705,126.16h.088v-1.828H306.9l19.716-134.9Z" fill="#587bc9"/>
    <path id="Trazado_26867" data-name="Trazado 26867" d="M291.352,646.486v6.479l16.616,8.309,8.308-8.309-8.308-8.307H306.9l-.267,1.828Z" fill="#3b455a"/>
    <path id="Trazado_26868" data-name="Trazado 26868" d="M291.352,646.486h15.277l.267-1.828H291.352Z" fill="#587bc9"/>
    <path id="Trazado_26869" data-name="Trazado 26869" d="M278.995,265.545c.592-2.173,1.2-4.281,3.068-5.373,1.7-.992,3.847-.7,5.7-1.35,3.494-1.214,5-5.228,6.069-8.768q1.4-4.617,2.793-9.236a41.5,41.5,0,0,0,1.108-4.251c-5.312-1.985-10.28-5.623-15.827-7.013-6.224-1.56-17.586-3.863-22.84,1.346a3.186,3.186,0,0,0-.319.378l-1.164,5.52c-.023,5.2,1.381,11.987,1.205,14.75a12.77,12.77,0,0,1-2.208-1c1.62,2.624,5.01,4.26,8.052,5.457a71.787,71.787,0,0,0-1.2,11.383l.547.075c5.054-.65,10.124-1.117,14.557-1.85l.452-.069" fill="#dd957c"/>
    <path id="Trazado_26870" data-name="Trazado 26870" d="M338.16,196.3c-1.271-1.793-3.407-2.744-5.491-3.441a40.8,40.8,0,0,0-21.433-1.187c-6.742,1.454-12.824,4.049-19.455,1.29-6.231-2.592-10.83-1.8-17.52.315-7.239,2.286-16.853,2.534-23.455,5.9a19.1,19.1,0,0,0-6.773,6.205,28.772,28.772,0,0,0-1.2,30.4,41.113,41.113,0,0,0,4.266,5.8c2.7,3.157,5.847,6.923,9.482,8.971a12.77,12.77,0,0,0,2.208,1c.176-2.763-1.228-9.554-1.205-14.75q-.77,3.645-1.538,7.288a15.976,15.976,0,0,0-.43,2.952,15.976,15.976,0,0,1,.43-2.952q.768-3.645,1.538-7.288c.01-2.331.307-4.34,1.164-5.52a3.009,3.009,0,0,1,.319-.377c5.254-5.209,16.616-2.907,22.84-1.347,5.547,1.39,10.515,5.028,15.827,7.014a22.274,22.274,0,0,0,3.625,1.042c4.853.924,11.17-1.24,15.414-3.61,5.236-2.927,7.955-11.92,11.133-16.73a35.028,35.028,0,0,1,2.838-3.771c2.241-2.563,4.966-4.731,6.8-7.6s2.586-6.825.616-9.6" fill="#3b455a"/>
    <path id="Trazado_26871" data-name="Trazado 26871" d="M186.309,231.564l3.255-6.758-1.082-1.417-1.8,1.262,1.1-6.383-2.619-4.557-6.96-.69-6.11,3.858.048,6.983,4.2,7.162.9,2.821,9.878-.068Z" fill="#dd957c"/>
    <path id="Trazado_26872" data-name="Trazado 26872" d="M189.243,239.548l-2.121-5.771-9.879.069,2.643,8.28Z" fill="#305399"/>
    <path id="Trazado_26873" data-name="Trazado 26873" d="M278.995,265.545l-.452.069c-4.433.733-9.5,1.2-14.557,1.85l13.688,1.868a18.13,18.13,0,0,0,1.321-3.787" fill="#305399"/>
    <path id="Trazado_26874" data-name="Trazado 26874" d="M389.828,395.729c-2.562-3.692-11.266-6.164-15.188-8.433a133.339,133.339,0,0,1-24.6-17.8,89.731,89.731,0,0,1-23.185-35.624,155.522,155.522,0,0,1-5.693-21.162c-.792-3.879-1.488-7.778-2.14-11.683-1.41-8.447-2.538-17.165-5.772-25.247-1.8-4.5-4.3-9.12-3.479-13.9-10.393,4.132-20.253,2.025-30.777,3.656a18.214,18.214,0,0,1-1.32,3.788l-13.688-1.869c-5.656.727-11.29,1.684-15.986,3.51a16.642,16.642,0,0,0-4.039,2.3l-40.309,8.287L191.185,233.75l-4.063.027,2.122,5.77-9.357,2.578-2.643-8.28-3.548.025,8.341,76.567,41.177,8.267c-1.878,8.082-3.462,16.139-4.171,20.8-1.768,11.652-3.4,23.325-4.678,35.043-1.421,13.076-2.4,26.211-2.6,39.367-.023,1.462-.24,5.557-.341,10.462-.212,10.323.093,24.235,3.809,24.744a3.224,3.224,0,0,0,1.973-.626,68.036,68.036,0,0,0,8.832-6.48,61.8,61.8,0,0,1,8.479-6.151c6.64-3.792,14.236-5.807,21.686-7.217q4.872-.951,9.8-1.672a189.011,189.011,0,0,1,24.075-2.059c1.3-.023,2.732-.015,4.248.017,11.393.241,27.729,1.888,31.334,2.264l.733.077c6.927-1.243,13.545-3.788,20.18-6.15,11.4-4.056,23.043-7.629,33.739-13.312,3.433-1.823,12.9-7.211,9.518-12.087" fill="#305399"/>
    <path id="Trazado_26875" data-name="Trazado 26875" d="M772.468,636.532l-.644.441-6.29,8.239,7.777,6.428,13.323-9.144-.743-7.334-.224-2.209-12.935,4.457Z" fill="#3b455a"/>
    <path id="Trazado_26876" data-name="Trazado 26876" d="M735.542,510.156l1.179,7.2,35.747,119.172,12.679-8.7.52,5.124.721-.249L767.875,510q-16.164.269-32.333.152" fill="#3b455a"/>
    <path id="Trazado_26877" data-name="Trazado 26877" d="M772.468,636.532l.264.878,12.935-4.457-.519-5.124Z" fill="#3b455a"/>
    <path id="Trazado_26878" data-name="Trazado 26878" d="M690.522,507.477l18.5,132.708h13.209v1.629h.075l2.345-131.774c-1.649-.025-3.3-.039-4.946-.069a187.845,187.845,0,0,1-29.184-2.494" fill="#3b455a"/>
    <path id="Trazado_26879" data-name="Trazado 26879" d="M709.023,640.185h-.91l-7.06,7.4,7.06,7.4,14.119-7.4v-5.771H709.251Z" fill="#3b455a"/>
    <path id="Trazado_26880" data-name="Trazado 26880" d="M709.023,640.185l.228,1.629h12.981v-1.629Z" fill="#3b455a"/>
    <path id="Trazado_26881" data-name="Trazado 26881" d="M665.872,336.766l-2.607-6.986-1.761-.2-.333,2.159-3.824-5.179-5.072-1.259-5.286,4.518-1.437,7.038,5.041,4.772,8.032,1.914,4.122,2.021,3.812-8.5Z" fill="#dd957c"/>
    <path id="Trazado_26882" data-name="Trazado 26882" d="M828.477,482.753c-12.809-10.987-21.194-22.379-26.42-36.32-2.451-.754-5.054-2.244-7.768-2.858-2.889-.653-6.056-.271-9.242.246-5.131.833-10.307,2.019-14.442-.2-5.238-2.809-5.808-9.884-7.93-15.435s-10.271-10.115-13.381-5.049a16.737,16.737,0,0,1-2.255-.709,18.351,18.351,0,0,1-5.553-3.477,25.215,25.215,0,0,1-6.682-10.288,28.079,28.079,0,0,1-1.292-5.076c-1.1-7.064.06-14.212,1.655-21.231.388-1.708.8-3.406,1.213-5.094,4.679-19.132,8.826-38.491,14.059-57.478.1-.378.193-.759.293-1.137,4.06-15.4,4.653-31.459,4.888-47.232-2.9-.188-6.051-.448-9.313-.676a3.017,3.017,0,0,1-.592.911c-1.865,1.837-8.161.564-10.623.146a3.758,3.758,0,0,1-1.916-.729,1.937,1.937,0,0,1-.468-.784c-7.73.169-14.857,1.366-19.3,5.045q-.445.369-.854.771c-8.2,8.081-13.409,25.272-17.774,35.769a289.8,289.8,0,0,0-10.416,29.467l-15.639-9.091-2.164,4.823-3.812,8.5-.775,1.727,17.494,13c-4.565,20.488-7.094,41.392-9.606,62.242-2.441,20.252-.992,48.86-13.511,66.156a5.18,5.18,0,0,0-1.4,3.146c.086,1.364,1.294,2.355,2.425,3.123,9.834,6.672,21.314,10.423,33.144,12.517a187.964,187.964,0,0,0,29.184,2.494c1.648.03,3.3.044,4.946.068q5.445.079,10.89.116,16.168.108,32.333-.152l.238,0c21.248-.358,43.778-1.61,61.3-13.631,1.776-1.217,3.6-2.706,4.082-4.8.807-3.476-2.312-6.492-5.021-8.815" fill="#d7e8f4"/>
    <path id="Trazado_26883" data-name="Trazado 26883" d="M259.446,139.966a75.777,75.777,0,1,0-139.413,13.395,85.992,85.992,0,0,1,10.136,43.062l-.753,23.4,47.511,14.5,11.782-18.782a86.208,86.208,0,0,1,33.3-30.5,75.534,75.534,0,0,0,37.437-45.068" fill="#7db5db"/>
    <path id="Trazado_26884" data-name="Trazado 26884" d="M156.844,255.863l-23.164-7.07c-6.563-2-10.7-8.563-9.2-14.826l5.289-24.333,52.565,15.675L172.752,248.7c-2.251,6.035-9.345,9.168-15.908,7.165" fill="#bcbec0"/>
    <path id="Trazado_26885" data-name="Trazado 26885" d="M174.462,234.22c-14.846-3.845-29.324-9.085-44.175-12.909a1.046,1.046,0,0,0-.537,2.021c14.516,4.964,29.5,8.542,44.022,13.484,1.63.555,2.378-2.158.69-2.6" fill="#878d91"/>
    <path id="Trazado_26886" data-name="Trazado 26886" d="M172.519,240.586c-14.846-3.846-29.324-9.085-44.175-12.909a1.046,1.046,0,0,0-.538,2.021c14.517,4.963,29.5,8.541,44.023,13.485,1.629.554,2.378-2.16.69-2.6" fill="#878d91"/>
    <path id="Trazado_26887" data-name="Trazado 26887" d="M226.245,10.319c-1.425,4.67-9.033,20.7-12.1,19.768s-.423-18.484,1-23.154,5.064-7.7,8.127-6.764,4.392,5.479,2.966,10.15" fill="#7db5db"/>
    <path id="Trazado_26888" data-name="Trazado 26888" d="M287.489,57.2c-4.472,1.963-19.5,11.4-18.215,14.329s18.4-1.745,22.877-3.708,7.052-5.932,5.765-8.864-5.956-3.72-10.427-1.757" fill="#7db5db"/>
    <path id="Trazado_26889" data-name="Trazado 26889" d="M291.558,140.351c-4.813-.825-21.676-6.353-21.135-9.51s18.283-2.748,23.1-1.922,8.275,4.054,7.734,7.211-4.882,5.046-9.695,4.221" fill="#7db5db"/>
    <path id="Trazado_26890" data-name="Trazado 26890" d="M146.213,7.987c2.8,4,10.73,19.877,8.1,21.713s-14.812-11.065-17.61-15.067-2.939-8.733-.314-10.569,7.021-.079,9.819,3.923" fill="#7db5db"/>
    <path id="Trazado_26891" data-name="Trazado 26891" d="M90.207,65.779c4.454,2,21.53,6.833,22.843,3.912S99.417,57.2,94.963,55.2s-9.129-1.258-10.442,1.663,1.232,6.913,5.686,8.916" fill="#7db5db"/>
    <path id="Trazado_26892" data-name="Trazado 26892" d="M206.988,164.3a19.516,19.516,0,0,1-3.493-8.11c3.62-2.443,6.109-6.453,7.829-10.363a76.5,76.5,0,0,0,2.694-7.333c.772-2.393,1.08-4.533-.5-6.651-1.409-1.889-4.2-1.424-5.99-.555-2.064,1-3.589,3.214-4.832,5.063a28.055,28.055,0,0,0-4.327,12.587,26.377,26.377,0,0,0-.1,4.66,11.672,11.672,0,0,1-4.048.792c-4.347.058-6.656-3.141-7.459-7.076-.132-.646-.238-1.322-.321-2.015.567-.739,1.118-1.484,1.647-2.224a54.4,54.4,0,0,0,6.22-11.682c1.345-3.406,2.717-7.546-.01-10.639a2.31,2.31,0,0,0-3.208-.128c-6.984,5.31-9.464,14.422-9.156,22.958a53.631,53.631,0,0,1-4.8,5.058c-1.877,1.743-5.222,4.295-7.945,3.009-2.535-1.195-3.639-5.171-4.33-7.633A24.591,24.591,0,0,1,164,138.51q.912-1.176,1.76-2.406a51.59,51.59,0,0,0,5.419-10.377c1.2-3.034,2.629-7.37-.318-9.9-.857-.734-2.331-1.135-3.212-.128a32.555,32.555,0,0,0-8.075,20.461c-.009.258-.006.518-.008.776a48.175,48.175,0,0,1-13.351,11.494c-2.275,1.334-.406,4.9,1.928,3.623a50.545,50.545,0,0,0,11.988-9.1,32.01,32.01,0,0,0,1.121,4.207c1.283,3.753,3.186,7.482,7.116,8.916,3.67,1.341,7.659-.871,10.513-2.981a31,31,0,0,0,3.862-3.436c.939,3.47,2.87,6.584,6.307,8.184a13.875,13.875,0,0,0,9.938.434,28.748,28.748,0,0,0,3.849,8.969,2.557,2.557,0,1,0,4.153-2.948M191.249,126.45a28.476,28.476,0,0,1-1.85,4.827,43.236,43.236,0,0,1-2.7,5.416,20.823,20.823,0,0,1,4.549-10.243m13.6,16.089a21.548,21.548,0,0,1,2.824-4.907,11.38,11.38,0,0,1,1.721-1.862,5.216,5.216,0,0,1,.471-.319,3.573,3.573,0,0,1-.077.551,39.206,39.206,0,0,1-5.57,12.879,13.605,13.605,0,0,1-1.067,1.329,25.956,25.956,0,0,1,1.7-7.671" fill="#fff"/>
    <path id="Trazado_26893" data-name="Trazado 26893" d="M214.363,154.894c-14.886,21.169-30.14,42.1-45.926,62.6-1.89,2.456,1.864,5.459,3.748,3,15.766-20.551,30.978-41.5,45.444-62.992,1.491-2.216-1.707-4.834-3.266-2.616" fill="#fff"/>
    <path id="Trazado_26894" data-name="Trazado 26894" d="M144.723,132.015c-1.167,25.853-2.775,51.7-5.057,77.48-.273,3.085,4.507,3.6,4.775.516,2.241-25.806,3.8-51.65,4.442-77.546.067-2.671-4.037-3.158-4.16-.45" fill="#fff"/>
    <path id="Trazado_26895" data-name="Trazado 26895" d="M341.5,222.341l3.551-9.447s5.166-5.259,7.748-5.259l7.748,2.7v13.678l-9.523,4.145Z" fill="#dd957c"/>
    <path id="Trazado_26896" data-name="Trazado 26896" d="M669.711,41.148l-52.556,67.665L646.5,120.919l-26.022,66.12,59.281-68.971-31.313-17.891Z" fill="#7db5db"/>
    <path id="Trazado_26897" data-name="Trazado 26897" d="M712.84,115.2l-52.892,54.539,22.635,13.345-39.429,57.783,57.9-59.211-14.765-18.313Z" fill="#7db5db"/>
    <path id="Trazado_26898" data-name="Trazado 26898" d="M534.442,169.307c.4-.157.8-.31,1.207-.457-.084.023-.526.152-1.255.406.016.018.032.034.048.051" fill="#eac5b0"/>
    <path id="Trazado_26899" data-name="Trazado 26899" d="M661.776,255.031a55.966,55.966,0,0,0-51.183-60.353c-4.158-.343-10.584,1.412-14.232-1.115-3.046-2.109-3.876-6.626-6.12-9.425a48.674,48.674,0,0,0-54.46-15.335c-.036.012-.069.03-.106.04l-.027.007q-.606.222-1.207.457c-.015-.016-.032-.033-.047-.05-5.113,1.781-23.984,9.7-27.118,30.164a38.112,38.112,0,0,1,28.163,14.427,33.485,33.485,0,0,1,30.688-6.46,33.3,33.3,0,0,1,22.682,41.277,1.666,1.666,0,0,1-3.2-.931A29.977,29.977,0,0,0,536.322,217.5a1.664,1.664,0,0,1-2.353-.078,1.59,1.59,0,0,1-.208-.275,34.875,34.875,0,0,0-48.573-7.925,1.666,1.666,0,0,1-1.942-2.707,37.949,37.949,0,0,1,20.654-7.109c2.94-20.949,20.808-29.959,27.956-32.756a66.785,66.785,0,0,0-100.189,7.94,58.214,58.214,0,0,0-65.3,23.162,63.617,63.617,0,0,0-6.844,13.94,11.955,11.955,0,0,1-.822,1.787c12.338-3.5,29.314-5.474,47.24,1.032a1.666,1.666,0,0,1-1.137,3.131c-37.37-13.563-71.121,11.054-71.457,11.3a1.639,1.639,0,0,1-.845.321,60.823,60.823,0,0,0-12,10.218,74.013,74.013,0,0,0,49.334,122.836c4.593.378,9.681-1.841,14.024.033-1.877-6.809-2.562-15.218.843-23.739a1.665,1.665,0,0,1,3.092,1.236c-7.032,17.6,5.633,35.51,5.761,35.689a1.663,1.663,0,0,1,.286.708,32.536,32.536,0,0,0,8.032,8.318,62.226,62.226,0,0,0,31.462,11.751,61.5,61.5,0,0,0,27.233-3.9,1.613,1.613,0,0,1,.337-.212c25.862-11.9,31.74-39.036,31.8-39.309a1.666,1.666,0,0,1,3.263.67c-.216,1.05-4.989,23.244-25.384,37.009a62.848,62.848,0,0,0,45.553,25.445c9.193.758,18.956-1.155,27.928-3.862,9.464-2.855,15.037,11.313,18.056,17.461,4.447,9.051,6.394,19.9,13.142,27.7,9.727,11.242,21.919,2.9,24.177-9.72a102.418,102.418,0,0,0,1.4-21.876c-.134-3.6-.548-7.768,1.343-11.027,2.259-3.894,5.9-2.963,9.835-3.565a51.7,51.7,0,0,0,42.125-64.194,45.937,45.937,0,0,1-15.027,2.206c-1.114-.013-2.3-.065-3.553-.169-9.133-.753-21.715-4.236-34.993-15.33a1.665,1.665,0,1,1,2.137-2.555c27.37,22.869,51.626,12.24,51.867,12.129a1.6,1.6,0,0,1,.489-.129,48.683,48.683,0,0,0,6.709-88.062M471.029,324.1A1.662,1.662,0,0,1,469,322.912a35.577,35.577,0,0,0-42.788-25.577,1.623,1.623,0,0,1-.236.054c-.108.028-.216.048-.325.077a1.659,1.659,0,0,1-1.782-2.556,43.409,43.409,0,0,0-82.732-10.9,1.666,1.666,0,0,1-3.054-1.33,46.739,46.739,0,0,1,88.972,11.057,38.92,38.92,0,0,1,45.168,28.338,1.664,1.664,0,0,1-1.192,2.03M612.084,299.16a1.665,1.665,0,0,1-2.354.061,39.438,39.438,0,0,0-66.592,29.6,1.664,1.664,0,0,1-1.622,1.707,1.559,1.559,0,0,1-.181,0,1.664,1.664,0,0,1-1.526-1.617,42.769,42.769,0,0,1,72.215-32.1,1.665,1.665,0,0,1,.06,2.354" fill="#eac5b0"/>
    <path id="Trazado_26900" data-name="Trazado 26900" d="M747.169,238.9c-5.066-7.65-11.572-14.217-17.983-20.78-.1-.1-.2-.2-.294-.3h0c-2.47-2.538-4.955-5.261-5.932-8.631-3.726,3.151-6.47,7.908-7.475,14.463a79.022,79.022,0,0,0-.838,8.022,44.43,44.43,0,0,0,1.935,16.391c2.512,7.488,8.068,14.258,15.5,16.812a23.764,23.764,0,0,0,.624,5.415,1.933,1.933,0,0,0,.468.784,3.75,3.75,0,0,0,1.916.728c2.462.418,8.758,1.692,10.623-.145a3.049,3.049,0,0,0,.592-.911,19.854,19.854,0,0,0,1.035-6.309,25.934,25.934,0,0,0,7.991-5.343,50.062,50.062,0,0,0-8.164-20.193" fill="#dd957c"/>
    <path id="Trazado_26901" data-name="Trazado 26901" d="M833.279,393.2c-3.189-11.38-11.01-20.772-18.2-30.155-17.634-23.027-24.674-55.943-23.891-84.659.521-19.1,2.341-38.729-3.63-56.876-7.061-21.464-24.218-34.014-46.406-32.7a19.845,19.845,0,0,0-15.222,8.121,17.089,17.089,0,0,0-1.778,2.777c-.547-.319-1.1-.624-1.671-.9a23.031,23.031,0,0,0-7.84,32.862,79.334,79.334,0,0,1,.839-8.022c1.005-6.554,3.749-11.312,7.475-14.463.976,3.371,3.462,6.093,5.931,8.631.1.1.2.2.294.3,6.411,6.564,12.917,13.13,17.984,20.78a50.06,50.06,0,0,1,8.164,20.194h0a35.95,35.95,0,0,1,.375,5.541q-.043,3.381-.089,6.786c-.235,15.772-.827,31.837-4.888,47.231-.1.379-.189.76-.293,1.138-5.232,18.986-9.38,38.346-14.058,57.478-.414,1.688-.826,3.386-1.213,5.093-1.6,7.02-2.757,14.167-1.656,21.232a28.171,28.171,0,0,0,1.292,5.076,25.223,25.223,0,0,0,6.682,10.288,18.357,18.357,0,0,0,5.554,3.477,16.647,16.647,0,0,0,2.255.709c3.109-5.066,11.258-.5,13.381,5.048s2.691,12.626,7.929,15.436c4.135,2.218,9.312,1.032,14.443.2,3.185-.517,6.352-.9,9.242-.246,2.714.613,5.316,2.1,7.767,2.857,3.138.965,6.027.724,8.583-4.111a7.682,7.682,0,0,1,.241-11.655c3.466-3.05,8.311-3.91,12.336-6.172,10.3-5.788,13.251-19.913,10.063-31.293" fill="#3b455a"/>
  </g>
</svg>
