<svg xmlns="http://www.w3.org/2000/svg" xmlns:xlink="http://www.w3.org/1999/xlink" width="480.827" height="386.458" viewBox="0 0 480.827 386.458">
  <defs>
    <clipPath id="clip-path">
      <path id="Trazado_26678" data-name="Trazado 26678" d="M396.724,355.395s5.9-7.928,5.9-16.5-5.569-15.476-5.569-15.476V322.8h77.816c9.46,0,17.2,6.905,17.2,15.343v2.711c0,8.439-7.741,15.343-17.2,15.343H397.051l-.327-.2Z" fill="#fff"/>
    </clipPath>
    <linearGradient id="linear-gradient" y1="0.5" x2="1" y2="0.5" gradientUnits="objectBoundingBox">
      <stop offset="0" stop-color="#daece5"/>
      <stop offset="1" stop-color="#b2deeb"/>
    </linearGradient>
    <linearGradient id="linear-gradient-2" x1="29.955" y1="-60.547" x2="30.955" y2="-60.547" xlink:href="#linear-gradient"/>
    <linearGradient id="linear-gradient-3" x1="-341.484" y1="0.5" x2="-340.484" y2="0.5" xlink:href="#linear-gradient"/>
    <linearGradient id="linear-gradient-4" x1="-28.808" y1="0.5" x2="-27.808" y2="0.5" xlink:href="#linear-gradient"/>
    <linearGradient id="linear-gradient-5" x1="-0.777" y1="-1.63" x2="0.258" y2="-1.63" gradientUnits="objectBoundingBox">
      <stop offset="0" stop-color="#eef7f6"/>
      <stop offset="1" stop-color="#b2deeb"/>
    </linearGradient>
    <linearGradient id="linear-gradient-6" x1="-1.183" y1="-0.555" x2="0.087" y2="-0.555" xlink:href="#linear-gradient-5"/>
  </defs>
  <g id="Grupo_31054" data-name="Grupo 31054" transform="translate(-48.593 -51.288)">
    <g id="Grupo_30940" data-name="Grupo 30940">
      <g id="Grupo_30926" data-name="Grupo 30926">
        <path id="Trazado_26668" data-name="Trazado 26668" d="M363.807,399.525c7.8-2.9,143.64,0,143.64,0,6.974,0,13.377,7.8,13.377,14.772s-6.4,14.773-13.377,14.773c0,0-132.82,5.58-143.708.159C365.6,417.378,365.329,406.643,363.807,399.525Z" fill="#f6f6f6"/>
        <g id="Grupo_30920" data-name="Grupo 30920">
          <rect id="Rectángulo_4136" data-name="Rectángulo 4136" width="153.251" height="0.697" transform="translate(364.61 402.229)" fill="#53b6b9"/>
        </g>
        <g id="Grupo_30921" data-name="Grupo 30921">
          <path id="Trazado_26669" data-name="Trazado 26669" d="M364.851,406.643H520.4v.7H365.013C364.97,407.1,364.913,406.871,364.851,406.643Z" fill="#53b6b9"/>
        </g>
        <g id="Grupo_30922" data-name="Grupo 30922">
          <rect id="Rectángulo_4137" data-name="Rectángulo 4137" width="157.162" height="0.697" transform="translate(365.193 412.919)" fill="#53b6b9"/>
        </g>
        <g id="Grupo_30923" data-name="Grupo 30923">
          <rect id="Rectángulo_4138" data-name="Rectángulo 4138" width="157.162" height="0.697" transform="translate(365.193 416.056)" fill="#53b6b9"/>
        </g>
        <g id="Grupo_30924" data-name="Grupo 30924">
          <path id="Trazado_26670" data-name="Trazado 26670" d="M364.754,421.111H520.863v.7H364.653C364.7,421.576,364.731,421.344,364.754,421.111Z" fill="#53b6b9"/>
        </g>
        <g id="Grupo_30925" data-name="Grupo 30925">
          <path id="Trazado_26671" data-name="Trazado 26671" d="M363.988,427.213H516.751c-.155.226-.3.459-.436.7H363.848C363.9,427.679,363.95,427.446,363.988,427.213Z" fill="#53b6b9"/>
        </g>
        <path id="Trazado_26672" data-name="Trazado 26672" d="M507.447,429.07c6.974,0,13.377-7.8,13.377-14.773s-6.4-14.772-13.377-14.772c0,0-135.3-2.888-143.588-.017-.348-1.818-.621-2.882-.621-2.882h143.4A17.723,17.723,0,0,1,524.31,414.3h0a17.724,17.724,0,0,1-17.671,17.672s-136.429,3.146-143.4,0c0-.268.222-1.246.521-2.731C374.776,434.644,507.447,429.07,507.447,429.07Z" fill="#002f4c"/>
      </g>
      <g id="Grupo_30927" data-name="Grupo 30927">
        <rect id="Rectángulo_4139" data-name="Rectángulo 4139" width="141.071" height="40.23" rx="9.51" transform="translate(380.221 356.947)" fill="#002f4c"/>
        <path id="Trazado_26673" data-name="Trazado 26673" d="M500.487,356.947c7.728,20.115-.858,40.23-.858,40.23h-17.7s6.472-22.989-1.057-40.23Z" fill="#0f787a"/>
        <path id="Trazado_26674" data-name="Trazado 26674" d="M418.46,356.947c7.728,20.115-.858,40.23-.858,40.23H399.9s6.472-22.989-1.057-40.23Z" fill="#0f787a"/>
      </g>
      <g id="Grupo_30939" data-name="Grupo 30939">
        <g id="Grupo_30938" data-name="Grupo 30938">
          <path id="Trazado_26675" data-name="Trazado 26675" d="M396.724,355.395s5.9-7.928,5.9-16.5-5.569-15.476-5.569-15.476V322.8h77.816c9.46,0,17.2,6.905,17.2,15.343v2.711c0,8.439-7.741,15.343-17.2,15.343H397.051l-.327-.2Z" fill="#fff"/>
          <g id="Grupo_30937" data-name="Grupo 30937" clip-path="url(#clip-path)">
            <g id="Grupo_30936" data-name="Grupo 30936">
              <g id="Grupo_30928" data-name="Grupo 30928">
                <rect id="Rectángulo_4140" data-name="Rectángulo 4140" width="153.251" height="0.697" transform="translate(317.36 326.356)" fill="#53b6b9"/>
              </g>
              <g id="Grupo_30929" data-name="Grupo 30929">
                <path id="Trazado_26676" data-name="Trazado 26676" d="M317.6,330.771H473.149v.7H317.763C317.72,331.229,317.662,331,317.6,330.771Z" fill="#53b6b9"/>
              </g>
              <g id="Grupo_30930" data-name="Grupo 30930">
                <rect id="Rectángulo_4141" data-name="Rectángulo 4141" width="157.162" height="0.697" transform="translate(317.943 337.046)" fill="#53b6b9"/>
              </g>
              <g id="Grupo_30931" data-name="Grupo 30931">
                <rect id="Rectángulo_4142" data-name="Rectángulo 4142" width="157.162" height="0.697" transform="translate(317.943 340.184)" fill="#53b6b9"/>
              </g>
              <g id="Grupo_30932" data-name="Grupo 30932">
                <rect id="Rectángulo_4143" data-name="Rectángulo 4143" width="153.251" height="0.697" transform="translate(316.503 343.321)" fill="#53b6b9"/>
              </g>
              <g id="Grupo_30933" data-name="Grupo 30933">
                <path id="Trazado_26677" data-name="Trazado 26677" d="M316.744,347.735H472.292v.7H316.906C316.863,348.194,316.806,347.964,316.744,347.735Z" fill="#53b6b9"/>
              </g>
              <g id="Grupo_30934" data-name="Grupo 30934">
                <rect id="Rectángulo_4144" data-name="Rectángulo 4144" width="157.161" height="0.697" transform="translate(317.086 352.045)" fill="#53b6b9"/>
              </g>
              <g id="Grupo_30935" data-name="Grupo 30935">
                <rect id="Rectángulo_4145" data-name="Rectángulo 4145" width="157.161" height="0.697" transform="translate(317.086 357.148)" fill="#53b6b9"/>
              </g>
            </g>
          </g>
        </g>
        <path id="Trazado_26679" data-name="Trazado 26679" d="M429.77,323.139H396.232v-2.651h58.485v2.651h-9.6a126.208,126.208,0,0,0,5.954,24.441c.129.89.279,1.776.372,2.672.056.54.089,1.078.118,1.617a20.492,20.492,0,0,0-3.49,3.41h6.648v2.651H396.232v-2.651h34.49a12.133,12.133,0,0,0,10.938-6.8A23.064,23.064,0,0,0,444,337.707a17.862,17.862,0,0,0-1.216-5.9A13.923,13.923,0,0,0,429.77,323.139Z" fill="#ef7100"/>
        <path id="Trazado_26680" data-name="Trazado 26680" d="M446.853,340.729v-3.04a17.251,17.251,0,0,0-17.2-17.2h82.567a17.252,17.252,0,0,1,17.2,17.2v3.04a17.252,17.252,0,0,1-17.2,17.2H429.652A17.252,17.252,0,0,0,446.853,340.729Z" fill="#f99200"/>
        <rect id="Rectángulo_4146" data-name="Rectángulo 4146" width="3.686" height="37.442" transform="translate(505.256 320.488)" fill="#fff"/>
        <rect id="Rectángulo_4147" data-name="Rectángulo 4147" width="1.843" height="37.442" transform="translate(500.546 320.488)" fill="#a4d1bc"/>
      </g>
    </g>
    <g id="Grupo_30945" data-name="Grupo 30945">
      <g id="Grupo_30941" data-name="Grupo 30941">
        <path id="Trazado_26681" data-name="Trazado 26681" d="M374.27,323.349s-.563-60.657,40.479-77.707c52.8,55.314-1.739,107.1-1.739,107.1Z" fill="#53b6b9"/>
        <path id="Trazado_26682" data-name="Trazado 26682" d="M414.749,245.642c.184.193.361.385.542.577l-17.212,69.37,39.669-20.331q.021.746.022,1.484L397.654,317.3l-4.966,20.018-1.154-.876,9.9-39.9h0l-17.4-19.1c.2-.438.4-.876.606-1.312l17.178,18.862,12.159-49.008c.257-.111.508-.229.769-.337Z" fill="#fff"/>
      </g>
      <g id="Grupo_30942" data-name="Grupo 30942">
        <path id="Trazado_26683" data-name="Trazado 26683" d="M436.566,280.737c10.972-5.045,23.285-7.906,36.02-5.718C489.657,323.276,438.73,350.5,438.73,350.5L386.078,355.6l2.048-11.447C393.084,316.433,410.98,292.5,436.566,280.737Z" fill="#002f4c"/>
        <path id="Trazado_26684" data-name="Trazado 26684" d="M426.677,286.038l4.541,26.437,40.372-37.607c.332.05.663.094,1,.151.067.19.124.376.189.566l-21.623,20.142,24.8,2.461c-.017.237-.041.47-.061.7l-.062.622-25.973-2.578L413.819,330.5l43.385,5.708c-.4.4-.8.8-1.2,1.186l-43.452-5.717-25.588,23.835-.89.086.232-1.294,43.742-40.746-4.6-26.766Q426.062,286.413,426.677,286.038Z" fill="#005558"/>
      </g>
      <g id="Grupo_30944" data-name="Grupo 30944">
        <path id="Trazado_26685" data-name="Trazado 26685" d="M399.649,343.618s48.418-14.317,69.15,12.516c-24.282,64.847-108.481,38.539-108.481,38.539Z" fill="#a4d1bc"/>
        <g id="Grupo_30943" data-name="Grupo 30943">
          <path id="Trazado_26686" data-name="Trazado 26686" d="M468.8,356.135c-.094.25-.191.495-.286.742l-66.87,14.285,28.8,23.583q-.733.267-1.471.517l-28.993-23.744-26.118,5.58,1.257-1.632L425.965,364.6l15.512-23.668q.708.126,1.416.269l-15.076,23,40.512-8.655c.157.194.316.382.469.58Z" fill="#fff"/>
        </g>
      </g>
    </g>
    <g id="Grupo_30948" data-name="Grupo 30948">
      <path id="Trazado_26687" data-name="Trazado 26687" d="M290.677,195.864c-.461-.6-3.291-1.218-6.523-1.278a28.129,28.129,0,0,0-3.237-7.547c2.078-1.918,4.068-4.158,3.842-5.539-.461-2.8-6.531-7.581-7.724-7.736-.764-.1-3.278,1.525-5.644,3.833a28.135,28.135,0,0,0-7.5-3.15c.115-2.831-.06-5.836-1.2-6.655-2.307-1.656-9.978-.743-10.931-.008-.6.46-1.215,3.273-1.278,6.492a28.123,28.123,0,0,0-7.756,3.044c-1.87-1.994-4-3.836-5.331-3.617-2.8.46-7.581,6.53-7.736,7.724-.092.71,1.3,2.934,3.358,5.145a28.13,28.13,0,0,0-3.524,7.973c-2.559-.046-5.069.2-5.806,1.224-1.656,2.307-.743,9.979-.008,10.931.414.537,2.729,1.091,5.532,1.243a28.1,28.1,0,0,0,3.349,8.422c-1.721,1.7-3.157,3.517-2.962,4.7.46,2.8,6.53,7.581,7.724,7.736.656.085,2.608-1.1,4.646-2.906a28.124,28.124,0,0,0,8.468,3.481c-.013,2.413.257,4.7,1.228,5.4,2.308,1.656,9.979.743,10.932.008.538-.415,1.092-2.74,1.243-5.552a28.109,28.109,0,0,0,8.189-3.566c1.767,1.825,3.7,3.4,4.932,3.2,2.8-.46,7.582-6.53,7.736-7.723.092-.714-1.319-2.957-3.389-5.179a28.062,28.062,0,0,0,3.1-7.95c2.71.082,5.479-.127,6.259-1.214C292.326,204.489,291.412,196.818,290.677,195.864Zm-33.868,18.612a12.644,12.644,0,1,1,12.654-12.635A12.646,12.646,0,0,1,256.809,214.476Z" fill="#53b6b9"/>
      <g id="Grupo_30946" data-name="Grupo 30946">
        <path id="Trazado_26688" data-name="Trazado 26688" d="M256.9,219.546a17.994,17.994,0,1,1,18.008-17.98A18.015,18.015,0,0,1,256.9,219.546Zm.028-35.732a17.739,17.739,0,1,0,17.725,17.752A17.757,17.757,0,0,0,256.933,183.814Z" fill="#fff"/>
      </g>
      <g id="Grupo_30947" data-name="Grupo 30947">
        <path id="Trazado_26689" data-name="Trazado 26689" d="M282.46,196.367c-.119-.014-.237-.029-.355-.049a25.791,25.791,0,0,1-47.223,18.969h0c-.116.026-.233.046-.35.064a26.126,26.126,0,0,0,47.93-18.985Z" fill="#fff"/>
        <path id="Trazado_26690" data-name="Trazado 26690" d="M241.161,181.482a25.663,25.663,0,0,1,15.778-5.393c.116,0,.231.007.347.009-.042-.111-.077-.225-.112-.338-.079,0-.156-.006-.235-.006a25.99,25.99,0,0,0-15.928,5.42C241.063,181.276,241.114,181.378,241.161,181.482Z" fill="#fff"/>
      </g>
    </g>
    <g id="Grupo_30951" data-name="Grupo 30951">
      <path id="Trazado_26691" data-name="Trazado 26691" d="M323.792,191.064c-.962.551-2.422,4.536-3.151,9.216a41.169,41.169,0,0,0-11.6,3.2c-2.371-3.4-5.228-6.731-7.278-6.676-4.16.111-12.3,7.974-12.763,9.676-.3,1.089,1.562,5.061,4.444,8.954a41.2,41.2,0,0,0-6.062,10.261c-4.087-.729-8.484-1.073-9.9.42-2.863,3.02-3.06,14.338-2.182,15.867.549.958,4.51,2.413,9.171,3.144a41.148,41.148,0,0,0,2.879,11.863c-3.266,2.319-6.363,5.044-6.31,7.02.111,4.161,7.974,12.3,9.676,12.764,1.013.274,4.519-1.312,8.137-3.853a41.165,41.165,0,0,0,10.873,6.7c-.574,3.707-.719,7.4.625,8.672,3.02,2.862,14.337,3.059,15.867,2.182.861-.494,2.124-3.745,2.9-7.784a41.155,41.155,0,0,0,12.891-3.19c2.129,2.838,4.478,5.281,6.234,5.234,4.16-.111,12.3-7.974,12.763-9.676.254-.937-1.084-4.005-3.3-7.322a41.184,41.184,0,0,0,6.735-11.6c3.5.5,6.873.56,8.078-.712,2.863-3.021,3.06-14.338,2.183-15.867-.495-.864-3.761-2.13-7.814-2.907a41.177,41.177,0,0,0-3.55-12.6c3-2.2,5.673-4.688,5.624-6.525-.112-4.16-7.975-12.3-9.676-12.763-1.018-.276-4.554,1.328-8.191,3.891a41.17,41.17,0,0,0-10.925-6.081c.658-3.918.9-7.978-.519-9.327C336.638,190.383,325.321,190.186,323.792,191.064Zm20.292,52.861a18.526,18.526,0,1,1-15.828-20.878A18.526,18.526,0,0,1,344.084,243.925Z" fill="#a4d1bc"/>
      <g id="Grupo_30949" data-name="Grupo 30949">
        <path id="Trazado_26692" data-name="Trazado 26692" d="M351.464,244.791a26.364,26.364,0,1,1-22.525-29.711A26.393,26.393,0,0,1,351.464,244.791ZM299.6,237.656a25.99,25.99,0,1,0,29.29-22.205A26.021,26.021,0,0,0,299.6,237.656Z" fill="#fff"/>
      </g>
      <g id="Grupo_30950" data-name="Grupo 30950">
        <path id="Trazado_26693" data-name="Trazado 26693" d="M322.889,203.092c-.043.17-.089.339-.14.506a37.789,37.789,0,0,1,18.16,72.317v0c.014.173.021.347.024.521a38.28,38.28,0,0,0-18.044-73.348Z" fill="#fff"/>
        <path id="Trazado_26694" data-name="Trazado 26694" d="M293.082,260.088a37.6,37.6,0,0,1-4.7-23.974c.023-.169.057-.334.082-.5-.17.038-.341.066-.513.1-.017.113-.04.225-.055.339a38.081,38.081,0,0,0,4.706,24.2Q292.842,260.161,293.082,260.088Z" fill="#fff"/>
      </g>
    </g>
    <g id="Grupo_30956" data-name="Grupo 30956">
      <g id="Grupo_30952" data-name="Grupo 30952">
        <path id="Trazado_26695" data-name="Trazado 26695" d="M248.8,338.637s14.571-70.9-29.576-100.277c-74.515,52.66-22.527,125.8-22.527,125.8Z" fill="#a4d1bc"/>
        <path id="Trazado_26696" data-name="Trazado 26696" d="M219.229,238.361c-.259.183-.511.367-.768.551l4.244,85.178-41.787-32.907q-.2.868-.367,1.733l42.259,33.277,1.224,24.58,1.552-.76-2.441-49h0L247.9,282.636c-.132-.559-.267-1.118-.409-1.676l-24.44,18.147-3-60.175c-.275-.19-.543-.385-.823-.572Z" fill="#fff"/>
      </g>
      <g id="Grupo_30953" data-name="Grupo 30953">
        <path id="Trazado_26697" data-name="Trazado 26697" d="M228.381,324.953s-32.84-64.275-83.615-65.459C113.707,312.086,167.1,355.64,167.1,355.64L227.581,373.7Z" fill="#0f787a"/>
        <path id="Trazado_26698" data-name="Trazado 26698" d="M196,282.927l-11.381,29.915-38.649-53.3c-.4-.017-.8-.042-1.2-.051-.122.207-.231.412-.351.619l20.7,28.545-29.6-2.8c-.035.28-.06.559-.09.838l-.07.742,31,2.939,34.5,47.57-52.111-3.266c.374.563.75,1.119,1.127,1.663l52.193,3.271,24.495,33.78,1.023.3.025-1.568-41.875-57.746,11.522-30.288Q196.63,283.507,196,282.927Z" fill="#005558"/>
      </g>
      <g id="Grupo_30955" data-name="Grupo 30955">
        <path id="Trazado_26699" data-name="Trazado 26699" d="M214.438,356.55s-53.411-27.87-83.843-1.2c13.56,81.5,118.189,70.009,118.189,70.009Z" fill="#002f4c"/>
        <g id="Grupo_30954" data-name="Grupo 30954">
          <path id="Trazado_26700" data-name="Trazado 26700" d="M130.6,355.347c.052.314.11.622.164.934l75.026,32.065-39.128,21.01q.8.482,1.6.943l39.4-21.154,29.3,12.525-1.1-2.2L178.81,375.087l-12.735-31.272q-.859-.015-1.72-.01L176.732,374.2l-45.454-19.426c-.227.191-.457.375-.682.572Z" fill="#005558"/>
        </g>
      </g>
    </g>
    <g id="Grupo_30960" data-name="Grupo 30960">
      <path id="Trazado_26701" data-name="Trazado 26701" d="M368.279,355.96l-11.412-7.17,35.607-15.876L377.736,299.35c-6.816-14.315-24.419-25.921-41.232-25.932H263.2c-16.814.011-34.416,11.617-41.232,25.932l-14.738,33.564,35.606,15.876-11.411,7.17L225.1,410.5l74.751-1.172L374.6,410.5Z" fill="#ffc630"/>
      <path id="Trazado_26702" data-name="Trazado 26702" d="M392.474,332.914l7.35,24.282c5.362,17.716-.361,36.736-14.826,49.276l-33.354,26.053-10.722-29.157,18.448-17.205a18.753,18.753,0,0,0,4.574-21.514l-7.077-15.859Z" fill="#f7a57a"/>
      <path id="Trazado_26703" data-name="Trazado 26703" d="M207.594,332.914l-7.35,24.282c-5.363,17.716.361,36.736,14.826,49.276l33.354,26.053,10.722-29.157L240.7,386.163a18.753,18.753,0,0,1-4.574-21.514L243.2,348.79Z" fill="#f7a57a"/>
      <g id="Grupo_30957" data-name="Grupo 30957">
        <rect id="Rectángulo_4148" data-name="Rectángulo 4148" width="134.18" height="80.305" transform="translate(232.873 349.532)" fill="#0f787a"/>
        <rect id="Rectángulo_4149" data-name="Rectángulo 4149" width="134.18" height="6.692" transform="translate(232.873 426.49)" fill="#005558"/>
        <path id="Trazado_26704" data-name="Trazado 26704" d="M294.6,382.3a5.367,5.367,0,1,0,5.368-5.368A5.367,5.367,0,0,0,294.6,382.3Z" fill="#fff"/>
      </g>
      <g id="Grupo_30959" data-name="Grupo 30959">
        <path id="Trazado_26705" data-name="Trazado 26705" d="M312.834,273.262c-2.283-6.914-6.422-27.411-6.422-27.411L280.027,251v22.378s8.756,6.21,16.122,6.27C304.2,279.718,313.118,274.041,312.834,273.262Z" fill="#f18c72"/>
        <g id="Grupo_30958" data-name="Grupo 30958">
          <path id="Trazado_26706" data-name="Trazado 26706" d="M312.852,209.53l-4.972-29.312-50.7,6,3.072,33.766s3.919,41.789,30.909,36.817C320.352,251.427,314.151,209.157,312.852,209.53Z" fill="#f7a57a"/>
        </g>
        <path id="Trazado_26707" data-name="Trazado 26707" d="M324.693,205.521a20.091,20.091,0,0,1,2.156-12.193c8.757-14.331-4.5-18.5-9.12-19.734-5.111-1.368-6.739-9.324-13.6-11.864-10.482-3.878-16.384,5.506-22.07,6.228s-11.3-5.349-17.9.93-3.773,12.132-5.448,15.518-8.556-2.288-13.557,8.31c-3.8,8.061.4,12.789,5.548,15.5a22.5,22.5,0,0,0,19.381.467,87.5,87.5,0,0,0,20.337-12.356c1.973-1.607,17.447-2.672,18.732-.475,4.361,7.45,4.716,32.228,4.716,32.228l4.514-6.321A16.048,16.048,0,0,0,324.693,205.521Z" fill="#122043"/>
        <path id="Trazado_26708" data-name="Trazado 26708" d="M308.062,213.183c-1.36,3.536-.549,7.138,1.81,8.046s5.376-1.223,6.736-4.759.549-7.139-1.811-8.047S309.422,209.647,308.062,213.183Z" fill="#f7a57a"/>
      </g>
    </g>
    <g id="Grupo_30970" data-name="Grupo 30970">
      <g id="Grupo_30963" data-name="Grupo 30963">
        <path id="Trazado_26709" data-name="Trazado 26709" d="M428.282,431.686l-8.6-.01c-1.141.12-2.417.444-2.631,1.434a5.724,5.724,0,0,0-.124,1.31c.3.358,11.706-.047,11.706-.047l.05-.041A1.809,1.809,0,0,0,428.282,431.686Z" fill="#002b49"/>
        <path id="Trazado_26710" data-name="Trazado 26710" d="M416.928,434.42l11.706-.048-.1.455H416.911Z" fill="#122043"/>
        <g id="Grupo_30961" data-name="Grupo 30961">
          <path id="Trazado_26711" data-name="Trazado 26711" d="M424.879,431.676l-.774.005.241,1.054h.751Z" fill="#fff"/>
        </g>
        <g id="Grupo_30962" data-name="Grupo 30962">
          <path id="Trazado_26712" data-name="Trazado 26712" d="M423.219,431.676l-.775.005.241,1.054h.751Z" fill="#fff"/>
        </g>
        <path id="Trazado_26713" data-name="Trazado 26713" d="M428.872,428.822l-.59,2.864h0a2.788,2.788,0,0,1-2.305.055l-.131-.058-.414-2.861Z" fill="#f7a57a"/>
      </g>
      <g id="Grupo_30966" data-name="Grupo 30966">
        <path id="Trazado_26714" data-name="Trazado 26714" d="M448.38,431.686l-8.6-.01c-1.142.12-2.418.444-2.632,1.434a5.79,5.79,0,0,0-.124,1.31c.3.358,11.706-.047,11.706-.047l.05-.041A1.808,1.808,0,0,0,448.38,431.686Z" fill="#122043"/>
        <path id="Trazado_26715" data-name="Trazado 26715" d="M437.025,434.42l11.706-.048-.1.455H437.008Z" fill="#122043"/>
        <g id="Grupo_30964" data-name="Grupo 30964">
          <path id="Trazado_26716" data-name="Trazado 26716" d="M444.976,431.676l-.774.005.241,1.054h.751Z" fill="#fff"/>
        </g>
        <g id="Grupo_30965" data-name="Grupo 30965">
          <path id="Trazado_26717" data-name="Trazado 26717" d="M443.316,431.676l-.774.005.241,1.054h.751Z" fill="#fff"/>
        </g>
        <path id="Trazado_26718" data-name="Trazado 26718" d="M448.006,428.822l.374,2.864h0a2.79,2.79,0,0,1-2.306.055l-.13-.058-1.378-2.861Z" fill="#f7a57a"/>
      </g>
      <g id="Grupo_30967" data-name="Grupo 30967">
        <path id="Trazado_26719" data-name="Trazado 26719" d="M435.174,332.5l7.082,4.617-2.186,5.6c-.031.079-.072.152-.108.229-.155-.009-.311-.019-.468-.019-.025,0-.051,0-.076,0s-.049,0-.074,0a5.463,5.463,0,0,0-4.514,2.736,9.418,9.418,0,0,1-3.343-.867,3.457,3.457,0,0,1-1.574-1.193C429.154,339.632,435.174,332.5,435.174,332.5Z" fill="#f7a57a"/>
      </g>
      <path id="Trazado_26720" data-name="Trazado 26720" d="M426.167,333.949s-.867,8.219.878,13.453c-.81.7-3.786,3.894-4.722-.241s1.051-14.659,1.051-14.659Z" fill="#f7a57a"/>
      <g id="Grupo_30969" data-name="Grupo 30969">
        <g id="Grupo_30968" data-name="Grupo 30968">
          <path id="Trazado_26721" data-name="Trazado 26721" d="M430.416,333.367l1.666,1.072-.594,1.244L429.7,334.9Z" fill="#f99200"/>
          <path id="Trazado_26722" data-name="Trazado 26722" d="M431.4,334.863c-.167.38-.179.743-.027.81s.411-.188.578-.568.179-.743.027-.81S431.564,334.483,431.4,334.863Z" fill="#ffc630"/>
        </g>
        <path id="Trazado_26723" data-name="Trazado 26723" d="M410.313,327.3c0-.016,0-.031-.007-.047a16.741,16.741,0,0,1,1.611-2.891,14.591,14.591,0,0,0,1.548-2.528L430.67,333.1l-1.114,2.1-19.245-7.113A5.4,5.4,0,0,0,410.313,327.3Z" fill="#ffc630"/>
      </g>
      <path id="Trazado_26724" data-name="Trazado 26724" d="M436.737,345.665l.619,3.864h-5.475l-.394-4.735Z" fill="#f18c72"/>
      <path id="Trazado_26725" data-name="Trazado 26725" d="M422.6,355.253s-6.466-2.06-8.493-4.829,1.4-17.922,1.4-17.922l-.443-2.728a2.539,2.539,0,0,1,2.484-2.945l1.727-.015a.988.988,0,0,1,.912,1.389l-2.272,5.113s-1.7,11.478.683,12.349a26.9,26.9,0,0,0,6.073,1.259Z" fill="#f7a57a"/>
      <path id="Trazado_26726" data-name="Trazado 26726" d="M434.747,345.665l1.663-3.689-1.081-.679a2.033,2.033,0,0,1-.843-2.378l1.184-3.477s-3.369-.412-3.267-3.551c0-1.616,2.224-1.625,2.224-1.625a3.235,3.235,0,0,0,2.728,1.616c.886-.111,3.318.215,4.959,3.079,1.1,1.926.62,4.943-.341,7.207-.861,2.029-3.058,3.162-5.236,3.5Z" fill="#122043"/>
      <path id="Trazado_26727" data-name="Trazado 26727" d="M441.322,376.655a121.693,121.693,0,0,1-2.045,16.391,14.653,14.653,0,0,0,.505,7.538c3.861,11.471,9.274,28.72,9.274,28.72h-4.815s-10.911-20.386-13.722-30.5-3.293-13.323-3.293-13.323l3.346-8.828Z" fill="#122043"/>
      <path id="Trazado_26728" data-name="Trazado 26728" d="M437.3,340.257a1.569,1.569,0,0,1-.895,1.719c-.693.367-1.414.194-1.613-.387a1.567,1.567,0,0,1,.895-1.718C436.385,339.5,437.107,339.676,437.3,340.257Z" fill="#f7a57a"/>
      <path id="Trazado_26729" data-name="Trazado 26729" d="M425.621,376.655h15.7V356.511A8.547,8.547,0,0,0,433.57,348l-10.919-1.321s-1.284,1.965-4.861,6.531a36.86,36.86,0,0,0,9.275,3.881Z" fill="#005558"/>
      <path id="Trazado_26730" data-name="Trazado 26730" d="M441.322,376.655s-2.218,8.025-10.4,17.021a10.523,10.523,0,0,0-3.054,8.179l1.688,27.449h-4.884s-5.953-22.794-4.669-34.03a51.555,51.555,0,0,1,5.618-18.619Z" fill="#002f4c"/>
      <path id="Trazado_26731" data-name="Trazado 26731" d="M412.948,325.439c-.845,1.751-1.991,2.949-2.56,2.675s-.345-1.917.5-3.669,1.991-2.949,2.56-2.675S413.792,323.687,412.948,325.439Z" fill="#f99200"/>
      <path id="Trazado_26732" data-name="Trazado 26732" d="M426.846,330.6l-.146.07a2.188,2.188,0,0,1-1.638.1l-.1-.032a2.926,2.926,0,0,1-1.862-1.887h0a.543.543,0,0,1,.629-.7l1.087.228a1.639,1.639,0,0,1,1.033.7Z" fill="#f7a57a"/>
    </g>
    <g id="Grupo_30973" data-name="Grupo 30973">
      <g id="Grupo_30971" data-name="Grupo 30971">
        <path id="Trazado_26733" data-name="Trazado 26733" d="M303.83,176.016h-1v-6.2h1Zm.492-12.27-.979-.2a24.73,24.73,0,0,1,2.054-5.97l.9.443A23.714,23.714,0,0,0,304.322,163.746Zm5.327-10.775-.756-.655a24.989,24.989,0,0,1,4.7-4.211l.567.823A24.048,24.048,0,0,0,309.649,152.971Zm9.892-6.821-.342-.94a24.8,24.8,0,0,1,6.159-1.382l.093,1A23.7,23.7,0,0,0,319.541,146.15Zm43.079-1.431h-6.2v-1h6.2Zm-12.406,0h-6.2v-1h6.2Zm-12.407,0h-6.2v-1h6.2Zm31.08-.277-.158-.987a20.681,20.681,0,0,0,5.756-1.814l.435.9A21.663,21.663,0,0,1,368.887,144.442Zm11.264-5.457-.676-.737a20.939,20.939,0,0,0,3.815-4.678l.858.513A21.92,21.92,0,0,1,380.151,138.985Zm6.421-10.745L385.6,128a20.851,20.851,0,0,0,.628-5.093l-.013-.925,1-.017.013.941A21.811,21.811,0,0,1,386.572,128.24Z" fill="#53b6b9"/>
      </g>
      <g id="Grupo_30972" data-name="Grupo 30972">
        <rect id="Rectángulo_4150" data-name="Rectángulo 4150" width="1" height="3" transform="translate(386.072 112.727) rotate(-0.913)" fill="#53b6b9"/>
      </g>
    </g>
    <g id="Grupo_30976" data-name="Grupo 30976">
      <g id="Grupo_30974" data-name="Grupo 30974">
        <path id="Trazado_26734" data-name="Trazado 26734" d="M280.16,169.812h1v6.2h-1Zm-2.463-11.8.9-.443a24.733,24.733,0,0,1,2.055,5.97l-.979.2A23.756,23.756,0,0,0,277.7,158.016Zm-7.867-9.088.567-.823a24.989,24.989,0,0,1,4.7,4.211l-.756.655A24.048,24.048,0,0,0,269.83,148.928Zm-11.29-4.1.092-1a24.8,24.8,0,0,1,6.159,1.382l-.342.94A23.7,23.7,0,0,0,258.54,144.824Zm-37.17-1.105h6.2v1h-6.2Zm12.407,0h6.2v1h-6.2Zm12.407,0h6.2v1h-6.2Zm-37.114-1.178.436-.9a20.671,20.671,0,0,0,5.756,1.814l-.158.987A21.68,21.68,0,0,1,209.07,142.541Zm-9.227-8.458.857-.513a20.942,20.942,0,0,0,3.816,4.678l-.676.737A21.919,21.919,0,0,1,199.843,134.083ZM196.76,122.9l.013-.941,1,.017-.013.925a20.851,20.851,0,0,0,.628,5.093l-.969.244A21.812,21.812,0,0,1,196.76,122.9Z" fill="#53b6b9"/>
      </g>
      <g id="Grupo_30975" data-name="Grupo 30975">
        <rect id="Rectángulo_4151" data-name="Rectángulo 4151" width="3" height="1" transform="translate(196.871 115.71) rotate(-89.085)" fill="#53b6b9"/>
      </g>
    </g>
    <g id="Grupo_30979" data-name="Grupo 30979">
      <g id="Grupo_30977" data-name="Grupo 30977">
        <path id="Trazado_26735" data-name="Trazado 26735" d="M293.1,176.172h-1v-6.046h1Zm0-12.092h-1v-6.046h1Zm0-12.092h-1v-6.047h1Zm0-12.093h-1v-6.046h1Zm0-12.092h-1v-6.046h1Z" fill="#53b6b9"/>
      </g>
      <g id="Grupo_30978" data-name="Grupo 30978">
        <rect id="Rectángulo_4152" data-name="Rectángulo 4152" width="1" height="3" transform="translate(292.095 112.711)" fill="#53b6b9"/>
      </g>
    </g>
    <g id="Grupo_30986" data-name="Grupo 30986">
      <g id="Grupo_30985" data-name="Grupo 30985">
        <g id="Grupo_30981" data-name="Grupo 30981">
          <path id="Trazado_26736" data-name="Trazado 26736" d="M285.576,116.62l15.242-.082a27.279,27.279,0,0,1-.726-8.2,4.536,4.536,0,0,1,2.129-3.254C317.16,95.748,313.5,85.079,313.5,85.079s-1.625-13.545-20.827-14.753c-20.47-1.288-19.147,16.9-19.147,16.9s-.88,10.125,9.776,16.94a6.135,6.135,0,0,1,2.722,4.415A21.9,21.9,0,0,1,285.576,116.62Z" fill="#ffc630"/>
          <path id="Trazado_26737" data-name="Trazado 26737" d="M300.818,116.5l.029,5.459c.012,2.046-1.316,3.727-2.949,3.736l-9.281.05c-1.633.009-2.979-1.658-2.99-3.7l-.03-5.46Z" fill="#53b6b9"/>
          <path id="Trazado_26738" data-name="Trazado 26738" d="M296.938,125.7l-1.036,2.5-5.772.031-1.276-2.488Z" fill="#0f787a"/>
          <g id="Grupo_30980" data-name="Grupo 30980">
            <path id="Trazado_26739" data-name="Trazado 26739" d="M300.771,92.276c2.294-4.327-3.416-6.437-6.1-3.467a3.015,3.015,0,0,0-.711,1.989c-.018,1.281.011,3.278.011,3.278a22.667,22.667,0,0,1-2.393-.541,10.706,10.706,0,0,0-.357-3.579c-1.613-4.722-7.67-1.034-4.116,2.33a8.907,8.907,0,0,0,3.375,1.794l.312,22.431,1.041-.006-.192-13.787q-.05-3.576-.1-7.154c-.006-.374,0-.773.015-1.181a17.577,17.577,0,0,0,2.3.4l.117,21.71,1.042,0L294.9,94.861c.211.008.427.021.623.019C297.5,94.865,299.783,94.14,300.771,92.276Zm-10.285.928c-1.47-.48-3.551-1.462-3.752-2.926a1.124,1.124,0,0,1,.374-.966c2.566-2.323,3.342,1.839,3.331,2.361A12.779,12.779,0,0,1,290.486,93.2Zm9.393-1.1a5.124,5.124,0,0,1-4.984,2.094l-.018-3.325a2.3,2.3,0,0,1,.671-1.648,3.244,3.244,0,0,1,3.907-.738C300.545,89.16,300.676,90.915,299.879,92.1Z" fill="#fff"/>
          </g>
        </g>
        <g id="Grupo_30982" data-name="Grupo 30982">
          <path id="Trazado_26740" data-name="Trazado 26740" d="M273.154,66.713a.8.8,0,0,0-.006-1.14l-7.737-7.654a.806.806,0,0,0-1.134,1.147l7.737,7.654A.806.806,0,0,0,273.154,66.713Z" fill="#ffc630"/>
        </g>
        <g id="Grupo_30983" data-name="Grupo 30983">
          <path id="Trazado_26741" data-name="Trazado 26741" d="M307.125,66.529a.8.8,0,0,1-.006-1.14l7.654-7.737a.806.806,0,1,1,1.146,1.133l-7.654,7.738A.806.806,0,0,1,307.125,66.529Z" fill="#ffc630"/>
        </g>
        <g id="Grupo_30984" data-name="Grupo 30984">
          <path id="Trazado_26742" data-name="Trazado 26742" d="M292.56,63.784a.806.806,0,0,0,.8-.811L293.3,52.09a.807.807,0,0,0-1.613.009l.059,10.883A.806.806,0,0,0,292.56,63.784Z" fill="#ffc630"/>
        </g>
      </g>
    </g>
    <g id="Grupo_30993" data-name="Grupo 30993">
      <g id="Grupo_30992" data-name="Grupo 30992">
        <g id="Grupo_30988" data-name="Grupo 30988">
          <path id="Trazado_26743" data-name="Trazado 26743" d="M377.552,116.62l15.242-.082a27.279,27.279,0,0,1-.726-8.2,4.537,4.537,0,0,1,2.13-3.254c14.938-9.34,11.275-20.009,11.275-20.009s-1.625-13.545-20.826-14.753c-20.471-1.288-19.148,16.9-19.148,16.9s-.879,10.125,9.777,16.94A6.141,6.141,0,0,1,378,108.576,21.912,21.912,0,0,1,377.552,116.62Z" fill="#ffc630"/>
          <path id="Trazado_26744" data-name="Trazado 26744" d="M392.794,116.5l.03,5.459c.011,2.046-1.316,3.727-2.95,3.736l-9.281.05c-1.633.009-2.978-1.658-2.99-3.7l-.029-5.46Z" fill="#53b6b9"/>
          <path id="Trazado_26745" data-name="Trazado 26745" d="M388.915,125.7l-1.036,2.5-5.772.031-1.275-2.488Z" fill="#0f787a"/>
          <g id="Grupo_30987" data-name="Grupo 30987">
            <path id="Trazado_26746" data-name="Trazado 26746" d="M392.747,92.276c2.294-4.327-3.416-6.437-6.1-3.467a3.01,3.01,0,0,0-.711,1.989c-.018,1.281.01,3.278.01,3.278a22.721,22.721,0,0,1-2.393-.541,10.706,10.706,0,0,0-.356-3.579c-1.614-4.722-7.671-1.034-4.116,2.33a8.9,8.9,0,0,0,3.374,1.794q.156,11.215.312,22.431l1.041-.006q-.1-6.894-.191-13.787-.051-3.576-.1-7.154c-.005-.374,0-.773.015-1.181a17.605,17.605,0,0,0,2.3.4l.118,21.71,1.041,0-.117-21.627c.21.008.427.021.622.019C389.477,94.865,391.759,94.14,392.747,92.276Zm-10.284.928c-1.471-.48-3.551-1.462-3.753-2.926a1.127,1.127,0,0,1,.374-.966c2.567-2.323,3.343,1.839,3.332,2.361A12.779,12.779,0,0,1,382.463,93.2Zm9.393-1.1a5.124,5.124,0,0,1-4.985,2.094l-.018-3.325a2.3,2.3,0,0,1,.671-1.648,3.244,3.244,0,0,1,3.907-.738C392.522,89.16,392.652,90.915,391.856,92.1Z" fill="#fff"/>
          </g>
        </g>
        <g id="Grupo_30989" data-name="Grupo 30989">
          <path id="Trazado_26747" data-name="Trazado 26747" d="M365.131,66.713a.807.807,0,0,0-.006-1.14l-7.738-7.654a.806.806,0,0,0-1.134,1.147l7.738,7.654A.806.806,0,0,0,365.131,66.713Z" fill="#ffc630"/>
        </g>
        <g id="Grupo_30990" data-name="Grupo 30990">
          <path id="Trazado_26748" data-name="Trazado 26748" d="M399.1,66.529a.807.807,0,0,1-.006-1.14l7.654-7.737a.806.806,0,1,1,1.146,1.133l-7.653,7.738A.807.807,0,0,1,399.1,66.529Z" fill="#ffc630"/>
        </g>
        <g id="Grupo_30991" data-name="Grupo 30991">
          <path id="Trazado_26749" data-name="Trazado 26749" d="M384.536,63.784a.806.806,0,0,0,.8-.811l-.059-10.883a.806.806,0,1,0-1.612.009l.059,10.883A.806.806,0,0,0,384.536,63.784Z" fill="#ffc630"/>
        </g>
      </g>
    </g>
    <g id="Grupo_31000" data-name="Grupo 31000">
      <g id="Grupo_30999" data-name="Grupo 30999">
        <g id="Grupo_30995" data-name="Grupo 30995">
          <path id="Trazado_26750" data-name="Trazado 26750" d="M191.876,116.62l15.242-.082a27.279,27.279,0,0,1-.726-8.2,4.537,4.537,0,0,1,2.13-3.254C223.46,95.748,219.8,85.079,219.8,85.079s-1.625-13.545-20.826-14.753c-20.471-1.288-19.148,16.9-19.148,16.9s-.879,10.125,9.777,16.94a6.141,6.141,0,0,1,2.722,4.415A21.912,21.912,0,0,1,191.876,116.62Z" fill="#ffc630"/>
          <path id="Trazado_26751" data-name="Trazado 26751" d="M207.118,116.5l.03,5.459c.011,2.046-1.317,3.727-2.95,3.736l-9.281.05c-1.633.009-2.979-1.658-2.99-3.7l-.029-5.46Z" fill="#53b6b9"/>
          <path id="Trazado_26752" data-name="Trazado 26752" d="M203.238,125.7l-1.036,2.5-5.772.031-1.275-2.488Z" fill="#0f787a"/>
          <g id="Grupo_30994" data-name="Grupo 30994">
            <path id="Trazado_26753" data-name="Trazado 26753" d="M207.071,92.276c2.294-4.327-3.416-6.437-6.1-3.467a3.01,3.01,0,0,0-.711,1.989c-.019,1.281.01,3.278.01,3.278a22.723,22.723,0,0,1-2.393-.541,10.68,10.68,0,0,0-.357-3.579c-1.613-4.722-7.67-1.034-4.115,2.33a8.9,8.9,0,0,0,3.374,1.794l.312,22.431,1.041-.006-.192-13.787q-.05-3.576-.1-7.154c-.005-.374,0-.773.015-1.181a17.576,17.576,0,0,0,2.3.4l.118,21.71,1.041,0L201.2,94.861c.21.008.427.021.622.019C203.8,94.865,206.083,94.14,207.071,92.276Zm-10.284.928c-1.471-.48-3.552-1.462-3.753-2.926a1.127,1.127,0,0,1,.374-.966c2.567-2.323,3.343,1.839,3.332,2.361A12.782,12.782,0,0,1,196.787,93.2Zm9.393-1.1A5.124,5.124,0,0,1,201.2,94.2l-.018-3.325a2.3,2.3,0,0,1,.671-1.648,3.244,3.244,0,0,1,3.907-.738C206.846,89.16,206.976,90.915,206.18,92.1Z" fill="#fff"/>
          </g>
        </g>
        <g id="Grupo_30996" data-name="Grupo 30996">
          <path id="Trazado_26754" data-name="Trazado 26754" d="M179.455,66.713a.806.806,0,0,0-.007-1.14l-7.737-7.654a.806.806,0,0,0-1.134,1.147l7.737,7.654A.807.807,0,0,0,179.455,66.713Z" fill="#ffc630"/>
        </g>
        <g id="Grupo_30997" data-name="Grupo 30997">
          <path id="Trazado_26755" data-name="Trazado 26755" d="M213.425,66.529a.807.807,0,0,1-.006-1.14l7.654-7.737a.806.806,0,1,1,1.146,1.133l-7.654,7.738A.806.806,0,0,1,213.425,66.529Z" fill="#ffc630"/>
        </g>
        <g id="Grupo_30998" data-name="Grupo 30998">
          <path id="Trazado_26756" data-name="Trazado 26756" d="M198.86,63.784a.806.806,0,0,0,.8-.811L199.6,52.09a.806.806,0,1,0-1.612.009l.059,10.883A.806.806,0,0,0,198.86,63.784Z" fill="#ffc630"/>
        </g>
      </g>
    </g>
    <g id="Grupo_31022" data-name="Grupo 31022">
      <g id="Grupo_31006" data-name="Grupo 31006">
        <g id="Grupo_31005" data-name="Grupo 31005">
          <g id="Grupo_31001" data-name="Grupo 31001">
            <path id="Trazado_26757" data-name="Trazado 26757" d="M201.373,432.563h2.783c-5.1-31.949-10.07-64.077-14.883-95.188-3.239-20.944-6.59-42.6-9.956-64.059l-2.722.378c3.366,21.455,6.716,43.112,9.956,64.055C191.344,368.738,196.295,400.735,201.373,432.563Z" fill="#122043"/>
          </g>
          <g id="Grupo_31002" data-name="Grupo 31002">
            <path id="Trazado_26758" data-name="Trazado 26758" d="M121.371,432.563h2.782c-5.1-31.949-10.07-64.077-14.882-95.188-3.24-20.944-6.59-42.6-9.957-64.059l-2.722.378c3.367,21.455,6.717,43.112,9.956,64.055C111.342,368.738,116.293,400.735,121.371,432.563Z" fill="#122043"/>
          </g>
          <path id="Trazado_26759" data-name="Trazado 26759" d="M201.656,334.669C178.406,289.611,178.4,201.588,178.4,201.588L156.376,334.669Z" fill="#53b6b9"/>
          <g id="Grupo_31003" data-name="Grupo 31003">
            <path id="Trazado_26760" data-name="Trazado 26760" d="M51.377,437.746c8.5-51.609,16.059-101.442,24.051-154.131l2.681-5.737-2.724-.367-2.68,5.738c-8.012,52.816-15.59,102.761-24.112,154.5Z" fill="#122043"/>
          </g>
          <g id="Grupo_31004" data-name="Grupo 31004">
            <path id="Trazado_26761" data-name="Trazado 26761" d="M161.844,277.505c-3.369,21.469-6.721,43.138-9.962,64.094-4.33,27.992-8.789,56.806-13.353,85.573a12.119,12.119,0,0,1,2.875-.585c4.511-28.449,8.919-56.934,13.2-84.615,3.241-20.954,6.593-42.622,9.961-64.088Z" fill="#122043"/>
          </g>
          <path id="Trazado_26762" data-name="Trazado 26762" d="M188.825,337.227,172.488,235.986l-21.782,94.061,2.849,7.18Z" fill="#122043"/>
          <path id="Trazado_26763" data-name="Trazado 26763" d="M78.228,196.287C99.614,192.9,178.4,197.924,178.4,197.924S180.6,299.34,155.339,333.378c-25.755.019-105.919,0-105.919,0S81.108,268.129,78.228,196.287Z" fill="url(#linear-gradient)"/>
          <path id="Trazado_26764" data-name="Trazado 26764" d="M52.362,333.4l3.708,6.208,98.565.043,1.359-6.251Z" fill="#122043"/>
          <path id="Trazado_26765" data-name="Trazado 26765" d="M78.393,194l.993,6.208,98.565.043L178.4,194Z" fill="#122043"/>
          <path id="Trazado_26766" data-name="Trazado 26766" d="M171.014,197.127a4.684,4.684,0,1,0,4.675-4.4A4.546,4.546,0,0,0,171.014,197.127Z" fill="#122043"/>
          <path id="Trazado_26767" data-name="Trazado 26767" d="M73.433,197.127a4.684,4.684,0,1,0,4.676-4.4A4.546,4.546,0,0,0,73.433,197.127Z" fill="#122043"/>
        </g>
      </g>
      <g id="Grupo_31019" data-name="Grupo 31019">
        <g id="Grupo_31007" data-name="Grupo 31007">
          <path id="Trazado_26768" data-name="Trazado 26768" d="M114.308,282.352c-.3,4.171-.639,8.334-.671,12.517,0,.657,1.053.981,1.213.252.554-2.527.112-4.894.173-7.463a.625.625,0,0,0-1.247-.088c-.138,2.473-.923,7.742.581,9.943,1.3,1.9,4.907,1.147,6.776,1.113.654-.012.981-1.014.252-1.213a68.643,68.643,0,0,1-7.518-2.141l-.252,1.213c4.679.026,9.276.906,13.929,1.286l.087-1.247c-2.463-.157-4.888-.6-7.342-.855-.818-.087-.856,1.1-.087,1.247a71.548,71.548,0,0,0,7.489,1.033l.087-1.247-7.559-.529a.625.625,0,0,0-.088,1.247c2.432.248,6.311,1.625,8.552.106,2.126-1.44,1.3-5.077,1.36-7.242a.625.625,0,0,0-1.247-.087,18.621,18.621,0,0,0-.131,4.588c.088.644.988.623,1.2.085a16.951,16.951,0,0,0,.842-9.706c-.122-.559-1.052-.714-1.2-.084a24.742,24.742,0,0,0-.528,5.011l1.237-.08a31.038,31.038,0,0,0-.834-5.629.628.628,0,0,0-1.236.08,12.473,12.473,0,0,0-.287,2.428.625.625,0,0,0,1.247.087l.436-6.233a.626.626,0,0,0-1.248-.087l-.435,6.233,1.247.087a12.473,12.473,0,0,1,.287-2.428l-1.237.08a31.091,31.091,0,0,1,.834,5.629c.055.705,1.212.615,1.236-.08a22.754,22.754,0,0,1,.461-4.682l-1.2-.084a15.775,15.775,0,0,1-.795,9.042l1.2.084a17.091,17.091,0,0,1,.152-4.254L128.8,290.2c-.076,2.567.869,6.216-2.594,6.644-1.931.238-4.064-.472-5.983-.668q-.043.624-.088,1.247l7.56.529a.625.625,0,0,0,.087-1.247,71.585,71.585,0,0,1-7.489-1.033l-.087,1.247c2.453.26,4.878.7,7.342.855a.625.625,0,0,0,.087-1.247c-4.653-.38-9.249-1.26-13.928-1.286a.628.628,0,0,0-.252,1.213,68.643,68.643,0,0,0,7.518,2.141l.252-1.213c-.719.013-1.436.056-2.155.068q-.861.03-1.722-.009-1.609.342-1.74-1.244c-1.378-1.928-.706-6.294-.581-8.536l-1.247-.088c-.056,2.385.412,4.776-.105,7.135l1.213.252c.032-4.184.371-8.347.671-12.518a.625.625,0,0,0-1.247-.087Z" fill="#53b6b9"/>
        </g>
        <g id="Grupo_31008" data-name="Grupo 31008">
          <path id="Trazado_26769" data-name="Trazado 26769" d="M129.793,281.6q.234-1.315.47-2.632l-1.139-.4-.447,2.417a.631.631,0,0,0,1,.68c4.232-3.021,8.06-7.568,11.093-11.777,2.68-3.719,4.739-7.439,4.247-12.183-1.141-11-13.929-14.664-23.131-15.036-8.21-.332-17.3,6.617-19.222,14.753-.92,3.885.486,7.333,2.678,10.511,1.655,2.4,3.75,4.448,5.455,6.8,2.384,3.292,2.266,6.273,3.186,10.067a.633.633,0,0,0,1.129.229,3.454,3.454,0,0,0,.695-1.741c.168-.777-1.009-1.2-1.179-.416l-.549,1.452,1.13.229c-.716-2.953-.553-6.212-2.139-8.883s-4.044-4.859-5.9-7.348c-3.915-5.247-4.692-10.537-.583-15.954,2.615-3.448,7-7.425,11.307-8.294,9.457-1.911,24.578,2.846,25.8,13.8.6,5.4-2.609,9.807-5.855,13.811a53.448,53.448,0,0,1-8.98,9.035l1,.68a24.547,24.547,0,0,0,.515-2.745.63.63,0,0,0-1.14-.4,4.613,4.613,0,0,0-.664,3.583c.1.8,1.325.549,1.226-.247Z" fill="#53b6b9"/>
        </g>
        <g id="Grupo_31009" data-name="Grupo 31009">
          <path id="Trazado_26770" data-name="Trazado 26770" d="M129.064,280.981a5.041,5.041,0,0,0,2.494-1.542,36.065,36.065,0,0,1,3.691-2.673q-.409-.471-.82-.943a17.819,17.819,0,0,1-4.936,3.666l.9.6c.255-1.937,3.082-3.272,4.464-4.368a16.124,16.124,0,0,0,4.5-5.172c.363-.708-.666-1.419-1.033-.705-1.346,2.624-3.564,4.379-5.875,6.106-1.38,1.031-3.062,2.22-3.3,4.051a.63.63,0,0,0,.9.6,18.7,18.7,0,0,0,5.2-3.843.625.625,0,0,0-.82-.943c-.884.661-1.879,1.155-2.752,1.83-.947.732-1.612,1.8-2.86,2.1-.78.187-.539,1.414.247,1.226Z" fill="#53b6b9"/>
        </g>
        <g id="Grupo_31010" data-name="Grupo 31010">
          <path id="Trazado_26771" data-name="Trazado 26771" d="M128.3,283a43.493,43.493,0,0,1-1.015,5.276c-.165.777,1.013,1.2,1.179.416a46.143,46.143,0,0,0,1.083-5.6A.625.625,0,0,0,128.3,283Z" fill="#53b6b9"/>
        </g>
        <g id="Grupo_31011" data-name="Grupo 31011">
          <path id="Trazado_26772" data-name="Trazado 26772" d="M119.3,288.549c.263-2.776,7.273-30.925-.883-28.992-2.09.495-2.25,3.568-1.373,5.1,1.307,2.275,4.748,2.934,7.12,2.974,2.422.041,5.7-.567,6.9-2.984.778-1.571.481-4.512-1.494-5.106-7.849-2.362-7.024,26.445-7.23,29.726a.625.625,0,0,0,1.247.087c.367-5.854.379-11.741,1.024-17.576.184-1.659.084-7.059,1.632-7.964.758-.442,4.754.771,1.2,2.081a8.886,8.886,0,0,1-3.2.489c-1.159-.008-4.132-.061-4.739-1.175q-1.42-.484.45-.9,2.268-1.807,1.275,2.3c0,1.014-.112,2.05-.2,3.059-.546,6.34-2.386,12.465-2.986,18.8a.625.625,0,0,0,1.247.087Z" fill="#53b6b9"/>
        </g>
        <g id="Grupo_31012" data-name="Grupo 31012">
          <path id="Trazado_26773" data-name="Trazado 26773" d="M128.59,263.868a2.472,2.472,0,0,0-3.233,1.235c-.311.63.768,1.181,1.106.56.261-.48.648-1.224,1.278-1.25l-.569-.5c.182.574-.321.877-.767,1.142-.528.314-1.086.567-1.586.926l.882.062a1.359,1.359,0,0,1-.165-.331c-.006-.022-.041-.193-.025-.079,0-.03.024-.261,0-.118.037-.2.088-.246.322-.419a3.2,3.2,0,0,1,1.515-.45c.068,0,.267,0,.384.005.142.01.3.038.3.038.056.016.327.116.179.052.17.073.045.009.044.007-.02-.037,0-.127-.023-.142.047.028-.017.054-.01.045a1.419,1.419,0,0,1-.146.2,4.936,4.936,0,0,1-1.1.8c-.686.409-.139,1.534.554,1.121s1.65-.959,1.9-1.8a1.187,1.187,0,0,0-.9-1.447,3.913,3.913,0,0,0-3.887.983,1.888,1.888,0,0,0,.118,2.348.638.638,0,0,0,.882.062c1.114-.8,3.34-1.429,2.758-3.259a.639.639,0,0,0-.569-.5,2.9,2.9,0,0,0-2.4,1.792l1.106.56a1.229,1.229,0,0,1,1.639-.471c.721.354,1.129-.829.415-1.179Z" fill="#53b6b9"/>
        </g>
        <g id="Grupo_31013" data-name="Grupo 31013">
          <path id="Trazado_26774" data-name="Trazado 26774" d="M118.979,263c.754.652.967,1.956,1.372,2.828l.769-.867a6.868,6.868,0,0,1-1.483-.846q-.279.554-.56,1.106a2.106,2.106,0,0,0,2.424-.334,2.45,2.45,0,0,0-.113-2.576.626.626,0,0,0-1.121.554c.125.253.514.962.258,1.246-.223.246-.795.015-1.032-.069a.628.628,0,0,0-.56,1.106,8.163,8.163,0,0,0,1.771.992c.522.233.983-.4.768-.866-.53-1.141-.8-2.452-1.789-3.307-.608-.526-1.306.512-.7,1.033Z" fill="#53b6b9"/>
        </g>
        <g id="Grupo_31014" data-name="Grupo 31014">
          <path id="Trazado_26775" data-name="Trazado 26775" d="M97.912,229.786a13.088,13.088,0,0,1,4.761,6.642c.219.767,1.447.529,1.225-.248a14.433,14.433,0,0,0-5.282-7.426c-.657-.469-1.359.566-.7,1.032Z" fill="#53b6b9"/>
        </g>
        <g id="Grupo_31015" data-name="Grupo 31015">
          <path id="Trazado_26776" data-name="Trazado 26776" d="M123.965,236.247a77.108,77.108,0,0,1,.782-8.8c.144-.791-1.1-.872-1.246-.088a76.9,76.9,0,0,0-.783,8.8.625.625,0,0,0,1.247.087Z" fill="#53b6b9"/>
        </g>
        <g id="Grupo_31016" data-name="Grupo 31016">
          <path id="Trazado_26777" data-name="Trazado 26777" d="M138.933,240.784a27.669,27.669,0,0,1,4.612-5.231c.627-.506-.195-1.448-.82-.943a28.947,28.947,0,0,0-4.825,5.47c-.483.646.552,1.347,1.033.7Z" fill="#53b6b9"/>
        </g>
        <g id="Grupo_31017" data-name="Grupo 31017">
          <path id="Trazado_26778" data-name="Trazado 26778" d="M131.079,287.145c.231-2.252.948-4.61.055-6.789-.223-.543-.946-.377-1.15.07a10.26,10.26,0,0,0-.651,3.677l1.247.088a11.153,11.153,0,0,0-.2-1.721.63.63,0,0,0-1.2-.084c-1.413,4.064-1.487,8.778-1.768,13.023a.625.625,0,0,0,1.247.088c.273-4.129.329-8.752,1.7-12.7l-1.2-.084q.09.693.178,1.385c.049.776,1.181.917,1.247.088a9.069,9.069,0,0,1,.583-3.35l-1.15.069c.769,1.877.017,4.22-.181,6.148-.083.8,1.165.887,1.247.087Z" fill="#53b6b9"/>
        </g>
        <g id="Grupo_31018" data-name="Grupo 31018">
          <path id="Trazado_26779" data-name="Trazado 26779" d="M129,293.58c-1.5.406-2.913,1-4.373,1.531q.4.456.793.913a35.752,35.752,0,0,0,2.74-4.423.631.631,0,0,0-.867-.768c-1.939,1.108-3.675,2.518-5.622,3.611l.793.912c1.589-1.957,4.328-3.023,5.149-5.543.155-.478-.379-1.068-.867-.768-2.989,1.836-5.361,4.411-8.134,6.532l.927.824c2.614-3.806,6.711-5.685,10.328-8.354a.629.629,0,0,0-.534-1.084c-5.443,1.48-10.55,3.895-15.912,5.615l.639.965c3.544-4.907,10.357-6.275,15.534-8.8l-.794-.913c-2.522,3.656-6.619,5.726-10.458,7.733l.794.913c2.389-3.6,5.185-7.052,9.1-9.044l-.687-1.033a20.436,20.436,0,0,1-10.7,3.611l.533,1.084c3.332-3.254,8.03-3.665,12.128-5.487.683-.3.268-1.25-.4-1.174-3.041.349-5.957,1.3-9,1.666-.8.1-.549,1.32.247,1.225,3.04-.362,5.956-1.317,9-1.665l-.4-1.173c-4.227,1.88-8.957,2.308-12.394,5.665a.632.632,0,0,0,.534,1.085,21.572,21.572,0,0,0,11.272-3.893c.578-.425-.064-1.349-.687-1.032-4.1,2.088-7.072,5.685-9.579,9.46a.63.63,0,0,0,.793.913c4.031-2.107,8.291-4.314,10.937-8.149a.63.63,0,0,0-.793-.913c-5.424,2.646-12.293,4.067-16.012,9.216-.3.411.108,1.136.64.966,5.361-1.72,10.472-4.136,15.912-5.616l-.534-1.084c-3.722,2.747-7.852,4.679-10.54,8.592a.628.628,0,0,0,.926.825c2.685-2.054,4.974-4.577,7.868-6.355l-.867-.769c-.743,2.281-3.53,3.442-5,5.255-.395.486.262,1.21.793.913,1.949-1.094,3.683-2.5,5.622-3.611l-.867-.768a33.3,33.3,0,0,1-2.593,4.133.631.631,0,0,0,.794.913c1.356-.491,2.668-1.047,4.067-1.426.771-.21.532-1.437-.248-1.226Z" fill="#53b6b9"/>
        </g>
      </g>
      <g id="Grupo_31020" data-name="Grupo 31020">
        <path id="Trazado_26780" data-name="Trazado 26780" d="M74.259,309.14h32a.625.625,0,0,0,0-1.25h-32a.625.625,0,0,0,0,1.25Z" fill="#53b6b9"/>
      </g>
      <g id="Grupo_31021" data-name="Grupo 31021">
        <path id="Trazado_26781" data-name="Trazado 26781" d="M72.926,317.807c22.867,0,45.735-.1,68.6.013v-1.25a346.552,346.552,0,0,1-57.6-4.023l-.166,1.228c10.832.126,21.664.038,32.5.032a.625.625,0,0,0,0-1.25c-10.832.006-21.664.094-32.5-.032-.683-.008-.879,1.122-.167,1.227a348.524,348.524,0,0,0,57.932,4.068.625.625,0,0,0,0-1.25c-22.867-.111-45.735-.016-68.6-.013a.625.625,0,0,0,0,1.25Z" fill="#53b6b9"/>
      </g>
    </g>
    <g id="Grupo_31023" data-name="Grupo 31023">
      <path id="Trazado_26782" data-name="Trazado 26782" d="M145.951,430.5c-.011,3.036,1.289,2.15,5.477,5.518l155.579.577a5.5,5.5,0,0,0,5.518-5.478l.036-9.895a5.5,5.5,0,0,0-5.477-5.518l-155.578-.577c-3.036-.011-1.559,4.248-1.57,7.284Z" fill="#ffc630"/>
      <path id="Trazado_26783" data-name="Trazado 26783" d="M312.541,426.717l-.016,4.4a5.5,5.5,0,0,1-5.518,5.478l-155.579-.577c-3.036-.012-5.461-9.916-5.461-9.916Z" fill="#fda630"/>
      <path id="Trazado_26784" data-name="Trazado 26784" d="M290.535,431.034l.037-9.895a5.5,5.5,0,0,1,5.518-5.478l10.994.041a5.5,5.5,0,0,1,5.477,5.518l-.02,5.5h0l-.016,4.4a5.5,5.5,0,0,1-5.518,5.478l-10.994-.041A5.5,5.5,0,0,1,290.535,431.034Z" fill="#002f4c"/>
      <rect id="Rectángulo_4153" data-name="Rectángulo 4153" width="20.891" height="7.697" transform="matrix(0.004, -1, 1, 0.004, 286.666, 436.517)" fill="url(#linear-gradient-2)"/>
      <path id="Trazado_26785" data-name="Trazado 26785" d="M136.119,424l-4.389,1.866,4.554,1.874,1.431-1.669Z" fill="#122043"/>
      <path id="Trazado_26786" data-name="Trazado 26786" d="M136.285,427.738a4.491,4.491,0,0,0,.331-1.673c0-.057-.008-.112-.01-.169a4.553,4.553,0,0,0-.14-.983c-.005-.02-.013-.038-.018-.058-.037-.137-.079-.273-.128-.4a4.6,4.6,0,0,0-.2-.454l14.635-8.875-.041,10.832-.037,10.058Z" fill="#f99200"/>
    </g>
    <g id="Grupo_31031" data-name="Grupo 31031">
      <g id="Grupo_31024" data-name="Grupo 31024">
        <path id="Trazado_26787" data-name="Trazado 26787" d="M482.856,316.068s-.843,1.166-4.814,2.177c-.874.223-1.817.375-1.817,1.817h3.92l4.008-.693v.693h2.164s.6-3.54-.661-3.994Z" fill="#122043"/>
        <path id="Trazado_26788" data-name="Trazado 26788" d="M482.65,313.525l.206,2.543h0a2.449,2.449,0,0,0,2.651.089l.149-.089v-2.543Z" fill="#f7a57a"/>
      </g>
      <g id="Grupo_31025" data-name="Grupo 31025">
        <path id="Trazado_26789" data-name="Trazado 26789" d="M502.961,316.575s-.843,1.165-4.814,2.177c-.874.222-1.816.374-1.816,1.817h3.92l4.007-.693v.693h2.165s.6-3.54-.662-3.994Z" fill="#122043"/>
        <path id="Trazado_26790" data-name="Trazado 26790" d="M502.755,314.032l.206,2.543h0a2.451,2.451,0,0,0,2.652.089l.148-.089v-2.543Z" fill="#f7a57a"/>
      </g>
      <path id="Trazado_26791" data-name="Trazado 26791" d="M481.052,251.033l.976,63.872h4.653s7.083-51.568,5.571-63.872S481.052,251.033,481.052,251.033Z" fill="#122043"/>
      <path id="Trazado_26792" data-name="Trazado 26792" d="M485.971,251.019s1.619,19.621,5.34,30.483,10.44,33.4,10.44,33.4h4.816s-8.043-47.106-6.2-63.886H485.971Z" fill="#002f4c"/>
      <path id="Trazado_26793" data-name="Trazado 26793" d="M481.777,218.509s-5.735,13.374-7.19,13.374c-1.165,0,.436-10.921.436-10.921h-4.8s-6.04,18.718-1.237,22.138,15.356-9.679,15.356-9.679Z" fill="#53b6b9"/>
      <path id="Trazado_26794" data-name="Trazado 26794" d="M498.878,252.718l-1.738,4.3c-.837,1.688-3.913,1.73-5.955,1.194a.424.424,0,0,1-.2-.7,59.041,59.041,0,0,1,5.042-5.088Z" fill="#f7a57a"/>
      <path id="Trazado_26795" data-name="Trazado 26795" d="M486.525,215.715a5.388,5.388,0,0,0-4.617,2.558,3.64,3.64,0,0,0-.565,1.835v30.911h17.55v-28.9s-.359-6.426-6.641-6.426C489.578,215.693,487.747,215.7,486.525,215.715Z" fill="#53b6b9"/>
      <g id="Grupo_31026" data-name="Grupo 31026">
        <path id="Trazado_26796" data-name="Trazado 26796" d="M481.634,251.033V223.27l-.582.019v27.743Z" fill="url(#linear-gradient-3)"/>
      </g>
      <path id="Trazado_26797" data-name="Trazado 26797" d="M492.943,209.795l-1.871,7.046a4.454,4.454,0,0,1-3.714.735c-2.117-.562-1.712-2.088-1.712-2.088l1.2-4.515,3.349.016Z" fill="#f18c72"/>
      <path id="Trazado_26798" data-name="Trazado 26798" d="M486.22,212.24a2.716,2.716,0,0,1-1.462-.826c-1.084-3.494,3.2-11,3.2-11l6.495,3.033-1.219,5.468a4.7,4.7,0,0,1-2.7,3.279h0A7.552,7.552,0,0,1,486.22,212.24Z" fill="#f7a57a"/>
      <path id="Trazado_26799" data-name="Trazado 26799" d="M491.208,202.739a15.092,15.092,0,0,1-4.646-1.234c-2.269-1.056-.048-3.275-.048-3.275a9.7,9.7,0,0,0,4.8,1.641c2.2.249,2.874-.01,4.037,1.073,1.581,1.47.252,4.681.252,4.681L492.72,212.4l-.38-.1s1.019-4.213,1.4-5.639c-.226-.754-.658-.869-1.033-.795a1.1,1.1,0,0,0-.822.818l-1.942,7.311s-5.19.77-6.278.092,1.143-5.886,1.143-5.886a2.25,2.25,0,0,1,2.267,1.237c.737,1.453,2.334.569,2.334.569Z" fill="#122043"/>
      <path id="Trazado_26800" data-name="Trazado 26800" d="M471.142,220.962l.169-.922a7.683,7.683,0,0,1,4.293-5.249h2.039l-.631,4.356-2.878,1.815Z" fill="#f7a57a"/>
      <path id="Trazado_26801" data-name="Trazado 26801" d="M493.345,205.836a1.232,1.232,0,0,0-1.42.821,1.061,1.061,0,0,0,.434,1.481,1.231,1.231,0,0,0,1.419-.821A1.06,1.06,0,0,0,493.345,205.836Z" fill="#f7a57a"/>
      <path id="Trazado_26802" data-name="Trazado 26802" d="M476.172,218.664l-3.972,2.3s2.492-.025,2.532,0l4.205-3.518s-.305-.614-1.258-.1A4.829,4.829,0,0,0,476.172,218.664Z" fill="#f7a57a"/>
      <path id="Trazado_26803" data-name="Trazado 26803" d="M497.025,217.627s9.922,11.023,9.922,17.63-8.054,18.25-8.054,18.25l-3.978-1.164s3.59-14.41,3.59-18.243-7.374-9.452-7.374-9.452" fill="#53b6b9"/>
      <g id="Grupo_31027" data-name="Grupo 31027">
        <path id="Trazado_26804" data-name="Trazado 26804" d="M498.215,234.1c0,3.3-2.922,15.366-3.608,18.177.2.053.285.069.59.148.843-3.473,3.6-15.081,3.6-18.325,0-3.931-7.183-9.451-7.489-9.684l-.353.463C491.027,224.934,498.215,230.454,498.215,234.1Z" fill="url(#linear-gradient-4)"/>
      </g>
      <g id="Grupo_31030" data-name="Grupo 31030">
        <path id="Trazado_26805" data-name="Trazado 26805" d="M478.768,212.078a10.527,10.527,0,0,1-2.762,7.412,1.146,1.146,0,0,1-.787.317,2.917,2.917,0,0,1-1.334-.4,1.279,1.279,0,0,1-.75-.694.551.551,0,0,1,.129-.564c.63-.724,2.61-3.235,2.165-5.734A4.313,4.313,0,0,1,478.768,212.078Z" fill="#005558"/>
        <path id="Trazado_26806" data-name="Trazado 26806" d="M473.541,219.218a.848.848,0,0,1-.406-.5.551.551,0,0,1,.129-.564c.63-.724,2.61-3.235,2.165-5.734a3.658,3.658,0,0,1,1.637-.518C476.818,214.553,476.031,216.248,473.541,219.218Z" fill="#0f787a"/>
        <g id="Grupo_31029" data-name="Grupo 31029">
          <g id="Grupo_31028" data-name="Grupo 31028">
            <path id="Trazado_26807" data-name="Trazado 26807" d="M475.993,215.278c-.2.591-.551,1.006-.784.927s-.258-.622-.057-1.213.552-1.005.784-.927S476.194,214.687,475.993,215.278Z" fill="#005558"/>
            <path id="Trazado_26808" data-name="Trazado 26808" d="M475.981,214.089l-.243-.091,0,.129.159.087Z" fill="#f4872e"/>
            <path id="Trazado_26809" data-name="Trazado 26809" d="M475.266,216.214l-.3-.1.352-.007Z" fill="#de1d4c"/>
          </g>
          <path id="Trazado_26810" data-name="Trazado 26810" d="M475.8,215.211c-.2.59-.552,1.006-.784.927s-.258-.622-.057-1.213.551-1.006.784-.927S476,214.62,475.8,215.211Z" fill="#53b6b9"/>
        </g>
        <path id="Trazado_26811" data-name="Trazado 26811" d="M480.278,208.64l.467.059a1.6,1.6,0,0,1,1.429,1.748l-.154,1.227a1.6,1.6,0,0,1-1.816,1.342l-.467-.058Z" fill="#005558"/>
        <path id="Trazado_26812" data-name="Trazado 26812" d="M465.859,208.067c-.42,3.349.009,6.161.959,6.28s2.061-2.5,2.481-5.849-.01-6.162-.96-6.281S466.279,204.717,465.859,208.067Z" fill="#122043"/>
        <path id="Trazado_26813" data-name="Trazado 26813" d="M469.655,206.272l-1.47.714-.246,1.962,1.242,1.447.8-2.491Z" fill="#fff"/>
        <path id="Trazado_26814" data-name="Trazado 26814" d="M469.3,208.5c.353-2.815.1-5.243-.547-6.02l0,0a27.941,27.941,0,0,0,11.79,6.243L480.008,213s-8.97-1.64-12.723,1.2l-.005,0C468.1,213.608,468.946,211.315,469.3,208.5Z" fill="#ffc630"/>
        <path id="Trazado_26815" data-name="Trazado 26815" d="M467.876,207.94c-.068.544-.04,1,.062,1.009s.242-.419.31-.962.04-1-.062-1.009S467.945,207.4,467.876,207.94Z" fill="#ffc630"/>
      </g>
      <path id="Trazado_26816" data-name="Trazado 26816" d="M473.35,217.8a4.674,4.674,0,0,0,2.218.362c1.155,0,1.675-1.42,1.873-2.192.069-.272.13-.658-.209-.831l-1.856-.258Z" fill="#f7a57a"/>
    </g>
    <g id="Grupo_31040" data-name="Grupo 31040">
      <g id="Grupo_31034" data-name="Grupo 31034">
        <path id="Trazado_26817" data-name="Trazado 26817" d="M65.5,415.888l2.191,5.8a1.913,1.913,0,0,1-.624,2.261,7.37,7.37,0,0,1-1.148.528c-.4-.085-2.927-7.914-2.927-7.914l.024-.048A2.081,2.081,0,0,1,65.5,415.888Z" fill="#0f787a"/>
        <path id="Trazado_26818" data-name="Trazado 26818" d="M65.918,424.475l-2.927-7.914-.385.223,2.949,7.84Z" fill="#122043"/>
        <g id="Grupo_31032" data-name="Grupo 31032">
          <path id="Trazado_26819" data-name="Trazado 26819" d="M66.372,418.181l.192.524-1.01.194-.19-.507Z" fill="#fff"/>
        </g>
        <g id="Grupo_31033" data-name="Grupo 31033">
          <path id="Trazado_26820" data-name="Trazado 26820" d="M66.793,419.3l.192.524-1.01.194-.191-.507Z" fill="#fff"/>
        </g>
        <path id="Trazado_26821" data-name="Trazado 26821" d="M67.929,414.52l-2.43,1.368h0a1.56,1.56,0,0,0,.536,1.574l.085.068,2.682-.689Z" fill="#f7a57a"/>
      </g>
      <path id="Trazado_26822" data-name="Trazado 26822" d="M87.33,377.937A13.945,13.945,0,0,0,84.3,385.1c-.413,3.039.725,7.857.849,11.636a9.75,9.75,0,0,1-4.185,8.314l-13.034,9.47.873,2.321s17.839-2.676,22.522-10.665S97.118,380.1,97.118,380.1Z" fill="#122043"/>
      <path id="Trazado_26823" data-name="Trazado 26823" d="M76.952,368.092l-6.7,14.969s-2.754.321-3.948,1.377a2.857,2.857,0,0,0-.427,2.584.924.924,0,0,0,1.514.533,6.364,6.364,0,0,1,2.311-1.464,2.778,2.778,0,0,0,2.148-1.446l9.617-15.084Z" fill="#f7a57a"/>
      <path id="Trazado_26824" data-name="Trazado 26824" d="M110.756,337.987l3.435-2.937-2.663-14.51-4.133-2.112a1.194,1.194,0,0,1,1.47-.459,3.788,3.788,0,0,0,1.882.138s.774-.957-.692-1.6c-.823-.554-1.374,0-3.762-.1,0-.367,3.147-1.24,3.147-1.24.981-.315,3.485,1.624,3.485,1.624a1.751,1.751,0,0,1,.319.78l.4,2.693s5.326,14.6,5.326,16.163-2.984,3.695-2.984,3.695Z" fill="#f7a57a"/>
      <path id="Trazado_26825" data-name="Trazado 26825" d="M92.289,379.443s-2.067,2.489-.827,8.274c.792,3.693,4.267,8.341,6.6,11.541,1.674,2.3,1.709,5.182,1.206,7.977-1.911,10.626,1.147,23.6,1.147,23.6h2.479s3.72-19.009,4.822-32.371a38.546,38.546,0,0,0-4.27-21.076Z" fill="#002f4c"/>
      <g id="Grupo_31036" data-name="Grupo 31036">
        <g id="Grupo_31035" data-name="Grupo 31035">
          <rect id="Rectángulo_4154" data-name="Rectángulo 4154" width="2.08" height="7.871" transform="matrix(0.145, -0.989, 0.989, 0.145, 106.032, 317.906)" fill="#f99200"/>
          <rect id="Rectángulo_4155" data-name="Rectángulo 4155" width="2.08" height="0.719" transform="matrix(0.145, -0.989, 0.989, 0.145, 113.558, 319.01)" fill="#fff"/>
          <path id="Trazado_26826" data-name="Trazado 26826" d="M114.119,319.093c.57.079,1.051.041,1.188-.89.149-1.016-.313-1.105-.882-1.193Z" fill="#122043"/>
          <path id="Trazado_26827" data-name="Trazado 26827" d="M106.032,317.906,104.521,317l.11-.749,1.7-.4Z" fill="#fff"/>
          <path id="Trazado_26828" data-name="Trazado 26828" d="M104.521,317l-.657-.474.767-.275Z" fill="#002f4c"/>
        </g>
        <rect id="Rectángulo_4156" data-name="Rectángulo 4156" width="0.473" height="7.606" transform="translate(106.079 317.589) rotate(-81.649)" fill="#ef7100"/>
        <rect id="Rectángulo_4157" data-name="Rectángulo 4157" width="0.473" height="7.606" transform="translate(106.224 316.598) rotate(-81.661)" fill="#ef7100"/>
      </g>
      <path id="Trazado_26829" data-name="Trazado 26829" d="M86.2,350.071c-4.43,3.254-9.646,18.9-9.646,18.9l3.89,2.182,6.331-8.687s.617,10.057-.9,17.771c.688,2.893,3.974,2.567,9.3,1.557A26.43,26.43,0,0,0,104,378.488s.229-13.953.918-21.352-.671-8.188,1.194-7.943c4.161-2.364,10.979-9.974,10.979-9.974l-6.333-1.232-13.638,7.991A59.086,59.086,0,0,0,86.2,350.071Z" fill="#ffc732"/>
      <path id="Trazado_26830" data-name="Trazado 26830" d="M93.931,331.565l3.29,3.249a5.705,5.705,0,0,1,1.56,5.3l-.385,1.735Z" fill="#f7a57a"/>
      <path id="Trazado_26831" data-name="Trazado 26831" d="M89.947,330.335c-7.99,0-4.592,15.338-4.592,15.338s1.424,9.948,4.592,13.943c2.742,3.458,8.168,2.417,10.738.758a9.812,9.812,0,0,1,4.148-1.531c2.177-.262,4.767-1.223,4.767-5.15,0-3.7-4.413-6.555-7.317-8.6a9.573,9.573,0,0,1-3.765-5.568C97.588,335.744,95.32,330.335,89.947,330.335Z" fill="#122043"/>
      <g id="Grupo_31039" data-name="Grupo 31039">
        <path id="Trazado_26832" data-name="Trazado 26832" d="M100.841,433.589l6.2-.01c.823.115,1.743.428,1.9,1.38a7.336,7.336,0,0,1,.09,1.261c-.22.344-8.438-.046-8.438-.046l-.036-.039A2.082,2.082,0,0,1,100.841,433.589Z" fill="#0f787a"/>
        <path id="Trazado_26833" data-name="Trazado 26833" d="M109.026,436.22l-8.438-.046.073.438h8.377Z" fill="#002f4c"/>
        <g id="Grupo_31037" data-name="Grupo 31037">
          <path id="Trazado_26834" data-name="Trazado 26834" d="M103.295,433.579l.558.005-.174,1.014h-.541Z" fill="#fff"/>
        </g>
        <g id="Grupo_31038" data-name="Grupo 31038">
          <path id="Trazado_26835" data-name="Trazado 26835" d="M104.491,433.579l.558.005-.174,1.014h-.541Z" fill="#fff"/>
        </g>
        <path id="Trazado_26836" data-name="Trazado 26836" d="M100.416,430.833l.425,2.756h0a1.562,1.562,0,0,0,1.662.053l.094-.056.3-2.753Z" fill="#f7a57a"/>
      </g>
      <path id="Trazado_26837" data-name="Trazado 26837" d="M108.865,317.969a1.194,1.194,0,0,0-1.47.459l2.75,1.406c.038-.017.075-.035.113-.051a13.029,13.029,0,0,1,1.821-.663A22.938,22.938,0,0,0,108.865,317.969Z" fill="#f7a57a"/>
    </g>
    <g id="Grupo_31046" data-name="Grupo 31046">
      <path id="Trazado_26838" data-name="Trazado 26838" d="M197.7,318.494a3.518,3.518,0,0,0-.152,2.513l.459,3.26.56.377,2.084.861a2.245,2.245,0,0,1,0-1.3l.916-3.373s1.424-5.692-2.44-5.449c.019-4.636-1.272-3.871-1.272-3.871l-.089,4.009Z" fill="#f7a57a"/>
      <path id="Trazado_26839" data-name="Trazado 26839" d="M188.082,329.767s2.7,10.31,5.005,10.495,4.7-16.334,4.7-16.334l3.134.379s1.217,23.753-5.811,24.186-7.956-4.821-7.956-4.821Z" fill="#ffd159"/>
      <path id="Trazado_26840" data-name="Trazado 26840" d="M187.788,357.957H169.4V330.032c5.253-8.016,11.8-5.832,11.8-5.832s5.953.107,6.881,5.567C188.082,333.718,187.788,357.957,187.788,357.957Z" fill="#f99200"/>
      <g id="Grupo_31041" data-name="Grupo 31041">
        <path id="Trazado_26841" data-name="Trazado 26841" d="M179.052,320.491l-.272,3.947.13.123a3.424,3.424,0,0,0,4.651.066h0l.061-2.971Z" fill="#f18c72"/>
      </g>
      <g id="Grupo_31042" data-name="Grupo 31042">
        <path id="Trazado_26842" data-name="Trazado 26842" d="M177.608,312.242l.333,6.526a1.009,1.009,0,0,1,.906,1.281,1.212,1.212,0,0,1,.109.481,7.488,7.488,0,0,0,5.815,1.354c4.13-.79,1.637-8.773,1.637-8.773Z" fill="#f7a57a"/>
        <path id="Trazado_26843" data-name="Trazado 26843" d="M175.532,317.144a3.991,3.991,0,0,0-1.046-1.808c-2.338-2.022-.246-3.5.5-3.974.821-.527.66-2.016,1.722-2.847,1.623-1.27,3.186.046,4.225-.146s1.684-1.574,3.194-.843,1.344,1.918,1.829,2.419,1.373-.882,2.847.7c2.241,2.4-2.155,3.431-2.155,3.431a7.975,7.975,0,0,1-5.59-.253,1.043,1.043,0,0,0-1.232.3c-.76,1.039-.769,6.483-.769,6.483l-1.062-.883A2.954,2.954,0,0,1,175.532,317.144Z" fill="#122043"/>
        <path id="Trazado_26844" data-name="Trazado 26844" d="M178.01,317.678a1,1,0,1,0,.547-1.307A1,1,0,0,0,178.01,317.678Z" fill="#f7a57a"/>
      </g>
      <g id="Grupo_31043" data-name="Grupo 31043">
        <path id="Trazado_26845" data-name="Trazado 26845" d="M183.621,410.61s1.036,1.434,5.921,2.678c1.075.274,2.235.461,2.235,2.235h-4.822l-4.93-.852v.852h-2.663s-.741-4.354.814-4.913Z" fill="#122043"/>
        <path id="Trazado_26846" data-name="Trazado 26846" d="M183.874,407.482l-.253,3.128h0a3.011,3.011,0,0,1-3.262.109l-.183-.109v-3.128Z" fill="#f7a57a"/>
      </g>
      <g id="Grupo_31044" data-name="Grupo 31044">
        <path id="Trazado_26847" data-name="Trazado 26847" d="M169.924,410.61s1.036,1.434,5.921,2.678c1.075.274,2.234.461,2.234,2.235h-4.821l-4.93-.852v.852h-2.663s-.741-4.354.814-4.913Z" fill="#122043"/>
        <path id="Trazado_26848" data-name="Trazado 26848" d="M170.177,407.482l-.253,3.128h0a3.011,3.011,0,0,1-3.262.109l-.183-.109v-3.128Z" fill="#f7a57a"/>
      </g>
      <path id="Trazado_26849" data-name="Trazado 26849" d="M169.414,330.032s-5.511,12.718,1.521,19.216,16.576,5.391,16.576,5.391v-3.663s-8.628-.73-11.393-6.5,1.106-10.76,1.106-10.76" fill="#f99200"/>
      <path id="Trazado_26850" data-name="Trazado 26850" d="M186.948,354.137l4.4.092c1.787-.1,2.976-2.767,3.273-4.751a.4.4,0,0,0-.533-.436,55.923,55.923,0,0,0-6.329,2.5Z" fill="#f7a57a"/>
      <path id="Trazado_26851" data-name="Trazado 26851" d="M187.788,357.957c5.483,15.483-3.088,49.767-3.088,49.767h-4.884s2.3-48.615-4.055-49.767Z" fill="#005558"/>
      <path id="Trazado_26852" data-name="Trazado 26852" d="M175.137,340.63a9.913,9.913,0,0,0,.981,3.848c2.765,5.768,11.843,6.532,11.843,6.532v3.7s-9.995,1.035-17.026-5.462a11.914,11.914,0,0,1-3.559-8.618Z" fill="#ffd159"/>
      <g id="Grupo_31045" data-name="Grupo 31045">
        <path id="Trazado_26853" data-name="Trazado 26853" d="M175.179,341.189c-.193-.087-.387-.171-.578-.263a11.815,11.815,0,0,1,2.194-7.516l.433.344A11.155,11.155,0,0,0,175.179,341.189Z" fill="#ef7100"/>
      </g>
      <path id="Trazado_26854" data-name="Trazado 26854" d="M198.541,318.984s-1.015-.305-1.173-2.156-1.033-1.278-1.033-1.278.455,7.3,1.618,7.571S198.541,318.984,198.541,318.984Z" fill="#f7a57a"/>
      <path id="Trazado_26855" data-name="Trazado 26855" d="M182.381,357.957c1.493,18.985-10.629,49.767-10.629,49.767h-5.807s3.946-19.683,4.027-38.156a98.734,98.734,0,0,0-.57-11.611Z" fill="#0f787a"/>
    </g>
    <g id="Grupo_31053" data-name="Grupo 31053">
      <g id="Grupo_31047" data-name="Grupo 31047">
        <path id="Trazado_26856" data-name="Trazado 26856" d="M455.823,132.924l.436,8.03-6.295-4.692L429.35,118.13Z" fill="#a4d1bb"/>
        <path id="Trazado_26857" data-name="Trazado 26857" d="M456.259,140.954l-11.566-6,3.569-.194Z" fill="#53b6b9"/>
        <path id="Trazado_26858" data-name="Trazado 26858" d="M455.823,132.924l4.9-5.467L429.35,118.13Z" fill="url(#linear-gradient-5)"/>
        <path id="Trazado_26859" data-name="Trazado 26859" d="M429.35,118.13l20.614,18.132-7.639,7.629Z" fill="url(#linear-gradient-6)"/>
      </g>
      <g id="Grupo_31052" data-name="Grupo 31052">
        <g id="Grupo_31048" data-name="Grupo 31048">
          <path id="Trazado_26860" data-name="Trazado 26860" d="M450.717,146.391a.6.6,0,0,0,.227-.057.611.611,0,0,0,.293-.813,17.136,17.136,0,0,0-1.6-2.737.611.611,0,1,0-.992.715,15.86,15.86,0,0,1,1.489,2.542A.611.611,0,0,0,450.717,146.391Z" fill="#53b6b9"/>
        </g>
        <g id="Grupo_31050" data-name="Grupo 31050">
          <g id="Grupo_31049" data-name="Grupo 31049">
            <path id="Trazado_26861" data-name="Trazado 26861" d="M414.989,203.684a.611.611,0,0,1,.536-.678,17.2,17.2,0,0,0,5.675-1.744.612.612,0,0,1,.548,1.1,18.446,18.446,0,0,1-6.081,1.864l-.038,0A.612.612,0,0,1,414.989,203.684Zm9.148-3.454a.611.611,0,0,1,.127-.856,21.892,21.892,0,0,0,4.28-4.195.612.612,0,1,1,.967.749,23.091,23.091,0,0,1-4.519,4.428.6.6,0,0,1-.331.12A.608.608,0,0,1,424.137,200.23Zm6.609-7.249a.612.612,0,0,1-.254-.827l.127-.245a28.24,28.24,0,0,0,2.049-5.379.611.611,0,1,1,1.18.321,29.439,29.439,0,0,1-2.139,5.613l-.136.263a.613.613,0,0,1-.827.254Zm3.186-9.309a.611.611,0,0,1-.508-.7,44.363,44.363,0,0,0,.512-6.07.617.617,0,0,1,.623-.6.611.611,0,0,1,.6.623,45.484,45.484,0,0,1-.527,6.237.613.613,0,0,1-.57.516A.719.719,0,0,1,433.932,183.672Zm.6-9.853a.613.613,0,0,1-.636-.587c-.007-.171-.014-.343-.023-.515a20.39,20.39,0,0,1-2.075-.2.612.612,0,0,1,.177-1.211q.91.135,1.829.179c-.09-1.369-.219-2.809-.392-4.373a.612.612,0,0,1,1.216-.134c.18,1.621.312,3.111.4,4.53a18.556,18.556,0,0,0,2.9-.27.612.612,0,1,1,.211,1.205,19.923,19.923,0,0,1-3.047.287c.008.15.014.3.021.449a.612.612,0,0,1-.578.635Zm6.5-2.755a.611.611,0,0,1,.339-.795,15.561,15.561,0,0,0,3.214-1.752,15.754,15.754,0,0,0,1.751-1.452.611.611,0,0,1,.847.882,16.572,16.572,0,0,1-5.355,3.456.593.593,0,0,1-.2.044A.612.612,0,0,1,441.028,171.064Zm-12.943.559a19.13,19.13,0,0,1-5.594-3.014.612.612,0,0,1,.754-.963,17.909,17.909,0,0,0,5.238,2.82.612.612,0,0,1-.166,1.189A.623.623,0,0,1,428.085,171.623Zm20.7-6.447a.612.612,0,0,1-.168-.849,18.542,18.542,0,0,0,2.458-5.425.612.612,0,1,1,1.18.324,19.779,19.779,0,0,1-2.622,5.781.611.611,0,0,1-.848.169Zm-29.034.748a15.969,15.969,0,0,1-.978-1.341,13.1,13.1,0,0,1-1.827-4.419.612.612,0,1,1,1.2-.251,11.86,11.86,0,0,0,1.654,4,14.825,14.825,0,0,0,.9,1.239.613.613,0,0,1-.09.861.6.6,0,0,1-.351.135A.611.611,0,0,1,419.753,165.924Zm13.184-2.457a22.74,22.74,0,0,0-1.571-5.791.611.611,0,1,1,1.116-.5,23.89,23.89,0,0,1,1.664,6.1.613.613,0,0,1-.51.7c-.02,0-.041,0-.062.006A.612.612,0,0,1,432.937,163.467Zm19.329-7.438a.612.612,0,0,1-.557-.662,19.737,19.737,0,0,0,.043-2.728,18.725,18.725,0,0,0-.456-3.22.612.612,0,0,1,1.191-.278,19.87,19.87,0,0,1,.487,3.432,20.936,20.936,0,0,1-.046,2.9.613.613,0,0,1-.576.559A.824.824,0,0,1,452.266,156.029Zm-34.938.928a.613.613,0,0,1-.5-.708,6.79,6.79,0,0,1,2.43-4.258,6.221,6.221,0,0,1,1.536-.892.611.611,0,1,1,.457,1.134,5,5,0,0,0-1.233.716,5.521,5.521,0,0,0-1.985,3.509.611.611,0,0,1-.569.506A.587.587,0,0,1,417.328,156.957ZM429.5,154.7a8.753,8.753,0,0,0-4.937-2.762.612.612,0,0,1,.205-1.206,9.871,9.871,0,0,1,5.65,3.16.611.611,0,0,1-.055.863.6.6,0,0,1-.37.152A.609.609,0,0,1,429.5,154.7Z" fill="#53b6b9"/>
          </g>
        </g>
        <g id="Grupo_31051" data-name="Grupo 31051">
          <path id="Trazado_26862" data-name="Trazado 26862" d="M411.868,204.2a.612.612,0,0,0,.051-1.217,13.112,13.112,0,0,1-2.826-.719.611.611,0,1,0-.432,1.143,14.309,14.309,0,0,0,3.089.788A.674.674,0,0,0,411.868,204.2Z" fill="#53b6b9"/>
        </g>
      </g>
    </g>
  </g>
</svg>
