<?xml version="1.0" encoding="utf-8"?>
<!-- Generator: Adobe Illustrator 25.0.0, SVG Export Plug-In . SVG Version: 6.00 Build 0)  -->
<svg version="1.1" id="Layer_1" xmlns="http://www.w3.org/2000/svg" xmlns:xlink="http://www.w3.org/1999/xlink" x="0px" y="0px"
	 viewBox="0 0 1821.2 1652.9" style="enable-background:new 0 0 1821.2 1652.9;" xml:space="preserve">
<style type="text/css">
	.st0{opacity:0.1;}
	.st1{fill:#FFFFFF;}
</style>
<g class="st0">
	<g id="XMLID_21_">
		<path id="XMLID_22_" class="st1" d="M514,576.1c-13.7,0-20.8-7.7-26.7-14.1c-5.5-5.9-9.7-10.5-18.6-10.5s-13.2,4.7-18.6,10.5
			c-5.9,6.2-13,14.1-26.7,14.1s-20.8-7.7-26.7-14.1c-5.5-5.9-9.7-10.5-18.6-10.5s-13.2,4.7-18.6,10.5c-5.9,6.2-13,14.1-26.7,14.1
			s-20.8-7.7-26.7-14.1c-5.5-5.9-9.7-10.5-18.6-10.5c-8.8,0-13.2,4.7-18.6,10.5c-5.9,6.2-13,14.1-26.7,14.1s-20.8-7.7-26.7-14.1
			c-5.5-5.9-9.7-10.5-18.7-10.5c-8.8,0-13.2,4.7-18.6,10.5c-5.9,6.2-13,14.1-26.7,14.1c-13.7,0-20.8-7.7-26.7-14.1
			c-5.5-5.9-9.7-10.5-18.7-10.5c-8.8,0-13.2,4.7-18.7,10.5c-5.9,6.2-13,14.1-26.7,14.1c-3.1,0-5.5-2.4-5.5-5.5
			c0-3.1,2.4-5.5,5.5-5.5c8.8,0,13.2-4.7,18.7-10.5c5.9-6.2,13-14.1,26.7-14.1s20.8,7.7,26.7,14.1c5.5,5.9,9.7,10.5,18.7,10.5
			c8.8,0,13.2-4.7,18.6-10.5c5.9-6.2,13-14.1,26.7-14.1s20.8,7.7,26.7,14.1c5.5,5.9,9.7,10.5,18.7,10.5c8.8,0,13.2-4.7,18.6-10.5
			c5.9-6.2,13-14.1,26.7-14.1s20.8,7.7,26.7,14.1c5.5,5.9,9.7,10.5,18.6,10.5c8.8,0,13.2-4.7,18.6-10.5c5.9-6.2,13-14.1,26.7-14.1
			s20.8,7.7,26.7,14.1c5.5,5.9,9.7,10.5,18.6,10.5s13.2-4.7,18.6-10.5c5.9-6.2,13-14.1,26.7-14.1c13.7,0,20.8,7.7,26.7,14.1
			c5.5,5.9,9.7,10.5,18.6,10.5c3.1,0,5.5,2.4,5.5,5.5S517.1,576.1,514,576.1z"/>
	</g>
	<g id="XMLID_5_">
		<path id="XMLID_6_" class="st1" d="M514,1195.4c-13.7,0-20.8-7.7-26.7-14.1c-5.5-5.9-9.7-10.5-18.6-10.5s-13.2,4.7-18.6,10.5
			c-5.9,6.2-13,14.1-26.7,14.1s-20.8-7.7-26.7-14.1c-5.5-5.9-9.7-10.5-18.6-10.5s-13.2,4.7-18.6,10.5c-5.9,6.2-13,14.1-26.7,14.1
			s-20.8-7.7-26.7-14.1c-5.5-5.9-9.7-10.5-18.6-10.5c-8.8,0-13.2,4.7-18.6,10.5c-5.9,6.2-13,14.1-26.7,14.1s-20.8-7.7-26.7-14.1
			c-5.5-5.9-9.7-10.5-18.7-10.5c-8.8,0-13.2,4.7-18.6,10.5c-5.9,6.2-13,14.1-26.7,14.1c-13.7,0-20.8-7.7-26.7-14.1
			c-5.5-5.9-9.7-10.5-18.7-10.5c-8.8,0-13.2,4.7-18.7,10.5c-5.9,6.2-13,14.1-26.7,14.1c-3.1,0-5.5-2.4-5.5-5.5
			c0-3.1,2.4-5.5,5.5-5.5c8.8,0,13.2-4.7,18.7-10.5c5.9-6.2,13-14.1,26.7-14.1s20.8,7.7,26.7,14.1c5.5,5.9,9.7,10.5,18.7,10.5
			c8.8,0,13.2-4.7,18.6-10.5c5.9-6.2,13-14.1,26.7-14.1s20.8,7.7,26.7,14.1c5.5,5.9,9.7,10.5,18.7,10.5c8.8,0,13.2-4.7,18.6-10.5
			c5.9-6.2,13-14.1,26.7-14.1s20.8,7.7,26.7,14.1c5.5,5.9,9.7,10.5,18.6,10.5c8.8,0,13.2-4.7,18.6-10.5c5.9-6.2,13-14.1,26.7-14.1
			s20.8,7.7,26.7,14.1c5.5,5.9,9.7,10.5,18.6,10.5s13.2-4.7,18.6-10.5c5.9-6.2,13-14.1,26.7-14.1c13.7,0,20.8,7.7,26.7,14.1
			c5.5,5.9,9.7,10.5,18.6,10.5c3.1,0,5.5,2.4,5.5,5.5S517.1,1195.4,514,1195.4z"/>
	</g>
	<g id="XMLID_1_">
		<path id="XMLID_2_" class="st1" d="M846.7,223.6c-13.7,0-20.8-7.7-26.7-14.1c-5.5-5.9-9.7-10.5-18.6-10.5
			c-8.8,0-13.2,4.7-18.6,10.5c-5.9,6.2-13,14.1-26.7,14.1s-20.8-7.7-26.7-14.1c-5.5-5.9-9.7-10.5-18.6-10.5
			c-8.8,0-13.2,4.7-18.6,10.5c-5.9,6.2-13,14.1-26.7,14.1s-20.8-7.7-26.7-14.1c-5.5-5.9-9.7-10.5-18.6-10.5
			c-8.8,0-13.2,4.7-18.6,10.5c-5.9,6.2-13,14.1-26.7,14.1s-20.8-7.7-26.7-14.1c-5.5-5.9-9.7-10.5-18.7-10.5
			c-8.8,0-13.2,4.7-18.6,10.5c-5.9,6.2-13,14.1-26.7,14.1s-20.8-7.7-26.7-14.1c-5.5-5.9-9.7-10.5-18.7-10.5
			c-8.8,0-13.2,4.7-18.7,10.5c-5.9,6.2-13,14.1-26.7,14.1c-3.1,0-5.5-2.4-5.5-5.5c0-3.1,2.4-5.5,5.5-5.5c8.8,0,13.2-4.7,18.7-10.5
			c5.9-6.2,13-14.1,26.7-14.1s20.8,7.7,26.7,14.1c5.5,5.9,9.7,10.5,18.7,10.5c8.8,0,13.2-4.7,18.6-10.5c5.9-6.2,13-14.1,26.7-14.1
			s20.8,7.7,26.7,14.1c5.5,5.9,9.7,10.5,18.7,10.5c8.8,0,13.2-4.7,18.6-10.5c5.9-6.2,13-14.1,26.7-14.1s20.8,7.7,26.7,14.1
			c5.5,5.9,9.7,10.5,18.6,10.5c8.8,0,13.2-4.7,18.6-10.5c5.9-6.2,13-14.1,26.7-14.1s20.8,7.7,26.7,14.1c5.5,5.9,9.7,10.5,18.6,10.5
			c8.8,0,13.2-4.7,18.6-10.5c5.9-6.2,13-14.1,26.7-14.1s20.8,7.7,26.7,14.1c5.5,5.9,9.7,10.5,18.6,10.5c3.1,0,5.5,2.4,5.5,5.5
			C852.2,221.2,849.8,223.6,846.7,223.6z"/>
	</g>
	<g id="XMLID_3_">
		<path id="XMLID_4_" class="st1" d="M846.7,864.8c-13.7,0-20.8-7.7-26.7-14.1c-5.5-5.9-9.7-10.5-18.6-10.5
			c-8.8,0-13.2,4.7-18.6,10.5c-5.9,6.2-13,14.1-26.7,14.1s-20.8-7.7-26.7-14.1c-5.5-5.9-9.7-10.5-18.6-10.5
			c-8.8,0-13.2,4.7-18.6,10.5c-5.9,6.2-13,14.1-26.7,14.1s-20.8-7.7-26.7-14.1c-5.5-5.9-9.7-10.5-18.6-10.5
			c-8.8,0-13.2,4.7-18.6,10.5c-5.9,6.2-13,14.1-26.7,14.1s-20.8-7.7-26.7-14.1c-5.5-5.9-9.7-10.5-18.7-10.5
			c-8.8,0-13.2,4.7-18.6,10.5c-5.9,6.2-13,14.1-26.7,14.1s-20.8-7.7-26.7-14.1c-5.5-5.9-9.7-10.5-18.7-10.5
			c-8.8,0-13.2,4.7-18.7,10.5c-5.9,6.2-13,14.1-26.7,14.1c-3.1,0-5.5-2.4-5.5-5.5s2.4-5.5,5.5-5.5c8.8,0,13.2-4.7,18.7-10.5
			c5.9-6.2,13-14.1,26.7-14.1s20.8,7.7,26.7,14.1c5.5,5.9,9.7,10.5,18.7,10.5c8.8,0,13.2-4.7,18.6-10.5c5.9-6.2,13-14.1,26.7-14.1
			s20.8,7.7,26.7,14.1c5.5,5.9,9.7,10.5,18.7,10.5c8.8,0,13.2-4.7,18.6-10.5c5.9-6.2,13-14.1,26.7-14.1s20.8,7.7,26.7,14.1
			c5.5,5.9,9.7,10.5,18.6,10.5c8.8,0,13.2-4.7,18.6-10.5c5.9-6.2,13-14.1,26.7-14.1s20.8,7.7,26.7,14.1c5.5,5.9,9.7,10.5,18.6,10.5
			c8.8,0,13.2-4.7,18.6-10.5c5.9-6.2,13-14.1,26.7-14.1s20.8,7.7,26.7,14.1c5.5,5.9,9.7,10.5,18.6,10.5c3.1,0,5.5,2.4,5.5,5.5
			C852.2,862.4,849.8,864.8,846.7,864.8z"/>
	</g>
	<g id="XMLID_7_">
		<path id="XMLID_8_" class="st1" d="M846.7,1475.3c-13.7,0-20.8-7.7-26.7-14.1c-5.5-5.9-9.7-10.5-18.6-10.5
			c-8.8,0-13.2,4.7-18.6,10.5c-5.9,6.2-13,14.1-26.7,14.1s-20.8-7.7-26.7-14.1c-5.5-5.9-9.7-10.5-18.6-10.5
			c-8.8,0-13.2,4.7-18.6,10.5c-5.9,6.2-13,14.1-26.7,14.1s-20.8-7.7-26.7-14.1c-5.5-5.9-9.7-10.5-18.6-10.5
			c-8.8,0-13.2,4.7-18.6,10.5c-5.9,6.2-13,14.1-26.7,14.1s-20.8-7.7-26.7-14.1c-5.5-5.9-9.7-10.5-18.7-10.5
			c-8.8,0-13.2,4.7-18.6,10.5c-5.9,6.2-13,14.1-26.7,14.1s-20.8-7.7-26.7-14.1c-5.5-5.9-9.7-10.5-18.7-10.5
			c-8.8,0-13.2,4.7-18.7,10.5c-5.9,6.2-13,14.1-26.7,14.1c-3.1,0-5.5-2.4-5.5-5.5c0-3.1,2.4-5.5,5.5-5.5c8.8,0,13.2-4.7,18.7-10.5
			c5.9-6.2,13-14.1,26.7-14.1s20.8,7.7,26.7,14.1c5.5,5.9,9.7,10.5,18.7,10.5c8.8,0,13.2-4.7,18.6-10.5c5.9-6.2,13-14.1,26.7-14.1
			s20.8,7.7,26.7,14.1c5.5,5.9,9.7,10.5,18.7,10.5c8.8,0,13.2-4.7,18.6-10.5c5.9-6.2,13-14.1,26.7-14.1s20.8,7.7,26.7,14.1
			c5.5,5.9,9.7,10.5,18.6,10.5c8.8,0,13.2-4.7,18.6-10.5c5.9-6.2,13-14.1,26.7-14.1s20.8,7.7,26.7,14.1c5.5,5.9,9.7,10.5,18.6,10.5
			c8.8,0,13.2-4.7,18.6-10.5c5.9-6.2,13-14.1,26.7-14.1s20.8,7.7,26.7,14.1c5.5,5.9,9.7,10.5,18.6,10.5c3.1,0,5.5,2.4,5.5,5.5
			C852.2,1472.9,849.8,1475.3,846.7,1475.3z"/>
	</g>
	<path class="st1" d="M441.8,455.8c-29.2,0-53.1-23.8-53.1-53.1c0-29.2,23.8-53.1,53.1-53.1c29.3,0,53.1,23.8,53.1,53.1
		S471.1,455.8,441.8,455.8z M441.8,358.6c-24.3,0-44.1,19.8-44.1,44.1s19.8,44.1,44.1,44.1c24.3,0,44.1-19.8,44.1-44.1
		C485.9,378.4,466.1,358.6,441.8,358.6z"/>
	<path class="st1" d="M441.8,1055.9c-29.2,0-53.1-23.8-53.1-53.1c0-29.2,23.8-53.1,53.1-53.1c29.3,0,53.1,23.8,53.1,53.1
		S471.1,1055.9,441.8,1055.9z M441.8,958.7c-24.3,0-44.1,19.8-44.1,44.1c0,24.3,19.8,44.1,44.1,44.1c24.3,0,44.1-19.8,44.1-44.1
		S466.1,958.7,441.8,958.7z"/>
	<g>
		<path class="st1" d="M285.3,251.1h-84.4v-4.8c0.9-0.4,1.7-0.8,2.4-1.5l5.2-4.4c1.5-1.2,2.3-3.1,2.3-5v-13.3c0-3.6-2.9-6.5-6.5-6.5
			h-14.1c-3.6,0-6.5,2.9-6.5,6.5v13.3c0,1.9,0.8,3.7,2.3,5l5.2,4.4c0.7,0.6,1.6,1.1,2.4,1.5v4.8h-38.9c-3.9,0-7.1,3.2-7.1,7.1v10.1
			c0,3.9,3.2,7.1,7.1,7.1h38.9v9.8h-38.9c-3.9,0-7.1,3.2-7.1,7.1v10.1c0,3.9,3.2,7.1,7.1,7.1h38.9v12.8c0,2,1.6,3.6,3.6,3.6
			c2,0,3.6-1.6,3.6-3.6v-12.8h84.4c3.9,0,7.1-3.2,7.1-7.1v-10.1c0-3.9-3.2-7.1-7.1-7.1h-84.4v-9.8h84.4c3.9,0,7.1-3.2,7.1-7.1v-10.1
			C292.4,254.3,289.2,251.1,285.3,251.1L285.3,251.1z M190.9,235.2V223h12.7v12.2l-5,4.1c-0.4,0.3-0.9,0.5-1.4,0.5c0,0,0,0,0,0
			c0,0,0,0,0,0c-0.5,0-1-0.2-1.4-0.5L190.9,235.2z M154.8,302.4v-10h38.8v10H154.8z M285.2,302.4h-47.4v-10h47.4V302.4z
			 M230.7,292.5v10h-29.8v-10H230.7z M154.8,268.3v-10h38.8v10H154.8z M200.9,258.3h51.5v10h-51.5V258.3z M285.2,268.3h-25.7v-10
			h25.7V268.3z"/>
		<path class="st1" d="M126.7,251.1H91c-3.8,0-7,3.1-7,7v10.4c0,3.8,3.1,7,7,7h35.7c3.8,0,7-3.1,7-7v-10.4
			C133.7,254.3,130.5,251.1,126.7,251.1z M126.5,268.3H91.2v-10h35.2V268.3z"/>
		<path class="st1" d="M126.7,285.3H91c-3.8,0-7,3.1-7,7v10.4c0,3.8,3.1,7,7,7h35.7c3.8,0,7-3.1,7-7v-10.4
			C133.7,288.4,130.5,285.3,126.7,285.3z M126.5,302.4H91.2v-10h35.2V302.4z"/>
		<path class="st1" d="M275.3,80.5H101.2c-9.4,0-17.1,7.7-17.1,17.1v91.1c0,9.4,7.7,17.1,17.1,17.1h24.3c2,0,3.6-1.6,3.6-3.6
			s-1.6-3.6-3.6-3.6h-24.3c-5.5,0-9.9-4.4-9.9-9.9V97.6c0-5.5,4.4-9.9,9.9-9.9h174.1c5.5,0,9.9,4.4,9.9,9.9v91.1
			c0,5.5-4.4,9.9-9.9,9.9H139.9c-2,0-3.6,1.6-3.6,3.6s1.6,3.6,3.6,3.6h135.4c9.4,0,17.1-7.7,17.1-17.1V97.6
			C292.4,88.2,284.8,80.5,275.3,80.5L275.3,80.5z"/>
		<path class="st1" d="M262.3,139.4c0-11.2-9.1-20.2-20.2-20.2s-20.2,9.1-20.2,20.2s9.1,20.2,20.2,20.2S262.3,150.5,262.3,139.4z
			 M229,139.4c0-7.2,5.8-13,13-13c7.2,0,13,5.8,13,13s-5.8,13-13,13C234.9,152.4,229,146.5,229,139.4z"/>
		<path class="st1" d="M210.1,131.9c-13.5,0-26.5,5.7-35.7,15.5c-5.3-9-12.6-16.7-21.5-22.4c-10.7-6.9-23.1-10.5-35.9-10.5
			c-2,0-3.6,1.6-3.6,3.6s1.6,3.6,3.6,3.6c11.4,0,22.4,3.2,32,9.4c9.4,6,16.8,14.6,21.4,24.4c1.2,2.4,4.5,2.7,6.1,0.6
			c7.8-10.6,20.4-16.9,33.5-16.9c2,0,3.6-1.6,3.6-3.6C213.7,133.5,212.1,131.9,210.1,131.9L210.1,131.9z"/>
		<path class="st1" d="M210.1,146.9c-6.8,0-13.3,2-18.9,5.8c-6.7,4.6-11.6,11.4-13.7,19.2c-0.5,1.9,0.6,3.9,2.5,4.4
			c0.3,0.1,0.6,0.1,0.9,0.1c1.6,0,3-1.1,3.5-2.7c1.7-6.1,5.5-11.5,10.8-15.1c4.4-3,9.6-4.6,14.9-4.6c2,0,3.6-1.6,3.6-3.6
			C213.7,148.5,212.1,146.9,210.1,146.9L210.1,146.9z"/>
		<path class="st1" d="M117.1,136.7c10.5,0,20.6,3.8,28.6,10.6c7.9,6.7,13.2,16,14.9,26.2c0.3,1.8,1.8,3,3.5,3c0.2,0,0.4,0,0.6-0.1
			c2-0.3,3.3-2.2,2.9-4.1c-2-11.8-8.1-22.6-17.3-30.4c-9.3-7.9-21.1-12.3-33.3-12.3c-2,0-3.6,1.6-3.6,3.6
			C113.5,135.1,115.1,136.7,117.1,136.7z"/>
	</g>
	<g>
		<path class="st1" d="M730.3,441h-23v7.7h15.3v7.7h-15.3v7.7h15.3v7.7h-15.3v7.7h23V441z"/>
		<path class="st1" d="M768.6,460.2c0-10.6-8.6-19.1-19.1-19.1h-11.5v38.3h11.5C760,479.3,768.6,470.7,768.6,460.2z M745.6,448.7
			h3.8c6.3,0,11.5,5.2,11.5,11.5c0,6.3-5.2,11.5-11.5,11.5h-3.8V448.7z"/>
		<path class="st1" d="M826,567.9v-93c6.6-1.7,11.5-7.7,11.5-14.8c0-8.4-6.9-15.3-15.3-15.3c-4.6,0-8.7,2.1-11.5,5.3l-57.8-28.9
			c0.2-1,0.3-2.1,0.3-3.2c0-8.4-6.9-15.3-15.3-15.3s-15.3,6.9-15.3,15.3c0,1.1,0.1,2.2,0.3,3.2l-57.8,28.9
			c-2.8-3.2-6.9-5.3-11.5-5.3c-8.4,0-15.3,6.9-15.3,15.3c0,7.1,4.9,13.1,11.5,14.8v93c-6.6,1.7-11.5,7.7-11.5,14.8
			c0,8.4,6.9,15.3,15.3,15.3c4.6,0,8.7-2.1,11.5-5.3l57.8,28.9c-0.2,1-0.3,2.1-0.3,3.2c0,8.4,6.9,15.3,15.3,15.3s15.3-6.9,15.3-15.3
			c0-1.1-0.1-2.2-0.3-3.2l57.8-28.9c2.8,3.2,6.9,5.3,11.5,5.3c8.4,0,15.3-6.9,15.3-15.3C837.5,575.6,832.6,569.6,826,567.9z
			 M822.2,452.5c4.2,0,7.7,3.4,7.7,7.7s-3.4,7.7-7.7,7.7s-7.7-3.4-7.7-7.7C814.5,456,818,452.5,822.2,452.5z M737.9,410.4
			c4.2,0,7.7,3.4,7.7,7.7c0,4.2-3.4,7.7-7.7,7.7s-7.7-3.4-7.7-7.7C730.3,413.8,733.7,410.4,737.9,410.4z M726.5,428.1
			c2.8,3.2,6.9,5.3,11.5,5.3c4.6,0,8.7-2.1,11.5-5.3l57.8,28.9c-0.2,1-0.3,2.1-0.3,3.2c0,1.1,0.1,2.2,0.3,3.2l-57.8,28.9
			c-2.8-3.2-6.9-5.3-11.5-5.3c-4.6,0-8.7,2.1-11.5,5.3l-57.8-28.9c0.2-1,0.3-2.1,0.3-3.2c0-1.1-0.1-2.2-0.3-3.2L726.5,428.1z
			 M752.2,507.9c3.7,4.6,7.2,10.3,9.5,17.4h-19.9v-8.2C746.5,515.8,750.4,512.4,752.2,507.9L752.2,507.9z M764.7,544.4
			c0,4.1-0.4,7.9-1.1,11.5h-21.9v-23h21.9C764.4,536.5,764.7,540.3,764.7,544.4z M711.1,544.4c0-4.1,0.4-7.9,1-11.5h21.9v23h-21.9
			C711.6,552.3,711.1,548.5,711.1,544.4z M734.1,563.6V591c-5.9-4.5-15.1-13.3-19.9-27.4H734.1z M741.8,591v-27.5h19.9
			C757,577.8,747.7,586.6,741.8,591z M737.9,510c-4.2,0-7.7-3.4-7.7-7.7s3.4-7.7,7.7-7.7s7.7,3.4,7.7,7.7S742.2,510,737.9,510z
			 M734.1,517.1v8.2h-19.9c2.4-7.1,5.9-12.8,9.5-17.4C725.5,512.4,729.4,515.8,734.1,517.1L734.1,517.1z M721.8,498.5
			c-6,6.2-12.2,14.9-15.7,26.8H692c5.2-12.5,15.4-22.5,28.5-27.4L721.8,498.5z M688.2,544.4c0-3.9,0.5-7.8,1.3-11.5h14.9
			c-0.6,3.6-0.9,7.4-0.9,11.5c0,4.1,0.4,7.9,1,11.5h-14.9C688.7,552.2,688.2,548.4,688.2,544.4z M706.1,563.6
			c3.8,13.1,10.9,22.4,17.4,28.5c-14.3-4.3-25.8-14.9-31.5-28.5H706.1z M769.7,563.6h14.1c-5.7,13.6-17.3,24.2-31.5,28.5
			C758.8,585.9,766,576.6,769.7,563.6z M787.7,544.4c0,4-0.5,7.8-1.4,11.5h-14.9c0.6-3.6,1-7.4,1-11.5c0-4.1-0.3-7.9-0.9-11.5h14.9
			C787.3,536.6,787.7,540.5,787.7,544.4L787.7,544.4z M769.7,525.3c-3.4-11.8-9.7-20.6-15.7-26.8l1.4-0.7
			c13.1,4.9,23.3,15,28.5,27.4L769.7,525.3L769.7,525.3z M646,460.2c0-4.2,3.4-7.7,7.7-7.7s7.7,3.4,7.7,7.7s-3.4,7.7-7.7,7.7
			S646,464.4,646,460.2z M653.7,590.4c-4.2,0-7.7-3.4-7.7-7.7s3.4-7.7,7.7-7.7s7.7,3.4,7.7,7.7S657.9,590.4,653.7,590.4z
			 M737.9,632.5c-4.2,0-7.7-3.4-7.7-7.7s3.4-7.7,7.7-7.7s7.7,3.4,7.7,7.7S742.2,632.5,737.9,632.5z M749.4,614.8
			c-2.8-3.2-6.9-5.3-11.5-5.3c-4.6,0-8.7,2.1-11.5,5.3l-57.8-28.9c0.2-1,0.3-2.1,0.3-3.2c0-7.1-4.9-13.1-11.5-14.8v-93
			c3-0.8,5.7-2.5,7.7-4.7l46.4,23.2c-18.9,9.7-31.1,29.3-31.1,51c0,31.7,25.8,57.4,57.4,57.4s57.4-25.8,57.4-57.4
			c0-21.7-12.2-41.3-31.1-51l46.4-23.2c2,2.3,4.6,4,7.7,4.7v93c-6.6,1.7-11.5,7.7-11.5,14.8c0,1.1,0.1,2.2,0.3,3.2L749.4,614.8z
			 M822.2,590.4c-4.2,0-7.7-3.4-7.7-7.7s3.4-7.7,7.7-7.7s7.7,3.4,7.7,7.7S826.4,590.4,822.2,590.4z"/>
	</g>
	<g id="outline">
		<path class="st1" d="M234.9,776.1c0-1.6-1.1-2.9-2.6-3.2l-51.6-9.7c-0.4-0.1-0.8-0.1-1.2,0l-51.6,9.7c-1.5,0.3-2.6,1.6-2.6,3.2
			v9.7H83.3v135.5h58.1v7l-45.7,9.1c-5.3,0.9-12.4,3.2-12.4,12.9v3.2c0,1.8,1.4,3.2,3.2,3.2c0.2,0,0.4,0,0.5,0l57.8-9.6h70.4
			l57.8,9.6c0.2,0,0.4,0,0.5,0c1.8,0,3.2-1.4,3.2-3.2v-3.2c0-9.6-7-12-12.3-12.9l-45.7-9.1v-7h58.1V785.7h-41.9V776.1z M180,769.7
			l36.5,6.8l-36.5,9.1l-36.5-9.1L180,769.7z M228.4,780.2v51.7l-45.2,16.9v-57.3L228.4,780.2z M131.6,780.2l45.2,11.3v57.3
			l-45.2-16.9V780.2z M127.3,837.2l51.6,19.4c0.4,0.1,0.7,0.2,1.1,0.2c0.4,0,0.8-0.1,1.1-0.2l51.6-19.4c1.3-0.5,2.1-1.7,2.1-3v-29
			h22.6v96.8H102.6v-96.8h22.6v29C125.2,835.5,126,836.7,127.3,837.2z M263.3,943.7l0.1,0c5.6,0.9,6.9,2.7,7,5.9l-54.3-9
			c-0.2,0-0.3-0.1-0.5-0.1h-71c-0.2,0-0.4,0-0.5,0l-54.3,9c0.1-3.2,1.4-5,7.1-5.9l48.1-9.6h70.3L263.3,943.7z M147.8,927.7v-6.5
			h64.5v6.5H147.8z M270.4,792.2v122.6H89.7V792.2h35.5v6.5h-29v109.7h167.8V798.6h-29v-6.5H270.4z"/>
		<path class="st1" d="M129.8,863.7c-0.9,0.6-1.4,1.6-1.4,2.7v19.4c0,1.3,0.8,2.5,2,3l16.1,6.5c0.4,0.1,0.8,0.2,1.2,0.2
			c0.4,0,0.8-0.1,1.2-0.2l16.1-6.5c1.2-0.5,2-1.7,2-3v-19.4c0-1.1-0.5-2.1-1.4-2.7c-0.2-0.1-0.4-0.2-0.6-0.3l-16.1-6.5
			c-0.8-0.3-1.6-0.3-2.4,0l-16.1,6.5C130.2,863.5,130,863.6,129.8,863.7L129.8,863.7z M160.7,883.6l-9.7,3.9V875l9.7-3.9V883.6z
			 M147.8,863.4l7.4,3l-7.4,3l-7.4-3L147.8,863.4z M134.9,871.2l9.7,3.9v12.4l-9.7-3.9V871.2z"/>
		<path class="st1" d="M204.4,875.7l12.9,6.5c0.9,0.5,2,0.5,2.9,0l12.9-6.5c1.1-0.5,1.8-1.7,1.8-2.9v-12.9c0-1.1-0.6-2.2-1.5-2.7
			c-0.1-0.1-0.3-0.1-0.3-0.1l-12.9-6.5c-0.9-0.5-2-0.5-2.9,0l-12.9,6.5c0,0-0.2,0.1-0.3,0.1c-1,0.6-1.5,1.6-1.5,2.7v12.9
			C202.6,874.1,203.3,875.2,204.4,875.7L204.4,875.7z M228.4,870.8l-6.5,3.2v-5.7l6.5-3.2V870.8z M218.7,857.1l5.7,2.8l-5.7,2.8
			l-5.7-2.8L218.7,857.1z M209.1,865.2l6.5,3.2v5.7l-6.5-3.2V865.2z"/>
		<path class="st1" d="M244.5,889h-12.9v6.5H251v-25.8h-6.5V889z"/>
		<path class="st1" d="M247.8,842.8v-18.3h-6.5v13.9l-14.1,5.6l2.4,6L247.8,842.8z"/>
		<path class="st1" d="M118.7,811.5h-6.5v31.2l24.5,10.5l2.5-5.9l-20.6-8.8V811.5z"/>
		<path class="st1" d="M176.8,866.4h6.5v6.5h-6.5V866.4z"/>
		<path class="st1" d="M115.5,885.7h6.5v6.5h-6.5V885.7z"/>
		<path class="st1" d="M186.5,879.3h6.5v6.5h-6.5V879.3z"/>
	</g>
	<g>
		<g>
			<path class="st1" d="M735.1,1234.2c0.4-0.1,0.7-0.2,1.1-0.5l28.1-17l12.1,12c0.8,0.8,1.8,1.2,2.9,1.2h31.5c2.2,0,4.1-1.8,4.1-4.1
				c0-2.2-1.8-4.1-4.1-4.1H781l-9.5-9.4l17.3-10.4c1.2-0.7,2-2.1,2-3.5v-62c0-1.4-0.8-2.8-2-3.5l-52.7-31.7c-1.3-0.8-2.9-0.8-4.2,0
				l-28.1,16.9l-12.1-12c-0.8-0.8-1.8-1.2-2.9-1.2h-31.5c-2.2,0-4.1,1.8-4.1,4.1s1.8,4.1,4.1,4.1h29.9l9.5,9.4l-17.3,10.4
				c-1.2,0.7-2,2.1-2,3.5v12.7c0,2.2,1.8,4.1,4.1,4.1s4.1-1.8,4.1-4.1v-5.6l44.5,26.8v52.5l-44.5-26.8v-10.5c0-2.2-1.8-4.1-4.1-4.1
				s-4.1,1.8-4.1,4.1v12.8c0,1.4,0.7,2.7,2,3.5l52.7,31.7C732.9,1234.3,734.1,1234.5,735.1,1234.2L735.1,1234.2z M782.7,1196.3
				l-17.1,10.3l-11.9-11.8c-1.6-1.6-4.2-1.6-5.7,0c-1.6,1.6-1.6,4.2,0,5.7l10.4,10.3l-20.2,12.2v-52.5l44.5-26.8V1196.3z
				 M720.2,1134.6l-10.4-10.3l24.3-14.6l44.8,27l-44.8,27l-44.8-27l13.3-8l11.9,11.8c0.8,0.8,1.8,1.2,2.9,1.2c1,0,2.1-0.4,2.9-1.2
				C721.8,1138.7,721.8,1136.1,720.2,1134.6L720.2,1134.6z"/>
			<path class="st1" d="M666.9,1130.4c2.2,0,4.1-1.8,4.1-4.1s-1.8-4.1-4.1-4.1h-9.6c-2.2,0-4.1,1.8-4.1,4.1s1.8,4.1,4.1,4.1H666.9z"
				/>
			<path class="st1" d="M653.3,1092c0,2.2,1.8,4.1,4.1,4.1h31.5c2.2,0,4.1-1.8,4.1-4.1s-1.8-4.1-4.1-4.1h-31.5
				C655.1,1087.9,653.3,1089.8,653.3,1092z"/>
			<path class="st1" d="M810.9,1212.9c2.2,0,4.1-1.8,4.1-4.1c0-2.2-1.8-4.1-4.1-4.1h-9.5c-2.2,0-4.1,1.8-4.1,4.1
				c0,2.2,1.8,4.1,4.1,4.1H810.9z"/>
			<path class="st1" d="M814.9,1243.1c0-2.2-1.8-4.1-4.1-4.1h-31.5c-2.2,0-4.1,1.8-4.1,4.1s1.8,4.1,4.1,4.1h31.5
				C813.1,1247.2,814.9,1245.4,814.9,1243.1z"/>
			<path class="st1" d="M634.1,1118.6c2.2,0,4.1-1.8,4.1-4.1v-42.9h42.9c2.2,0,4.1-1.8,4.1-4.1s-1.8-4.1-4.1-4.1h-47
				c-2.2,0-4.1,1.8-4.1,4.1v47C630,1116.8,631.9,1118.6,634.1,1118.6z"/>
			<path class="st1" d="M834.1,1063.5h-47c-2.2,0-4.1,1.8-4.1,4.1s1.8,4.1,4.1,4.1h42.9v42.9c0,2.2,1.8,4.1,4.1,4.1s4.1-1.8,4.1-4.1
				v-47C838.2,1065.3,836.4,1063.5,834.1,1063.5z"/>
			<path class="st1" d="M681.1,1263.5h-42.9v-42.9c0-2.2-1.8-4.1-4.1-4.1s-4.1,1.8-4.1,4.1v47c0,2.2,1.8,4.1,4.1,4.1h47
				c2.2,0,4.1-1.8,4.1-4.1C685.2,1265.3,683.3,1263.5,681.1,1263.5z"/>
			<path class="st1" d="M834.1,1216.5c-2.2,0-4.1,1.8-4.1,4.1v42.9h-42.9c-2.2,0-4.1,1.8-4.1,4.1c0,2.2,1.8,4.1,4.1,4.1h47
				c2.2,0,4.1-1.8,4.1-4.1v-47C838.2,1218.3,836.4,1216.5,834.1,1216.5z"/>
			<path class="st1" d="M681.4,1171.6c2.2,0,4.1-1.8,4.1-4.1s-1.8-4.1-4.1-4.1s-4.1,1.8-4.1,4.1v0
				C677.4,1169.8,679.2,1171.6,681.4,1171.6z"/>
		</g>
	</g>
	<g>
		<path class="st1" d="M276.6,1380.1H169.4c-1.7,0-3.1,1.4-3.1,3.1c0,1.7,1.4,3.1,3.1,3.1h107.1c1.8,0,3.2,1.5,3.2,3.2v94.5
			c0,1.7,1.4,3.1,3.1,3.1c1.7,0,3.1-1.4,3.1-3.1v-94.5C286,1384.3,281.8,1380.1,276.6,1380.1z"/>
		<path class="st1" d="M282.9,1494.5c-1.7,0-3.1,1.4-3.1,3.1v6.1H80.2v-114.2c0-1.8,1.5-3.2,3.2-3.2h45.7c1.7,0,3.1-1.4,3.1-3.1
			c0-1.7-1.4-3.1-3.1-3.1H83.5c-5.2,0-9.4,4.2-9.4,9.4v133.4c0,4,3.3,7.3,7.3,7.3h75.3v15h-12.8c-1.7,0-3.1,1.4-3.1,3.1
			c0,1.7,1.4,3.1,3.1,3.1h72.5c1.7,0,3.1-1.4,3.1-3.1c0-1.7-1.4-3.1-3.1-3.1h-12.8v-15h75.3c4,0,7.3-3.3,7.3-7.3v-25.3
			C286,1495.9,284.6,1494.5,282.9,1494.5z M197.2,1545.2h-34.4v-15h34.4V1545.2z M278.7,1524H81.4c-0.6,0-1.1-0.5-1.1-1.1v-12.9
			h199.6v12.9C279.8,1523.5,279.3,1524,278.7,1524z"/>
		<path class="st1" d="M142.7,1386.3h13.2c1.7,0,3.1-1.4,3.1-3.1c0-1.7-1.4-3.1-3.1-3.1h-13.2c-1.7,0-3.1,1.4-3.1,3.1
			C139.6,1384.9,141,1386.3,142.7,1386.3z"/>
		<path class="st1" d="M93.2,1403.5c-1.7,0-3.1,1.4-3.1,3.1v82.4c0,1.7,1.4,3.1,3.1,3.1h24.2c1.7,0,3.1-1.4,3.1-3.1v-82.4
			c0-1.7-1.4-3.1-3.1-3.1H93.2z M114.3,1409.7v3.7h-18v-3.7H114.3z M96.3,1485.9v-66.2h18v66.2H96.3z"/>
		<path class="st1" d="M245.3,1437.2h24.2c1.7,0,3.1-1.4,3.1-3.1v-27.5c0-1.7-1.4-3.1-3.1-3.1h-24.2c-1.7,0-3.1,1.4-3.1,3.1v27.5
			C242.2,1435.8,243.6,1437.2,245.3,1437.2z M248.4,1431v-11.3h18v11.3H248.4z M266.4,1409.7v3.7h-18v-3.7H266.4z"/>
		<path class="st1" d="M242.2,1478.1c0,1.7,1.4,3.1,3.1,3.1h24.2c1.7,0,3.1-1.4,3.1-3.1v-27.5c0-1.7-1.4-3.1-3.1-3.1h-24.2
			c-1.7,0-3.1,1.4-3.1,3.1V1478.1z M248.4,1475v-11.3h18v11.3H248.4z M266.4,1453.8v3.7h-18v-3.7H266.4z"/>
		<path class="st1" d="M134.7,1463.1c0,5,4.1,9.1,9.1,9.1c2.3,0,4.4-0.8,5.9-2.2l21.3,11.8c-0.1,0.5-0.1,0.9-0.1,1.4
			c0,5,4.1,9.1,9.1,9.1c5,0,9.1-4.1,9.1-9.1c0-0.5,0-0.9-0.1-1.4l21.3-11.8c1.6,1.4,3.7,2.2,5.9,2.2c5,0,9.1-4.1,9.1-9.1
			c0-3.9-2.5-7.2-6-8.5v-19.2c3.5-1.3,6-4.6,6-8.5c0-5-4.1-9.1-9.1-9.1c-2.3,0-4.3,0.8-5.9,2.2l-21.4-11.8c0.1-0.5,0.1-0.9,0.1-1.4
			c0-5-4.1-9.1-9.1-9.1c-5,0-9.1,4.1-9.1,9.1c0,0.5,0,0.9,0.1,1.4l-21.4,11.8c-1.6-1.4-3.7-2.2-5.9-2.2c-5,0-9.1,4.1-9.1,9.1
			c0,3.9,2.5,7.2,6,8.5v19.2C137.2,1455.9,134.7,1459.2,134.7,1463.1z M180,1415.9c2.3,0,4.3-0.8,5.9-2.2l21.4,11.8
			c-0.1,0.5-0.1,0.9-0.1,1.4s0,0.9,0.1,1.4l-21.4,11.8c-1.6-1.4-3.7-2.2-5.9-2.2c-2.3,0-4.3,0.8-5.9,2.2l-21.4-11.8
			c0.1-0.5,0.1-0.9,0.1-1.4s0-0.9-0.1-1.4l21.4-11.8C175.7,1415,177.8,1415.9,180,1415.9z M207.2,1463.1c0,0.5,0,0.9,0.1,1.4
			l-21.4,11.8c-0.8-0.7-1.8-1.3-2.8-1.7v-19.2c3.5-1.3,6-4.6,6-8.5c0-0.5,0-0.9-0.1-1.4l21.4-11.8c0.8,0.7,1.8,1.3,2.8,1.7v19.2
			C209.7,1455.9,207.2,1459.2,207.2,1463.1z M182.9,1447c0,1.6-1.3,2.8-2.8,2.8c-1.6,0-2.8-1.3-2.8-2.8c0-1.6,1.3-2.8,2.8-2.8
			C181.6,1444.1,182.9,1445.4,182.9,1447z M149.7,1433.7l21.4,11.8c-0.1,0.5-0.1,0.9-0.1,1.4c0,3.9,2.5,7.2,6,8.5v19.2
			c-1,0.4-2,1-2.8,1.7l-21.4-11.8c0.1-0.5,0.1-0.9,0.1-1.4c0-3.9-2.5-7.2-6-8.5v-19.2C147.9,1435,148.9,1434.4,149.7,1433.7z
			 M143.8,1466c-1.6,0-2.8-1.3-2.8-2.8c0-1.6,1.3-2.8,2.8-2.8c1.6,0,2.8,1.3,2.8,2.8C146.6,1464.7,145.4,1466,143.8,1466z M180,1486
			c-1.6,0-2.8-1.3-2.8-2.8s1.3-2.8,2.8-2.8c1.6,0,2.8,1.3,2.8,2.8S181.6,1486,180,1486z M216.3,1466c-1.6,0-2.8-1.3-2.8-2.8
			c0-1.6,1.3-2.8,2.8-2.8c1.6,0,2.8,1.3,2.8,2.8C219.1,1464.7,217.8,1466,216.3,1466z M216.3,1424c1.6,0,2.8,1.3,2.8,2.8
			c0,1.6-1.3,2.8-2.8,2.8c-1.6,0-2.8-1.3-2.8-2.8C213.4,1425.3,214.7,1424,216.3,1424z M180,1404c1.6,0,2.8,1.3,2.8,2.8
			s-1.3,2.8-2.8,2.8c-1.6,0-2.8-1.3-2.8-2.8S178.5,1404,180,1404z M143.8,1424c1.6,0,2.8,1.3,2.8,2.8c0,1.6-1.3,2.8-2.8,2.8
			c-1.6,0-2.8-1.3-2.8-2.8C140.9,1425.3,142.2,1424,143.8,1424z"/>
	</g>
	<g id="XMLID_17_">
		<path id="XMLID_18_" class="st1" d="M1388.5,576.1c-13.7,0-20.8-7.7-26.7-14.1c-5.5-5.9-9.7-10.5-18.6-10.5s-13.2,4.7-18.6,10.5
			c-5.9,6.2-13,14.1-26.7,14.1c-13.7,0-20.8-7.7-26.7-14.1c-5.5-5.9-9.7-10.5-18.6-10.5s-13.2,4.7-18.6,10.5
			c-5.9,6.2-13,14.1-26.7,14.1c-13.7,0-20.8-7.7-26.7-14.1c-5.5-5.9-9.7-10.5-18.6-10.5c-8.8,0-13.2,4.7-18.6,10.5
			c-5.9,6.2-13,14.1-26.7,14.1c-13.7,0-20.8-7.7-26.7-14.1c-5.5-5.9-9.7-10.5-18.7-10.5c-8.8,0-13.2,4.7-18.6,10.5
			c-5.9,6.2-13,14.1-26.7,14.1c-13.7,0-20.8-7.7-26.7-14.1c-5.5-5.9-9.7-10.5-18.7-10.5c-8.8,0-13.2,4.7-18.7,10.5
			c-5.9,6.2-13,14.1-26.7,14.1c-3.1,0-5.5-2.4-5.5-5.5c0-3.1,2.4-5.5,5.5-5.5c8.8,0,13.2-4.7,18.7-10.5c5.9-6.2,13-14.1,26.7-14.1
			s20.8,7.7,26.7,14.1c5.5,5.9,9.7,10.5,18.7,10.5c8.8,0,13.2-4.7,18.6-10.5c5.9-6.2,13-14.1,26.7-14.1c13.7,0,20.8,7.7,26.7,14.1
			c5.5,5.9,9.7,10.5,18.7,10.5c8.8,0,13.2-4.7,18.6-10.5c5.9-6.2,13-14.1,26.7-14.1c13.7,0,20.8,7.7,26.7,14.1
			c5.5,5.9,9.7,10.5,18.6,10.5s13.2-4.7,18.6-10.5c5.9-6.2,13-14.1,26.7-14.1c13.7,0,20.8,7.7,26.7,14.1c5.5,5.9,9.7,10.5,18.6,10.5
			c8.8,0,13.2-4.7,18.6-10.5c5.9-6.2,13-14.1,26.7-14.1c13.7,0,20.8,7.7,26.7,14.1c5.5,5.9,9.7,10.5,18.6,10.5
			c3.1,0,5.5,2.4,5.5,5.5S1391.6,576.1,1388.5,576.1z"/>
	</g>
	<g id="XMLID_15_">
		<path id="XMLID_16_" class="st1" d="M1388.5,1195.4c-13.7,0-20.8-7.7-26.7-14.1c-5.5-5.9-9.7-10.5-18.6-10.5s-13.2,4.7-18.6,10.5
			c-5.9,6.2-13,14.1-26.7,14.1c-13.7,0-20.8-7.7-26.7-14.1c-5.5-5.9-9.7-10.5-18.6-10.5s-13.2,4.7-18.6,10.5
			c-5.9,6.2-13,14.1-26.7,14.1c-13.7,0-20.8-7.7-26.7-14.1c-5.5-5.9-9.7-10.5-18.6-10.5c-8.8,0-13.2,4.7-18.6,10.5
			c-5.9,6.2-13,14.1-26.7,14.1c-13.7,0-20.8-7.7-26.7-14.1c-5.5-5.9-9.7-10.5-18.7-10.5c-8.8,0-13.2,4.7-18.6,10.5
			c-5.9,6.2-13,14.1-26.7,14.1c-13.7,0-20.8-7.7-26.7-14.1c-5.5-5.9-9.7-10.5-18.7-10.5c-8.8,0-13.2,4.7-18.7,10.5
			c-5.9,6.2-13,14.1-26.7,14.1c-3.1,0-5.5-2.4-5.5-5.5c0-3.1,2.4-5.5,5.5-5.5c8.8,0,13.2-4.7,18.7-10.5c5.9-6.2,13-14.1,26.7-14.1
			s20.8,7.7,26.7,14.1c5.5,5.9,9.7,10.5,18.7,10.5c8.8,0,13.2-4.7,18.6-10.5c5.9-6.2,13-14.1,26.7-14.1c13.7,0,20.8,7.7,26.7,14.1
			c5.5,5.9,9.7,10.5,18.7,10.5c8.8,0,13.2-4.7,18.6-10.5c5.9-6.2,13-14.1,26.7-14.1c13.7,0,20.8,7.7,26.7,14.1
			c5.5,5.9,9.7,10.5,18.6,10.5s13.2-4.7,18.6-10.5c5.9-6.2,13-14.1,26.7-14.1c13.7,0,20.8,7.7,26.7,14.1c5.5,5.9,9.7,10.5,18.6,10.5
			c8.8,0,13.2-4.7,18.6-10.5c5.9-6.2,13-14.1,26.7-14.1c13.7,0,20.8,7.7,26.7,14.1c5.5,5.9,9.7,10.5,18.6,10.5
			c3.1,0,5.5,2.4,5.5,5.5S1391.6,1195.4,1388.5,1195.4z"/>
	</g>
	<g id="XMLID_13_">
		<path id="XMLID_14_" class="st1" d="M1721.3,223.6c-13.7,0-20.8-7.7-26.7-14.1c-5.5-5.9-9.7-10.5-18.6-10.5
			c-8.8,0-13.2,4.7-18.6,10.5c-5.9,6.2-13,14.1-26.7,14.1c-13.7,0-20.8-7.7-26.7-14.1c-5.5-5.9-9.7-10.5-18.6-10.5
			s-13.2,4.7-18.6,10.5c-5.9,6.2-13,14.1-26.7,14.1c-13.7,0-20.8-7.7-26.7-14.1c-5.5-5.9-9.7-10.5-18.6-10.5s-13.2,4.7-18.6,10.5
			c-5.9,6.2-13,14.1-26.7,14.1s-20.8-7.7-26.7-14.1c-5.5-5.9-9.7-10.5-18.7-10.5c-8.8,0-13.2,4.7-18.6,10.5
			c-5.9,6.2-13,14.1-26.7,14.1c-13.7,0-20.8-7.7-26.7-14.1c-5.5-5.9-9.7-10.5-18.7-10.5c-8.8,0-13.2,4.7-18.7,10.5
			c-5.9,6.2-13,14.1-26.7,14.1c-3.1,0-5.5-2.4-5.5-5.5c0-3.1,2.4-5.5,5.5-5.5c8.8,0,13.2-4.7,18.7-10.5c5.9-6.2,13-14.1,26.7-14.1
			c13.7,0,20.8,7.7,26.7,14.1c5.5,5.9,9.7,10.5,18.7,10.5c8.8,0,13.2-4.7,18.6-10.5c5.9-6.2,13-14.1,26.7-14.1
			c13.7,0,20.8,7.7,26.7,14.1c5.5,5.9,9.7,10.5,18.7,10.5c8.8,0,13.2-4.7,18.6-10.5c5.9-6.2,13-14.1,26.7-14.1
			c13.7,0,20.8,7.7,26.7,14.1c5.5,5.9,9.7,10.5,18.6,10.5s13.2-4.7,18.6-10.5c5.9-6.2,13-14.1,26.7-14.1c13.7,0,20.8,7.7,26.7,14.1
			c5.5,5.9,9.7,10.5,18.6,10.5s13.2-4.7,18.6-10.5c5.9-6.2,13-14.1,26.7-14.1c13.7,0,20.8,7.7,26.7,14.1c5.5,5.9,9.7,10.5,18.6,10.5
			c3.1,0,5.5,2.4,5.5,5.5C1726.7,221.2,1724.4,223.6,1721.3,223.6z"/>
	</g>
	<g id="XMLID_11_">
		<path id="XMLID_12_" class="st1" d="M1721.3,864.8c-13.7,0-20.8-7.7-26.7-14.1c-5.5-5.9-9.7-10.5-18.6-10.5
			c-8.8,0-13.2,4.7-18.6,10.5c-5.9,6.2-13,14.1-26.7,14.1c-13.7,0-20.8-7.7-26.7-14.1c-5.5-5.9-9.7-10.5-18.6-10.5
			s-13.2,4.7-18.6,10.5c-5.9,6.2-13,14.1-26.7,14.1c-13.7,0-20.8-7.7-26.7-14.1c-5.5-5.9-9.7-10.5-18.6-10.5s-13.2,4.7-18.6,10.5
			c-5.9,6.2-13,14.1-26.7,14.1s-20.8-7.7-26.7-14.1c-5.5-5.9-9.7-10.5-18.7-10.5c-8.8,0-13.2,4.7-18.6,10.5
			c-5.9,6.2-13,14.1-26.7,14.1c-13.7,0-20.8-7.7-26.7-14.1c-5.5-5.9-9.7-10.5-18.7-10.5c-8.8,0-13.2,4.7-18.7,10.5
			c-5.9,6.2-13,14.1-26.7,14.1c-3.1,0-5.5-2.4-5.5-5.5s2.4-5.5,5.5-5.5c8.8,0,13.2-4.7,18.7-10.5c5.9-6.2,13-14.1,26.7-14.1
			c13.7,0,20.8,7.7,26.7,14.1c5.5,5.9,9.7,10.5,18.7,10.5c8.8,0,13.2-4.7,18.6-10.5c5.9-6.2,13-14.1,26.7-14.1
			c13.7,0,20.8,7.7,26.7,14.1c5.5,5.9,9.7,10.5,18.7,10.5c8.8,0,13.2-4.7,18.6-10.5c5.9-6.2,13-14.1,26.7-14.1
			c13.7,0,20.8,7.7,26.7,14.1c5.5,5.9,9.7,10.5,18.6,10.5s13.2-4.7,18.6-10.5c5.9-6.2,13-14.1,26.7-14.1c13.7,0,20.8,7.7,26.7,14.1
			c5.5,5.9,9.7,10.5,18.6,10.5s13.2-4.7,18.6-10.5c5.9-6.2,13-14.1,26.7-14.1c13.7,0,20.8,7.7,26.7,14.1c5.5,5.9,9.7,10.5,18.6,10.5
			c3.1,0,5.5,2.4,5.5,5.5C1726.7,862.4,1724.4,864.8,1721.3,864.8z"/>
	</g>
	<g id="XMLID_9_">
		<path id="XMLID_10_" class="st1" d="M1721.3,1475.3c-13.7,0-20.8-7.7-26.7-14.1c-5.5-5.9-9.7-10.5-18.6-10.5
			c-8.8,0-13.2,4.7-18.6,10.5c-5.9,6.2-13,14.1-26.7,14.1c-13.7,0-20.8-7.7-26.7-14.1c-5.5-5.9-9.7-10.5-18.6-10.5
			s-13.2,4.7-18.6,10.5c-5.9,6.2-13,14.1-26.7,14.1c-13.7,0-20.8-7.7-26.7-14.1c-5.5-5.9-9.7-10.5-18.6-10.5s-13.2,4.7-18.6,10.5
			c-5.9,6.2-13,14.1-26.7,14.1s-20.8-7.7-26.7-14.1c-5.5-5.9-9.7-10.5-18.7-10.5c-8.8,0-13.2,4.7-18.6,10.5
			c-5.9,6.2-13,14.1-26.7,14.1c-13.7,0-20.8-7.7-26.7-14.1c-5.5-5.9-9.7-10.5-18.7-10.5c-8.8,0-13.2,4.7-18.7,10.5
			c-5.9,6.2-13,14.1-26.7,14.1c-3.1,0-5.5-2.4-5.5-5.5c0-3.1,2.4-5.5,5.5-5.5c8.8,0,13.2-4.7,18.7-10.5c5.9-6.2,13-14.1,26.7-14.1
			c13.7,0,20.8,7.7,26.7,14.1c5.5,5.9,9.7,10.5,18.7,10.5c8.8,0,13.2-4.7,18.6-10.5c5.9-6.2,13-14.1,26.7-14.1
			c13.7,0,20.8,7.7,26.7,14.1c5.5,5.9,9.7,10.5,18.7,10.5c8.8,0,13.2-4.7,18.6-10.5c5.9-6.2,13-14.1,26.7-14.1
			c13.7,0,20.8,7.7,26.7,14.1c5.5,5.9,9.7,10.5,18.6,10.5s13.2-4.7,18.6-10.5c5.9-6.2,13-14.1,26.7-14.1c13.7,0,20.8,7.7,26.7,14.1
			c5.5,5.9,9.7,10.5,18.6,10.5s13.2-4.7,18.6-10.5c5.9-6.2,13-14.1,26.7-14.1c13.7,0,20.8,7.7,26.7,14.1c5.5,5.9,9.7,10.5,18.6,10.5
			c3.1,0,5.5,2.4,5.5,5.5C1726.7,1472.9,1724.4,1475.3,1721.3,1475.3z"/>
	</g>
	<path class="st1" d="M1316.4,455.8c-29.2,0-53.1-23.8-53.1-53.1c0-29.2,23.8-53.1,53.1-53.1c29.3,0,53.1,23.8,53.1,53.1
		S1345.7,455.8,1316.4,455.8z M1316.4,358.6c-24.3,0-44.1,19.8-44.1,44.1s19.8,44.1,44.1,44.1c24.3,0,44.1-19.8,44.1-44.1
		C1360.5,378.4,1340.7,358.6,1316.4,358.6z"/>
	<path class="st1" d="M1316.4,1055.9c-29.2,0-53.1-23.8-53.1-53.1c0-29.2,23.8-53.1,53.1-53.1c29.3,0,53.1,23.8,53.1,53.1
		S1345.7,1055.9,1316.4,1055.9z M1316.4,958.7c-24.3,0-44.1,19.8-44.1,44.1c0,24.3,19.8,44.1,44.1,44.1c24.3,0,44.1-19.8,44.1-44.1
		S1340.7,958.7,1316.4,958.7z"/>
	<g>
		<path class="st1" d="M1159.9,1522.9h-84.4v-4.8c0.9-0.4,1.7-0.8,2.4-1.5l5.2-4.4c1.5-1.2,2.3-3.1,2.3-5v-13.3
			c0-3.6-2.9-6.5-6.5-6.5h-14.1c-3.6,0-6.5,2.9-6.5,6.5v13.3c0,1.9,0.8,3.7,2.3,5l5.2,4.4c0.7,0.6,1.6,1.1,2.4,1.5v4.8h-38.9
			c-3.9,0-7.1,3.2-7.1,7.1v10.1c0,3.9,3.2,7.1,7.1,7.1h38.9v9.8h-38.9c-3.9,0-7.1,3.2-7.1,7.1v10.1c0,3.9,3.2,7.1,7.1,7.1h38.9v12.8
			c0,2,1.6,3.6,3.6,3.6c2,0,3.6-1.6,3.6-3.6v-12.8h84.4c3.9,0,7.1-3.2,7.1-7.1v-10.1c0-3.9-3.2-7.1-7.1-7.1h-84.4v-9.8h84.4
			c3.9,0,7.1-3.2,7.1-7.1v-10.1C1167,1526.1,1163.8,1522.9,1159.9,1522.9L1159.9,1522.9z M1065.5,1507v-12.2h12.7v12.2l-5,4.1
			c-0.4,0.3-0.9,0.5-1.4,0.5c0,0,0,0,0,0c0,0,0,0,0,0c-0.5,0-1-0.2-1.4-0.5L1065.5,1507z M1029.4,1574.2v-10h38.8v10H1029.4z
			 M1159.8,1574.2h-47.4v-10h47.4V1574.2z M1105.2,1564.3v10h-29.8v-10H1105.2z M1029.4,1540.1v-10h38.8v10H1029.4z M1075.4,1530.1
			h51.5v10h-51.5V1530.1z M1159.8,1540.1h-25.7v-10h25.7V1540.1z"/>
		<path class="st1" d="M1001.3,1522.9h-35.7c-3.8,0-7,3.1-7,7v10.4c0,3.8,3.1,7,7,7h35.7c3.8,0,7-3.1,7-7v-10.4
			C1008.2,1526.1,1005.1,1522.9,1001.3,1522.9z M1001,1540.1h-35.2v-10h35.2V1540.1z"/>
		<path class="st1" d="M1001.3,1557.1h-35.7c-3.8,0-7,3.1-7,7v10.4c0,3.8,3.1,7,7,7h35.7c3.8,0,7-3.1,7-7V1564
			C1008.2,1560.2,1005.1,1557.1,1001.3,1557.1z M1001,1574.2h-35.2v-10h35.2V1574.2z"/>
		<path class="st1" d="M1149.9,1352.3H975.7c-9.4,0-17.1,7.7-17.1,17.1v91.1c0,9.4,7.7,17.1,17.1,17.1h24.3c2,0,3.6-1.6,3.6-3.6
			c0-2-1.6-3.6-3.6-3.6h-24.3c-5.5,0-9.9-4.4-9.9-9.9v-91.1c0-5.5,4.4-9.9,9.9-9.9h174.1c5.5,0,9.9,4.4,9.9,9.9v91.1
			c0,5.5-4.4,9.9-9.9,9.9h-135.4c-2,0-3.6,1.6-3.6,3.6c0,2,1.6,3.6,3.6,3.6h135.4c9.4,0,17.1-7.7,17.1-17.1v-91.1
			C1167,1360,1159.3,1352.3,1149.9,1352.3L1149.9,1352.3z"/>
		<path class="st1" d="M1136.9,1411.2c0-11.2-9.1-20.2-20.2-20.2s-20.2,9.1-20.2,20.2c0,11.2,9.1,20.2,20.2,20.2
			C1127.8,1431.4,1136.9,1422.3,1136.9,1411.2z M1103.6,1411.2c0-7.2,5.8-13,13-13c7.2,0,13,5.8,13,13c0,7.2-5.8,13-13,13
			C1109.4,1424.2,1103.6,1418.3,1103.6,1411.2z"/>
		<path class="st1" d="M1084.7,1403.7c-13.5,0-26.5,5.7-35.7,15.5c-5.3-9-12.6-16.7-21.5-22.4c-10.7-6.9-23.1-10.5-35.9-10.5
			c-2,0-3.6,1.6-3.6,3.6c0,2,1.6,3.6,3.6,3.6c11.4,0,22.4,3.2,32,9.4c9.4,6,16.8,14.6,21.4,24.4c1.2,2.4,4.5,2.7,6.1,0.6
			c7.8-10.6,20.4-16.9,33.5-16.9c2,0,3.6-1.6,3.6-3.6C1088.3,1405.3,1086.7,1403.7,1084.7,1403.7L1084.7,1403.7z"/>
		<path class="st1" d="M1084.7,1418.7c-6.8,0-13.3,2-18.9,5.8c-6.7,4.6-11.6,11.4-13.7,19.2c-0.5,1.9,0.6,3.9,2.5,4.4
			c0.3,0.1,0.6,0.1,0.9,0.1c1.6,0,3-1.1,3.5-2.7c1.7-6.1,5.5-11.5,10.8-15.1c4.4-3,9.6-4.6,14.9-4.6c2,0,3.6-1.6,3.6-3.6
			C1088.3,1420.3,1086.7,1418.7,1084.7,1418.7L1084.7,1418.7z"/>
		<path class="st1" d="M991.7,1408.5c10.5,0,20.6,3.8,28.6,10.6c7.9,6.7,13.2,16,14.9,26.2c0.3,1.8,1.8,3,3.5,3c0.2,0,0.4,0,0.6-0.1
			c2-0.3,3.3-2.2,2.9-4.1c-2-11.8-8.1-22.6-17.3-30.4c-9.3-7.9-21.1-12.3-33.3-12.3c-2,0-3.6,1.6-3.6,3.6
			C988.1,1406.9,989.7,1408.5,991.7,1408.5z"/>
	</g>
	<g>
		<path class="st1" d="M1604.9,1097.3h-23v7.7h15.3v7.7h-15.3v7.7h15.3v7.7h-15.3v7.7h23V1097.3z"/>
		<path class="st1" d="M1643.1,1116.4c0-10.6-8.6-19.1-19.1-19.1h-11.5v38.3h11.5C1634.6,1135.6,1643.1,1127,1643.1,1116.4z
			 M1620.2,1104.9h3.8c6.3,0,11.5,5.2,11.5,11.5c0,6.3-5.2,11.5-11.5,11.5h-3.8V1104.9z"/>
		<path class="st1" d="M1700.6,1224.2v-93c6.6-1.7,11.5-7.7,11.5-14.8c0-8.4-6.9-15.3-15.3-15.3c-4.6,0-8.7,2.1-11.5,5.3l-57.8-28.9
			c0.2-1,0.3-2.1,0.3-3.2c0-8.4-6.9-15.3-15.3-15.3s-15.3,6.9-15.3,15.3c0,1.1,0.1,2.2,0.3,3.2l-57.8,28.9
			c-2.8-3.2-6.9-5.3-11.5-5.3c-8.4,0-15.3,6.9-15.3,15.3c0,7.1,4.9,13.1,11.5,14.8v93c-6.6,1.7-11.5,7.7-11.5,14.8
			c0,8.4,6.9,15.3,15.3,15.3c4.6,0,8.7-2.1,11.5-5.3l57.8,28.9c-0.2,1-0.3,2.1-0.3,3.2c0,8.4,6.9,15.3,15.3,15.3s15.3-6.9,15.3-15.3
			c0-1.1-0.1-2.2-0.3-3.2l57.8-28.9c2.8,3.2,6.9,5.3,11.5,5.3c8.4,0,15.3-6.9,15.3-15.3C1712.1,1231.8,1707.2,1225.9,1700.6,1224.2z
			 M1696.8,1108.8c4.2,0,7.7,3.4,7.7,7.7c0,4.2-3.4,7.7-7.7,7.7c-4.2,0-7.7-3.4-7.7-7.7C1689.1,1112.2,1692.5,1108.8,1696.8,1108.8z
			 M1612.5,1066.6c4.2,0,7.7,3.4,7.7,7.7c0,4.2-3.4,7.7-7.7,7.7s-7.7-3.4-7.7-7.7C1604.9,1070.1,1608.3,1066.6,1612.5,1066.6z
			 M1601,1084.3c2.8,3.2,6.9,5.3,11.5,5.3s8.7-2.1,11.5-5.3l57.8,28.9c-0.2,1-0.3,2.1-0.3,3.2c0,1.1,0.1,2.2,0.3,3.2l-57.8,28.9
			c-2.8-3.2-6.9-5.3-11.5-5.3s-8.7,2.1-11.5,5.3l-57.8-28.9c0.2-1,0.3-2.1,0.3-3.2c0-1.1-0.1-2.2-0.3-3.2L1601,1084.3z
			 M1626.7,1164.1c3.7,4.6,7.2,10.3,9.5,17.4h-19.9v-8.2C1621.1,1172.1,1625,1168.6,1626.7,1164.1L1626.7,1164.1z M1639.3,1200.7
			c0,4.1-0.4,7.9-1.1,11.5h-21.9v-23h21.9C1638.9,1192.7,1639.3,1196.5,1639.3,1200.7z M1585.7,1200.7c0-4.1,0.4-7.9,1-11.5h21.9v23
			h-21.9C1586.1,1208.6,1585.7,1204.8,1585.7,1200.7z M1608.7,1219.8v27.4c-5.9-4.5-15.1-13.3-19.9-27.4H1608.7z M1616.3,1247.3
			v-27.5h19.9C1631.5,1234,1622.3,1242.8,1616.3,1247.3z M1612.5,1166.2c-4.2,0-7.7-3.4-7.7-7.7c0-4.2,3.4-7.7,7.7-7.7
			s7.7,3.4,7.7,7.7C1620.2,1162.8,1616.7,1166.2,1612.5,1166.2z M1608.7,1173.3v8.2h-19.9c2.4-7.1,5.9-12.8,9.5-17.4
			C1600.1,1168.6,1603.9,1172.1,1608.7,1173.3L1608.7,1173.3z M1596.4,1154.8c-6,6.2-12.2,14.9-15.7,26.8h-14.1
			c5.2-12.5,15.4-22.5,28.5-27.4L1596.4,1154.8z M1562.7,1200.7c0-3.9,0.5-7.8,1.3-11.5h14.9c-0.6,3.6-0.9,7.4-0.9,11.5
			c0,4.1,0.4,7.9,1,11.5h-14.9C1563.2,1208.4,1562.7,1204.6,1562.7,1200.7z M1580.7,1219.8c3.8,13.1,10.9,22.4,17.4,28.5
			c-14.3-4.3-25.8-14.9-31.5-28.5H1580.7z M1644.3,1219.8h14.1c-5.7,13.6-17.3,24.2-31.5,28.5
			C1633.4,1242.2,1640.5,1232.9,1644.3,1219.8z M1662.3,1200.7c0,4-0.5,7.8-1.4,11.5H1646c0.6-3.6,1-7.4,1-11.5
			c0-4.1-0.3-7.9-0.9-11.5h14.9C1661.8,1192.9,1662.3,1196.7,1662.3,1200.7L1662.3,1200.7z M1644.3,1181.5
			c-3.4-11.8-9.7-20.6-15.7-26.8l1.4-0.7c13.1,4.9,23.3,15,28.5,27.4L1644.3,1181.5L1644.3,1181.5z M1520.6,1116.4
			c0-4.2,3.4-7.7,7.7-7.7c4.2,0,7.7,3.4,7.7,7.7c0,4.2-3.4,7.7-7.7,7.7C1524.1,1124.1,1520.6,1120.6,1520.6,1116.4z M1528.3,1246.6
			c-4.2,0-7.7-3.4-7.7-7.7c0-4.2,3.4-7.7,7.7-7.7c4.2,0,7.7,3.4,7.7,7.7C1535.9,1243.2,1532.5,1246.6,1528.3,1246.6z M1612.5,1288.7
			c-4.2,0-7.7-3.4-7.7-7.7c0-4.2,3.4-7.7,7.7-7.7s7.7,3.4,7.7,7.7C1620.2,1285.3,1616.7,1288.7,1612.5,1288.7z M1624,1271
			c-2.8-3.2-6.9-5.3-11.5-5.3s-8.7,2.1-11.5,5.3l-57.8-28.9c0.2-1,0.3-2.1,0.3-3.2c0-7.1-4.9-13.1-11.5-14.8v-93
			c3-0.8,5.7-2.5,7.7-4.7l46.4,23.2c-18.9,9.7-31.1,29.3-31.1,51c0,31.7,25.8,57.4,57.4,57.4s57.4-25.8,57.4-57.4
			c0-21.7-12.2-41.3-31.1-51l46.4-23.2c2,2.3,4.6,4,7.7,4.7v93c-6.6,1.7-11.5,7.7-11.5,14.8c0,1.1,0.1,2.2,0.3,3.2L1624,1271z
			 M1696.8,1246.6c-4.2,0-7.7-3.4-7.7-7.7c0-4.2,3.4-7.7,7.7-7.7c4.2,0,7.7,3.4,7.7,7.7C1704.4,1243.2,1701,1246.6,1696.8,1246.6z"
			/>
	</g>
	<g id="outline_1_">
		<path class="st1" d="M1109.4,104.2c0-1.6-1.1-2.9-2.6-3.2l-51.6-9.7c-0.4-0.1-0.8-0.1-1.2,0l-51.6,9.7c-1.5,0.3-2.6,1.6-2.6,3.2
			v9.7h-41.9v135.5h58.1v7l-45.7,9.1c-5.3,0.9-12.4,3.2-12.4,12.9v3.2c0,1.8,1.4,3.2,3.2,3.2c0.2,0,0.4,0,0.5,0l57.8-9.6h70.4
			l57.8,9.6c0.2,0,0.4,0,0.5,0c1.8,0,3.2-1.4,3.2-3.2v-3.2c0-9.6-7-12-12.3-12.9l-45.7-9.1v-7h58.1V113.9h-41.9V104.2z M1054.6,97.8
			l36.5,6.8l-36.5,9.1l-36.5-9.1L1054.6,97.8z M1103,108.3V160l-45.2,16.9v-57.3L1103,108.3z M1006.2,108.3l45.2,11.3V177
			l-45.2-16.9V108.3z M1001.9,165.3l51.6,19.4c0.4,0.1,0.7,0.2,1.1,0.2c0.4,0,0.8-0.1,1.1-0.2l51.6-19.4c1.3-0.5,2.1-1.7,2.1-3v-29
			h22.6V230H977.2v-96.8h22.6v29C999.8,163.6,1000.6,164.8,1001.9,165.3z M1137.8,271.9L1137.8,271.9c5.7,1,7,2.7,7.1,5.9l-54.3-9
			c-0.2,0-0.3-0.1-0.5-0.1h-71c-0.2,0-0.4,0-0.5,0l-54.3,9c0.1-3.2,1.4-5,7.1-5.9l48.1-9.6h70.3L1137.8,271.9z M1022.3,255.8v-6.5
			h64.5v6.5H1022.3z M1144.9,120.3v122.6H964.3V120.3h35.5v6.5h-29v109.7h167.8V126.8h-29v-6.5H1144.9z"/>
		<path class="st1" d="M1004.4,191.9c-0.9,0.6-1.4,1.6-1.4,2.7v19.4c0,1.3,0.8,2.5,2,3l16.1,6.5c0.4,0.1,0.8,0.2,1.2,0.2
			c0.4,0,0.8-0.1,1.2-0.2l16.1-6.5c1.2-0.5,2-1.7,2-3v-19.4c0-1.1-0.5-2.1-1.4-2.7c-0.2-0.1-0.4-0.2-0.6-0.3l-16.1-6.5
			c-0.8-0.3-1.6-0.3-2.4,0l-16.1,6.5C1004.8,191.6,1004.6,191.7,1004.4,191.9L1004.4,191.9z M1035.2,211.7l-9.7,3.9v-12.4l9.7-3.9
			V211.7z M1022.3,191.6l7.4,3l-7.4,3l-7.4-3L1022.3,191.6z M1009.4,199.3l9.7,3.9v12.4l-9.7-3.9V199.3z"/>
		<path class="st1" d="M1079,203.9l12.9,6.5c0.9,0.5,2,0.5,2.9,0l12.9-6.5c1.1-0.5,1.8-1.7,1.8-2.9v-12.9c0-1.1-0.6-2.2-1.5-2.7
			c-0.1-0.1-0.3-0.1-0.3-0.1l-12.9-6.5c-0.9-0.5-2-0.5-2.9,0l-12.9,6.5c0,0-0.2,0.1-0.3,0.1c-1,0.6-1.5,1.6-1.5,2.7V201
			C1077.2,202.2,1077.9,203.3,1079,203.9L1079,203.9z M1103,199l-6.5,3.2v-5.7l6.5-3.2V199z M1093.3,185.2l5.7,2.8l-5.7,2.8
			l-5.7-2.8L1093.3,185.2z M1083.6,193.3l6.5,3.2v5.7l-6.5-3.2V193.3z"/>
		<path class="st1" d="M1119.1,217.1h-12.9v6.5h19.4v-25.8h-6.5V217.1z"/>
		<path class="st1" d="M1122.3,170.9v-18.3h-6.5v13.9l-14.1,5.6l2.4,6L1122.3,170.9z"/>
		<path class="st1" d="M993.3,139.7h-6.5v31.2l24.5,10.5l2.5-5.9l-20.6-8.8V139.7z"/>
		<path class="st1" d="M1051.4,194.5h6.5v6.5h-6.5V194.5z"/>
		<path class="st1" d="M990.1,213.9h6.5v6.5h-6.5V213.9z"/>
		<path class="st1" d="M1061.1,207.4h6.5v6.5h-6.5V207.4z"/>
	</g>
	<g>
		<g>
			<path class="st1" d="M1609.7,625.1c0.4-0.1,0.7-0.2,1.1-0.5l28.1-17l12.1,12c0.8,0.8,1.8,1.2,2.9,1.2h31.5c2.2,0,4.1-1.8,4.1-4.1
				c0-2.2-1.8-4.1-4.1-4.1h-29.9l-9.5-9.4l17.3-10.4c1.2-0.7,2-2.1,2-3.5v-62c0-1.4-0.8-2.8-2-3.5l-52.7-31.7
				c-1.3-0.8-2.9-0.8-4.2,0l-28.1,16.9l-12.1-12c-0.8-0.8-1.8-1.2-2.9-1.2h-31.5c-2.2,0-4.1,1.8-4.1,4.1c0,2.2,1.8,4.1,4.1,4.1h29.9
				l9.5,9.4l-17.3,10.4c-1.2,0.7-2,2.1-2,3.5v12.7c0,2.2,1.8,4.1,4.1,4.1c2.2,0,4.1-1.8,4.1-4.1v-5.6l44.5,26.8v52.5l-44.5-26.8
				v-10.5c0-2.2-1.8-4.1-4.1-4.1c-2.2,0-4.1,1.8-4.1,4.1v12.8c0,1.4,0.7,2.7,2,3.5l52.7,31.7
				C1607.5,625.2,1608.6,625.3,1609.7,625.1L1609.7,625.1z M1657.3,587.1l-17.1,10.3l-11.9-11.8c-1.6-1.6-4.2-1.6-5.7,0
				c-1.6,1.6-1.6,4.2,0,5.7l10.4,10.3l-20.2,12.2v-52.5l44.5-26.8V587.1z M1594.8,525.4l-10.4-10.3l24.3-14.6l44.8,27l-44.8,27
				l-44.8-27l13.3-8l11.9,11.8c0.8,0.8,1.8,1.2,2.9,1.2c1,0,2.1-0.4,2.9-1.2C1596.4,529.5,1596.4,527,1594.8,525.4L1594.8,525.4z"/>
			<path class="st1" d="M1541.5,521.2c2.2,0,4.1-1.8,4.1-4.1c0-2.2-1.8-4.1-4.1-4.1h-9.6c-2.2,0-4.1,1.8-4.1,4.1
				c0,2.2,1.8,4.1,4.1,4.1H1541.5z"/>
			<path class="st1" d="M1527.8,482.8c0,2.2,1.8,4.1,4.1,4.1h31.5c2.2,0,4.1-1.8,4.1-4.1c0-2.2-1.8-4.1-4.1-4.1h-31.5
				C1529.7,478.8,1527.8,480.6,1527.8,482.8z"/>
			<path class="st1" d="M1685.4,603.7c2.2,0,4.1-1.8,4.1-4.1s-1.8-4.1-4.1-4.1h-9.5c-2.2,0-4.1,1.8-4.1,4.1s1.8,4.1,4.1,4.1H1685.4z
				"/>
			<path class="st1" d="M1689.5,634c0-2.2-1.8-4.1-4.1-4.1h-31.5c-2.2,0-4.1,1.8-4.1,4.1s1.8,4.1,4.1,4.1h31.5
				C1687.7,638,1689.5,636.2,1689.5,634z"/>
			<path class="st1" d="M1508.7,509.4c2.2,0,4.1-1.8,4.1-4.1v-42.9h42.9c2.2,0,4.1-1.8,4.1-4.1s-1.8-4.1-4.1-4.1h-47
				c-2.2,0-4.1,1.8-4.1,4.1v47C1504.6,507.6,1506.4,509.4,1508.7,509.4z"/>
			<path class="st1" d="M1708.7,454.3h-47c-2.2,0-4.1,1.8-4.1,4.1s1.8,4.1,4.1,4.1h42.9v42.9c0,2.2,1.8,4.1,4.1,4.1
				c2.2,0,4.1-1.8,4.1-4.1v-47C1712.8,456.1,1710.9,454.3,1708.7,454.3z"/>
			<path class="st1" d="M1555.7,654.3h-42.9v-42.9c0-2.2-1.8-4.1-4.1-4.1c-2.2,0-4.1,1.8-4.1,4.1v47c0,2.2,1.8,4.1,4.1,4.1h47
				c2.2,0,4.1-1.8,4.1-4.1C1559.7,656.2,1557.9,654.3,1555.7,654.3z"/>
			<path class="st1" d="M1708.7,607.3c-2.2,0-4.1,1.8-4.1,4.1v42.9h-42.9c-2.2,0-4.1,1.8-4.1,4.1c0,2.2,1.8,4.1,4.1,4.1h47
				c2.2,0,4.1-1.8,4.1-4.1v-47C1712.8,609.1,1710.9,607.3,1708.7,607.3z"/>
			<path class="st1" d="M1556,562.5c2.2,0,4.1-1.8,4.1-4.1c0-2.2-1.8-4.1-4.1-4.1c-2.2,0-4.1,1.8-4.1,4.1v0
				C1552,560.7,1553.8,562.5,1556,562.5z"/>
		</g>
	</g>
	<g>
		<path class="st1" d="M1151.2,790.4H1044c-1.7,0-3.1,1.4-3.1,3.1c0,1.7,1.4,3.1,3.1,3.1h107.1c1.8,0,3.2,1.5,3.2,3.2v94.5
			c0,1.7,1.4,3.1,3.1,3.1c1.7,0,3.1-1.4,3.1-3.1v-94.5C1160.6,794.6,1156.4,790.4,1151.2,790.4z"/>
		<path class="st1" d="M1157.5,904.8c-1.7,0-3.1,1.4-3.1,3.1v6.1H954.8V799.8c0-1.8,1.5-3.2,3.2-3.2h45.7c1.7,0,3.1-1.4,3.1-3.1
			c0-1.7-1.4-3.1-3.1-3.1H958c-5.2,0-9.4,4.2-9.4,9.4v133.4c0,4,3.3,7.3,7.3,7.3h75.3v15h-12.8c-1.7,0-3.1,1.4-3.1,3.1
			c0,1.7,1.4,3.1,3.1,3.1h72.5c1.7,0,3.1-1.4,3.1-3.1c0-1.7-1.4-3.1-3.1-3.1H1078v-15h75.3c4,0,7.3-3.3,7.3-7.3v-25.3
			C1160.6,906.2,1159.2,904.8,1157.5,904.8z M1071.8,955.6h-34.4v-15h34.4V955.6z M1153.3,934.3H955.9c-0.6,0-1.1-0.5-1.1-1.1v-12.9
			h199.6v12.9C1154.4,933.8,1153.9,934.3,1153.3,934.3z"/>
		<path class="st1" d="M1017.3,796.6h13.2c1.7,0,3.1-1.4,3.1-3.1c0-1.7-1.4-3.1-3.1-3.1h-13.2c-1.7,0-3.1,1.4-3.1,3.1
			C1014.2,795.2,1015.6,796.6,1017.3,796.6z"/>
		<path class="st1" d="M967.8,813.8c-1.7,0-3.1,1.4-3.1,3.1v82.4c0,1.7,1.4,3.1,3.1,3.1H992c1.7,0,3.1-1.4,3.1-3.1v-82.4
			c0-1.7-1.4-3.1-3.1-3.1H967.8z M988.9,820v3.7h-18V820H988.9z M970.9,896.2V830h18v66.2H970.9z"/>
		<path class="st1" d="M1119.9,847.5h24.2c1.7,0,3.1-1.4,3.1-3.1v-27.5c0-1.7-1.4-3.1-3.1-3.1h-24.2c-1.7,0-3.1,1.4-3.1,3.1v27.5
			C1116.8,846.1,1118.2,847.5,1119.9,847.5z M1123,841.3V830h18v11.3H1123z M1141,820v3.7h-18V820H1141z"/>
		<path class="st1" d="M1116.8,888.5c0,1.7,1.4,3.1,3.1,3.1h24.2c1.7,0,3.1-1.4,3.1-3.1V861c0-1.7-1.4-3.1-3.1-3.1h-24.2
			c-1.7,0-3.1,1.4-3.1,3.1V888.5z M1123,885.3V874h18v11.3H1123z M1141,864.1v3.7h-18v-3.7H1141z"/>
		<path class="st1" d="M1009.3,873.4c0,5,4.1,9.1,9.1,9.1c2.3,0,4.4-0.8,5.9-2.2l21.3,11.8c-0.1,0.5-0.1,0.9-0.1,1.4
			c0,5,4.1,9.1,9.1,9.1c5,0,9.1-4.1,9.1-9.1c0-0.5,0-0.9-0.1-1.4l21.3-11.8c1.6,1.4,3.7,2.2,5.9,2.2c5,0,9.1-4.1,9.1-9.1
			c0-3.9-2.5-7.2-6-8.5v-19.2c3.5-1.3,6-4.6,6-8.5c0-5-4.1-9.1-9.1-9.1c-2.3,0-4.3,0.8-5.9,2.2l-21.4-11.8c0.1-0.5,0.1-0.9,0.1-1.4
			c0-5-4.1-9.1-9.1-9.1c-5,0-9.1,4.1-9.1,9.1c0,0.5,0,0.9,0.1,1.4l-21.4,11.8c-1.6-1.4-3.7-2.2-5.9-2.2c-5,0-9.1,4.1-9.1,9.1
			c0,3.9,2.5,7.2,6,8.5v19.2C1011.8,866.2,1009.3,869.5,1009.3,873.4z M1054.6,826.2c2.3,0,4.3-0.8,5.9-2.2l21.4,11.8
			c-0.1,0.5-0.1,0.9-0.1,1.4s0,0.9,0.1,1.4l-21.4,11.8c-1.6-1.4-3.7-2.2-5.9-2.2s-4.3,0.8-5.9,2.2l-21.4-11.8
			c0.1-0.5,0.1-0.9,0.1-1.4s0-0.9-0.1-1.4l21.4-11.8C1050.3,825.3,1052.3,826.2,1054.6,826.2z M1081.8,873.4c0,0.5,0,0.9,0.1,1.4
			l-21.4,11.8c-0.8-0.7-1.8-1.3-2.8-1.7v-19.2c3.5-1.3,6-4.6,6-8.5c0-0.5,0-0.9-0.1-1.4l21.4-11.8c0.8,0.7,1.8,1.3,2.8,1.7v19.2
			C1084.3,866.2,1081.8,869.5,1081.8,873.4z M1057.4,857.3c0,1.6-1.3,2.8-2.8,2.8c-1.6,0-2.8-1.3-2.8-2.8c0-1.6,1.3-2.8,2.8-2.8
			C1056.2,854.4,1057.4,855.7,1057.4,857.3z M1024.3,844l21.4,11.8c-0.1,0.5-0.1,0.9-0.1,1.4c0,3.9,2.5,7.2,6,8.5V885
			c-1,0.4-2,1-2.8,1.7l-21.4-11.8c0.1-0.5,0.1-0.9,0.1-1.4c0-3.9-2.5-7.2-6-8.5v-19.2C1022.5,845.3,1023.5,844.7,1024.3,844z
			 M1018.4,876.3c-1.6,0-2.8-1.3-2.8-2.8c0-1.6,1.3-2.8,2.8-2.8c1.6,0,2.8,1.3,2.8,2.8C1021.2,875,1019.9,876.3,1018.4,876.3z
			 M1054.6,896.3c-1.6,0-2.8-1.3-2.8-2.8c0-1.6,1.3-2.8,2.8-2.8c1.6,0,2.8,1.3,2.8,2.8C1057.4,895.1,1056.2,896.3,1054.6,896.3z
			 M1090.8,876.3c-1.6,0-2.8-1.3-2.8-2.8c0-1.6,1.3-2.8,2.8-2.8s2.8,1.3,2.8,2.8C1093.7,875,1092.4,876.3,1090.8,876.3z
			 M1090.8,834.3c1.6,0,2.8,1.3,2.8,2.8c0,1.6-1.3,2.8-2.8,2.8s-2.8-1.3-2.8-2.8C1088,835.6,1089.3,834.3,1090.8,834.3z
			 M1054.6,814.3c1.6,0,2.8,1.3,2.8,2.8c0,1.6-1.3,2.8-2.8,2.8c-1.6,0-2.8-1.3-2.8-2.8C1051.8,815.5,1053,814.3,1054.6,814.3z
			 M1018.4,834.3c1.6,0,2.8,1.3,2.8,2.8c0,1.6-1.3,2.8-2.8,2.8c-1.6,0-2.8-1.3-2.8-2.8C1015.5,835.6,1016.8,834.3,1018.4,834.3z"/>
	</g>
</g>
</svg>
