<svg xmlns="http://www.w3.org/2000/svg" width="808" height="379.275" viewBox="0 0 808 379.275">
  <g id="Grupo_31063" data-name="Grupo 31063" transform="translate(-249.5 -6517.5)">
    <path id="Trazado_27128" data-name="Trazado 27128" d="M85.148,4.889A4.247,4.247,0,0,1,88.4,6.2a4.569,4.569,0,0,1,1.23,3.247,4.456,4.456,0,0,1-1.221,3.228,4.324,4.324,0,0,1-3.262,1.265H82.209V19h-2.93V4.889Zm-.488,6.6a2.153,2.153,0,0,0,1.611-.552,2.1,2.1,0,0,0,.537-1.528A2.081,2.081,0,0,0,86.267,7.9,2.134,2.134,0,0,0,84.66,7.34H82.209v4.15ZM99.543,19l-3.672-6.211h-.85V19h-2.93V4.889h5.117a5.919,5.919,0,0,1,2.051.327,3.546,3.546,0,0,1,1.421.908,3.889,3.889,0,0,1,.8,1.333,4.876,4.876,0,0,1,.269,1.65,3.446,3.446,0,0,1-.771,2.319,3.888,3.888,0,0,1-2.217,1.216L103.01,19ZM95.021,7.32v3.369H96.75q2.2,0,2.2-1.68a1.53,1.53,0,0,0-.537-1.24,2.554,2.554,0,0,0-1.66-.449ZM105.158,19V4.889h2.93V19ZM121.369,4.889h2.92V19H120.9L114.65,8.912V19h-2.92V4.889h3.35l6.289,10.029ZM134.191,19.2a7.877,7.877,0,0,1-2.876-.518,6.763,6.763,0,0,1-2.29-1.445,6.515,6.515,0,0,1-1.5-2.295,8,8,0,0,1-.547-3,7.644,7.644,0,0,1,.938-3.833,6.382,6.382,0,0,1,2.573-2.534,7.705,7.705,0,0,1,3.706-.879,7.488,7.488,0,0,1,4.141,1.143,6.255,6.255,0,0,1,2.529,3.145l-2.734,1a3.866,3.866,0,0,0-1.514-1.9,4.323,4.323,0,0,0-2.422-.684,4.145,4.145,0,0,0-3.086,1.23,4.528,4.528,0,0,0-1.211,3.32,4.534,4.534,0,0,0,1.216,3.325,4.14,4.14,0,0,0,3.081,1.235,4.307,4.307,0,0,0,2.417-.688,3.883,3.883,0,0,0,1.519-1.909l2.734,1a6.28,6.28,0,0,1-2.529,3.149A7.464,7.464,0,0,1,134.191,19.2Zm9.072-.2V4.889h2.93V19ZM155.705,4.889A4.247,4.247,0,0,1,158.957,6.2a4.569,4.569,0,0,1,1.23,3.247,4.456,4.456,0,0,1-1.221,3.228,4.324,4.324,0,0,1-3.262,1.265h-2.939V19h-2.93V4.889Zm-.488,6.6a2.153,2.153,0,0,0,1.611-.552,2.1,2.1,0,0,0,.537-1.528,2.081,2.081,0,0,0-.542-1.509,2.134,2.134,0,0,0-1.606-.562h-2.451v4.15ZM162.648,19V4.889h2.93V19Zm12.822.2a7.671,7.671,0,0,1-3.706-.884,6.407,6.407,0,0,1-2.573-2.544,7.651,7.651,0,0,1-.937-3.828,7.644,7.644,0,0,1,.938-3.833,6.382,6.382,0,0,1,2.573-2.534,8.243,8.243,0,0,1,7.407,0,6.391,6.391,0,0,1,2.568,2.534,7.644,7.644,0,0,1,.938,3.833,7.651,7.651,0,0,1-.937,3.828,6.407,6.407,0,0,1-2.573,2.544A7.65,7.65,0,0,1,175.471,19.2Zm-3.086-3.921a4.472,4.472,0,0,0,6.172,0,4.558,4.558,0,0,0,1.211-3.335,4.528,4.528,0,0,0-1.211-3.32,4.485,4.485,0,0,0-6.172,0,4.528,4.528,0,0,0-1.211,3.32A4.558,4.558,0,0,0,172.385,15.274Z" transform="translate(249 6562)" fill="#002b45"/>
    <path id="Trazado_27133" data-name="Trazado 27133" d="M99.376,27,97.94,22.926h-8.3L88.206,27h-4.2L91.282,7.244H96.3L103.573,27Zm-8.531-7.506h5.893L93.8,11.113Zm23.461,7.779a11.027,11.027,0,0,1-4.026-.725,9.468,9.468,0,0,1-3.206-2.023,9.121,9.121,0,0,1-2.105-3.213,11.2,11.2,0,0,1-.766-4.2,10.7,10.7,0,0,1,1.313-5.366,8.935,8.935,0,0,1,3.6-3.548,10.787,10.787,0,0,1,5.188-1.23,10.483,10.483,0,0,1,5.8,1.6,8.756,8.756,0,0,1,3.541,4.4l-3.828,1.395A5.412,5.412,0,0,0,117.7,11.7a6.053,6.053,0,0,0-3.391-.957,5.8,5.8,0,0,0-4.32,1.723,6.339,6.339,0,0,0-1.7,4.648,6.348,6.348,0,0,0,1.7,4.655,5.8,5.8,0,0,0,4.313,1.729,6.03,6.03,0,0,0,3.384-.964,5.436,5.436,0,0,0,2.126-2.673l3.828,1.395a8.792,8.792,0,0,1-3.541,4.409A10.45,10.45,0,0,1,114.306,27.273ZM138.464,7.244v3.609h-4.689V27h-4.061V10.854H125V7.244ZM149.62,27.273a10.739,10.739,0,0,1-5.188-1.237,8.97,8.97,0,0,1-3.6-3.562,10.711,10.711,0,0,1-1.312-5.359,10.7,10.7,0,0,1,1.313-5.366,8.936,8.936,0,0,1,3.6-3.548,11.54,11.54,0,0,1,10.37,0,8.947,8.947,0,0,1,3.6,3.548,10.7,10.7,0,0,1,1.313,5.366,10.711,10.711,0,0,1-1.312,5.359,8.97,8.97,0,0,1-3.6,3.562A10.71,10.71,0,0,1,149.62,27.273Zm-4.32-5.489a6.261,6.261,0,0,0,8.641,0,6.381,6.381,0,0,0,1.7-4.669,6.339,6.339,0,0,0-1.7-4.648,6.279,6.279,0,0,0-8.641,0,6.339,6.339,0,0,0-1.7,4.648A6.381,6.381,0,0,0,145.3,21.784ZM170.757,27V7.244h4.1V27Z" transform="translate(249 6525)" fill="#002b45"/>
    <path id="Trazado_27129" data-name="Trazado 27129" d="M7.7,4.889A4.247,4.247,0,0,1,10.947,6.2a4.569,4.569,0,0,1,1.23,3.247,4.456,4.456,0,0,1-1.221,3.228A4.324,4.324,0,0,1,7.7,13.941H4.756V19H1.826V4.889Zm-.488,6.6a2.153,2.153,0,0,0,1.611-.552A2.1,2.1,0,0,0,9.355,9.41,2.081,2.081,0,0,0,8.813,7.9,2.134,2.134,0,0,0,7.207,7.34H4.756v4.15ZM14.268,19V4h2.842V19Zm13.984-2.725a9.392,9.392,0,0,0,.244,2.451V19H25.869l-.225-1.094a3.264,3.264,0,0,1-1.406.967,5.183,5.183,0,0,1-1.816.322,4.776,4.776,0,0,1-.937-.088,3.187,3.187,0,0,1-.845-.3,2.564,2.564,0,0,1-.7-.522,2.291,2.291,0,0,1-.469-.8A3.17,3.17,0,0,1,19.3,16.4a3.02,3.02,0,0,1,.186-1.089,2.552,2.552,0,0,1,.488-.815,2.962,2.962,0,0,1,.791-.6,6.053,6.053,0,0,1,1-.43,11.9,11.9,0,0,1,1.191-.312l1.65-.371a1.82,1.82,0,0,0,.747-.317.633.633,0,0,0,.22-.5A1.036,1.036,0,0,0,25.073,11a2.3,2.3,0,0,0-1.2-.293,1.721,1.721,0,0,0-1.963,1.533l-2.49-.449A3.371,3.371,0,0,1,20.879,9.5a5.783,5.783,0,0,1,3.154-.737q4.219,0,4.219,3.623ZM23.3,17.291a2.262,2.262,0,0,0,1.738-.728,3.066,3.066,0,0,0,.674-2.153l-2.383.674a2.816,2.816,0,0,0-1,.41.842.842,0,0,0-.347.723.935.935,0,0,0,.371.8A1.536,1.536,0,0,0,23.3,17.291ZM36.914,8.766a3.914,3.914,0,0,1,2.773.9,3.349,3.349,0,0,1,.967,2.573V19H37.832V12.848a1.749,1.749,0,0,0-.5-1.387,1.9,1.9,0,0,0-1.294-.439,2.643,2.643,0,0,0-.84.127,2.158,2.158,0,0,0-.7.4,1.748,1.748,0,0,0-.5.757,3.5,3.5,0,0,0-.19,1.162V19H30.986V8.961H33.8v1.113A3.868,3.868,0,0,1,36.914,8.766ZM47.119,19a3.032,3.032,0,0,1-2.266-.815,3.172,3.172,0,0,1-.8-2.319V11.119H42.08V8.961h.635a1.656,1.656,0,0,0,1.25-.42,2.162,2.162,0,0,0,.4-1.494V5.719H46.9V8.961h2.07v2.158H46.9v4.443q0,1.3,1.162,1.3h.908V19Zm13.438-5.166-.029.674H53.086a2.6,2.6,0,0,0,.8,1.836,2.561,2.561,0,0,0,1.768.635,2.468,2.468,0,0,0,1.323-.347,2.131,2.131,0,0,0,.845-1.011L60.4,16a4.383,4.383,0,0,1-1.758,2.354,5.226,5.226,0,0,1-2.969.84,5.435,5.435,0,0,1-3.911-1.382,5.042,5.042,0,0,1-1.45-3.833,5.072,5.072,0,0,1,1.455-3.833,5.273,5.273,0,0,1,3.818-1.4,5.04,5.04,0,0,1,3.6,1.279A5.019,5.019,0,0,1,60.557,13.834Zm-4.951-3.1a2.222,2.222,0,0,0-2.441,1.934h4.609a2.114,2.114,0,0,0-.693-1.436A2.2,2.2,0,0,0,55.605,10.738Zm15.322,5.537a9.392,9.392,0,0,0,.244,2.451V19H68.545l-.225-1.094a3.264,3.264,0,0,1-1.406.967A5.183,5.183,0,0,1,65.1,19.2a4.776,4.776,0,0,1-.937-.088,3.187,3.187,0,0,1-.845-.3,2.563,2.563,0,0,1-.7-.522,2.291,2.291,0,0,1-.469-.8,3.17,3.17,0,0,1-.176-1.089,3.02,3.02,0,0,1,.186-1.089,2.552,2.552,0,0,1,.488-.815,2.962,2.962,0,0,1,.791-.6,6.053,6.053,0,0,1,1-.43,11.9,11.9,0,0,1,1.191-.312l1.65-.371a1.82,1.82,0,0,0,.747-.317.633.633,0,0,0,.22-.5A1.036,1.036,0,0,0,67.749,11a2.3,2.3,0,0,0-1.2-.293,1.721,1.721,0,0,0-1.963,1.533l-2.49-.449A3.371,3.371,0,0,1,63.555,9.5a5.783,5.783,0,0,1,3.154-.737q4.219,0,4.219,3.623Zm-4.951,1.016a2.262,2.262,0,0,0,1.738-.728,3.066,3.066,0,0,0,.674-2.153l-2.383.674a2.816,2.816,0,0,0-1,.41.842.842,0,0,0-.347.723.935.935,0,0,0,.371.8A1.536,1.536,0,0,0,65.977,17.291Zm19.58-8.525a3.836,3.836,0,0,1,2.588.815,2.918,2.918,0,0,1,.947,2.339V19H86.279V12.721a1.677,1.677,0,0,0-.449-1.27,1.573,1.573,0,0,0-1.133-.43,1.814,1.814,0,0,0-1.367.547,2.484,2.484,0,0,0-.527,1.768V19H79.961V12.75a1.721,1.721,0,0,0-.449-1.294,1.6,1.6,0,0,0-1.162-.435,1.757,1.757,0,0,0-1.357.576,2.751,2.751,0,0,0-.527,1.885V19h-2.8V8.961h2.8v1.182a3.414,3.414,0,0,1,2.91-1.377,4.293,4.293,0,0,1,1.89.386,2.572,2.572,0,0,1,1.187,1.118A3.55,3.55,0,0,1,85.557,8.766Zm7.705-1.309a1.579,1.579,0,0,1-1.152-.474,1.555,1.555,0,0,1-.479-1.147A1.536,1.536,0,0,1,92.114,4.7a1.584,1.584,0,0,1,1.147-.474,1.626,1.626,0,0,1,1.611,1.611,1.626,1.626,0,0,1-1.611,1.621ZM91.826,19V8.961h2.832V19Zm15.186-5.166-.029.674H99.541a2.6,2.6,0,0,0,.8,1.836,2.561,2.561,0,0,0,1.768.635,2.468,2.468,0,0,0,1.323-.347,2.131,2.131,0,0,0,.845-1.011l2.578.381a4.383,4.383,0,0,1-1.758,2.354,5.226,5.226,0,0,1-2.969.84,5.435,5.435,0,0,1-3.911-1.382,5.042,5.042,0,0,1-1.45-3.833,5.072,5.072,0,0,1,1.455-3.833,5.273,5.273,0,0,1,3.818-1.4,5.04,5.04,0,0,1,3.6,1.279A5.019,5.019,0,0,1,107.012,13.834Zm-4.951-3.1a2.222,2.222,0,0,0-2.441,1.934h4.609a2.114,2.114,0,0,0-.693-1.436A2.2,2.2,0,0,0,102.061,10.738Zm13.018-1.973a3.914,3.914,0,0,1,2.773.9,3.349,3.349,0,0,1,.967,2.573V19H116V12.848a1.749,1.749,0,0,0-.5-1.387,1.9,1.9,0,0,0-1.294-.439,2.643,2.643,0,0,0-.84.127,2.158,2.158,0,0,0-.7.4,1.748,1.748,0,0,0-.5.757,3.5,3.5,0,0,0-.19,1.162V19H109.15V8.961h2.813v1.113A3.868,3.868,0,0,1,115.078,8.766ZM125.283,19a3.032,3.032,0,0,1-2.266-.815,3.172,3.172,0,0,1-.8-2.319V11.119h-1.973V8.961h.635a1.656,1.656,0,0,0,1.25-.42,2.162,2.162,0,0,0,.4-1.494V5.719h2.539V8.961h2.07v2.158h-2.07v4.443q0,1.3,1.162,1.3h.908V19Zm8.672.2a6.313,6.313,0,0,1-2.842-.615,4.6,4.6,0,0,1-1.948-1.807,5.384,5.384,0,0,1-.708-2.8,4.911,4.911,0,0,1,1.523-3.809,6.368,6.368,0,0,1,7.959,0,4.911,4.911,0,0,1,1.523,3.809,4.938,4.938,0,0,1-1.523,3.823A5.654,5.654,0,0,1,133.955,19.2Zm-.029-2.236a2.577,2.577,0,0,0,1.987-.82,3.071,3.071,0,0,0,.757-2.168,3.071,3.071,0,0,0-.757-2.168,2.577,2.577,0,0,0-1.987-.82,2.483,2.483,0,0,0-1.929.825,3.1,3.1,0,0,0-.747,2.163A3.1,3.1,0,0,0,132,16.134,2.483,2.483,0,0,0,133.926,16.959Z" transform="translate(249 6706)" fill="#00223d"/>
    <path id="Trazado_27130" data-name="Trazado 27130" d="M6.787,9.215a4.366,4.366,0,0,1,1.738.352,4.276,4.276,0,0,1,1.426.986,4.61,4.61,0,0,1,.962,1.582,5.834,5.834,0,0,1,.356,2.07,5.076,5.076,0,0,1-1.294,3.623,4.2,4.2,0,0,1-3.188,1.377,3.8,3.8,0,0,1-2.007-.547,3.584,3.584,0,0,1-1.372-1.475v6.65H1.719V9.4H3.35l.039,1.865a3.514,3.514,0,0,1,1.367-1.5A3.835,3.835,0,0,1,6.787,9.215ZM6.455,17.74a2.915,2.915,0,0,0,2.222-.972,3.614,3.614,0,0,0,.9-2.563,3.6,3.6,0,0,0-.9-2.559,2.921,2.921,0,0,0-2.222-.967A2.929,2.929,0,0,0,4.2,11.69a3.6,3.6,0,0,0-.918,2.515A3.614,3.614,0,0,0,4.2,16.729,2.929,2.929,0,0,0,6.455,17.74ZM19,9.215a4.366,4.366,0,0,1,1.738.352,4.276,4.276,0,0,1,1.426.986,4.61,4.61,0,0,1,.962,1.582,5.834,5.834,0,0,1,.356,2.07,5.076,5.076,0,0,1-1.294,3.623A4.2,4.2,0,0,1,19,19.205,3.8,3.8,0,0,1,17,18.658a3.584,3.584,0,0,1-1.372-1.475v6.65H13.936V9.4h1.631l.039,1.865a3.514,3.514,0,0,1,1.367-1.5A3.835,3.835,0,0,1,19,9.215Zm-.332,8.525a2.915,2.915,0,0,0,2.222-.972,3.614,3.614,0,0,0,.9-2.563,3.6,3.6,0,0,0-.9-2.559,3.029,3.029,0,0,0-4.478.044,3.6,3.6,0,0,0-.918,2.515,3.614,3.614,0,0,0,.918,2.524A2.929,2.929,0,0,0,18.672,17.74ZM27.217,19.2a1.1,1.1,0,0,1-.8-.332,1.135,1.135,0,0,1,.8-1.934,1.1,1.1,0,0,1,.8.337,1.109,1.109,0,0,1,0,1.6A1.108,1.108,0,0,1,27.217,19.2ZM41.377,5.25h1.582V19h-1.67V7.1l-3.3,2.861V8.15Zm7.2,9.248V13.1h7v1.4Zm14.219,4.688q-4.58,0-4.58-4.893l1.719-.088a4.294,4.294,0,0,0,.645,2.588,2.6,2.6,0,0,0,2.217.859,3.047,3.047,0,0,0,2.134-.742,2.5,2.5,0,0,0,.815-1.943,2.48,2.48,0,0,0-.786-1.934,2.819,2.819,0,0,0-1.968-.713H62.3V10.885h.664a2.035,2.035,0,0,0,1.5-.635A2.141,2.141,0,0,0,65.1,8.688a1.925,1.925,0,0,0-.664-1.514,2.431,2.431,0,0,0-1.67-.586,2.658,2.658,0,0,0-1.1.205,1.542,1.542,0,0,0-.7.6,2.831,2.831,0,0,0-.352.874,5.123,5.123,0,0,0-.107,1.113l-1.719-.059a4.452,4.452,0,0,1,1.03-3.154,3.818,3.818,0,0,1,2.935-1.1A4.077,4.077,0,0,1,65.571,6.07,3.214,3.214,0,0,1,66.7,8.57a3.011,3.011,0,0,1-.547,1.787,3.124,3.124,0,0,1-1.377,1.113,3.8,3.8,0,0,1,1.934,1.26,3.532,3.532,0,0,1,.752,2.314,3.782,3.782,0,0,1-1.313,3A4.926,4.926,0,0,1,62.793,19.186Zm11.357,0a3.83,3.83,0,0,1-3.389-1.8,9.581,9.581,0,0,1-1.191-5.273,9.625,9.625,0,0,1,1.177-5.264,4.117,4.117,0,0,1,6.792,0,9.6,9.6,0,0,1,1.182,5.259,9.554,9.554,0,0,1-1.2,5.269A3.822,3.822,0,0,1,74.15,19.186Zm0-1.562a2.326,2.326,0,0,0,2.139-1.377,8.977,8.977,0,0,0,.742-4.131,8.724,8.724,0,0,0-.757-4.126,2.35,2.35,0,0,0-4.253,0,8.768,8.768,0,0,0-.752,4.131,9.024,9.024,0,0,0,.737,4.136A2.323,2.323,0,0,0,74.15,17.623Z" transform="translate(249 6734)" fill="#00223d"/>
    <path id="Trazado_27118" data-name="Trazado 27118" d="M30.589,4.889A4.247,4.247,0,0,1,33.841,6.2a4.569,4.569,0,0,1,1.23,3.247,4.456,4.456,0,0,1-1.221,3.228,4.324,4.324,0,0,1-3.262,1.265H27.649V19H24.72V4.889Zm-.488,6.6a2.153,2.153,0,0,0,1.611-.552,2.1,2.1,0,0,0,.537-1.528A2.081,2.081,0,0,0,31.707,7.9,2.134,2.134,0,0,0,30.1,7.34H27.649v4.15Zm9.756-.937a3.259,3.259,0,0,1,1.318-1.206,4.023,4.023,0,0,1,1.963-.5v2.51a3.8,3.8,0,0,0-2.4.605,2.643,2.643,0,0,0-.742,2.148V19H37.161V8.961h2.7Zm6.367-3.1a1.579,1.579,0,0,1-1.152-.474,1.555,1.555,0,0,1-.479-1.147A1.536,1.536,0,0,1,45.076,4.7a1.584,1.584,0,0,1,1.147-.474,1.626,1.626,0,0,1,1.611,1.611,1.626,1.626,0,0,1-1.611,1.621ZM44.788,19V8.961H47.62V19ZM62.425,8.766a3.836,3.836,0,0,1,2.588.815,2.918,2.918,0,0,1,.947,2.339V19H63.147V12.721a1.677,1.677,0,0,0-.449-1.27,1.573,1.573,0,0,0-1.133-.43,1.814,1.814,0,0,0-1.367.547,2.484,2.484,0,0,0-.527,1.768V19H56.829V12.75a1.721,1.721,0,0,0-.449-1.294,1.6,1.6,0,0,0-1.162-.435,1.757,1.757,0,0,0-1.357.576,2.751,2.751,0,0,0-.527,1.885V19h-2.8V8.961h2.8v1.182a3.414,3.414,0,0,1,2.91-1.377,4.293,4.293,0,0,1,1.89.386,2.572,2.572,0,0,1,1.187,1.118A3.55,3.55,0,0,1,62.425,8.766Zm15.713,5.068-.029.674H70.667a2.6,2.6,0,0,0,.8,1.836,2.561,2.561,0,0,0,1.768.635,2.468,2.468,0,0,0,1.323-.347,2.131,2.131,0,0,0,.845-1.011L77.981,16a4.383,4.383,0,0,1-1.758,2.354,5.226,5.226,0,0,1-2.969.84,5.435,5.435,0,0,1-3.911-1.382,5.042,5.042,0,0,1-1.45-3.833,5.072,5.072,0,0,1,1.455-3.833,5.273,5.273,0,0,1,3.818-1.4,5.04,5.04,0,0,1,3.6,1.279A5.019,5.019,0,0,1,78.138,13.834Zm-4.951-3.1a2.222,2.222,0,0,0-2.441,1.934h4.609a2.114,2.114,0,0,0-.693-1.436A2.2,2.2,0,0,0,73.187,10.738Zm9.785-.186A3.259,3.259,0,0,1,84.29,9.347a4.023,4.023,0,0,1,1.963-.5v2.51a3.8,3.8,0,0,0-2.4.605,2.643,2.643,0,0,0-.742,2.148V19H80.276V8.961h2.7ZM99.339,4.889A4.247,4.247,0,0,1,102.591,6.2a4.569,4.569,0,0,1,1.23,3.247,4.456,4.456,0,0,1-1.221,3.228,4.324,4.324,0,0,1-3.262,1.265H96.4V19H93.47V4.889Zm-.488,6.6a2.153,2.153,0,0,0,1.611-.552A2.1,2.1,0,0,0,101,9.41a2.081,2.081,0,0,0-.542-1.509,2.134,2.134,0,0,0-1.606-.562H96.4v4.15ZM105.911,19V4h2.842V19Zm10.43.2a6.313,6.313,0,0,1-2.842-.615,4.6,4.6,0,0,1-1.948-1.807,5.384,5.384,0,0,1-.708-2.8,4.911,4.911,0,0,1,1.523-3.809,6.368,6.368,0,0,1,7.959,0,4.911,4.911,0,0,1,1.523,3.809,4.938,4.938,0,0,1-1.523,3.823A5.654,5.654,0,0,1,116.341,19.2Zm-.029-2.236a2.577,2.577,0,0,0,1.987-.82,3.071,3.071,0,0,0,.757-2.168A3.071,3.071,0,0,0,118.3,11.8a2.577,2.577,0,0,0-1.987-.82,2.483,2.483,0,0,0-1.929.825,3.1,3.1,0,0,0-.747,2.163,3.1,3.1,0,0,0,.747,2.163A2.483,2.483,0,0,0,116.312,16.959ZM127.679,19a3.032,3.032,0,0,1-2.266-.815,3.172,3.172,0,0,1-.8-2.319V11.119H122.64V8.961h.635a1.656,1.656,0,0,0,1.25-.42,2.162,2.162,0,0,0,.4-1.494V5.719h2.539V8.961h2.07v2.158h-2.07v4.443q0,1.3,1.162,1.3h.908V19ZM143.147,4.889A4.247,4.247,0,0,1,146.4,6.2a4.569,4.569,0,0,1,1.23,3.247,4.456,4.456,0,0,1-1.221,3.228,4.324,4.324,0,0,1-3.262,1.265h-2.939V19h-2.93V4.889Zm-.488,6.6a2.153,2.153,0,0,0,1.611-.552,2.1,2.1,0,0,0,.537-1.528,2.081,2.081,0,0,0-.542-1.509,2.134,2.134,0,0,0-1.606-.562h-2.451v4.15Zm11.4,7.705a6.313,6.313,0,0,1-2.842-.615,4.6,4.6,0,0,1-1.948-1.807,5.384,5.384,0,0,1-.708-2.8,4.911,4.911,0,0,1,1.523-3.809,6.368,6.368,0,0,1,7.959,0,4.911,4.911,0,0,1,1.523,3.809,4.938,4.938,0,0,1-1.523,3.823A5.654,5.654,0,0,1,154.056,19.2Zm-.029-2.236a2.577,2.577,0,0,0,1.987-.82,3.071,3.071,0,0,0,.757-2.168,3.071,3.071,0,0,0-.757-2.168,2.577,2.577,0,0,0-1.987-.82,2.483,2.483,0,0,0-1.929.825,3.1,3.1,0,0,0-.747,2.163,3.1,3.1,0,0,0,.747,2.163A2.483,2.483,0,0,0,154.026,16.959Zm9.063-9.5a1.579,1.579,0,0,1-1.152-.474,1.555,1.555,0,0,1-.479-1.147,1.536,1.536,0,0,1,.483-1.138,1.584,1.584,0,0,1,1.147-.474A1.626,1.626,0,0,1,164.7,5.836a1.626,1.626,0,0,1-1.611,1.621ZM161.653,19V8.961h2.832V19Zm11.67-10.234a3.914,3.914,0,0,1,2.773.9,3.349,3.349,0,0,1,.967,2.573V19h-2.822V12.848a1.749,1.749,0,0,0-.5-1.387,1.9,1.9,0,0,0-1.294-.439,2.643,2.643,0,0,0-.84.127,2.158,2.158,0,0,0-.7.4,1.748,1.748,0,0,0-.5.757,3.5,3.5,0,0,0-.19,1.162V19H167.4V8.961h2.813v1.113A3.868,3.868,0,0,1,173.323,8.766ZM183.528,19a3.032,3.032,0,0,1-2.266-.815,3.171,3.171,0,0,1-.8-2.319V11.119h-1.973V8.961h.635a1.656,1.656,0,0,0,1.25-.42,2.162,2.162,0,0,0,.4-1.494V5.719h2.539V8.961h2.07v2.158h-2.07v4.443q0,1.3,1.162,1.3h.908V19Z" transform="translate(292 6816)" fill="#00223d"/>
    <path id="Trazado_27114" data-name="Trazado 27114" d="M17.864,19.2a6.818,6.818,0,0,1-3.916-1.079,4.328,4.328,0,0,1-1.9-3.022l3.027-.693A2.571,2.571,0,0,0,16,16.183a3.1,3.1,0,0,0,1.978.62,2.554,2.554,0,0,0,1.543-.435,1.466,1.466,0,0,0,.586-1.284,1.37,1.37,0,0,0-.5-1.045,3.254,3.254,0,0,0-.991-.64q-.493-.19-1.587-.522-.146-.049-.215-.068-.557-.176-.9-.293t-.845-.327a5.625,5.625,0,0,1-.82-.41,6.006,6.006,0,0,1-.679-.508,2.66,2.66,0,0,1-.566-.649,3.45,3.45,0,0,1-.342-.811A3.577,3.577,0,0,1,12.532,8.8a3.778,3.778,0,0,1,.659-2.222,4.037,4.037,0,0,1,1.777-1.416,6.469,6.469,0,0,1,2.544-.474,8.036,8.036,0,0,1,1.841.205A6.448,6.448,0,0,1,21,5.528,4.031,4.031,0,0,1,22.313,6.69,4.37,4.37,0,0,1,23.06,8.4l-2.832.7a2.294,2.294,0,0,0-2.539-2.021,2.78,2.78,0,0,0-1.572.41,1.39,1.39,0,0,0-.615,1.24q0,.771,1.025,1.25a15.28,15.28,0,0,0,1.963.674q.576.176.938.293t.908.342a6.311,6.311,0,0,1,.889.435,6.576,6.576,0,0,1,.742.542,2.919,2.919,0,0,1,.63.7,3.8,3.8,0,0,1,.386.874,3.653,3.653,0,0,1,.156,1.089,4.278,4.278,0,0,1-.283,1.592,3.464,3.464,0,0,1-.776,1.2,4.508,4.508,0,0,1-1.167.825,5.661,5.661,0,0,1-1.436.488A8.256,8.256,0,0,1,17.864,19.2Zm17.051-5.361-.029.674H27.444a2.6,2.6,0,0,0,.8,1.836,2.561,2.561,0,0,0,1.768.635,2.468,2.468,0,0,0,1.323-.347,2.131,2.131,0,0,0,.845-1.011L34.759,16A4.383,4.383,0,0,1,33,18.355a5.226,5.226,0,0,1-2.969.84,5.435,5.435,0,0,1-3.911-1.382,5.042,5.042,0,0,1-1.45-3.833,5.072,5.072,0,0,1,1.455-3.833,5.273,5.273,0,0,1,3.818-1.4,5.04,5.04,0,0,1,3.6,1.279A5.019,5.019,0,0,1,34.915,13.834Zm-4.951-3.1a2.222,2.222,0,0,0-2.441,1.934h4.609a2.114,2.114,0,0,0-.693-1.436A2.2,2.2,0,0,0,29.964,10.738Zm14-1.777h2.676v9.287a7.51,7.51,0,0,1-.376,2.5,4.123,4.123,0,0,1-1.089,1.714,4.539,4.539,0,0,1-1.67.962,7.04,7.04,0,0,1-2.187.313q-3.975,0-5.176-3.115l2.334-1a3.406,3.406,0,0,0,1.084,1.455,2.763,2.763,0,0,0,1.65.469q2.607,0,2.607-3.1V17.281a3.163,3.163,0,0,1-1.265.991,4.2,4.2,0,0,1-1.782.376A4.5,4.5,0,0,1,37.552,17.3a4.638,4.638,0,0,1-.991-1.577,5.83,5.83,0,0,1,0-4.067,4.451,4.451,0,0,1,1-1.558,4.584,4.584,0,0,1,1.465-.977,4.521,4.521,0,0,1,1.772-.352,4.083,4.083,0,0,1,1.86.415A2.967,2.967,0,0,1,43.9,10.289ZM39.656,15.6a2.576,2.576,0,0,0,3.687-.01,2.806,2.806,0,0,0,0-3.818,2.6,2.6,0,0,0-3.7-.015,2.671,2.671,0,0,0-.737,1.929A2.644,2.644,0,0,0,39.656,15.6ZM56.214,8.961h2.813V19H56.36l-.068-1.211A3.834,3.834,0,0,1,53.1,19.2a3.914,3.914,0,0,1-2.773-.9,3.349,3.349,0,0,1-.967-2.573V8.961h2.822v6.152a1.735,1.735,0,0,0,.5,1.377,1.909,1.909,0,0,0,1.3.439,2.264,2.264,0,0,0,1.6-.571,2.454,2.454,0,0,0,.63-1.86Zm11.65-.2a3.914,3.914,0,0,1,2.773.9,3.349,3.349,0,0,1,.967,2.573V19H68.782V12.848a1.749,1.749,0,0,0-.5-1.387,1.9,1.9,0,0,0-1.294-.439,2.643,2.643,0,0,0-.84.127,2.158,2.158,0,0,0-.7.4,1.748,1.748,0,0,0-.5.757,3.5,3.5,0,0,0-.19,1.162V19H61.937V8.961h2.813v1.113A3.868,3.868,0,0,1,67.864,8.766ZM81.448,4h2.813V19H81.595l-.068-1.309a2.867,2.867,0,0,1-1.274,1.138,4.29,4.29,0,0,1-1.88.405,4.883,4.883,0,0,1-1.875-.361A4.516,4.516,0,0,1,73.919,16.2a6.106,6.106,0,0,1-.381-2.2,5.707,5.707,0,0,1,.664-2.8,4.55,4.55,0,0,1,1.753-1.821,4.827,4.827,0,0,1,2.417-.615,4.4,4.4,0,0,1,1.821.366,2.843,2.843,0,0,1,1.255,1.04ZM79.017,16.9a2.5,2.5,0,0,0,1.9-.8,2.932,2.932,0,0,0,.757-2.1,2.938,2.938,0,0,0-.762-2.1,2.5,2.5,0,0,0-1.895-.806,2.53,2.53,0,0,0-1.909.791A2.937,2.937,0,0,0,76.351,14a2.924,2.924,0,0,0,.757,2.109A2.53,2.53,0,0,0,79.017,16.9ZM91.849,19.2a6.313,6.313,0,0,1-2.842-.615,4.6,4.6,0,0,1-1.948-1.807,5.384,5.384,0,0,1-.708-2.8,4.911,4.911,0,0,1,1.523-3.809,6.368,6.368,0,0,1,7.959,0,4.911,4.911,0,0,1,1.523,3.809,4.938,4.938,0,0,1-1.523,3.823A5.654,5.654,0,0,1,91.849,19.2Zm-.029-2.236a2.577,2.577,0,0,0,1.987-.82,3.071,3.071,0,0,0,.757-2.168,3.071,3.071,0,0,0-.757-2.168,2.577,2.577,0,0,0-1.987-.82,2.483,2.483,0,0,0-1.929.825,3.1,3.1,0,0,0-.747,2.163,3.1,3.1,0,0,0,.747,2.163A2.483,2.483,0,0,0,91.819,16.959Zm19.063-12.07A4.247,4.247,0,0,1,114.134,6.2a4.569,4.569,0,0,1,1.23,3.247,4.456,4.456,0,0,1-1.221,3.228,4.324,4.324,0,0,1-3.262,1.265h-2.939V19h-2.93V4.889Zm-.488,6.6A2.153,2.153,0,0,0,112,10.938a2.1,2.1,0,0,0,.537-1.528A2.081,2.081,0,0,0,112,7.9a2.134,2.134,0,0,0-1.606-.562h-2.451v4.15ZM117.454,19V4H120.3V19Zm10.43.2a6.313,6.313,0,0,1-2.842-.615,4.6,4.6,0,0,1-1.948-1.807,5.384,5.384,0,0,1-.708-2.8,4.911,4.911,0,0,1,1.523-3.809,6.368,6.368,0,0,1,7.959,0,4.911,4.911,0,0,1,1.523,3.809,4.938,4.938,0,0,1-1.523,3.823A5.654,5.654,0,0,1,127.884,19.2Zm-.029-2.236a2.577,2.577,0,0,0,1.987-.82,3.071,3.071,0,0,0,.757-2.168,3.071,3.071,0,0,0-.757-2.168,2.577,2.577,0,0,0-1.987-.82,2.483,2.483,0,0,0-1.929.825,3.1,3.1,0,0,0-.747,2.163,3.1,3.1,0,0,0,.747,2.163A2.483,2.483,0,0,0,127.854,16.959ZM139.222,19a3.032,3.032,0,0,1-2.266-.815,3.171,3.171,0,0,1-.8-2.319V11.119h-1.973V8.961h.635a1.656,1.656,0,0,0,1.25-.42,2.162,2.162,0,0,0,.4-1.494V5.719h2.539V8.961h2.07v2.158h-2.07v4.443q0,1.3,1.162,1.3h.908V19ZM154.69,4.889A4.247,4.247,0,0,1,157.942,6.2a4.569,4.569,0,0,1,1.23,3.247,4.456,4.456,0,0,1-1.221,3.228,4.324,4.324,0,0,1-3.262,1.265h-2.939V19h-2.93V4.889Zm-.488,6.6a2.153,2.153,0,0,0,1.611-.552,2.1,2.1,0,0,0,.537-1.528,2.081,2.081,0,0,0-.542-1.509A2.134,2.134,0,0,0,154.2,7.34h-2.451v4.15ZM165.6,19.2a6.313,6.313,0,0,1-2.842-.615,4.6,4.6,0,0,1-1.948-1.807,5.384,5.384,0,0,1-.708-2.8,4.911,4.911,0,0,1,1.523-3.809,6.368,6.368,0,0,1,7.959,0,4.911,4.911,0,0,1,1.523,3.809,4.938,4.938,0,0,1-1.523,3.823A5.654,5.654,0,0,1,165.6,19.2Zm-.029-2.236a2.577,2.577,0,0,0,1.987-.82,3.071,3.071,0,0,0,.757-2.168,3.071,3.071,0,0,0-.757-2.168,2.577,2.577,0,0,0-1.987-.82,2.483,2.483,0,0,0-1.929.825,3.1,3.1,0,0,0-.747,2.163,3.1,3.1,0,0,0,.747,2.163A2.483,2.483,0,0,0,165.569,16.959Zm9.063-9.5a1.579,1.579,0,0,1-1.152-.474A1.555,1.555,0,0,1,173,5.836a1.536,1.536,0,0,1,.483-1.138,1.584,1.584,0,0,1,1.147-.474,1.626,1.626,0,0,1,1.611,1.611,1.626,1.626,0,0,1-1.611,1.621ZM173.2,19V8.961h2.832V19Zm11.67-10.234a3.914,3.914,0,0,1,2.773.9,3.349,3.349,0,0,1,.967,2.573V19h-2.822V12.848a1.749,1.749,0,0,0-.5-1.387,1.9,1.9,0,0,0-1.294-.439,2.643,2.643,0,0,0-.84.127,2.158,2.158,0,0,0-.7.4,1.748,1.748,0,0,0-.5.757,3.5,3.5,0,0,0-.19,1.162V19h-2.812V8.961h2.813v1.113A3.868,3.868,0,0,1,184.866,8.766ZM195.071,19a3.032,3.032,0,0,1-2.266-.815,3.171,3.171,0,0,1-.8-2.319V11.119h-1.973V8.961h.635a1.656,1.656,0,0,0,1.25-.42,2.162,2.162,0,0,0,.4-1.494V5.719h2.539V8.961h2.07v2.158h-2.07v4.443q0,1.3,1.162,1.3h.908V19Z" transform="translate(586 6816)" fill="#00223d"/>
    <path id="Trazado_27119" data-name="Trazado 27119" d="M8.076,19.2A7.877,7.877,0,0,1,5.2,18.678a6.763,6.763,0,0,1-2.29-1.445,6.515,6.515,0,0,1-1.5-2.295,8,8,0,0,1-.547-3A7.644,7.644,0,0,1,1.8,8.106,6.382,6.382,0,0,1,4.37,5.572a7.705,7.705,0,0,1,3.706-.879,7.488,7.488,0,0,1,4.141,1.143A6.255,6.255,0,0,1,14.746,8.98l-2.734,1a3.866,3.866,0,0,0-1.514-1.9,4.323,4.323,0,0,0-2.422-.684A4.145,4.145,0,0,0,4.99,8.619a4.528,4.528,0,0,0-1.211,3.32A4.534,4.534,0,0,0,5,15.265,4.14,4.14,0,0,0,8.076,16.5a4.307,4.307,0,0,0,2.417-.688A3.883,3.883,0,0,0,12.012,13.9l2.734,1a6.28,6.28,0,0,1-2.529,3.149A7.464,7.464,0,0,1,8.076,19.2Zm13.379,0a6.313,6.313,0,0,1-2.842-.615,4.6,4.6,0,0,1-1.948-1.807,5.384,5.384,0,0,1-.708-2.8,4.911,4.911,0,0,1,1.523-3.809,5.652,5.652,0,0,1,3.975-1.4,5.665,5.665,0,0,1,3.984,1.4,4.911,4.911,0,0,1,1.523,3.809,4.938,4.938,0,0,1-1.523,3.823A5.654,5.654,0,0,1,21.455,19.2Zm-.029-2.236a2.577,2.577,0,0,0,1.987-.82,3.071,3.071,0,0,0,.757-2.168,3.071,3.071,0,0,0-.757-2.168,2.577,2.577,0,0,0-1.987-.82,2.483,2.483,0,0,0-1.929.825,3.1,3.1,0,0,0-.747,2.163,3.1,3.1,0,0,0,.747,2.163A2.483,2.483,0,0,0,21.426,16.959ZM34.98,8.766a3.914,3.914,0,0,1,2.773.9,3.349,3.349,0,0,1,.967,2.573V19H35.9V12.848a1.749,1.749,0,0,0-.5-1.387,1.9,1.9,0,0,0-1.294-.439,2.643,2.643,0,0,0-.84.127,2.158,2.158,0,0,0-.7.4,1.748,1.748,0,0,0-.5.757,3.5,3.5,0,0,0-.19,1.162V19H29.053V8.961h2.813v1.113A3.868,3.868,0,0,1,34.98,8.766Zm12.129-2.52h-.059q-.273,0-.415,0t-.4.034a1.621,1.621,0,0,0-.405.088,2.065,2.065,0,0,0-.337.181.9.9,0,0,0-.293.293,1.77,1.77,0,0,0-.176.435,2.269,2.269,0,0,0-.073.605V8.961h2.158v2.158H44.951V19h-2.8V11.119H40.186V8.961h1.963V7.877A5.871,5.871,0,0,1,42.275,6.6a3.893,3.893,0,0,1,.342-.972,2.275,2.275,0,0,1,.571-.7,3.371,3.371,0,0,1,.742-.469,4.241,4.241,0,0,1,.923-.283,8.1,8.1,0,0,1,1.06-.142Q46.436,4,47.109,4ZM51.4,10.553a3.259,3.259,0,0,1,1.318-1.206,4.023,4.023,0,0,1,1.963-.5v2.51a3.8,3.8,0,0,0-2.4.605,2.643,2.643,0,0,0-.742,2.148V19H48.7V8.961h2.7ZM60.947,19.2a6.313,6.313,0,0,1-2.842-.615,4.6,4.6,0,0,1-1.948-1.807,5.384,5.384,0,0,1-.708-2.8,4.911,4.911,0,0,1,1.523-3.809,6.368,6.368,0,0,1,7.959,0,4.911,4.911,0,0,1,1.523,3.809,4.938,4.938,0,0,1-1.523,3.823A5.654,5.654,0,0,1,60.947,19.2Zm-.029-2.236a2.577,2.577,0,0,0,1.987-.82,3.071,3.071,0,0,0,.757-2.168,3.071,3.071,0,0,0-.757-2.168,2.577,2.577,0,0,0-1.987-.82,2.483,2.483,0,0,0-1.929.825,3.1,3.1,0,0,0-.747,2.163,3.1,3.1,0,0,0,.747,2.163A2.483,2.483,0,0,0,60.918,16.959ZM74.473,8.766a3.914,3.914,0,0,1,2.773.9,3.349,3.349,0,0,1,.967,2.573V19H75.391V12.848a1.749,1.749,0,0,0-.5-1.387,1.9,1.9,0,0,0-1.294-.439,2.643,2.643,0,0,0-.84.127,2.158,2.158,0,0,0-.7.4,1.748,1.748,0,0,0-.5.757,3.5,3.5,0,0,0-.19,1.162V19H68.545V8.961h2.813v1.113A3.868,3.868,0,0,1,74.473,8.766ZM84.678,19a3.032,3.032,0,0,1-2.266-.815,3.172,3.172,0,0,1-.8-2.319V11.119H79.639V8.961h.635a1.656,1.656,0,0,0,1.25-.42,2.162,2.162,0,0,0,.4-1.494V5.719h2.539V8.961h2.07v2.158h-2.07v4.443q0,1.3,1.162,1.3h.908V19ZM96.9,16.275a9.392,9.392,0,0,0,.244,2.451V19H94.521L94.3,17.906a3.264,3.264,0,0,1-1.406.967,5.183,5.183,0,0,1-1.816.322,4.776,4.776,0,0,1-.937-.088,3.187,3.187,0,0,1-.845-.3,2.564,2.564,0,0,1-.7-.522,2.291,2.291,0,0,1-.469-.8,3.17,3.17,0,0,1-.176-1.089,3.02,3.02,0,0,1,.186-1.089,2.552,2.552,0,0,1,.488-.815,2.962,2.962,0,0,1,.791-.6,6.053,6.053,0,0,1,1-.43A11.9,11.9,0,0,1,91.6,13.16l1.65-.371A1.82,1.82,0,0,0,94,12.472a.633.633,0,0,0,.22-.5A1.036,1.036,0,0,0,93.726,11a2.3,2.3,0,0,0-1.2-.293,1.721,1.721,0,0,0-1.963,1.533l-2.49-.449A3.371,3.371,0,0,1,89.531,9.5a5.783,5.783,0,0,1,3.154-.737q4.219,0,4.219,3.623Zm-4.951,1.016a2.262,2.262,0,0,0,1.738-.728,3.066,3.066,0,0,0,.674-2.153l-2.383.674a2.816,2.816,0,0,0-1,.41.842.842,0,0,0-.347.723.935.935,0,0,0,.371.8A1.536,1.536,0,0,0,91.953,17.291Zm12,1.895a5.364,5.364,0,0,1-3.877-1.445,4.992,4.992,0,0,1-1.5-3.77,4.981,4.981,0,0,1,1.5-3.77,5.96,5.96,0,0,1,7.134-.469,4.316,4.316,0,0,1,1.68,2.725l-2.6.283a2.226,2.226,0,0,0-.84-1.318,2.554,2.554,0,0,0-1.523-.439,2.3,2.3,0,0,0-1.836.82,3.216,3.216,0,0,0-.7,2.168,3.22,3.22,0,0,0,.7,2.163,2.3,2.3,0,0,0,1.836.825,2.532,2.532,0,0,0,1.519-.439,2.277,2.277,0,0,0,.845-1.318l2.6.283a4.328,4.328,0,0,1-1.694,2.725A5.327,5.327,0,0,1,103.955,19.186Zm8.369-11.729a1.579,1.579,0,0,1-1.152-.474,1.555,1.555,0,0,1-.479-1.147,1.536,1.536,0,0,1,.483-1.138,1.584,1.584,0,0,1,1.147-.474,1.626,1.626,0,0,1,1.611,1.611,1.626,1.626,0,0,1-1.611,1.621ZM110.889,19V8.961h2.832V19Zm9.551-11.406L123,4l1.387.977-2.217,2.617Zm.869,11.6a6.313,6.313,0,0,1-2.842-.615,4.6,4.6,0,0,1-1.948-1.807,5.384,5.384,0,0,1-.708-2.8,4.911,4.911,0,0,1,1.523-3.809,6.368,6.368,0,0,1,7.959,0,4.911,4.911,0,0,1,1.523,3.809,4.938,4.938,0,0,1-1.523,3.823A5.654,5.654,0,0,1,121.309,19.2Zm-.029-2.236a2.577,2.577,0,0,0,1.987-.82,3.071,3.071,0,0,0,.757-2.168,3.071,3.071,0,0,0-.757-2.168,2.577,2.577,0,0,0-1.987-.82,2.483,2.483,0,0,0-1.929.825,3.1,3.1,0,0,0-.747,2.163,3.1,3.1,0,0,0,.747,2.163A2.483,2.483,0,0,0,121.279,16.959Zm13.555-8.193a3.914,3.914,0,0,1,2.773.9,3.349,3.349,0,0,1,.967,2.573V19h-2.822V12.848a1.749,1.749,0,0,0-.5-1.387,1.9,1.9,0,0,0-1.294-.439,2.643,2.643,0,0,0-.84.127,2.158,2.158,0,0,0-.7.4,1.748,1.748,0,0,0-.5.757,3.5,3.5,0,0,0-.19,1.162V19h-2.812V8.961h2.813v1.113A3.868,3.868,0,0,1,134.834,8.766Z" transform="translate(558 6707)" fill="#00223d"/>
    <path id="Trazado_27115" data-name="Trazado 27115" d="M6.787,9.215a4.366,4.366,0,0,1,1.738.352,4.276,4.276,0,0,1,1.426.986,4.61,4.61,0,0,1,.962,1.582,5.834,5.834,0,0,1,.356,2.07,5.076,5.076,0,0,1-1.294,3.623,4.2,4.2,0,0,1-3.188,1.377,3.8,3.8,0,0,1-2.007-.547,3.584,3.584,0,0,1-1.372-1.475v6.65H1.719V9.4H3.35l.039,1.865a3.514,3.514,0,0,1,1.367-1.5A3.835,3.835,0,0,1,6.787,9.215ZM6.455,17.74a2.915,2.915,0,0,0,2.222-.972,3.614,3.614,0,0,0,.9-2.563,3.6,3.6,0,0,0-.9-2.559,2.921,2.921,0,0,0-2.222-.967A2.929,2.929,0,0,0,4.2,11.69a3.6,3.6,0,0,0-.918,2.515A3.614,3.614,0,0,0,4.2,16.729,2.929,2.929,0,0,0,6.455,17.74ZM19,9.215a4.366,4.366,0,0,1,1.738.352,4.276,4.276,0,0,1,1.426.986,4.61,4.61,0,0,1,.962,1.582,5.834,5.834,0,0,1,.356,2.07,5.076,5.076,0,0,1-1.294,3.623A4.2,4.2,0,0,1,19,19.205,3.8,3.8,0,0,1,17,18.658a3.584,3.584,0,0,1-1.372-1.475v6.65H13.936V9.4h1.631l.039,1.865a3.514,3.514,0,0,1,1.367-1.5A3.835,3.835,0,0,1,19,9.215Zm-.332,8.525a2.915,2.915,0,0,0,2.222-.972,3.614,3.614,0,0,0,.9-2.563,3.6,3.6,0,0,0-.9-2.559,3.029,3.029,0,0,0-4.478.044,3.6,3.6,0,0,0-.918,2.515,3.614,3.614,0,0,0,.918,2.524A2.929,2.929,0,0,0,18.672,17.74ZM27.217,19.2a1.1,1.1,0,0,1-.8-.332,1.135,1.135,0,0,1,.8-1.934,1.1,1.1,0,0,1,.8.337,1.109,1.109,0,0,1,0,1.6A1.108,1.108,0,0,1,27.217,19.2Zm8.77-.01q-4.58,0-4.58-4.893l1.719-.088a4.294,4.294,0,0,0,.645,2.588,2.6,2.6,0,0,0,2.217.859,3.047,3.047,0,0,0,2.134-.742,2.5,2.5,0,0,0,.815-1.943,2.48,2.48,0,0,0-.786-1.934,2.819,2.819,0,0,0-1.968-.713H35.5V10.885h.664a2.035,2.035,0,0,0,1.5-.635,2.141,2.141,0,0,0,.625-1.562,1.925,1.925,0,0,0-.664-1.514,2.431,2.431,0,0,0-1.67-.586,2.658,2.658,0,0,0-1.1.205,1.542,1.542,0,0,0-.7.6,2.831,2.831,0,0,0-.352.874A5.123,5.123,0,0,0,33.7,9.381l-1.719-.059a4.452,4.452,0,0,1,1.03-3.154,3.818,3.818,0,0,1,2.935-1.1A4.077,4.077,0,0,1,38.765,6.07a3.214,3.214,0,0,1,1.128,2.5,3.011,3.011,0,0,1-.547,1.787,3.124,3.124,0,0,1-1.377,1.113A3.8,3.8,0,0,1,39.9,12.73a3.532,3.532,0,0,1,.752,2.314,3.782,3.782,0,0,1-1.313,3A4.926,4.926,0,0,1,35.986,19.186Zm11.357,0a3.83,3.83,0,0,1-3.389-1.8,9.581,9.581,0,0,1-1.191-5.273A9.625,9.625,0,0,1,43.94,6.852a4.117,4.117,0,0,1,6.792,0,9.6,9.6,0,0,1,1.182,5.259,9.554,9.554,0,0,1-1.2,5.269A3.822,3.822,0,0,1,47.344,19.186Zm0-1.562a2.326,2.326,0,0,0,2.139-1.377,8.977,8.977,0,0,0,.742-4.131,8.724,8.724,0,0,0-.757-4.126,2.35,2.35,0,0,0-4.253,0,8.768,8.768,0,0,0-.752,4.131,9.024,9.024,0,0,0,.737,4.136A2.323,2.323,0,0,0,47.344,17.623ZM54.639,14.5V13.1h7v1.4Zm14.287-9.4a4.8,4.8,0,0,1,3.413,1.294,4.363,4.363,0,0,1,1.382,3.335,5.415,5.415,0,0,1-1.2,3.3L67.92,19H65.9l3.8-4.785a4.436,4.436,0,0,1-1.152.146,4.224,4.224,0,0,1-3.7-2.114,4.7,4.7,0,0,1-.654-2.407A4.938,4.938,0,0,1,64.546,7.9a4.267,4.267,0,0,1,1.011-1.5,4.706,4.706,0,0,1,1.519-.957A4.973,4.973,0,0,1,68.926,5.094Zm-2.183,7.08a3.117,3.117,0,0,0,2.251.859,2.94,2.94,0,0,0,2.241-.942,3.167,3.167,0,0,0,.864-2.3,3.07,3.07,0,0,0-.889-2.285A3.406,3.406,0,0,0,66.7,7.55a3.036,3.036,0,0,0-.874,2.319A3.111,3.111,0,0,0,66.743,12.174Zm13.472,7.012a3.83,3.83,0,0,1-3.389-1.8,9.581,9.581,0,0,1-1.191-5.273,9.625,9.625,0,0,1,1.177-5.264,4.117,4.117,0,0,1,6.792,0,9.6,9.6,0,0,1,1.182,5.259,9.554,9.554,0,0,1-1.2,5.269A3.822,3.822,0,0,1,80.215,19.186Zm0-1.562a2.326,2.326,0,0,0,2.139-1.377,8.977,8.977,0,0,0,.742-4.131,8.724,8.724,0,0,0-.757-4.126,2.35,2.35,0,0,0-4.253,0,8.768,8.768,0,0,0-.752,4.131,9.024,9.024,0,0,0,.737,4.136A2.323,2.323,0,0,0,80.215,17.623Z" transform="translate(558 6734)" fill="#00223d"/>
    <path id="Trazado_27120" data-name="Trazado 27120" d="M9.277,19,5.605,12.789h-.85V19H1.826V4.889H6.943a5.919,5.919,0,0,1,2.051.327,3.546,3.546,0,0,1,1.421.908,3.889,3.889,0,0,1,.8,1.333,4.876,4.876,0,0,1,.269,1.65,3.446,3.446,0,0,1-.771,2.319A3.888,3.888,0,0,1,8.5,12.643L12.744,19ZM4.756,7.32v3.369H6.484q2.2,0,2.2-1.68a1.53,1.53,0,0,0-.537-1.24,2.554,2.554,0,0,0-1.66-.449Zm18.613,6.514-.029.674H15.9a2.6,2.6,0,0,0,.8,1.836,2.561,2.561,0,0,0,1.768.635,2.468,2.468,0,0,0,1.323-.347,2.131,2.131,0,0,0,.845-1.011L23.213,16a4.383,4.383,0,0,1-1.758,2.354,5.226,5.226,0,0,1-2.969.84,5.435,5.435,0,0,1-3.911-1.382,5.042,5.042,0,0,1-1.45-3.833,5.072,5.072,0,0,1,1.455-3.833,5.273,5.273,0,0,1,3.818-1.4A5.04,5.04,0,0,1,22,10.025,5.019,5.019,0,0,1,23.369,13.834Zm-4.951-3.1a2.222,2.222,0,0,0-2.441,1.934h4.609a2.114,2.114,0,0,0-.693-1.436A2.2,2.2,0,0,0,18.418,10.738ZM29.043,19.2a5.61,5.61,0,0,1-2.93-.7,2.972,2.972,0,0,1-1.436-2.09l2.354-.664a1.891,1.891,0,0,0,2.012,1.494A2.078,2.078,0,0,0,30.068,17a.8.8,0,0,0,.4-.776.821.821,0,0,0-.166-.518,1.315,1.315,0,0,0-.513-.371,6.387,6.387,0,0,0-.684-.264q-.337-.107-.894-.259t-.928-.288a6.215,6.215,0,0,1-.884-.376,3.77,3.77,0,0,1-.732-.518,2.086,2.086,0,0,1-.547-.786,2.836,2.836,0,0,1-.19-1.074,2.565,2.565,0,0,1,1.089-2.246,4.865,4.865,0,0,1,2.847-.762,4.988,4.988,0,0,1,2.627.645,2.917,2.917,0,0,1,1.348,2.012l-2.178.488a1.706,1.706,0,0,0-1.787-1.27,1.957,1.957,0,0,0-.986.225.722.722,0,0,0-.391.664.761.761,0,0,0,.059.3.6.6,0,0,0,.205.244,2.991,2.991,0,0,0,.283.186,2.137,2.137,0,0,0,.4.161q.264.083.439.127l.513.132.522.137q.537.146.942.293a5.519,5.519,0,0,1,.864.41,3.1,3.1,0,0,1,.757.591,2.635,2.635,0,0,1,.493.83,3.066,3.066,0,0,1,.2,1.118,3.02,3.02,0,0,1-.337,1.455,2.529,2.529,0,0,1-.923.981,4.492,4.492,0,0,1-1.3.527A6.763,6.763,0,0,1,29.043,19.2Zm10.83,0a6.313,6.313,0,0,1-2.842-.615,4.6,4.6,0,0,1-1.948-1.807,5.384,5.384,0,0,1-.708-2.8A4.911,4.911,0,0,1,35.9,10.162a5.652,5.652,0,0,1,3.975-1.4,5.665,5.665,0,0,1,3.984,1.4,4.911,4.911,0,0,1,1.523,3.809,4.938,4.938,0,0,1-1.523,3.823A5.654,5.654,0,0,1,39.873,19.2Zm-.029-2.236a2.577,2.577,0,0,0,1.987-.82,3.071,3.071,0,0,0,.757-2.168,3.071,3.071,0,0,0-.757-2.168,2.577,2.577,0,0,0-1.987-.82,2.483,2.483,0,0,0-1.929.825,3.1,3.1,0,0,0-.747,2.163,3.1,3.1,0,0,0,.747,2.163A2.483,2.483,0,0,0,39.844,16.959ZM47.471,19V4h2.842V19Zm12.4-10.039h2.813V19H60.02l-.068-1.211A3.834,3.834,0,0,1,56.758,19.2a3.914,3.914,0,0,1-2.773-.9,3.349,3.349,0,0,1-.967-2.573V8.961H55.84v6.152a1.735,1.735,0,0,0,.5,1.377,1.909,1.909,0,0,0,1.3.439,2.264,2.264,0,0,0,1.6-.571,2.454,2.454,0,0,0,.63-1.86ZM70.137,19.186A5.364,5.364,0,0,1,66.26,17.74a4.992,4.992,0,0,1-1.5-3.77,4.981,4.981,0,0,1,1.5-3.77,5.96,5.96,0,0,1,7.134-.469,4.316,4.316,0,0,1,1.68,2.725l-2.6.283a2.226,2.226,0,0,0-.84-1.318,2.554,2.554,0,0,0-1.523-.439,2.3,2.3,0,0,0-1.836.82,3.216,3.216,0,0,0-.7,2.168,3.22,3.22,0,0,0,.7,2.163,2.3,2.3,0,0,0,1.836.825,2.532,2.532,0,0,0,1.519-.439,2.277,2.277,0,0,0,.845-1.318l2.6.283a4.328,4.328,0,0,1-1.694,2.725A5.327,5.327,0,0,1,70.137,19.186ZM78.506,7.457a1.579,1.579,0,0,1-1.152-.474,1.555,1.555,0,0,1-.479-1.147A1.536,1.536,0,0,1,77.358,4.7a1.584,1.584,0,0,1,1.147-.474,1.626,1.626,0,0,1,1.611,1.611,1.626,1.626,0,0,1-1.611,1.621ZM77.07,19V8.961H79.9V19ZM86.621,7.594,89.18,4l1.387.977L88.35,7.594Zm.869,11.6a6.313,6.313,0,0,1-2.842-.615A4.6,4.6,0,0,1,82.7,16.773a5.384,5.384,0,0,1-.708-2.8,4.911,4.911,0,0,1,1.523-3.809,6.368,6.368,0,0,1,7.959,0A4.911,4.911,0,0,1,93,13.971a4.938,4.938,0,0,1-1.523,3.823A5.654,5.654,0,0,1,87.49,19.2Zm-.029-2.236a2.577,2.577,0,0,0,1.987-.82,3.071,3.071,0,0,0,.757-2.168,3.071,3.071,0,0,0-.757-2.168,2.577,2.577,0,0,0-1.987-.82,2.483,2.483,0,0,0-1.929.825,3.1,3.1,0,0,0-.747,2.163,3.1,3.1,0,0,0,.747,2.163A2.483,2.483,0,0,0,87.461,16.959Zm13.555-8.193a3.914,3.914,0,0,1,2.773.9,3.349,3.349,0,0,1,.967,2.573V19h-2.822V12.848a1.749,1.749,0,0,0-.5-1.387,1.9,1.9,0,0,0-1.294-.439,2.643,2.643,0,0,0-.84.127,2.158,2.158,0,0,0-.7.4,1.748,1.748,0,0,0-.5.757,3.5,3.5,0,0,0-.19,1.162V19H95.088V8.961H97.9v1.113A3.868,3.868,0,0,1,101.016,8.766Z" transform="translate(877 6707)" fill="#00223d"/>
    <path id="Trazado_27116" data-name="Trazado 27116" d="M6.787,9.215a4.366,4.366,0,0,1,1.738.352,4.276,4.276,0,0,1,1.426.986,4.61,4.61,0,0,1,.962,1.582,5.834,5.834,0,0,1,.356,2.07,5.076,5.076,0,0,1-1.294,3.623,4.2,4.2,0,0,1-3.188,1.377,3.8,3.8,0,0,1-2.007-.547,3.584,3.584,0,0,1-1.372-1.475v6.65H1.719V9.4H3.35l.039,1.865a3.514,3.514,0,0,1,1.367-1.5A3.835,3.835,0,0,1,6.787,9.215ZM6.455,17.74a2.915,2.915,0,0,0,2.222-.972,3.614,3.614,0,0,0,.9-2.563,3.6,3.6,0,0,0-.9-2.559,2.921,2.921,0,0,0-2.222-.967A2.929,2.929,0,0,0,4.2,11.69a3.6,3.6,0,0,0-.918,2.515A3.614,3.614,0,0,0,4.2,16.729,2.929,2.929,0,0,0,6.455,17.74ZM19,9.215a4.366,4.366,0,0,1,1.738.352,4.276,4.276,0,0,1,1.426.986,4.61,4.61,0,0,1,.962,1.582,5.834,5.834,0,0,1,.356,2.07,5.076,5.076,0,0,1-1.294,3.623A4.2,4.2,0,0,1,19,19.205,3.8,3.8,0,0,1,17,18.658a3.584,3.584,0,0,1-1.372-1.475v6.65H13.936V9.4h1.631l.039,1.865a3.514,3.514,0,0,1,1.367-1.5A3.835,3.835,0,0,1,19,9.215Zm-.332,8.525a2.915,2.915,0,0,0,2.222-.972,3.614,3.614,0,0,0,.9-2.563,3.6,3.6,0,0,0-.9-2.559,3.029,3.029,0,0,0-4.478.044,3.6,3.6,0,0,0-.918,2.515,3.614,3.614,0,0,0,.918,2.524A2.929,2.929,0,0,0,18.672,17.74ZM35.234,5.094a4.8,4.8,0,0,1,3.413,1.294,4.363,4.363,0,0,1,1.382,3.335,5.415,5.415,0,0,1-1.2,3.3L34.229,19H32.207l3.8-4.785a4.436,4.436,0,0,1-1.152.146,4.224,4.224,0,0,1-3.7-2.114A4.7,4.7,0,0,1,30.5,9.84,4.938,4.938,0,0,1,30.854,7.9a4.267,4.267,0,0,1,1.011-1.5,4.706,4.706,0,0,1,1.519-.957A4.973,4.973,0,0,1,35.234,5.094Zm-2.183,7.08a3.117,3.117,0,0,0,2.251.859,2.94,2.94,0,0,0,2.241-.942,3.167,3.167,0,0,0,.864-2.3,3.07,3.07,0,0,0-.889-2.285,3.406,3.406,0,0,0-4.507.044,3.036,3.036,0,0,0-.874,2.319A3.111,3.111,0,0,0,33.052,12.174Zm13.472,7.012a3.83,3.83,0,0,1-3.389-1.8,9.581,9.581,0,0,1-1.191-5.273A9.625,9.625,0,0,1,43.12,6.852a4.117,4.117,0,0,1,6.792,0,9.6,9.6,0,0,1,1.182,5.259,9.554,9.554,0,0,1-1.2,5.269A3.822,3.822,0,0,1,46.523,19.186Zm0-1.562a2.326,2.326,0,0,0,2.139-1.377,8.977,8.977,0,0,0,.742-4.131,8.724,8.724,0,0,0-.757-4.126,2.35,2.35,0,0,0-4.253,0,8.768,8.768,0,0,0-.752,4.131,9.024,9.024,0,0,0,.737,4.136A2.323,2.323,0,0,0,46.523,17.623ZM53.818,14.5V13.1h7v1.4ZM68.232,5.25h1.582V19h-1.67V7.1l-3.3,2.861V8.15Zm8.936,12.2h6.846V19H74.736V17.721l5.508-5.693a6.524,6.524,0,0,0,1.24-1.631,3.254,3.254,0,0,0,.342-1.416,2.373,2.373,0,0,0-.693-1.821,2.831,2.831,0,0,0-3.677.059,3.046,3.046,0,0,0-.7,2.212v1.016l-1.689-.156v-.85A4.346,4.346,0,0,1,76.23,6.173a4.811,4.811,0,0,1,6.089-.083,3.634,3.634,0,0,1,1.167,2.852,4.324,4.324,0,0,1-.464,1.987,8.543,8.543,0,0,1-1.489,1.978Zm13.486,1.738a3.83,3.83,0,0,1-3.389-1.8,9.581,9.581,0,0,1-1.191-5.273,9.625,9.625,0,0,1,1.177-5.264,4.117,4.117,0,0,1,6.792,0,9.6,9.6,0,0,1,1.182,5.259,9.554,9.554,0,0,1-1.2,5.269A3.822,3.822,0,0,1,90.654,19.186Zm0-1.562a2.326,2.326,0,0,0,2.139-1.377,8.977,8.977,0,0,0,.742-4.131,8.724,8.724,0,0,0-.757-4.126,2.35,2.35,0,0,0-4.253,0,8.768,8.768,0,0,0-.752,4.131,9.024,9.024,0,0,0,.737,4.136A2.323,2.323,0,0,0,90.654,17.623Z" transform="translate(877 6734)" fill="#00223d"/>
    <path id="Trazado_27131" data-name="Trazado 27131" d="M126.126,19h-2.92l-.928-10.635L118.7,19H116.81L113.235,8.365,112.3,19h-2.93L110.55,4.889h4.18l3.008,8.857,3.047-8.857h4.18Zm11.25-11.533h-5.234v3.2h4.639v2.549h-4.639v3.193h5.234V19h-8.184V4.889h8.184ZM140.394,19V4.889H145.5a7.962,7.962,0,0,1,2.944.508,5.423,5.423,0,0,1,2.109,1.44,6.266,6.266,0,0,1,1.25,2.222,9.172,9.172,0,0,1,.425,2.881,9.206,9.206,0,0,1-.425,2.891,6.266,6.266,0,0,1-1.25,2.222,5.423,5.423,0,0,1-2.109,1.44A7.962,7.962,0,0,1,145.5,19Zm2.93-2.588h2.031a3.466,3.466,0,0,0,2.852-1.147,5.143,5.143,0,0,0,.938-3.325,5.143,5.143,0,0,0-.937-3.325,3.466,3.466,0,0,0-2.852-1.147h-2.031ZM154.974,19V4.889h2.93V19Zm12.822.2a7.671,7.671,0,0,1-3.706-.884,6.407,6.407,0,0,1-2.573-2.544,7.651,7.651,0,0,1-.937-3.828,7.644,7.644,0,0,1,.938-3.833,6.382,6.382,0,0,1,2.573-2.534,8.243,8.243,0,0,1,7.407,0,6.391,6.391,0,0,1,2.568,2.534A7.644,7.644,0,0,1,175,11.939a7.651,7.651,0,0,1-.937,3.828,6.407,6.407,0,0,1-2.573,2.544A7.65,7.65,0,0,1,167.8,19.2Zm-3.086-3.921a4.472,4.472,0,0,0,6.172,0,4.558,4.558,0,0,0,1.211-3.335,4.528,4.528,0,0,0-1.211-3.32,4.485,4.485,0,0,0-6.172,0,4.528,4.528,0,0,0-1.211,3.32A4.558,4.558,0,0,0,164.71,15.274Z" transform="translate(526 6562)" fill="#002b45"/>
    <path id="Trazado_27134" data-name="Trazado 27134" d="M106.275,27l-1.436-4.074h-8.3L95.105,27h-4.2L98.182,7.244H103.2L110.473,27Zm-8.531-7.506h5.893L100.7,11.113Zm23.461,7.779a11.027,11.027,0,0,1-4.026-.725,9.468,9.468,0,0,1-3.206-2.023,9.121,9.121,0,0,1-2.105-3.213,11.2,11.2,0,0,1-.766-4.2,10.7,10.7,0,0,1,1.313-5.366,8.935,8.935,0,0,1,3.6-3.548,10.787,10.787,0,0,1,5.188-1.23,10.483,10.483,0,0,1,5.8,1.6,8.756,8.756,0,0,1,3.541,4.4l-3.828,1.395A5.412,5.412,0,0,0,124.6,11.7a6.053,6.053,0,0,0-3.391-.957,5.8,5.8,0,0,0-4.32,1.723,6.339,6.339,0,0,0-1.7,4.648,6.348,6.348,0,0,0,1.7,4.655,5.8,5.8,0,0,0,4.313,1.729,6.03,6.03,0,0,0,3.384-.964,5.436,5.436,0,0,0,2.126-2.673l3.828,1.395A8.792,8.792,0,0,1,127,25.667,10.45,10.45,0,0,1,121.205,27.273ZM145.363,7.244v3.609h-4.689V27h-4.061V10.854H131.9V7.244ZM156.52,27.273a10.739,10.739,0,0,1-5.188-1.237,8.97,8.97,0,0,1-3.6-3.562,10.711,10.711,0,0,1-1.312-5.359,10.7,10.7,0,0,1,1.313-5.366,8.936,8.936,0,0,1,3.6-3.548,11.54,11.54,0,0,1,10.37,0,8.947,8.947,0,0,1,3.6,3.548,10.7,10.7,0,0,1,1.313,5.366,10.711,10.711,0,0,1-1.312,5.359,8.97,8.97,0,0,1-3.6,3.562A10.71,10.71,0,0,1,156.52,27.273Zm-4.32-5.489a6.261,6.261,0,0,0,8.641,0,6.381,6.381,0,0,0,1.7-4.669,6.339,6.339,0,0,0-1.7-4.648,6.279,6.279,0,0,0-8.641,0,6.339,6.339,0,0,0-1.7,4.648A6.381,6.381,0,0,0,152.2,21.784ZM177.656,27V7.244h4.1V27Zm9.2,0V7.244h4.1V27Z" transform="translate(526 6525)" fill="#002b45"/>
    <path id="Trazado_27132" data-name="Trazado 27132" d="M93.77,7.467H88.4v3.2h4.639v2.549H88.4V19H85.449V4.889h8.32ZM96.27,19V4.889H99.2V19ZM112.48,4.889h2.92V19h-3.389l-6.25-10.088V19h-2.92V4.889h3.35l6.289,10.029ZM128.5,19l-1.025-2.91h-5.928L120.518,19h-3l5.2-14.111H126.3L131.494,19ZM122.4,13.639h4.209l-2.1-5.986Zm14.141,2.773h4.424V19h-7.354V4.889h2.93Z" transform="translate(833 6562)" fill="#002b45"/>
    <path id="Trazado_27135" data-name="Trazado 27135" d="M72.175,27l-1.436-4.074h-8.3L61,27h-4.2L64.081,7.244H69.1L76.372,27Zm-8.531-7.506h5.893L66.6,11.113ZM87.1,27.273a11.027,11.027,0,0,1-4.026-.725,9.468,9.468,0,0,1-3.206-2.023,9.121,9.121,0,0,1-2.105-3.213,11.2,11.2,0,0,1-.766-4.2,10.7,10.7,0,0,1,1.313-5.366,8.935,8.935,0,0,1,3.6-3.548A10.787,10.787,0,0,1,87.1,6.971a10.483,10.483,0,0,1,5.8,1.6,8.756,8.756,0,0,1,3.541,4.4l-3.828,1.395A5.412,5.412,0,0,0,90.5,11.7a6.053,6.053,0,0,0-3.391-.957,5.8,5.8,0,0,0-4.32,1.723,6.339,6.339,0,0,0-1.7,4.648,6.348,6.348,0,0,0,1.7,4.655A5.8,5.8,0,0,0,87.1,23.5a6.03,6.03,0,0,0,3.384-.964,5.436,5.436,0,0,0,2.126-2.673l3.828,1.395A8.792,8.792,0,0,1,92.9,25.667,10.45,10.45,0,0,1,87.1,27.273ZM111.263,7.244v3.609h-4.689V27h-4.061V10.854H97.8V7.244Zm11.156,20.029a10.739,10.739,0,0,1-5.188-1.237,8.969,8.969,0,0,1-3.6-3.562,10.711,10.711,0,0,1-1.312-5.359,10.7,10.7,0,0,1,1.313-5.366,8.935,8.935,0,0,1,3.6-3.548,11.54,11.54,0,0,1,10.37,0,8.947,8.947,0,0,1,3.6,3.548,10.7,10.7,0,0,1,1.313,5.366,10.711,10.711,0,0,1-1.312,5.359,8.97,8.97,0,0,1-3.6,3.562A10.71,10.71,0,0,1,122.419,27.273Zm-4.32-5.489a6.261,6.261,0,0,0,8.641,0,6.381,6.381,0,0,0,1.7-4.669,6.339,6.339,0,0,0-1.7-4.648,6.279,6.279,0,0,0-8.641,0,6.339,6.339,0,0,0-1.7,4.648A6.381,6.381,0,0,0,118.1,21.784ZM143.556,27V7.244h4.1V27Zm9.2,0V7.244h4.1V27Zm9.2,0V7.244h4.1V27Z" transform="translate(833 6525)" fill="#002b45"/>
    <path id="Trazado_27121" data-name="Trazado 27121" d="M0,0H808" transform="translate(249.5 6680.5)" fill="none" stroke="#707070" stroke-width="4"/>
    <path id="Trazado_27122" data-name="Trazado 27122" d="M0,0V379.275" transform="translate(517.5 6517.5)" fill="none" stroke="#707070" stroke-width="3"/>
    <path id="Trazado_27123" data-name="Trazado 27123" d="M0,0V116" transform="translate(465.5 6694.5)" fill="none" stroke="#707070" stroke-width="3"/>
    <path id="Trazado_27117" data-name="Trazado 27117" d="M0,0V116" transform="translate(772.5 6694.5)" fill="none" stroke="#707070" stroke-width="3"/>
    <path id="Trazado_27113" data-name="Trazado 27113" d="M0,0V379.275" transform="translate(824.5 6517.5)" fill="none" stroke="#707070" stroke-width="3"/>
    <g id="Trazado_27124" data-name="Trazado 27124" transform="translate(450 6666)" fill="#fff">
      <path d="M 15 28.5 C 11.39402008056641 28.5 8.003870010375977 27.09575080871582 5.454060077667236 24.54594039916992 C 2.904249906539917 21.99612998962402 1.5 18.60597991943359 1.5 15 C 1.5 11.39402008056641 2.904249906539917 8.003870010375977 5.454060077667236 5.454060077667236 C 8.003870010375977 2.904249906539917 11.39402008056641 1.5 15 1.5 C 18.60597991943359 1.5 21.99612998962402 2.904249906539917 24.54594039916992 5.454060077667236 C 27.09575080871582 8.003870010375977 28.5 11.39402008056641 28.5 15 C 28.5 18.60597991943359 27.09575080871582 21.99612998962402 24.54594039916992 24.54594039916992 C 21.99612998962402 27.09575080871582 18.60597991943359 28.5 15 28.5 Z" stroke="none"/>
      <path d="M 15 3 C 11.79467964172363 3 8.781219482421875 4.248220443725586 6.514720916748047 6.514720916748047 C 4.248220443725586 8.781219482421875 3 11.79467964172363 3 15 C 3 18.20532035827637 4.248220443725586 21.21878051757813 6.514720916748047 23.48527908325195 C 8.781219482421875 25.75177955627441 11.79467964172363 27 15 27 C 18.20532035827637 27 21.21878051757813 25.75177955627441 23.48527908325195 23.48527908325195 C 25.75177955627441 21.21878051757813 27 18.20532035827637 27 15 C 27 11.79467964172363 25.75177955627441 8.781219482421875 23.48527908325195 6.514720916748047 C 21.21878051757813 4.248220443725586 18.20532035827637 3 15 3 M 15 0 C 23.28426933288574 0 30 6.715730667114258 30 15 C 30 23.28426933288574 23.28426933288574 30 15 30 C 6.715730667114258 30 0 23.28426933288574 0 15 C 0 6.715730667114258 6.715730667114258 0 15 0 Z" stroke="none" fill="#707070"/>
    </g>
    <g id="Trazado_27125" data-name="Trazado 27125" transform="translate(757 6666)" fill="#fff">
      <path d="M 15 28.5 C 11.39402008056641 28.5 8.003870010375977 27.09575080871582 5.454060077667236 24.54594039916992 C 2.904249906539917 21.99612998962402 1.5 18.60597991943359 1.5 15 C 1.5 11.39402008056641 2.904249906539917 8.003870010375977 5.454060077667236 5.454060077667236 C 8.003870010375977 2.904249906539917 11.39402008056641 1.5 15 1.5 C 18.60597991943359 1.5 21.99612998962402 2.904249906539917 24.54594039916992 5.454060077667236 C 27.09575080871582 8.003870010375977 28.5 11.39402008056641 28.5 15 C 28.5 18.60597991943359 27.09575080871582 21.99612998962402 24.54594039916992 24.54594039916992 C 21.99612998962402 27.09575080871582 18.60597991943359 28.5 15 28.5 Z" stroke="none"/>
      <path d="M 15 3 C 11.79467964172363 3 8.781219482421875 4.248220443725586 6.514720916748047 6.514720916748047 C 4.248220443725586 8.781219482421875 3 11.79467964172363 3 15 C 3 18.20532035827637 4.248220443725586 21.21878051757813 6.514720916748047 23.48527908325195 C 8.781219482421875 25.75177955627441 11.79467964172363 27 15 27 C 18.20532035827637 27 21.21878051757813 25.75177955627441 23.48527908325195 23.48527908325195 C 25.75177955627441 21.21878051757813 27 18.20532035827637 27 15 C 27 11.79467964172363 25.75177955627441 8.781219482421875 23.48527908325195 6.514720916748047 C 21.21878051757813 4.248220443725586 18.20532035827637 3 15 3 M 15 0 C 23.28426933288574 0 30 6.715730667114258 30 15 C 30 23.28426933288574 23.28426933288574 30 15 30 C 6.715730667114258 30 0 23.28426933288574 0 15 C 0 6.715730667114258 6.715730667114258 0 15 0 Z" stroke="none" fill="#707070"/>
    </g>
    <path id="Trazado_27126" data-name="Trazado 27126" d="M7,0A7,7,0,1,1,0,7,7,7,0,0,1,7,0Z" transform="translate(458 6674)" fill="#65b3f2"/>
    <path id="Trazado_27127" data-name="Trazado 27127" d="M7,0A7,7,0,1,1,0,7,7,7,0,0,1,7,0Z" transform="translate(765 6674)" fill="#65b3f2"/>
  </g>
</svg>
